<?xml version="1.0" encoding="UTF-8"?>

<!DOCTYPE svg PUBLIC '-//W3C//DTD SVG 1.0//EN' 'http://www.w3.org/TR/2001/REC-SVG-20010904/DTD/svg10.dtd'>
<svg style="fill-opacity:1; color-rendering:auto; color-interpolation:auto; text-rendering:auto; stroke:black; stroke-linecap:square; stroke-miterlimit:10; shape-rendering:auto; stroke-opacity:1; fill:black; stroke-dasharray:none; font-weight:normal; stroke-width:1; font-family:&apos;Dialog&apos;; font-style:normal; stroke-linejoin:miter; font-size:12; stroke-dashoffset:0; image-rendering:auto;" xmlns="http://www.w3.org/2000/svg" width="596" xmlns:xlink="http://www.w3.org/1999/xlink" height="298">
  <!--Generated by Selena using Batik-->
  <defs id="genericDefs" />
  <g>
    <defs id="defs1">
      <clipPath clipPathUnits="userSpaceOnUse" id="clipPath1">
        <path d="M0 0 L12000 0 L12000 12000 L0 12000 L0 0 Z" />
      </clipPath>
      <clipPath clipPathUnits="userSpaceOnUse" id="clipPath36">
        <path d="M133 28 L424 28 L424 128 L133 128 L133 28 Z" />
      </clipPath>
      <clipPath clipPathUnits="userSpaceOnUse" id="clipPath37">
        <path d="M0 0 L5 0 L5 21 L0 21 L0 0 Z" />
      </clipPath>
      <clipPath clipPathUnits="userSpaceOnUse" id="clipPath38">
        <path d="M0 0 L1 0 L1 17 L0 17 L0 0 Z" />
      </clipPath>
      <clipPath clipPathUnits="userSpaceOnUse" id="clipPath39">
        <path d="M99 -11 L168 -11 L168 133 L99 133 L99 -11 Z" />
      </clipPath>
      <clipPath clipPathUnits="userSpaceOnUse" id="clipPath40">
        <path d="M251 118 L322 118 L322 221 L251 221 L251 118 Z" />
      </clipPath>
      <clipPath clipPathUnits="userSpaceOnUse" id="clipPath41">
        <path d="M0 0 L57 0 L57 21 L0 21 L0 0 Z" />
      </clipPath>
      <clipPath clipPathUnits="userSpaceOnUse" id="clipPath42">
        <path d="M145 98 L182 98 L182 155 L145 155 L145 98 Z" />
      </clipPath>
      <clipPath clipPathUnits="userSpaceOnUse" id="clipPath43">
        <path d="M-6 0 L152 0 L152 83 L-6 83 L-6 0 Z" />
      </clipPath>
      <clipPath clipPathUnits="userSpaceOnUse" id="clipPath44">
        <path d="M133 -3 L415 -3 L415 72 L133 72 L133 -3 Z" />
      </clipPath>
      <clipPath clipPathUnits="userSpaceOnUse" id="clipPath45">
        <path d="M133 -10 L415 -10 L415 51 L133 51 L133 -10 Z" />
      </clipPath>
      <clipPath clipPathUnits="userSpaceOnUse" id="clipPath46">
        <path d="M376 -25 L452 -25 L452 65 L376 65 L376 -25 Z" />
      </clipPath>
      <clipPath clipPathUnits="userSpaceOnUse" id="clipPath47">
        <path d="M133 -2 L415 -2 L415 49 L133 49 L133 -2 Z" />
      </clipPath>
      <clipPath clipPathUnits="userSpaceOnUse" id="clipPath48">
        <path d="M549 116 L583 116 L583 193 L549 193 L549 116 Z" />
      </clipPath>
      <clipPath clipPathUnits="userSpaceOnUse" id="clipPath49">
        <path d="M133 -9 L211 -9 L211 74 L133 74 L133 -9 Z" />
      </clipPath>
    </defs>
    <g style="fill:white; stroke:white;">
      <rect x="0" y="0" width="596" style="clip-path:url(#clipPath1); stroke:none;" height="298" />
      <rect x="0" y="0" width="595" style="clip-path:url(#clipPath1); fill:none; stroke:blue;" height="297" />
    </g>
    <a onclick="onClick(evt, &apos;../../../../../../nexd/de/xplib/nexd/engine/xapi/xapi.html&apos;)">
      <g>
        <defs id="defs2">
          <clipPath clipPathUnits="userSpaceOnUse" id="clipPath2">
            <path d="M152 1 L191 1 L191 46 L152 46 L152 1 Z" />
          </clipPath>
          <clipPath clipPathUnits="userSpaceOnUse" id="clipPath3">
            <path d="M0 0 L37 0 L37 17 L0 17 L0 0 Z" />
          </clipPath>
        </defs>
        <g style="fill:white; font-size:11; stroke:white;" transform="translate(6,25)">
          <polygon style="clip-path:url(#clipPath2); stroke:none;" points=" 152 21 190 21 190 45 152 45 152 21" />
          <polygon style="clip-path:url(#clipPath2); stroke:none;" points=" 152 1 171 1 171 21 152 21 152 1" />
          <path d="M152 21 L190 21 L190 45 L152 45 L152 21" style="fill:none; clip-path:url(#clipPath2); stroke:black;" />
          <path d="M152 1 L171 1 L171 21 L152 21 L152 1" style="fill:none; clip-path:url(#clipPath2); stroke:black;" />
          <text x="5" y="11" transform="translate(153,25)" style="clip-path:url(#clipPath3); fill:black; stroke:none; font-weight:bold;" xml:space="preserve">xapi</text>
        </g>
      </g>
    </a>
    <a onclick="onClick(evt, &apos;../../../../../../nexd/de/xplib/nexd/engine/SchemaChecker.html&apos;)">
      <g>
        <defs id="defs3">
          <clipPath clipPathUnits="userSpaceOnUse" id="clipPath4">
            <path d="M152 65 L266 65 L266 93 L152 93 L152 65 Z" />
          </clipPath>
          <clipPath clipPathUnits="userSpaceOnUse" id="clipPath5">
            <path d="M0 0 L112 0 L112 17 L0 17 L0 0 Z" />
          </clipPath>
        </defs>
        <g style="fill:white; font-size:11; stroke:white;" transform="translate(6,25)">
          <rect x="152" y="65" width="114" style="clip-path:url(#clipPath4); stroke:none;" height="28" />
          <rect x="152" y="65" width="113" style="clip-path:url(#clipPath4); fill:none; stroke:black;" height="27" />
          <text x="5" y="11" transform="translate(153,72)" style="clip-path:url(#clipPath5); fill:black; stroke:none; font-weight:bold;" xml:space="preserve">SchemaChecker</text>
        </g>
      </g>
    </a>
    <a onclick="onClick(evt, &apos;../../../../../../nexd/de/xplib/nexd/engine/VirtualCollectionManager.html&apos;)">
      <g>
        <defs id="defs4">
          <clipPath clipPathUnits="userSpaceOnUse" id="clipPath6">
            <path d="M414 1 L585 1 L585 29 L414 29 L414 1 Z" />
          </clipPath>
          <clipPath clipPathUnits="userSpaceOnUse" id="clipPath7">
            <path d="M0 0 L169 0 L169 17 L0 17 L0 0 Z" />
          </clipPath>
        </defs>
        <g style="fill:white; font-size:11; stroke:white;" transform="translate(6,25)">
          <rect x="414" y="1" width="171" style="clip-path:url(#clipPath6); stroke:none;" height="28" />
          <rect x="414" y="1" width="170" style="clip-path:url(#clipPath6); fill:none; stroke:black;" height="27" />
          <text x="5" y="11" transform="translate(415,8)" style="clip-path:url(#clipPath7); fill:black; stroke:none; font-weight:bold;" xml:space="preserve">VirtualCollectionManager</text>
        </g>
      </g>
    </a>
    <a onclick="onClick(evt, &apos;../../../../../../nexd/de/xplib/nexd/engine/SchemaValidator.html&apos;)">
      <g>
        <defs id="defs5">
          <clipPath clipPathUnits="userSpaceOnUse" id="clipPath8">
            <path d="M16 140 L135 140 L135 168 L16 168 L16 140 Z" />
          </clipPath>
          <clipPath clipPathUnits="userSpaceOnUse" id="clipPath9">
            <path d="M0 0 L117 0 L117 17 L0 17 L0 0 Z" />
          </clipPath>
        </defs>
        <g style="fill:white; font-size:11; stroke:white;" transform="translate(6,25)">
          <rect x="16" y="140" width="119" style="clip-path:url(#clipPath8); stroke:none;" height="28" />
          <rect x="16" y="140" width="118" style="clip-path:url(#clipPath8); fill:none; stroke:black;" height="27" />
          <text x="5" y="11" transform="translate(17,147)" style="clip-path:url(#clipPath9); fill:black; stroke:none; font-weight:bold;" xml:space="preserve">SchemaValidator</text>
        </g>
      </g>
    </a>
    <a onclick="onClick(evt, &apos;../../../../../../nexd/de/xplib/nexd/engine/store/store.html&apos;)">
      <g>
        <defs id="defs6">
          <clipPath clipPathUnits="userSpaceOnUse" id="clipPath10">
            <path d="M274 140 L318 140 L318 185 L274 185 L274 140 Z" />
          </clipPath>
          <clipPath clipPathUnits="userSpaceOnUse" id="clipPath11">
            <path d="M0 0 L42 0 L42 17 L0 17 L0 0 Z" />
          </clipPath>
        </defs>
        <g style="fill:white; font-size:11; stroke:white;" transform="translate(6,25)">
          <polygon style="clip-path:url(#clipPath10); stroke:none;" points=" 274 160 317 160 317 184 274 184 274 160" />
          <polygon style="clip-path:url(#clipPath10); stroke:none;" points=" 274 140 295 140 295 160 274 160 274 140" />
          <path d="M274 160 L317 160 L317 184 L274 184 L274 160" style="fill:none; clip-path:url(#clipPath10); stroke:black;" />
          <path d="M274 140 L295 140 L295 160 L274 160 L274 140" style="fill:none; clip-path:url(#clipPath10); stroke:black;" />
          <text x="5" y="11" transform="translate(275,164)" style="clip-path:url(#clipPath11); fill:black; stroke:none; font-weight:bold;" xml:space="preserve">store</text>
        </g>
      </g>
    </a>
    <a onclick="onClick(evt, &apos;../../../../../../nexd/de/xplib/nexd/engine/CollectionLockVisitor.html&apos;)">
      <g>
        <defs id="defs7">
          <clipPath clipPathUnits="userSpaceOnUse" id="clipPath12">
            <path d="M414 48 L562 48 L562 93 L414 93 L414 48 Z" />
          </clipPath>
          <clipPath clipPathUnits="userSpaceOnUse" id="clipPath13">
            <path d="M0 0 L112 0 L112 17 L0 17 L0 0 Z" />
          </clipPath>
          <clipPath clipPathUnits="userSpaceOnUse" id="clipPath14">
            <path d="M0 0 L146 0 L146 17 L0 17 L0 0 Z" />
          </clipPath>
        </defs>
        <g style="fill:white; font-size:11; stroke:white;" transform="translate(6,25)">
          <rect x="414" y="48" width="148" style="clip-path:url(#clipPath12); stroke:none;" height="45" />
          <rect x="414" y="48" width="147" style="clip-path:url(#clipPath12); fill:none; stroke:black;" height="44" />
          <text x="0" y="11" transform="translate(446,52)" style="clip-path:url(#clipPath13); fill:black; font-style:italic; stroke:none;" xml:space="preserve">VCLSchemaVisitor</text>
          <text x="5" y="11" transform="translate(415,72)" style="clip-path:url(#clipPath14); fill:black; stroke:none; font-weight:bold;" xml:space="preserve">CollectionLockVisitor</text>
        </g>
      </g>
    </a>
    <a onclick="onClick(evt, &apos;../../../../../../nexd/de/xplib/nexd/engine/comm/comm.html&apos;)">
      <g>
        <defs id="defs8">
          <clipPath clipPathUnits="userSpaceOnUse" id="clipPath15">
            <path d="M304 48 L356 48 L356 93 L304 93 L304 48 Z" />
          </clipPath>
          <clipPath clipPathUnits="userSpaceOnUse" id="clipPath16">
            <path d="M0 0 L50 0 L50 17 L0 17 L0 0 Z" />
          </clipPath>
        </defs>
        <g style="fill:white; font-size:11; stroke:white;" transform="translate(6,25)">
          <polygon style="clip-path:url(#clipPath15); stroke:none;" points=" 304 68 355 68 355 92 304 92 304 68" />
          <polygon style="clip-path:url(#clipPath15); stroke:none;" points=" 304 48 329 48 329 68 304 68 304 48" />
          <path d="M304 68 L355 68 L355 92 L304 92 L304 68" style="fill:none; clip-path:url(#clipPath15); stroke:black;" />
          <path d="M304 48 L329 48 L329 68 L304 68 L304 48" style="fill:none; clip-path:url(#clipPath15); stroke:black;" />
          <text x="5" y="11" transform="translate(305,72)" style="clip-path:url(#clipPath16); fill:black; stroke:none; font-weight:bold;" xml:space="preserve">comm</text>
        </g>
      </g>
    </a>
    <a onclick="onClick(evt, &apos;../../../../../../nexd/de/xplib/nexd/engine/TransactionManager.html&apos;)">
      <g>
        <defs id="defs9">
          <clipPath clipPathUnits="userSpaceOnUse" id="clipPath17">
            <path d="M414 112 L553 112 L553 140 L414 140 L414 112 Z" />
          </clipPath>
          <clipPath clipPathUnits="userSpaceOnUse" id="clipPath18">
            <path d="M0 0 L137 0 L137 17 L0 17 L0 0 Z" />
          </clipPath>
        </defs>
        <g style="fill:white; font-size:11; stroke:white;" transform="translate(6,25)">
          <rect x="414" y="112" width="139" style="clip-path:url(#clipPath17); stroke:none;" height="28" />
          <rect x="414" y="112" width="138" style="clip-path:url(#clipPath17); fill:none; stroke:black;" height="27" />
          <text x="5" y="11" transform="translate(415,119)" style="clip-path:url(#clipPath18); fill:black; stroke:none; font-weight:bold;" xml:space="preserve">TransactionManager</text>
        </g>
      </g>
    </a>
    <a onclick="onClick(evt, &apos;../../../../../../nexd/de/xplib/nexd/engine/http/http.html&apos;)">
      <g>
        <defs id="defs10">
          <clipPath clipPathUnits="userSpaceOnUse" id="clipPath19">
            <path d="M444 159 L481 159 L481 204 L444 204 L444 159 Z" />
          </clipPath>
          <clipPath clipPathUnits="userSpaceOnUse" id="clipPath20">
            <path d="M0 0 L35 0 L35 17 L0 17 L0 0 Z" />
          </clipPath>
        </defs>
        <g style="fill:white; font-size:11; stroke:white;" transform="translate(6,25)">
          <polygon style="clip-path:url(#clipPath19); stroke:none;" points=" 444 179 480 179 480 203 444 203 444 179" />
          <polygon style="clip-path:url(#clipPath19); stroke:none;" points=" 444 159 462 159 462 179 444 179 444 159" />
          <path d="M444 179 L480 179 L480 203 L444 203 L444 179" style="fill:none; clip-path:url(#clipPath19); stroke:black;" />
          <path d="M444 159 L462 159 L462 179 L444 179 L444 159" style="fill:none; clip-path:url(#clipPath19); stroke:black;" />
          <text x="5" y="11" transform="translate(445,183)" style="clip-path:url(#clipPath20); fill:black; stroke:none; font-weight:bold;" xml:space="preserve">http</text>
        </g>
      </g>
    </a>
    <a onclick="onClick(evt, &apos;../../../../../../nexd/de/xplib/nexd/engine/VCLHelper.html&apos;)">
      <g>
        <defs id="defs11">
          <clipPath clipPathUnits="userSpaceOnUse" id="clipPath21">
            <path d="M325 140 L406 140 L406 168 L325 168 L325 140 Z" />
          </clipPath>
          <clipPath clipPathUnits="userSpaceOnUse" id="clipPath22">
            <path d="M0 0 L79 0 L79 17 L0 17 L0 0 Z" />
          </clipPath>
        </defs>
        <g style="fill:white; font-size:11; stroke:white;" transform="translate(6,25)">
          <rect x="325" y="140" width="81" style="clip-path:url(#clipPath21); stroke:none;" height="28" />
          <rect x="325" y="140" width="80" style="clip-path:url(#clipPath21); fill:none; stroke:black;" height="27" />
          <text x="5" y="11" transform="translate(326,147)" style="clip-path:url(#clipPath22); fill:black; stroke:none; font-weight:bold;" xml:space="preserve">VCLHelper</text>
        </g>
      </g>
    </a>
    <a onclick="onClick(evt, &apos;../../../../../../nexd/de/xplib/nexd/engine/XPathQueryCache.html&apos;)">
      <g>
        <defs id="defs12">
          <clipPath clipPathUnits="userSpaceOnUse" id="clipPath23">
            <path d="M23 74 L149 74 L149 102 L23 102 L23 74 Z" />
          </clipPath>
          <clipPath clipPathUnits="userSpaceOnUse" id="clipPath24">
            <path d="M0 0 L124 0 L124 17 L0 17 L0 0 Z" />
          </clipPath>
        </defs>
        <g style="fill:white; font-size:11; stroke:white;" transform="translate(6,25)">
          <rect x="23" y="74" width="126" style="clip-path:url(#clipPath23); stroke:none;" height="28" />
          <rect x="23" y="74" width="125" style="clip-path:url(#clipPath23); fill:none; stroke:black;" height="27" />
          <text x="5" y="11" transform="translate(24,81)" style="clip-path:url(#clipPath24); fill:black; stroke:none; font-weight:bold;" xml:space="preserve">XPathQueryCache</text>
        </g>
      </g>
    </a>
    <a onclick="onClick(evt, &apos;../../../../../../nexd/de/xplib/nexd/engine/NEXDEngineImpl.html&apos;)">
      <g>
        <defs id="defs13">
          <clipPath clipPathUnits="userSpaceOnUse" id="clipPath25">
            <path d="M10 10 L133 10 L133 55 L10 55 L10 10 Z" />
          </clipPath>
          <clipPath clipPathUnits="userSpaceOnUse" id="clipPath26">
            <path d="M0 0 L83 0 L83 17 L0 17 L0 0 Z" />
          </clipPath>
          <clipPath clipPathUnits="userSpaceOnUse" id="clipPath27">
            <path d="M0 0 L121 0 L121 17 L0 17 L0 0 Z" />
          </clipPath>
        </defs>
        <g style="fill:white; font-size:11; stroke:white;" transform="translate(6,25)">
          <rect x="10" y="10" width="123" style="clip-path:url(#clipPath25); stroke:none;" height="45" />
          <rect x="10" y="10" width="122" style="clip-path:url(#clipPath25); fill:none; stroke:black;" height="44" />
          <text x="0" y="11" transform="translate(46,14)" style="clip-path:url(#clipPath26); fill:black; font-style:italic; stroke:none;" xml:space="preserve">NEXDEngineI</text>
          <text x="5" y="11" transform="translate(11,34)" style="clip-path:url(#clipPath27); fill:black; stroke:none; font-weight:bold;" xml:space="preserve">NEXDEngineImpl</text>
        </g>
      </g>
    </a>
    <a onclick="onClick(evt, &apos;../../../../../../nexd/de/xplib/nexd/engine/VirtualResourceManager.html&apos;)">
      <g>
        <defs id="defs14">
          <clipPath clipPathUnits="userSpaceOnUse" id="clipPath28">
            <path d="M210 1 L376 1 L376 29 L210 29 L210 1 Z" />
          </clipPath>
          <clipPath clipPathUnits="userSpaceOnUse" id="clipPath29">
            <path d="M0 0 L164 0 L164 17 L0 17 L0 0 Z" />
          </clipPath>
        </defs>
        <g style="fill:white; font-size:11; stroke:white;" transform="translate(6,25)">
          <rect x="210" y="1" width="166" style="clip-path:url(#clipPath28); stroke:none;" height="28" />
          <rect x="210" y="1" width="165" style="clip-path:url(#clipPath28); fill:none; stroke:black;" height="27" />
          <text x="5" y="11" transform="translate(211,8)" style="clip-path:url(#clipPath29); fill:black; stroke:none; font-weight:bold;" xml:space="preserve">VirtualResourceManager</text>
        </g>
      </g>
    </a>
    <a onclick="onClick(evt, &apos;../../../../../../nexd/de/xplib/nexd/engine/config/config.html&apos;)">
      <g>
        <defs id="defs15">
          <clipPath clipPathUnits="userSpaceOnUse" id="clipPath30">
            <path d="M385 223 L437 223 L437 268 L385 268 L385 223 Z" />
          </clipPath>
          <clipPath clipPathUnits="userSpaceOnUse" id="clipPath31">
            <path d="M0 0 L50 0 L50 17 L0 17 L0 0 Z" />
          </clipPath>
        </defs>
        <g style="fill:white; font-size:11; stroke:white;" transform="translate(6,25)">
          <polygon style="clip-path:url(#clipPath30); stroke:none;" points=" 385 243 436 243 436 267 385 267 385 243" />
          <polygon style="clip-path:url(#clipPath30); stroke:none;" points=" 385 223 410 223 410 243 385 243 385 223" />
          <path d="M385 243 L436 243 L436 267 L385 267 L385 243" style="fill:none; clip-path:url(#clipPath30); stroke:black;" />
          <path d="M385 223 L410 223 L410 243 L385 243 L385 223" style="fill:none; clip-path:url(#clipPath30); stroke:black;" />
          <text x="5" y="11" transform="translate(386,247)" style="clip-path:url(#clipPath31); fill:black; stroke:none; font-weight:bold;" xml:space="preserve">config</text>
        </g>
      </g>
    </a>
    <a onclick="onClick(evt, &apos;../../../../../../nexd/de/xplib/nexd/engine/xml/xml.html&apos;)">
      <g>
        <defs id="defs16">
          <clipPath clipPathUnits="userSpaceOnUse" id="clipPath32">
            <path d="M444 223 L480 223 L480 268 L444 268 L444 223 Z" />
          </clipPath>
          <clipPath clipPathUnits="userSpaceOnUse" id="clipPath33">
            <path d="M0 0 L34 0 L34 17 L0 17 L0 0 Z" />
          </clipPath>
        </defs>
        <g style="fill:white; font-size:11; stroke:white;" transform="translate(6,25)">
          <polygon style="clip-path:url(#clipPath32); stroke:none;" points=" 444 243 479 243 479 267 444 267 444 243" />
          <polygon style="clip-path:url(#clipPath32); stroke:none;" points=" 444 223 461 223 461 243 444 243 444 223" />
          <path d="M444 243 L479 243 L479 267 L444 267 L444 243" style="fill:none; clip-path:url(#clipPath32); stroke:black;" />
          <path d="M444 223 L461 223 L461 243 L444 243 L444 223" style="fill:none; clip-path:url(#clipPath32); stroke:black;" />
          <text x="5" y="11" transform="translate(445,247)" style="clip-path:url(#clipPath33); fill:black; stroke:none; font-weight:bold;" xml:space="preserve">xml</text>
        </g>
      </g>
    </a>
    <a onclick="onClick(evt, &apos;../../../../../../nexd/de/xplib/nexd/engine/NEXDEnginePool.html&apos;)">
      <g>
        <defs id="defs17">
          <clipPath clipPathUnits="userSpaceOnUse" id="clipPath34">
            <path d="M145 140 L269 140 L269 168 L145 168 L145 140 Z" />
          </clipPath>
          <clipPath clipPathUnits="userSpaceOnUse" id="clipPath35">
            <path d="M0 0 L122 0 L122 17 L0 17 L0 0 Z" />
          </clipPath>
        </defs>
        <g style="fill:white; font-size:11; stroke:white;" transform="translate(6,25)">
          <rect x="145" y="140" width="124" style="clip-path:url(#clipPath34); stroke:none;" height="28" />
          <rect x="145" y="140" width="123" style="clip-path:url(#clipPath34); fill:none; stroke:black;" height="27" />
          <text x="5" y="11" transform="translate(146,147)" style="clip-path:url(#clipPath35); fill:black; stroke:none; font-weight:bold;" xml:space="preserve">NEXDEnginePool</text>
        </g>
      </g>
    </a>
    <g style="fill:blue; font-size:11; stroke:blue;" transform="translate(6,25)">
      <path d="M133 46 L423 112" style="fill:none; clip-path:url(#clipPath36);" />
      <text x="2" y="13" transform="translate(276,82)" style="clip-path:url(#clipPath37); stroke:none;" xml:space="preserve"></text>
      <text x="0" y="11" transform="translate(288,84)" style="clip-path:url(#clipPath38); stroke:none;" xml:space="preserve"></text>
      <text x="0" y="11" transform="translate(143,28)" style="clip-path:url(#clipPath38); stroke:none;" xml:space="preserve"></text>
      <text x="0" y="11" transform="translate(139,48)" style="clip-path:url(#clipPath38); stroke:none;" xml:space="preserve"></text>
      <text x="0" y="11" transform="translate(412,90)" style="clip-path:url(#clipPath38); stroke:none;" xml:space="preserve"></text>
      <text x="0" y="11" transform="translate(402,111)" style="clip-path:url(#clipPath38); stroke:none;" xml:space="preserve"></text>
      <path d="M133 52 L167 65" style="fill:none; clip-path:url(#clipPath39);" />
      <text x="2" y="13" transform="translate(148,112)" style="clip-path:url(#clipPath37); stroke:none;" xml:space="preserve"></text>
      <text x="0" y="11" transform="translate(141,108)" style="clip-path:url(#clipPath38); stroke:none;" xml:space="preserve"></text>
      <text x="0" y="11" transform="translate(99,-11)" style="clip-path:url(#clipPath38); stroke:none;" xml:space="preserve"></text>
      <text x="0" y="11" transform="translate(108,56)" style="clip-path:url(#clipPath38); stroke:none;" xml:space="preserve"></text>
      <text x="0" y="11" transform="translate(147,38)" style="clip-path:url(#clipPath38); stroke:none;" xml:space="preserve"></text>
      <text x="0" y="11" transform="translate(167,68)" style="clip-path:url(#clipPath38); stroke:none;" xml:space="preserve"></text>
      <path d="M269 164 L298 164 L298 197 L265 197 L265 168" style="fill:none; clip-path:url(#clipPath40);" />
      <text x="2" y="13" transform="translate(253,200)" style="clip-path:url(#clipPath41); stroke:none;" xml:space="preserve">singleton</text>
      <text x="0" y="11" transform="translate(261,179)" style="clip-path:url(#clipPath38); stroke:none;" xml:space="preserve"></text>
      <text x="0" y="11" transform="translate(321,147)" style="clip-path:url(#clipPath38); stroke:none;" xml:space="preserve"></text>
      <text x="0" y="11" transform="translate(269,177)" style="clip-path:url(#clipPath38); stroke:none;" xml:space="preserve"></text>
      <text x="0" y="11" transform="translate(294,118)" style="clip-path:url(#clipPath38); stroke:none;" xml:space="preserve"></text>
      <text x="0" y="11" transform="translate(251,188)" style="clip-path:url(#clipPath38); stroke:none;" xml:space="preserve"></text>
      <path d="M149 98 L178 98 L178 131 L145 131 L145 102" style="fill:none; clip-path:url(#clipPath42);" />
      <text x="2" y="13" transform="translate(159,134)" style="clip-path:url(#clipPath37); stroke:none;" xml:space="preserve"></text>
      <text x="0" y="11" transform="translate(151,134)" style="clip-path:url(#clipPath38); stroke:none;" xml:space="preserve"></text>
      <text x="0" y="11" transform="translate(181,101)" style="clip-path:url(#clipPath38); stroke:none;" xml:space="preserve"></text>
      <text x="0" y="11" transform="translate(149,101)" style="clip-path:url(#clipPath38); stroke:none;" xml:space="preserve"></text>
      <text x="0" y="11" transform="translate(155,111)" style="clip-path:url(#clipPath38); stroke:none;" xml:space="preserve"></text>
      <text x="0" y="11" transform="translate(165,134)" style="clip-path:url(#clipPath38); stroke:none;" xml:space="preserve"></text>
      <path d="M78 55 L78 74" style="fill:none; clip-path:url(#clipPath43);" />
      <text x="2" y="13" transform="translate(0,36)" style="clip-path:url(#clipPath37); stroke:none;" xml:space="preserve"></text>
      <text x="0" y="11" transform="translate(-6,28)" style="clip-path:url(#clipPath38); stroke:none;" xml:space="preserve"></text>
      <text x="0" y="11" transform="translate(141,0)" style="clip-path:url(#clipPath38); stroke:none;" xml:space="preserve"></text>
      <text x="0" y="11" transform="translate(4,10)" style="clip-path:url(#clipPath38); stroke:none;" xml:space="preserve"></text>
      <text x="0" y="11" transform="translate(151,57)" style="clip-path:url(#clipPath38); stroke:none;" xml:space="preserve"></text>
      <text x="0" y="11" transform="translate(74,66)" style="clip-path:url(#clipPath38); stroke:none;" xml:space="preserve"></text>
      <path d="M414 51 L133 46" style="fill:none; clip-path:url(#clipPath44);" />
      <text x="2" y="13" transform="translate(271,51)" style="clip-path:url(#clipPath37); stroke:none;" xml:space="preserve"></text>
      <text x="0" y="11" transform="translate(283,51)" style="clip-path:url(#clipPath38); stroke:none;" xml:space="preserve"></text>
      <text x="0" y="11" transform="translate(353,30)" style="clip-path:url(#clipPath38); stroke:none;" xml:space="preserve"></text>
      <text x="0" y="11" transform="translate(293,51)" style="clip-path:url(#clipPath38); stroke:none;" xml:space="preserve"></text>
      <text x="0" y="11" transform="translate(203,-3)" style="clip-path:url(#clipPath38); stroke:none;" xml:space="preserve"></text>
      <text x="0" y="11" transform="translate(179,47)" style="clip-path:url(#clipPath38); stroke:none;" xml:space="preserve"></text>
      <path d="M414 9 L133 21" style="fill:none; clip-path:url(#clipPath45);" />
      <text x="2" y="13" transform="translate(201,21)" style="clip-path:url(#clipPath37); stroke:none;" xml:space="preserve"></text>
      <text x="0" y="11" transform="translate(233,30)" style="clip-path:url(#clipPath38); stroke:none;" xml:space="preserve"></text>
      <text x="0" y="11" transform="translate(393,-10)" style="clip-path:url(#clipPath38); stroke:none;" xml:space="preserve"></text>
      <text x="0" y="11" transform="translate(363,34)" style="clip-path:url(#clipPath38); stroke:none;" xml:space="preserve"></text>
      <text x="0" y="11" transform="translate(193,-2)" style="clip-path:url(#clipPath38); stroke:none;" xml:space="preserve"></text>
      <text x="0" y="11" transform="translate(213,31)" style="clip-path:url(#clipPath38); stroke:none;" xml:space="preserve"></text>
      <path d="M414 15 L376 15" style="fill:none; clip-path:url(#clipPath46);" />
      <text x="2" y="13" transform="translate(403,18)" style="clip-path:url(#clipPath37); stroke:none;" xml:space="preserve"></text>
      <text x="0" y="11" transform="translate(395,28)" style="clip-path:url(#clipPath38); stroke:none;" xml:space="preserve"></text>
      <text x="0" y="11" transform="translate(451,-25)" style="clip-path:url(#clipPath38); stroke:none;" xml:space="preserve"></text>
      <text x="0" y="11" transform="translate(441,38)" style="clip-path:url(#clipPath38); stroke:none;" xml:space="preserve"></text>
      <text x="0" y="11" transform="translate(386,-5)" style="clip-path:url(#clipPath38); stroke:none;" xml:space="preserve"></text>
      <text x="0" y="11" transform="translate(396,48)" style="clip-path:url(#clipPath38); stroke:none;" xml:space="preserve"></text>
      <path d="M133 29 L414 18" style="fill:none; clip-path:url(#clipPath47);" />
      <text x="2" y="13" transform="translate(381,22)" style="clip-path:url(#clipPath37); stroke:none;" xml:space="preserve"></text>
      <text x="0" y="11" transform="translate(393,22)" style="clip-path:url(#clipPath38); stroke:none;" xml:space="preserve"></text>
      <text x="0" y="11" transform="translate(143,9)" style="clip-path:url(#clipPath38); stroke:none;" xml:space="preserve"></text>
      <text x="0" y="11" transform="translate(193,29)" style="clip-path:url(#clipPath38); stroke:none;" xml:space="preserve"></text>
      <text x="0" y="11" transform="translate(403,-2)" style="clip-path:url(#clipPath38); stroke:none;" xml:space="preserve"></text>
      <text x="0" y="11" transform="translate(373,32)" style="clip-path:url(#clipPath38); stroke:none;" xml:space="preserve"></text>
      <path d="M553 136 L582 136 L582 169 L549 169 L549 140" style="fill:none; clip-path:url(#clipPath48);" />
      <text x="2" y="13" transform="translate(563,172)" style="clip-path:url(#clipPath37); stroke:none;" xml:space="preserve"></text>
      <text x="0" y="11" transform="translate(555,172)" style="clip-path:url(#clipPath38); stroke:none;" xml:space="preserve"></text>
      <text x="0" y="11" transform="translate(563,116)" style="clip-path:url(#clipPath38); stroke:none;" xml:space="preserve"></text>
      <text x="0" y="11" transform="translate(573,139)" style="clip-path:url(#clipPath38); stroke:none;" xml:space="preserve"></text>
      <text x="0" y="11" transform="translate(552,143)" style="clip-path:url(#clipPath38); stroke:none;" xml:space="preserve"></text>
      <text x="0" y="11" transform="translate(549,172)" style="clip-path:url(#clipPath38); stroke:none;" xml:space="preserve"></text>
      <path d="M210 19 L133 21" style="fill:none; clip-path:url(#clipPath49);" />
      <text x="2" y="13" transform="translate(169,53)" style="clip-path:url(#clipPath37); stroke:none;" xml:space="preserve"></text>
      <text x="0" y="11" transform="translate(161,53)" style="clip-path:url(#clipPath38); stroke:none;" xml:space="preserve"></text>
      <text x="0" y="11" transform="translate(199,-1)" style="clip-path:url(#clipPath38); stroke:none;" xml:space="preserve"></text>
      <text x="0" y="11" transform="translate(189,53)" style="clip-path:url(#clipPath38); stroke:none;" xml:space="preserve"></text>
      <text x="0" y="11" transform="translate(133,-9)" style="clip-path:url(#clipPath38); stroke:none;" xml:space="preserve"></text>
      <text x="0" y="11" transform="translate(143,54)" style="clip-path:url(#clipPath38); stroke:none;" xml:space="preserve"></text>
    </g>
    <g>
      <script lang="text/ecmascript">
        <![CDATA[
    function onClick(evt, href) {
        navigateTo(href);
        evt.stopPropagation();
    }]]>
      </script>
    </g>
  </g>
</svg>
