<?xml version="1.0" encoding="UTF-8"?>

<!DOCTYPE svg PUBLIC '-//W3C//DTD SVG 1.0//EN' 'http://www.w3.org/TR/2001/REC-SVG-20010904/DTD/svg10.dtd'>
<svg style="fill-opacity:1; color-rendering:auto; color-interpolation:auto; text-rendering:auto; stroke:black; stroke-linecap:square; stroke-miterlimit:10; shape-rendering:auto; stroke-opacity:1; fill:black; stroke-dasharray:none; font-weight:normal; stroke-width:1; font-family:&apos;Dialog&apos;; font-style:normal; stroke-linejoin:miter; font-size:12; stroke-dashoffset:0; image-rendering:auto;" xmlns="http://www.w3.org/2000/svg" width="489" xmlns:xlink="http://www.w3.org/1999/xlink" height="325">
  <!--Generated by Selena using Batik-->
  <defs id="genericDefs" />
  <g>
    <defs id="defs1">
      <clipPath clipPathUnits="userSpaceOnUse" id="clipPath1">
        <path d="M0 0 L12000 0 L12000 12000 L0 12000 L0 0 Z" />
      </clipPath>
      <clipPath clipPathUnits="userSpaceOnUse" id="clipPath19">
        <path d="M113 14 L216 14 L216 114 L113 114 L113 14 Z" />
      </clipPath>
      <clipPath clipPathUnits="userSpaceOnUse" id="clipPath20">
        <path d="M193 29 L204 29 L204 40 L193 40 L193 29 Z" />
      </clipPath>
      <clipPath clipPathUnits="userSpaceOnUse" id="clipPath21">
        <path d="M0 0 L103 0 L103 21 L0 21 L0 0 Z" />
      </clipPath>
      <clipPath clipPathUnits="userSpaceOnUse" id="clipPath22">
        <path d="M0 0 L1 0 L1 17 L0 17 L0 0 Z" />
      </clipPath>
      <clipPath clipPathUnits="userSpaceOnUse" id="clipPath23">
        <path d="M-14 50 L114 50 L114 129 L-14 129 L-14 50 Z" />
      </clipPath>
      <clipPath clipPathUnits="userSpaceOnUse" id="clipPath24">
        <path d="M85 107 L96 107 L96 128 L85 128 L85 107 Z" />
      </clipPath>
      <clipPath clipPathUnits="userSpaceOnUse" id="clipPath25">
        <path d="M85 58 L96 58 L96 69 L85 69 L85 58 Z" />
      </clipPath>
      <clipPath clipPathUnits="userSpaceOnUse" id="clipPath26">
        <path d="M0 0 L101 0 L101 21 L0 21 L0 0 Z" />
      </clipPath>
      <clipPath clipPathUnits="userSpaceOnUse" id="clipPath27">
        <path d="M0 0 L8 0 L8 17 L0 17 L0 0 Z" />
      </clipPath>
      <clipPath clipPathUnits="userSpaceOnUse" id="clipPath28">
        <path d="M0 0 L46 0 L46 17 L0 17 L0 0 Z" />
      </clipPath>
      <clipPath clipPathUnits="userSpaceOnUse" id="clipPath29">
        <path d="M0 0 L21 0 L21 17 L0 17 L0 0 Z" />
      </clipPath>
    </defs>
    <g style="fill:white; stroke:white;">
      <rect x="0" y="0" width="489" style="clip-path:url(#clipPath1); stroke:none;" height="325" />
      <rect x="0" y="0" width="488" style="clip-path:url(#clipPath1); fill:none; stroke:blue;" height="324" />
    </g>
    <a onclick="onClick(evt, &apos;../../../../../../nexd/de/xplib/nexd/comm/SessionI.html&apos;)">
      <g>
        <defs id="defs2">
          <clipPath clipPathUnits="userSpaceOnUse" id="clipPath2">
            <path d="M57 10 L124 10 L124 58 L57 58 L57 10 Z" />
          </clipPath>
          <clipPath clipPathUnits="userSpaceOnUse" id="clipPath3">
            <path d="M0 0 L57 0 L57 17 L0 17 L0 0 Z" />
          </clipPath>
          <clipPath clipPathUnits="userSpaceOnUse" id="clipPath4">
            <path d="M0 0 L65 0 L65 17 L0 17 L0 0 Z" />
          </clipPath>
        </defs>
        <g style="fill:white; font-size:11; stroke:white;" transform="translate(14,5)">
          <rect x="57" y="10" width="67" style="clip-path:url(#clipPath2); stroke:none;" height="48" />
          <rect x="57" y="10" width="66" style="clip-path:url(#clipPath2); fill:none; stroke:black;" height="47" />
          <text x="3" y="11" transform="translate(62,17)" style="clip-path:url(#clipPath3); fill:black; stroke:none;" xml:space="preserve">interface</text>
        </g>
        <g style="font-style:italic; font-size:11; font-weight:bold;" transform="translate(72,42)">
          <text x="5" y="11" style="clip-path:url(#clipPath4); stroke:none;" xml:space="preserve">SessionI</text>
        </g>
      </g>
    </a>
    <a onclick="onClick(evt, &apos;../../../../../../nexd/de/xplib/nexd/comm/NEXDEngineI.html&apos;)">
      <g>
        <defs id="defs3">
          <clipPath clipPathUnits="userSpaceOnUse" id="clipPath5">
            <path d="M204 10 L303 10 L303 58 L204 58 L204 10 Z" />
          </clipPath>
          <clipPath clipPathUnits="userSpaceOnUse" id="clipPath6">
            <path d="M0 0 L57 0 L57 17 L0 17 L0 0 Z" />
          </clipPath>
          <clipPath clipPathUnits="userSpaceOnUse" id="clipPath7">
            <path d="M0 0 L97 0 L97 17 L0 17 L0 0 Z" />
          </clipPath>
        </defs>
        <g style="fill:white; font-size:11; stroke:white;" transform="translate(14,5)">
          <rect x="204" y="10" width="99" style="clip-path:url(#clipPath5); stroke:none;" height="48" />
          <rect x="204" y="10" width="98" style="clip-path:url(#clipPath5); fill:none; stroke:black;" height="47" />
          <text x="3" y="11" transform="translate(225,17)" style="clip-path:url(#clipPath6); fill:black; stroke:none;" xml:space="preserve">interface</text>
        </g>
        <g style="font-style:italic; font-size:11; font-weight:bold;" transform="translate(219,42)">
          <text x="5" y="11" style="clip-path:url(#clipPath7); stroke:none;" xml:space="preserve">NEXDEngineI</text>
        </g>
      </g>
    </a>
    <a onclick="onClick(evt, &apos;../../../../../../nexd/de/xplib/nexd/comm/AbstractSessionFactory.html&apos;)">
      <g>
        <defs id="defs4">
          <clipPath clipPathUnits="userSpaceOnUse" id="clipPath8">
            <path d="M10 128 L171 128 L171 156 L10 156 L10 128 Z" />
          </clipPath>
          <clipPath clipPathUnits="userSpaceOnUse" id="clipPath9">
            <path d="M0 0 L159 0 L159 17 L0 17 L0 0 Z" />
          </clipPath>
        </defs>
        <g style="fill:white; font-size:11; stroke:white;" transform="translate(14,5)">
          <rect x="10" y="128" width="161" style="clip-path:url(#clipPath8); stroke:none;" height="28" />
          <rect x="10" y="128" width="160" style="clip-path:url(#clipPath8); fill:none; stroke:black;" height="27" />
        </g>
        <g style="font-style:italic; font-size:11; font-weight:bold;" transform="translate(25,140)">
          <text x="5" y="11" style="clip-path:url(#clipPath9); stroke:none;" xml:space="preserve">AbstractSessionFactory</text>
        </g>
      </g>
    </a>
    <a onclick="onClick(evt, &apos;../../../../../../nexd/de/xplib/nexd/comm/ConnectionException.html&apos;)">
      <g>
        <defs id="defs5">
          <clipPath clipPathUnits="userSpaceOnUse" id="clipPath10">
            <path d="M323 10 L470 10 L470 55 L323 55 L323 10 Z" />
          </clipPath>
          <clipPath clipPathUnits="userSpaceOnUse" id="clipPath11">
            <path d="M0 0 L59 0 L59 17 L0 17 L0 0 Z" />
          </clipPath>
          <clipPath clipPathUnits="userSpaceOnUse" id="clipPath12">
            <path d="M0 0 L145 0 L145 17 L0 17 L0 0 Z" />
          </clipPath>
        </defs>
        <g style="fill:white; font-size:11; stroke:white;" transform="translate(14,5)">
          <rect x="323" y="10" width="147" style="clip-path:url(#clipPath10); stroke:none;" height="45" />
          <rect x="323" y="10" width="146" style="clip-path:url(#clipPath10); fill:none; stroke:black;" height="44" />
          <text x="0" y="11" transform="translate(407,14)" style="clip-path:url(#clipPath11); fill:black; stroke:none;" xml:space="preserve">Exception</text>
          <text x="5" y="11" transform="translate(324,34)" style="clip-path:url(#clipPath12); fill:black; stroke:none; font-weight:bold;" xml:space="preserve">ConnectionException</text>
        </g>
      </g>
    </a>
    <a onclick="onClick(evt, &apos;../../../../../../nexd/de/xplib/nexd/comm/MaxConnectionException.html&apos;)">
      <g>
        <defs id="defs6">
          <clipPath clipPathUnits="userSpaceOnUse" id="clipPath13">
            <path d="M10 270 L182 270 L182 315 L10 315 L10 270 Z" />
          </clipPath>
          <clipPath clipPathUnits="userSpaceOnUse" id="clipPath14">
            <path d="M0 0 L59 0 L59 17 L0 17 L0 0 Z" />
          </clipPath>
          <clipPath clipPathUnits="userSpaceOnUse" id="clipPath15">
            <path d="M0 0 L170 0 L170 17 L0 17 L0 0 Z" />
          </clipPath>
        </defs>
        <g style="fill:white; font-size:11; stroke:white;" transform="translate(14,5)">
          <rect x="10" y="270" width="172" style="clip-path:url(#clipPath13); stroke:none;" height="45" />
          <rect x="10" y="270" width="171" style="clip-path:url(#clipPath13); fill:none; stroke:black;" height="44" />
          <text x="0" y="11" transform="translate(119,274)" style="clip-path:url(#clipPath14); fill:black; stroke:none;" xml:space="preserve">Exception</text>
          <text x="5" y="11" transform="translate(11,294)" style="clip-path:url(#clipPath15); fill:black; stroke:none; font-weight:bold;" xml:space="preserve">MaxConnectionException</text>
        </g>
      </g>
    </a>
    <a onclick="onClick(evt, &apos;../../../../../../nexd/de/xplib/nexd/comm/SessionConfigurationException.html&apos;)">
      <g>
        <defs id="defs7">
          <clipPath clipPathUnits="userSpaceOnUse" id="clipPath16">
            <path d="M10 190 L210 190 L210 235 L10 235 L10 190 Z" />
          </clipPath>
          <clipPath clipPathUnits="userSpaceOnUse" id="clipPath17">
            <path d="M0 0 L59 0 L59 17 L0 17 L0 0 Z" />
          </clipPath>
          <clipPath clipPathUnits="userSpaceOnUse" id="clipPath18">
            <path d="M0 0 L198 0 L198 17 L0 17 L0 0 Z" />
          </clipPath>
        </defs>
        <g style="fill:white; font-size:11; stroke:white;" transform="translate(14,5)">
          <rect x="10" y="190" width="200" style="clip-path:url(#clipPath16); stroke:none;" height="45" />
          <rect x="10" y="190" width="199" style="clip-path:url(#clipPath16); fill:none; stroke:black;" height="44" />
          <text x="0" y="11" transform="translate(147,194)" style="clip-path:url(#clipPath17); fill:black; stroke:none;" xml:space="preserve">Exception</text>
          <text x="5" y="11" transform="translate(11,214)" style="clip-path:url(#clipPath18); fill:black; stroke:none; font-weight:bold;" xml:space="preserve">SessionConfigurationExcep...</text>
        </g>
      </g>
    </a>
    <g style="font-size:11; stroke-dasharray:18,6; stroke-linecap:butt;" transform="translate(14,5)">
      <path d="M124 34 L204 34" style="fill:none; clip-path:url(#clipPath19);" />
      <polygon points=" 203 34 193 29 203 34 193 39 203 34" style="stroke-dasharray:none; clip-path:url(#clipPath20); stroke-linecap:square; stroke:none;" />
      <polygon points=" 203 34 193 29 203 34 193 39 203 34" style="fill:none; stroke-dasharray:none; clip-path:url(#clipPath20); stroke-linecap:square;" />
      <text x="2" y="13" transform="translate(113,67)" style="stroke-linecap:square; clip-path:url(#clipPath21); stroke-dasharray:none; stroke:none;" xml:space="preserve">returns reference</text>
      <text x="0" y="11" transform="translate(164,97)" style="stroke-linecap:square; clip-path:url(#clipPath22); stroke-dasharray:none; stroke:none;" xml:space="preserve"></text>
      <text x="0" y="11" transform="translate(134,14)" style="stroke-linecap:square; clip-path:url(#clipPath22); stroke-dasharray:none; stroke:none;" xml:space="preserve"></text>
      <text x="0" y="11" transform="translate(144,37)" style="stroke-linecap:square; clip-path:url(#clipPath22); stroke-dasharray:none; stroke:none;" xml:space="preserve"></text>
      <text x="0" y="11" transform="translate(154,37)" style="stroke-linecap:square; clip-path:url(#clipPath22); stroke-dasharray:none; stroke:none;" xml:space="preserve"></text>
      <text x="0" y="11" transform="translate(193,14)" style="stroke-linecap:square; clip-path:url(#clipPath22); stroke-dasharray:none; stroke:none;" xml:space="preserve"></text>
      <text x="0" y="11" transform="translate(183,37)" style="stroke-linecap:square; clip-path:url(#clipPath22); stroke-dasharray:none; stroke:none;" xml:space="preserve"></text>
      <text x="0" y="11" transform="translate(173,37)" style="stroke-linecap:square; clip-path:url(#clipPath22); stroke-dasharray:none; stroke:none;" xml:space="preserve"></text>
    </g>
    <g style="fill:rgb(0,0,127); font-size:11; stroke:rgb(0,0,127);" transform="translate(14,5)">
      <path d="M90 128 L90 58" style="fill:none; clip-path:url(#clipPath23);" />
      <polygon style="fill:white; clip-path:url(#clipPath24); stroke:none;" points=" 90 107 85 117 90 127 95 117 90 107" />
      <polygon style="fill:none; clip-path:url(#clipPath24);" points=" 90 107 85 117 90 127 95 117 90 107" />
      <polygon style="clip-path:url(#clipPath25); stroke:none;" points=" 90 58 85 68 90 58 95 68 90 58" />
      <polygon style="fill:none; clip-path:url(#clipPath25);" points=" 90 58 85 68 90 58 95 68 90 58" />
      <text x="2" y="13" transform="translate(-14,63)" style="clip-path:url(#clipPath26); stroke:none;" xml:space="preserve">creates instance</text>
      <text x="0" y="11" transform="translate(36,85)" style="clip-path:url(#clipPath22); stroke:none;" xml:space="preserve"></text>
      <text x="0" y="11" transform="translate(93,101)" style="clip-path:url(#clipPath27); stroke:none;" xml:space="preserve">1</text>
      <text x="0" y="11" transform="translate(41,91)" style="clip-path:url(#clipPath28); stroke:none;" xml:space="preserve">session</text>
      <text x="0" y="11" transform="translate(93,61)" style="clip-path:url(#clipPath29); stroke:none;" xml:space="preserve">0..*</text>
      <text x="0" y="11" transform="translate(86,50)" style="clip-path:url(#clipPath22); stroke:none;" xml:space="preserve"></text>
    </g>
    <g>
      <script lang="text/ecmascript">
        <![CDATA[
    function onClick(evt, href) {
        navigateTo(href);
        evt.stopPropagation();
    }]]>
      </script>
    </g>
  </g>
</svg>
