<?xml version="1.0" encoding="UTF-8"?>

<!DOCTYPE svg PUBLIC '-//W3C//DTD SVG 1.0//EN' 'http://www.w3.org/TR/2001/REC-SVG-20010904/DTD/svg10.dtd'>
<svg style="fill-opacity:1; color-rendering:auto; color-interpolation:auto; text-rendering:auto; stroke:black; stroke-linecap:square; stroke-miterlimit:10; shape-rendering:auto; stroke-opacity:1; fill:black; stroke-dasharray:none; font-weight:normal; stroke-width:1; font-family:&apos;Dialog&apos;; font-style:normal; stroke-linejoin:miter; font-size:12; stroke-dashoffset:0; image-rendering:auto;" xmlns="http://www.w3.org/2000/svg" width="466" xmlns:xlink="http://www.w3.org/1999/xlink" height="152">
  <!--Generated by Selena using Batik-->
  <defs id="genericDefs" />
  <g>
    <defs id="defs1">
      <clipPath clipPathUnits="userSpaceOnUse" id="clipPath1">
        <path d="M0 0 L12000 0 L12000 12000 L0 12000 L0 0 Z" />
      </clipPath>
      <clipPath clipPathUnits="userSpaceOnUse" id="clipPath23">
        <path d="M122 95 L311 95 L311 112 L122 112 L122 95 Z" />
      </clipPath>
      <clipPath clipPathUnits="userSpaceOnUse" id="clipPath24">
        <path d="M122 95 L139 95 L139 112 L122 112 L122 95 Z" />
      </clipPath>
      <clipPath clipPathUnits="userSpaceOnUse" id="clipPath25">
        <path d="M122 66 L160 66 L160 87 L122 87 L122 66 Z" />
      </clipPath>
      <clipPath clipPathUnits="userSpaceOnUse" id="clipPath26">
        <path d="M122 69 L141 69 L141 85 L122 85 L122 69 Z" />
      </clipPath>
      <clipPath clipPathUnits="userSpaceOnUse" id="clipPath27">
        <path d="M122 101 L139 101 L139 118 L122 118 L122 101 Z" />
      </clipPath>
    </defs>
    <g style="fill:white; stroke:white;">
      <rect x="0" y="0" width="466" style="clip-path:url(#clipPath1); stroke:none;" height="152" />
      <rect x="0" y="0" width="465" style="clip-path:url(#clipPath1); fill:none; stroke:blue;" height="151" />
    </g>
    <a onclick="onClick(evt, &apos;../../../../../../nexd/de/xplib/nexd/xml/DOMDocumentTypeI.html&apos;)">
      <g>
        <defs id="defs2">
          <clipPath clipPathUnits="userSpaceOnUse" id="clipPath2">
            <path d="M149 1 L291 1 L291 66 L149 66 L149 1 Z" />
          </clipPath>
          <clipPath clipPathUnits="userSpaceOnUse" id="clipPath3">
            <path d="M0 0 L90 0 L90 17 L0 17 L0 0 Z" />
          </clipPath>
          <clipPath clipPathUnits="userSpaceOnUse" id="clipPath4">
            <path d="M0 0 L57 0 L57 17 L0 17 L0 0 Z" />
          </clipPath>
          <clipPath clipPathUnits="userSpaceOnUse" id="clipPath5">
            <path d="M0 0 L140 0 L140 17 L0 17 L0 0 Z" />
          </clipPath>
        </defs>
        <g style="fill:white; font-size:11; stroke:white;" transform="translate(5,5)">
          <rect x="149" y="1" width="142" style="clip-path:url(#clipPath2); stroke:none;" height="65" />
          <rect x="149" y="1" width="141" style="clip-path:url(#clipPath2); fill:none; stroke:black;" height="64" />
          <text x="0" y="11" transform="translate(197,5)" style="clip-path:url(#clipPath3); fill:black; stroke:none;" xml:space="preserve">DocumentType</text>
          <text x="3" y="11" transform="translate(191,25)" style="clip-path:url(#clipPath4); fill:black; stroke:none;" xml:space="preserve">interface</text>
        </g>
        <g style="font-style:italic; font-size:11; font-weight:bold;" transform="translate(155,50)">
          <text x="5" y="11" style="clip-path:url(#clipPath5); stroke:none;" xml:space="preserve">DOMDocumentTypeI</text>
        </g>
      </g>
    </a>
    <a onclick="onClick(evt, &apos;../../../../../../nexd/de/xplib/nexd/xml/DocumentCacheI.html&apos;)">
      <g>
        <defs id="defs3">
          <clipPath clipPathUnits="userSpaceOnUse" id="clipPath6">
            <path d="M10 10 L130 10 L130 58 L10 58 L10 10 Z" />
          </clipPath>
          <clipPath clipPathUnits="userSpaceOnUse" id="clipPath7">
            <path d="M0 0 L57 0 L57 17 L0 17 L0 0 Z" />
          </clipPath>
          <clipPath clipPathUnits="userSpaceOnUse" id="clipPath8">
            <path d="M0 0 L118 0 L118 17 L0 17 L0 0 Z" />
          </clipPath>
        </defs>
        <g style="fill:white; font-size:11; stroke:white;" transform="translate(5,5)">
          <rect x="10" y="10" width="120" style="clip-path:url(#clipPath6); stroke:none;" height="48" />
          <rect x="10" y="10" width="119" style="clip-path:url(#clipPath6); fill:none; stroke:black;" height="47" />
          <text x="3" y="11" transform="translate(41,17)" style="clip-path:url(#clipPath7); fill:black; stroke:none;" xml:space="preserve">interface</text>
        </g>
        <g style="font-style:italic; font-size:11; font-weight:bold;" transform="translate(16,42)">
          <text x="5" y="11" style="clip-path:url(#clipPath8); stroke:none;" xml:space="preserve">DocumentCacheI</text>
        </g>
      </g>
    </a>
    <a onclick="onClick(evt, &apos;../../../../../../nexd/de/xplib/nexd/xml/DOMDocumentI.html&apos;)">
      <g>
        <defs id="defs4">
          <clipPath clipPathUnits="userSpaceOnUse" id="clipPath9">
            <path d="M130 77 L242 77 L242 142 L130 142 L130 77 Z" />
          </clipPath>
          <clipPath clipPathUnits="userSpaceOnUse" id="clipPath10">
            <path d="M0 0 L61 0 L61 17 L0 17 L0 0 Z" />
          </clipPath>
          <clipPath clipPathUnits="userSpaceOnUse" id="clipPath11">
            <path d="M0 0 L57 0 L57 17 L0 17 L0 0 Z" />
          </clipPath>
          <clipPath clipPathUnits="userSpaceOnUse" id="clipPath12">
            <path d="M0 0 L110 0 L110 17 L0 17 L0 0 Z" />
          </clipPath>
        </defs>
        <g style="fill:white; font-size:11; stroke:white;" transform="translate(5,5)">
          <rect x="130" y="77" width="112" style="clip-path:url(#clipPath9); stroke:none;" height="65" />
          <rect x="130" y="77" width="111" style="clip-path:url(#clipPath9); fill:none; stroke:black;" height="64" />
          <text x="0" y="11" transform="translate(177,81)" style="clip-path:url(#clipPath10); fill:black; stroke:none;" xml:space="preserve">Document</text>
          <text x="3" y="11" transform="translate(157,101)" style="clip-path:url(#clipPath11); fill:black; stroke:none;" xml:space="preserve">interface</text>
        </g>
        <g style="font-style:italic; font-size:11; font-weight:bold;" transform="translate(136,126)">
          <text x="5" y="11" style="clip-path:url(#clipPath12); stroke:none;" xml:space="preserve">DOMDocumentI</text>
        </g>
      </g>
    </a>
    <a onclick="onClick(evt, &apos;../../../../../../nexd/de/xplib/nexd/xml/DOMEntityReferenceI.html&apos;)">
      <g>
        <defs id="defs5">
          <clipPath clipPathUnits="userSpaceOnUse" id="clipPath13">
            <path d="M310 65 L456 65 L456 130 L310 130 L310 65 Z" />
          </clipPath>
          <clipPath clipPathUnits="userSpaceOnUse" id="clipPath14">
            <path d="M0 0 L95 0 L95 17 L0 17 L0 0 Z" />
          </clipPath>
          <clipPath clipPathUnits="userSpaceOnUse" id="clipPath15">
            <path d="M0 0 L57 0 L57 17 L0 17 L0 0 Z" />
          </clipPath>
          <clipPath clipPathUnits="userSpaceOnUse" id="clipPath16">
            <path d="M0 0 L144 0 L144 17 L0 17 L0 0 Z" />
          </clipPath>
        </defs>
        <g style="fill:white; font-size:11; stroke:white;" transform="translate(5,5)">
          <rect x="310" y="65" width="146" style="clip-path:url(#clipPath13); stroke:none;" height="65" />
          <rect x="310" y="65" width="145" style="clip-path:url(#clipPath13); fill:none; stroke:black;" height="64" />
          <text x="0" y="11" transform="translate(357,69)" style="clip-path:url(#clipPath14); fill:black; stroke:none;" xml:space="preserve">EntityReference</text>
          <text x="3" y="11" transform="translate(354,89)" style="clip-path:url(#clipPath15); fill:black; stroke:none;" xml:space="preserve">interface</text>
        </g>
        <g style="font-style:italic; font-size:11; font-weight:bold;" transform="translate(316,114)">
          <text x="5" y="11" style="clip-path:url(#clipPath16); stroke:none;" xml:space="preserve">DOMEntityReferenceI</text>
        </g>
      </g>
    </a>
    <a onclick="onClick(evt, &apos;../../../../../../nexd/de/xplib/nexd/xml/xpath/xpath.html&apos;)">
      <g>
        <defs id="defs6">
          <clipPath clipPathUnits="userSpaceOnUse" id="clipPath17">
            <path d="M329 1 L376 1 L376 46 L329 46 L329 1 Z" />
          </clipPath>
          <clipPath clipPathUnits="userSpaceOnUse" id="clipPath18">
            <path d="M0 0 L45 0 L45 17 L0 17 L0 0 Z" />
          </clipPath>
        </defs>
        <g style="fill:white; font-size:11; stroke:white;" transform="translate(5,5)">
          <polygon style="clip-path:url(#clipPath17); stroke:none;" points=" 329 21 375 21 375 45 329 45 329 21" />
          <polygon style="clip-path:url(#clipPath17); stroke:none;" points=" 329 1 352 1 352 21 329 21 329 1" />
          <path d="M329 21 L375 21 L375 45 L329 45 L329 21" style="fill:none; clip-path:url(#clipPath17); stroke:black;" />
          <path d="M329 1 L352 1 L352 21 L329 21 L329 1" style="fill:none; clip-path:url(#clipPath17); stroke:black;" />
          <text x="5" y="11" transform="translate(330,25)" style="clip-path:url(#clipPath18); fill:black; stroke:none; font-weight:bold;" xml:space="preserve">xpath</text>
        </g>
      </g>
    </a>
    <a onclick="onClick(evt, &apos;../../../../../../nexd/de/xplib/nexd/xml/DOMNodeI.html&apos;)">
      <g>
        <defs id="defs7">
          <clipPath clipPathUnits="userSpaceOnUse" id="clipPath19">
            <path d="M41 77 L122 77 L122 142 L41 142 L41 77 Z" />
          </clipPath>
          <clipPath clipPathUnits="userSpaceOnUse" id="clipPath20">
            <path d="M0 0 L32 0 L32 17 L0 17 L0 0 Z" />
          </clipPath>
          <clipPath clipPathUnits="userSpaceOnUse" id="clipPath21">
            <path d="M0 0 L57 0 L57 17 L0 17 L0 0 Z" />
          </clipPath>
          <clipPath clipPathUnits="userSpaceOnUse" id="clipPath22">
            <path d="M0 0 L79 0 L79 17 L0 17 L0 0 Z" />
          </clipPath>
        </defs>
        <g style="fill:white; font-size:11; stroke:white;" transform="translate(5,5)">
          <rect x="41" y="77" width="81" style="clip-path:url(#clipPath19); stroke:none;" height="65" />
          <rect x="41" y="77" width="80" style="clip-path:url(#clipPath19); fill:none; stroke:black;" height="64" />
          <text x="0" y="11" transform="translate(86,81)" style="clip-path:url(#clipPath20); fill:black; stroke:none;" xml:space="preserve">Node</text>
          <text x="3" y="11" transform="translate(53,101)" style="clip-path:url(#clipPath21); fill:black; stroke:none;" xml:space="preserve">interface</text>
        </g>
        <g style="font-style:italic; font-size:11; font-weight:bold;" transform="translate(47,126)">
          <text x="5" y="11" style="clip-path:url(#clipPath22); stroke:none;" xml:space="preserve">DOMNodeI</text>
        </g>
      </g>
    </a>
    <g style="font-size:11;" transform="translate(5,5)">
      <path d="M310 103 L122 103" style="fill:none; clip-path:url(#clipPath23);" />
      <polygon style="fill:white; clip-path:url(#clipPath24); stroke:none;" points=" 122 103 138 95 138 111" />
      <polygon style="fill:none; clip-path:url(#clipPath24);" points=" 122 103 138 95 138 111" />
      <path d="M159 66 L122 86" style="fill:none; clip-path:url(#clipPath25);" />
      <polygon style="fill:white; clip-path:url(#clipPath26); stroke:none;" points=" 122 84 132 69 140 84" />
      <polygon style="fill:none; clip-path:url(#clipPath26);" points=" 122 84 132 69 140 84" />
      <path d="M130 109 L122 109" style="fill:none; clip-path:url(#clipPath27);" />
      <polygon style="fill:white; clip-path:url(#clipPath27); stroke:none;" points=" 122 109 138 101 138 117" />
      <polygon style="fill:none; clip-path:url(#clipPath27);" points=" 122 109 138 101 138 117" />
    </g>
    <g>
      <script lang="text/ecmascript">
        <![CDATA[
    function onClick(evt, href) {
        navigateTo(href);
        evt.stopPropagation();
    }]]>
      </script>
    </g>
  </g>
</svg>
