<?xml version="1.0" encoding="UTF-8"?>

<!DOCTYPE svg PUBLIC '-//W3C//DTD SVG 1.0//EN' 'http://www.w3.org/TR/2001/REC-SVG-20010904/DTD/svg10.dtd'>
<svg style="fill-opacity:1; color-rendering:auto; color-interpolation:auto; text-rendering:auto; stroke:black; stroke-linecap:square; stroke-miterlimit:10; shape-rendering:auto; stroke-opacity:1; fill:black; stroke-dasharray:none; font-weight:normal; stroke-width:1; font-family:&apos;Dialog&apos;; font-style:normal; stroke-linejoin:miter; font-size:12; stroke-dashoffset:0; image-rendering:auto;" xmlns="http://www.w3.org/2000/svg" width="329" xmlns:xlink="http://www.w3.org/1999/xlink" height="147">
  <!--Generated by Selena using Batik-->
  <defs id="genericDefs" />
  <g>
    <defs id="defs1">
      <clipPath clipPathUnits="userSpaceOnUse" id="clipPath1">
        <path d="M0 0 L12000 0 L12000 12000 L0 12000 L0 0 Z" />
      </clipPath>
    </defs>
    <g style="fill:white; stroke:white;">
      <rect x="0" y="0" width="329" style="clip-path:url(#clipPath1); stroke:none;" height="147" />
      <rect x="0" y="0" width="328" style="clip-path:url(#clipPath1); fill:none; stroke:blue;" height="146" />
    </g>
    <a onclick="onClick(evt, &apos;../../../../../../../../nexd/de/xplib/nexd/engine/xapi/pcvr/PCVRCompilerImpl.html&apos;)">
      <g>
        <defs id="defs2">
          <clipPath clipPathUnits="userSpaceOnUse" id="clipPath2">
            <path d="M171 20 L319 20 L319 65 L171 65 L171 20 Z" />
          </clipPath>
          <clipPath clipPathUnits="userSpaceOnUse" id="clipPath3">
            <path d="M0 0 L140 0 L140 17 L0 17 L0 0 Z" />
          </clipPath>
          <clipPath clipPathUnits="userSpaceOnUse" id="clipPath4">
            <path d="M0 0 L135 0 L135 17 L0 17 L0 0 Z" />
          </clipPath>
        </defs>
        <g style="fill:white; font-size:11; stroke:white;" transform="translate(5,5)">
          <rect x="171" y="20" width="148" style="clip-path:url(#clipPath2); stroke:none;" height="45" />
          <rect x="171" y="20" width="147" style="clip-path:url(#clipPath2); fill:none; stroke:black;" height="44" />
          <text x="0" y="11" transform="translate(175,24)" style="clip-path:url(#clipPath3); fill:black; stroke:none;" xml:space="preserve">AbstractPCVRCompiler</text>
          <text x="5" y="11" transform="translate(177,44)" style="clip-path:url(#clipPath4); fill:black; stroke:none; font-weight:bold;" xml:space="preserve">PCVRCompilerImpl</text>
        </g>
      </g>
    </a>
    <a onclick="onClick(evt, &apos;../../../../../../../../nexd/de/xplib/nexd/engine/xapi/pcvr/PCVResourceImpl.html&apos;)">
      <g>
        <defs id="defs3">
          <clipPath clipPathUnits="userSpaceOnUse" id="clipPath5">
            <path d="M20 20 L161 20 L161 82 L20 82 L20 20 Z" />
          </clipPath>
          <clipPath clipPathUnits="userSpaceOnUse" id="clipPath6">
            <path d="M0 0 L133 0 L133 17 L0 17 L0 0 Z" />
          </clipPath>
          <clipPath clipPathUnits="userSpaceOnUse" id="clipPath7">
            <path d="M0 0 L85 0 L85 17 L0 17 L0 0 Z" />
          </clipPath>
          <clipPath clipPathUnits="userSpaceOnUse" id="clipPath8">
            <path d="M0 0 L126 0 L126 17 L0 17 L0 0 Z" />
          </clipPath>
        </defs>
        <g style="fill:white; font-size:11; stroke:white;" transform="translate(5,5)">
          <rect x="20" y="20" width="141" style="clip-path:url(#clipPath5); stroke:none;" height="62" />
          <rect x="20" y="20" width="140" style="clip-path:url(#clipPath5); fill:none; stroke:black;" height="61" />
          <text x="0" y="11" transform="translate(24,24)" style="clip-path:url(#clipPath6); fill:black; stroke:none;" xml:space="preserve">AbstractXMLResource</text>
          <text x="0" y="11" transform="translate(24,41)" style="clip-path:url(#clipPath7); fill:black; font-style:italic; stroke:none;" xml:space="preserve">PCVResource</text>
          <text x="5" y="11" transform="translate(27,61)" style="clip-path:url(#clipPath8); fill:black; stroke:none; font-weight:bold;" xml:space="preserve">PCVResourceImpl</text>
        </g>
      </g>
    </a>
    <a onclick="onClick(evt, &apos;../../../../../../../../nexd/de/xplib/nexd/engine/xapi/pcvr/PCVRFactoryImpl.html&apos;)">
      <g>
        <defs id="defs4">
          <clipPath clipPathUnits="userSpaceOnUse" id="clipPath9">
            <path d="M20 92 L160 92 L160 137 L20 137 L20 92 Z" />
          </clipPath>
          <clipPath clipPathUnits="userSpaceOnUse" id="clipPath10">
            <path d="M0 0 L132 0 L132 17 L0 17 L0 0 Z" />
          </clipPath>
          <clipPath clipPathUnits="userSpaceOnUse" id="clipPath11">
            <path d="M0 0 L123 0 L123 17 L0 17 L0 0 Z" />
          </clipPath>
        </defs>
        <g style="fill:white; font-size:11; stroke:white;" transform="translate(5,5)">
          <rect x="20" y="92" width="140" style="clip-path:url(#clipPath9); stroke:none;" height="45" />
          <rect x="20" y="92" width="139" style="clip-path:url(#clipPath9); fill:none; stroke:black;" height="44" />
          <text x="0" y="11" transform="translate(24,96)" style="clip-path:url(#clipPath10); fill:black; stroke:none;" xml:space="preserve">AbstractPCVRFactory</text>
          <text x="5" y="11" transform="translate(28,116)" style="clip-path:url(#clipPath11); fill:black; stroke:none; font-weight:bold;" xml:space="preserve">PCVRFactoryImpl</text>
        </g>
      </g>
    </a>
    <g>
      <script lang="text/ecmascript">
        <![CDATA[
    function onClick(evt, href) {
        navigateTo(href);
        evt.stopPropagation();
    }]]>
      </script>
    </g>
  </g>
</svg>
