<?xml version="1.0" encoding="UTF-8"?>

<!DOCTYPE svg PUBLIC '-//W3C//DTD SVG 1.0//EN' 'http://www.w3.org/TR/2001/REC-SVG-20010904/DTD/svg10.dtd'>
<svg style="fill-opacity:1; color-rendering:auto; color-interpolation:auto; text-rendering:auto; stroke:black; stroke-linecap:square; stroke-miterlimit:10; shape-rendering:auto; stroke-opacity:1; fill:black; stroke-dasharray:none; font-weight:normal; stroke-width:1; font-family:&apos;Dialog&apos;; font-style:normal; stroke-linejoin:miter; font-size:12; stroke-dashoffset:0; image-rendering:auto;" xmlns="http://www.w3.org/2000/svg" width="334" xmlns:xlink="http://www.w3.org/1999/xlink" height="128">
  <!--Generated by Selena using Batik-->
  <defs id="genericDefs" />
  <g>
    <defs id="defs1">
      <clipPath clipPathUnits="userSpaceOnUse" id="clipPath1">
        <path d="M0 0 L12000 0 L12000 12000 L0 12000 L0 0 Z" />
      </clipPath>
      <clipPath clipPathUnits="userSpaceOnUse" id="clipPath11">
        <path d="M153 24 L234 24 L234 41 L153 41 L153 24 Z" />
      </clipPath>
      <clipPath clipPathUnits="userSpaceOnUse" id="clipPath12">
        <path d="M153 24 L170 24 L170 41 L153 41 L153 24 Z" />
      </clipPath>
    </defs>
    <g style="fill:white; stroke:white;">
      <rect x="0" y="0" width="334" style="clip-path:url(#clipPath1); stroke:none;" height="128" />
      <rect x="0" y="0" width="333" style="clip-path:url(#clipPath1); fill:none; stroke:blue;" height="127" />
    </g>
    <a onclick="onClick(evt, &apos;../../../../../../../../../nexd/de/xplib/nexd/engine/xml/dom/xpath/AbstractXPathVisitor.html&apos;)">
      <g>
        <defs id="defs2">
          <clipPath clipPathUnits="userSpaceOnUse" id="clipPath2">
            <path d="M10 10 L153 10 L153 55 L10 55 L10 10 Z" />
          </clipPath>
          <clipPath clipPathUnits="userSpaceOnUse" id="clipPath3">
            <path d="M0 0 L38 0 L38 17 L0 17 L0 0 Z" />
          </clipPath>
          <clipPath clipPathUnits="userSpaceOnUse" id="clipPath4">
            <path d="M0 0 L141 0 L141 17 L0 17 L0 0 Z" />
          </clipPath>
        </defs>
        <g style="fill:white; font-size:11; stroke:white;" transform="translate(5,5)">
          <rect x="10" y="10" width="143" style="clip-path:url(#clipPath2); stroke:none;" height="45" />
          <rect x="10" y="10" width="142" style="clip-path:url(#clipPath2); fill:none; stroke:black;" height="44" />
          <text x="0" y="11" transform="translate(111,14)" style="clip-path:url(#clipPath3); fill:black; font-style:italic; stroke:none;" xml:space="preserve">Visitor</text>
        </g>
        <g style="font-style:italic; font-size:11; font-weight:bold;" transform="translate(16,39)">
          <text x="5" y="11" style="clip-path:url(#clipPath4); stroke:none;" xml:space="preserve">AbstractXPathVisitor</text>
        </g>
      </g>
    </a>
    <a onclick="onClick(evt, &apos;../../../../../../../../../nexd/de/xplib/nexd/engine/xml/dom/xpath/XPathVisitor.html&apos;)">
      <g>
        <defs id="defs3">
          <clipPath clipPathUnits="userSpaceOnUse" id="clipPath5">
            <path d="M233 18 L324 18 L324 46 L233 46 L233 18 Z" />
          </clipPath>
          <clipPath clipPathUnits="userSpaceOnUse" id="clipPath6">
            <path d="M0 0 L89 0 L89 17 L0 17 L0 0 Z" />
          </clipPath>
        </defs>
        <g style="fill:white; font-size:11; stroke:white;" transform="translate(5,5)">
          <rect x="233" y="18" width="91" style="clip-path:url(#clipPath5); stroke:none;" height="28" />
          <rect x="233" y="18" width="90" style="clip-path:url(#clipPath5); fill:none; stroke:black;" height="27" />
          <text x="5" y="11" transform="translate(234,25)" style="clip-path:url(#clipPath6); fill:black; stroke:none; font-weight:bold;" xml:space="preserve">XPathVisitor</text>
        </g>
      </g>
    </a>
    <a onclick="onClick(evt, &apos;../../../../../../../../../nexd/de/xplib/nexd/engine/xml/dom/xpath/XPathAPI.html&apos;)">
      <g>
        <defs id="defs4">
          <clipPath clipPathUnits="userSpaceOnUse" id="clipPath7">
            <path d="M180 90 L253 90 L253 118 L180 118 L180 90 Z" />
          </clipPath>
          <clipPath clipPathUnits="userSpaceOnUse" id="clipPath8">
            <path d="M0 0 L71 0 L71 17 L0 17 L0 0 Z" />
          </clipPath>
        </defs>
        <g style="fill:white; font-size:11; stroke:white;" transform="translate(5,5)">
          <rect x="180" y="90" width="73" style="clip-path:url(#clipPath7); stroke:none;" height="28" />
          <rect x="180" y="90" width="72" style="clip-path:url(#clipPath7); fill:none; stroke:black;" height="27" />
          <text x="5" y="11" transform="translate(181,97)" style="clip-path:url(#clipPath8); fill:black; stroke:none; font-weight:bold;" xml:space="preserve">XPathAPI</text>
        </g>
      </g>
    </a>
    <a onclick="onClick(evt, &apos;../../../../../../../../../nexd/de/xplib/nexd/engine/xml/dom/xpath/NodeListWithPosition.html&apos;)">
      <g>
        <defs id="defs5">
          <clipPath clipPathUnits="userSpaceOnUse" id="clipPath9">
            <path d="M10 90 L160 90 L160 118 L10 118 L10 90 Z" />
          </clipPath>
          <clipPath clipPathUnits="userSpaceOnUse" id="clipPath10">
            <path d="M0 0 L148 0 L148 17 L0 17 L0 0 Z" />
          </clipPath>
        </defs>
        <g style="fill:white; font-size:11; stroke:white;" transform="translate(5,5)">
          <rect x="10" y="90" width="150" style="clip-path:url(#clipPath9); stroke:none;" height="28" />
          <rect x="10" y="90" width="149" style="clip-path:url(#clipPath9); fill:none; stroke:black;" height="27" />
          <text x="5" y="11" transform="translate(11,97)" style="clip-path:url(#clipPath10); fill:black; stroke:none; font-weight:bold;" xml:space="preserve">NodeListWithPosition</text>
        </g>
      </g>
    </a>
    <g style="font-size:11;" transform="translate(5,5)">
      <path d="M233 32 L153 32" style="fill:none; clip-path:url(#clipPath11);" />
      <polygon style="fill:white; clip-path:url(#clipPath12); stroke:none;" points=" 153 32 169 24 169 40" />
      <polygon style="fill:none; clip-path:url(#clipPath12);" points=" 153 32 169 24 169 40" />
    </g>
    <g>
      <script lang="text/ecmascript">
        <![CDATA[
    function onClick(evt, href) {
        navigateTo(href);
        evt.stopPropagation();
    }]]>
      </script>
    </g>
  </g>
</svg>
