<?xml version="1.0" encoding="UTF-8"?>

<!DOCTYPE svg PUBLIC '-//W3C//DTD SVG 1.0//EN' 'http://www.w3.org/TR/2001/REC-SVG-20010904/DTD/svg10.dtd'>
<svg style="fill-opacity:1; color-rendering:auto; color-interpolation:auto; text-rendering:auto; stroke:black; stroke-linecap:square; stroke-miterlimit:10; shape-rendering:auto; stroke-opacity:1; fill:black; stroke-dasharray:none; font-weight:normal; stroke-width:1; font-family:&apos;Dialog&apos;; font-style:normal; stroke-linejoin:miter; font-size:12; stroke-dashoffset:0; image-rendering:auto;" xmlns="http://www.w3.org/2000/svg" width="1024" xmlns:xlink="http://www.w3.org/1999/xlink" height="416">
  <!--Generated by Selena using Batik-->
  <defs id="genericDefs" />
  <g>
    <defs id="defs1">
      <clipPath clipPathUnits="userSpaceOnUse" id="clipPath1">
        <path d="M0 0 L12000 0 L12000 12000 L0 12000 L0 0 Z" />
      </clipPath>
      <clipPath clipPathUnits="userSpaceOnUse" id="clipPath32">
        <path d="M575 269 L656 269 L656 286 L575 286 L575 269 Z" />
      </clipPath>
      <clipPath clipPathUnits="userSpaceOnUse" id="clipPath33">
        <path d="M575 269 L592 269 L592 286 L575 286 L575 269 Z" />
      </clipPath>
      <clipPath clipPathUnits="userSpaceOnUse" id="clipPath34">
        <path d="M187 137 L419 137 L419 154 L187 154 L187 137 Z" />
      </clipPath>
      <clipPath clipPathUnits="userSpaceOnUse" id="clipPath35">
        <path d="M401 137 L418 137 L418 154 L401 154 L401 137 Z" />
      </clipPath>
      <clipPath clipPathUnits="userSpaceOnUse" id="clipPath36">
        <path d="M549 55 L902 55 L902 136 L549 136 L549 55 Z" />
      </clipPath>
      <clipPath clipPathUnits="userSpaceOnUse" id="clipPath37">
        <path d="M550 119 L568 119 L568 136 L550 136 L550 119 Z" />
      </clipPath>
      <clipPath clipPathUnits="userSpaceOnUse" id="clipPath38">
        <path d="M505 55 L688 55 L688 118 L505 118 L505 55 Z" />
      </clipPath>
      <clipPath clipPathUnits="userSpaceOnUse" id="clipPath39">
        <path d="M506 101 L525 101 L525 118 L506 118 L506 101 Z" />
      </clipPath>
      <clipPath clipPathUnits="userSpaceOnUse" id="clipPath40">
        <path d="M475 177 L492 177 L492 264 L475 264 L475 177 Z" />
      </clipPath>
      <clipPath clipPathUnits="userSpaceOnUse" id="clipPath41">
        <path d="M475 177 L492 177 L492 194 L475 194 L475 177 Z" />
      </clipPath>
      <clipPath clipPathUnits="userSpaceOnUse" id="clipPath42">
        <path d="M171 51 L440 51 L440 119 L171 119 L171 51 Z" />
      </clipPath>
      <clipPath clipPathUnits="userSpaceOnUse" id="clipPath43">
        <path d="M420 103 L438 103 L438 119 L420 119 L420 103 Z" />
      </clipPath>
      <clipPath clipPathUnits="userSpaceOnUse" id="clipPath44">
        <path d="M475 55 L492 55 L492 116 L475 116 L475 55 Z" />
      </clipPath>
      <clipPath clipPathUnits="userSpaceOnUse" id="clipPath45">
        <path d="M475 98 L492 98 L492 115 L475 115 L475 98 Z" />
      </clipPath>
      <clipPath clipPathUnits="userSpaceOnUse" id="clipPath46">
        <path d="M267 55 L462 55 L462 118 L267 118 L267 55 Z" />
      </clipPath>
      <clipPath clipPathUnits="userSpaceOnUse" id="clipPath47">
        <path d="M441 102 L460 102 L460 118 L441 118 L441 102 Z" />
      </clipPath>
      <clipPath clipPathUnits="userSpaceOnUse" id="clipPath48">
        <path d="M474 291 L491 291 L491 362 L474 362 L474 291 Z" />
      </clipPath>
      <clipPath clipPathUnits="userSpaceOnUse" id="clipPath49">
        <path d="M474 291 L491 291 L491 308 L474 308 L474 291 Z" />
      </clipPath>
    </defs>
    <g style="fill:white; stroke:white;">
      <rect x="0" y="0" width="1024" style="clip-path:url(#clipPath1); stroke:none;" height="416" />
      <rect x="0" y="0" width="1023" style="clip-path:url(#clipPath1); fill:none; stroke:blue;" height="415" />
    </g>
    <a onclick="onClick(evt, &apos;../../../../../../../../nexd/de/xplib/nexd/engine/xapi/services/AbstractService.html&apos;)">
      <g>
        <defs id="defs2">
          <clipPath clipPathUnits="userSpaceOnUse" id="clipPath2">
            <path d="M418 115 L549 115 L549 177 L418 177 L418 115 Z" />
          </clipPath>
          <clipPath clipPathUnits="userSpaceOnUse" id="clipPath3">
            <path d="M0 0 L123 0 L123 17 L0 17 L0 0 Z" />
          </clipPath>
          <clipPath clipPathUnits="userSpaceOnUse" id="clipPath4">
            <path d="M0 0 L45 0 L45 17 L0 17 L0 0 Z" />
          </clipPath>
          <clipPath clipPathUnits="userSpaceOnUse" id="clipPath5">
            <path d="M0 0 L109 0 L109 17 L0 17 L0 0 Z" />
          </clipPath>
        </defs>
        <g style="fill:white; font-size:11; stroke:white;" transform="translate(5,5)">
          <rect x="418" y="115" width="131" style="clip-path:url(#clipPath2); stroke:none;" height="62" />
          <rect x="418" y="115" width="130" style="clip-path:url(#clipPath2); fill:none; stroke:black;" height="61" />
          <text x="0" y="11" transform="translate(422,119)" style="clip-path:url(#clipPath3); fill:black; stroke:none;" xml:space="preserve">AbstractConfigurable</text>
          <text x="0" y="11" transform="translate(422,136)" style="clip-path:url(#clipPath4); fill:black; font-style:italic; stroke:none;" xml:space="preserve">Service</text>
        </g>
        <g style="font-style:italic; font-size:11; font-weight:bold;" transform="translate(434,161)">
          <text x="5" y="11" style="clip-path:url(#clipPath5); stroke:none;" xml:space="preserve">AbstractService</text>
        </g>
      </g>
    </a>
    <a onclick="onClick(evt, &apos;../../../../../../../../nexd/de/xplib/nexd/engine/xapi/services/XUpdateQueryServiceImpl.html&apos;)">
      <g>
        <defs id="defs3">
          <clipPath clipPathUnits="userSpaceOnUse" id="clipPath6">
            <path d="M10 123 L187 123 L187 168 L10 168 L10 123 Z" />
          </clipPath>
          <clipPath clipPathUnits="userSpaceOnUse" id="clipPath7">
            <path d="M0 0 L131 0 L131 17 L0 17 L0 0 Z" />
          </clipPath>
          <clipPath clipPathUnits="userSpaceOnUse" id="clipPath8">
            <path d="M0 0 L175 0 L175 17 L0 17 L0 0 Z" />
          </clipPath>
        </defs>
        <g style="fill:white; font-size:11; stroke:white;" transform="translate(5,5)">
          <rect x="10" y="123" width="177" style="clip-path:url(#clipPath6); stroke:none;" height="45" />
          <rect x="10" y="123" width="176" style="clip-path:url(#clipPath6); fill:none; stroke:black;" height="44" />
          <text x="0" y="11" transform="translate(52,127)" style="clip-path:url(#clipPath7); fill:black; font-style:italic; stroke:none;" xml:space="preserve">XUpdateQueryService</text>
          <text x="5" y="11" transform="translate(11,147)" style="clip-path:url(#clipPath8); fill:black; stroke:none; font-weight:bold;" xml:space="preserve">XUpdateQueryServiceImpl</text>
        </g>
      </g>
    </a>
    <a onclick="onClick(evt, &apos;../../../../../../../../nexd/de/xplib/nexd/engine/xapi/services/AbstractNamespaceService.html&apos;)">
      <g>
        <defs id="defs4">
          <clipPath clipPathUnits="userSpaceOnUse" id="clipPath9">
            <path d="M392 263 L575 263 L575 291 L392 291 L392 263 Z" />
          </clipPath>
          <clipPath clipPathUnits="userSpaceOnUse" id="clipPath10">
            <path d="M0 0 L181 0 L181 17 L0 17 L0 0 Z" />
          </clipPath>
        </defs>
        <g style="fill:white; font-size:11; stroke:white;" transform="translate(5,5)">
          <rect x="392" y="263" width="183" style="clip-path:url(#clipPath9); stroke:none;" height="28" />
          <rect x="392" y="263" width="182" style="clip-path:url(#clipPath9); fill:none; stroke:black;" height="27" />
        </g>
        <g style="font-style:italic; font-size:11; font-weight:bold;" transform="translate(398,275)">
          <text x="5" y="11" style="clip-path:url(#clipPath10); stroke:none;" xml:space="preserve">AbstractNamespaceService</text>
        </g>
      </g>
    </a>
    <a onclick="onClick(evt, &apos;../../../../../../../../nexd/de/xplib/nexd/engine/xapi/services/VirtualCollectionManagementServiceImpl.html&apos;)">
      <g>
        <defs id="defs5">
          <clipPath clipPathUnits="userSpaceOnUse" id="clipPath11">
            <path d="M364 10 L587 10 L587 55 L364 55 L364 10 Z" />
          </clipPath>
          <clipPath clipPathUnits="userSpaceOnUse" id="clipPath12">
            <path d="M0 0 L215 0 L215 17 L0 17 L0 0 Z" />
          </clipPath>
          <clipPath clipPathUnits="userSpaceOnUse" id="clipPath13">
            <path d="M0 0 L221 0 L221 17 L0 17 L0 0 Z" />
          </clipPath>
        </defs>
        <g style="fill:white; font-size:11; stroke:white;" transform="translate(5,5)">
          <rect x="364" y="10" width="223" style="clip-path:url(#clipPath11); stroke:none;" height="45" />
          <rect x="364" y="10" width="222" style="clip-path:url(#clipPath11); fill:none; stroke:black;" height="44" />
          <text x="0" y="11" transform="translate(368,14)" style="clip-path:url(#clipPath12); fill:black; font-style:italic; stroke:none;" xml:space="preserve">VirtualCollectionManagementService</text>
          <text x="5" y="11" transform="translate(365,34)" style="clip-path:url(#clipPath13); fill:black; stroke:none; font-weight:bold;" xml:space="preserve">VirtualCollectionManagementS...</text>
        </g>
      </g>
    </a>
    <a onclick="onClick(evt, &apos;../../../../../../../../nexd/de/xplib/nexd/engine/xapi/services/StatementServiceImpl.html&apos;)">
      <g>
        <defs id="defs6">
          <clipPath clipPathUnits="userSpaceOnUse" id="clipPath14">
            <path d="M191 10 L344 10 L344 55 L191 55 L191 10 Z" />
          </clipPath>
          <clipPath clipPathUnits="userSpaceOnUse" id="clipPath15">
            <path d="M0 0 L145 0 L145 17 L0 17 L0 0 Z" />
          </clipPath>
          <clipPath clipPathUnits="userSpaceOnUse" id="clipPath16">
            <path d="M0 0 L147 0 L147 17 L0 17 L0 0 Z" />
          </clipPath>
        </defs>
        <g style="fill:white; font-size:11; stroke:white;" transform="translate(5,5)">
          <rect x="191" y="10" width="153" style="clip-path:url(#clipPath14); stroke:none;" height="45" />
          <rect x="191" y="10" width="152" style="clip-path:url(#clipPath14); fill:none; stroke:black;" height="44" />
          <text x="0" y="11" transform="translate(195,14)" style="clip-path:url(#clipPath15); fill:black; font-style:italic; stroke:none;" xml:space="preserve">SixdmlStatementService</text>
          <text x="5" y="11" transform="translate(194,34)" style="clip-path:url(#clipPath16); fill:black; stroke:none; font-weight:bold;" xml:space="preserve">StatementServiceImpl</text>
        </g>
      </g>
    </a>
    <a onclick="onClick(evt, &apos;../../../../../../../../nexd/de/xplib/nexd/engine/xapi/services/UpdateServiceImpl.html&apos;)">
      <g>
        <defs id="defs7">
          <clipPath clipPathUnits="userSpaceOnUse" id="clipPath17">
            <path d="M655 255 L790 255 L790 300 L655 300 L655 255 Z" />
          </clipPath>
          <clipPath clipPathUnits="userSpaceOnUse" id="clipPath18">
            <path d="M0 0 L127 0 L127 17 L0 17 L0 0 Z" />
          </clipPath>
          <clipPath clipPathUnits="userSpaceOnUse" id="clipPath19">
            <path d="M0 0 L129 0 L129 17 L0 17 L0 0 Z" />
          </clipPath>
        </defs>
        <g style="fill:white; font-size:11; stroke:white;" transform="translate(5,5)">
          <rect x="655" y="255" width="135" style="clip-path:url(#clipPath17); stroke:none;" height="45" />
          <rect x="655" y="255" width="134" style="clip-path:url(#clipPath17); fill:none; stroke:black;" height="44" />
          <text x="0" y="11" transform="translate(659,259)" style="clip-path:url(#clipPath18); fill:black; font-style:italic; stroke:none;" xml:space="preserve">SixdmlUpdateService</text>
          <text x="5" y="11" transform="translate(658,279)" style="clip-path:url(#clipPath19); fill:black; stroke:none; font-weight:bold;" xml:space="preserve">UpdateServiceImpl</text>
        </g>
      </g>
    </a>
    <a onclick="onClick(evt, &apos;../../../../../../../../nexd/de/xplib/nexd/engine/xapi/services/CollectionManagementServiceImpl.html&apos;)">
      <g>
        <defs id="defs8">
          <clipPath clipPathUnits="userSpaceOnUse" id="clipPath20">
            <path d="M788 10 L1014 10 L1014 55 L788 55 L788 10 Z" />
          </clipPath>
          <clipPath clipPathUnits="userSpaceOnUse" id="clipPath21">
            <path d="M0 0 L218 0 L218 17 L0 17 L0 0 Z" />
          </clipPath>
          <clipPath clipPathUnits="userSpaceOnUse" id="clipPath22">
            <path d="M0 0 L224 0 L224 17 L0 17 L0 0 Z" />
          </clipPath>
        </defs>
        <g style="fill:white; font-size:11; stroke:white;" transform="translate(5,5)">
          <rect x="788" y="10" width="226" style="clip-path:url(#clipPath20); stroke:none;" height="45" />
          <rect x="788" y="10" width="225" style="clip-path:url(#clipPath20); fill:none; stroke:black;" height="44" />
          <text x="0" y="11" transform="translate(792,14)" style="clip-path:url(#clipPath21); fill:black; font-style:italic; stroke:none;" xml:space="preserve">SixdmlCollectionManagementService</text>
          <text x="5" y="11" transform="translate(789,34)" style="clip-path:url(#clipPath22); fill:black; stroke:none; font-weight:bold;" xml:space="preserve">CollectionManagementServiceI...</text>
        </g>
      </g>
    </a>
    <a onclick="onClick(evt, &apos;../../../../../../../../nexd/de/xplib/nexd/engine/xapi/services/XPathQueryServiceImpl.html&apos;)">
      <g>
        <defs id="defs9">
          <clipPath clipPathUnits="userSpaceOnUse" id="clipPath23">
            <path d="M10 10 L171 10 L171 55 L10 55 L10 10 Z" />
          </clipPath>
          <clipPath clipPathUnits="userSpaceOnUse" id="clipPath24">
            <path d="M0 0 L116 0 L116 17 L0 17 L0 0 Z" />
          </clipPath>
          <clipPath clipPathUnits="userSpaceOnUse" id="clipPath25">
            <path d="M0 0 L159 0 L159 17 L0 17 L0 0 Z" />
          </clipPath>
        </defs>
        <g style="fill:white; font-size:11; stroke:white;" transform="translate(5,5)">
          <rect x="10" y="10" width="161" style="clip-path:url(#clipPath23); stroke:none;" height="45" />
          <rect x="10" y="10" width="160" style="clip-path:url(#clipPath23); fill:none; stroke:black;" height="44" />
          <text x="0" y="11" transform="translate(51,14)" style="clip-path:url(#clipPath24); fill:black; font-style:italic; stroke:none;" xml:space="preserve">XPathQueryService</text>
          <text x="5" y="11" transform="translate(11,34)" style="clip-path:url(#clipPath25); fill:black; stroke:none; font-weight:bold;" xml:space="preserve">XPathQueryServiceImpl</text>
        </g>
      </g>
    </a>
    <a onclick="onClick(evt, &apos;../../../../../../../../nexd/de/xplib/nexd/engine/xapi/services/TransactionServiceImpl.html&apos;)">
      <g>
        <defs id="defs10">
          <clipPath clipPathUnits="userSpaceOnUse" id="clipPath26">
            <path d="M607 10 L768 10 L768 55 L607 55 L607 10 Z" />
          </clipPath>
          <clipPath clipPathUnits="userSpaceOnUse" id="clipPath27">
            <path d="M0 0 L153 0 L153 17 L0 17 L0 0 Z" />
          </clipPath>
          <clipPath clipPathUnits="userSpaceOnUse" id="clipPath28">
            <path d="M0 0 L158 0 L158 17 L0 17 L0 0 Z" />
          </clipPath>
        </defs>
        <g style="fill:white; font-size:11; stroke:white;" transform="translate(5,5)">
          <rect x="607" y="10" width="161" style="clip-path:url(#clipPath26); stroke:none;" height="45" />
          <rect x="607" y="10" width="160" style="clip-path:url(#clipPath26); fill:none; stroke:black;" height="44" />
          <text x="0" y="11" transform="translate(611,14)" style="clip-path:url(#clipPath27); fill:black; font-style:italic; stroke:none;" xml:space="preserve">SixdmlTransactionService</text>
          <text x="5" y="11" transform="translate(608,34)" style="clip-path:url(#clipPath28); fill:black; stroke:none; font-weight:bold;" xml:space="preserve">TransactionServiceImpl</text>
        </g>
      </g>
    </a>
    <a onclick="onClick(evt, &apos;../../../../../../../../nexd/de/xplib/nexd/engine/xapi/services/QueryServiceImpl.html&apos;)">
      <g>
        <defs id="defs11">
          <clipPath clipPathUnits="userSpaceOnUse" id="clipPath29">
            <path d="M419 361 L547 361 L547 406 L419 406 L419 361 Z" />
          </clipPath>
          <clipPath clipPathUnits="userSpaceOnUse" id="clipPath30">
            <path d="M0 0 L120 0 L120 17 L0 17 L0 0 Z" />
          </clipPath>
          <clipPath clipPathUnits="userSpaceOnUse" id="clipPath31">
            <path d="M0 0 L122 0 L122 17 L0 17 L0 0 Z" />
          </clipPath>
        </defs>
        <g style="fill:white; font-size:11; stroke:white;" transform="translate(5,5)">
          <rect x="419" y="361" width="128" style="clip-path:url(#clipPath29); stroke:none;" height="45" />
          <rect x="419" y="361" width="127" style="clip-path:url(#clipPath29); fill:none; stroke:black;" height="44" />
          <text x="0" y="11" transform="translate(423,365)" style="clip-path:url(#clipPath30); fill:black; font-style:italic; stroke:none;" xml:space="preserve">SixdmlQueryService</text>
          <text x="5" y="11" transform="translate(422,385)" style="clip-path:url(#clipPath31); fill:black; stroke:none; font-weight:bold;" xml:space="preserve">QueryServiceImpl</text>
        </g>
      </g>
    </a>
    <g style="font-size:11;" transform="translate(5,5)">
      <path d="M655 277 L575 277" style="fill:none; clip-path:url(#clipPath32);" />
      <polygon style="fill:white; clip-path:url(#clipPath33); stroke:none;" points=" 575 277 591 269 591 285" />
      <polygon style="fill:none; clip-path:url(#clipPath33);" points=" 575 277 591 269 591 285" />
      <path d="M187 145 L418 145" style="fill:none; clip-path:url(#clipPath34);" />
      <polygon style="fill:white; clip-path:url(#clipPath35); stroke:none;" points=" 417 145 401 153 401 137" />
      <polygon style="fill:none; clip-path:url(#clipPath35);" points=" 417 145 401 153 401 137" />
      <path d="M901 55 L549 131" style="fill:none; clip-path:url(#clipPath36);" />
      <polygon style="fill:white; clip-path:url(#clipPath37); stroke:none;" points=" 550 130 564 119 567 135" />
      <polygon style="fill:none; clip-path:url(#clipPath37);" points=" 550 130 564 119 567 135" />
      <path d="M687 55 L505 115" style="fill:none; clip-path:url(#clipPath38);" />
      <polygon style="fill:white; clip-path:url(#clipPath39); stroke:none;" points=" 506 114 519 101 524 117" />
      <polygon style="fill:none; clip-path:url(#clipPath39);" points=" 506 114 519 101 524 117" />
      <path d="M483 263 L483 177" style="fill:none; clip-path:url(#clipPath40);" />
      <polygon style="fill:white; clip-path:url(#clipPath41); stroke:none;" points=" 483 177 491 193 475 193" />
      <polygon style="fill:none; clip-path:url(#clipPath41);" points=" 483 177 491 193 475 193" />
      <path d="M171 51 L439 115" style="fill:none; clip-path:url(#clipPath42);" />
      <polygon style="fill:white; clip-path:url(#clipPath43); stroke:none;" points=" 437 114 420 118 423 103" />
      <polygon style="fill:none; clip-path:url(#clipPath43);" points=" 437 114 420 118 423 103" />
      <path d="M483 55 L483 115" style="fill:none; clip-path:url(#clipPath44);" />
      <polygon style="fill:white; clip-path:url(#clipPath45); stroke:none;" points=" 483 114 475 98 491 98" />
      <polygon style="fill:none; clip-path:url(#clipPath45);" points=" 483 114 475 98 491 98" />
      <path d="M267 55 L461 115" style="fill:none; clip-path:url(#clipPath46);" />
      <polygon style="fill:white; clip-path:url(#clipPath47); stroke:none;" points=" 459 114 441 117 446 102" />
      <polygon style="fill:none; clip-path:url(#clipPath47);" points=" 459 114 441 117 446 102" />
      <path d="M483 361 L483 291" style="fill:none; clip-path:url(#clipPath48);" />
      <polygon style="fill:white; clip-path:url(#clipPath49); stroke:none;" points=" 482 291 490 307 474 307" />
      <polygon style="fill:none; clip-path:url(#clipPath49);" points=" 482 291 490 307 474 307" />
    </g>
    <g>
      <script lang="text/ecmascript">
        <![CDATA[
    function onClick(evt, href) {
        navigateTo(href);
        evt.stopPropagation();
    }]]>
      </script>
    </g>
  </g>
</svg>
