<?xml version="1.0" encoding="UTF-8"?>

<!DOCTYPE svg PUBLIC '-//W3C//DTD SVG 1.0//EN' 'http://www.w3.org/TR/2001/REC-SVG-20010904/DTD/svg10.dtd'>
<svg style="fill-opacity:1; color-rendering:auto; color-interpolation:auto; text-rendering:auto; stroke:black; stroke-linecap:square; stroke-miterlimit:10; shape-rendering:auto; stroke-opacity:1; fill:black; stroke-dasharray:none; font-weight:normal; stroke-width:1; font-family:&apos;Dialog&apos;; font-style:normal; stroke-linejoin:miter; font-size:12; stroke-dashoffset:0; image-rendering:auto;" xmlns="http://www.w3.org/2000/svg" width="379" xmlns:xlink="http://www.w3.org/1999/xlink" height="165">
  <!--Generated by Selena using Batik-->
  <defs id="genericDefs" />
  <g>
    <defs id="defs1">
      <clipPath clipPathUnits="userSpaceOnUse" id="clipPath1">
        <path d="M0 0 L12000 0 L12000 12000 L0 12000 L0 0 Z" />
      </clipPath>
      <clipPath clipPathUnits="userSpaceOnUse" id="clipPath13">
        <path d="M171 26 L252 26 L252 43 L171 43 L171 26 Z" />
      </clipPath>
      <clipPath clipPathUnits="userSpaceOnUse" id="clipPath14">
        <path d="M234 26 L251 26 L251 43 L234 43 L234 26 Z" />
      </clipPath>
      <clipPath clipPathUnits="userSpaceOnUse" id="clipPath15">
        <path d="M-14 40 L114 40 L114 119 L-14 119 L-14 40 Z" />
      </clipPath>
      <clipPath clipPathUnits="userSpaceOnUse" id="clipPath16">
        <path d="M85 97 L96 97 L96 118 L85 118 L85 97 Z" />
      </clipPath>
      <clipPath clipPathUnits="userSpaceOnUse" id="clipPath17">
        <path d="M85 48 L96 48 L96 59 L85 59 L85 48 Z" />
      </clipPath>
      <clipPath clipPathUnits="userSpaceOnUse" id="clipPath18">
        <path d="M0 0 L101 0 L101 21 L0 21 L0 0 Z" />
      </clipPath>
      <clipPath clipPathUnits="userSpaceOnUse" id="clipPath19">
        <path d="M0 0 L1 0 L1 17 L0 17 L0 0 Z" />
      </clipPath>
      <clipPath clipPathUnits="userSpaceOnUse" id="clipPath20">
        <path d="M0 0 L8 0 L8 17 L0 17 L0 0 Z" />
      </clipPath>
      <clipPath clipPathUnits="userSpaceOnUse" id="clipPath21">
        <path d="M0 0 L21 0 L21 17 L0 17 L0 0 Z" />
      </clipPath>
    </defs>
    <g style="fill:white; stroke:white;">
      <rect x="0" y="0" width="379" style="clip-path:url(#clipPath1); stroke:none;" height="165" />
      <rect x="0" y="0" width="378" style="clip-path:url(#clipPath1); fill:none; stroke:blue;" height="164" />
    </g>
    <a onclick="onClick(evt, &apos;../../../../../../../nexd/de/xplib/nexd/api/pcvr/PCVRCompiler.html&apos;)">
      <g>
        <defs id="defs2">
          <clipPath clipPathUnits="userSpaceOnUse" id="clipPath2">
            <path d="M251 10 L360 10 L360 58 L251 58 L251 10 Z" />
          </clipPath>
          <clipPath clipPathUnits="userSpaceOnUse" id="clipPath3">
            <path d="M0 0 L57 0 L57 17 L0 17 L0 0 Z" />
          </clipPath>
          <clipPath clipPathUnits="userSpaceOnUse" id="clipPath4">
            <path d="M0 0 L107 0 L107 17 L0 17 L0 0 Z" />
          </clipPath>
        </defs>
        <g style="fill:white; font-size:11; stroke:white;" transform="translate(14,5)">
          <rect x="251" y="10" width="109" style="clip-path:url(#clipPath2); stroke:none;" height="48" />
          <rect x="251" y="10" width="108" style="clip-path:url(#clipPath2); fill:none; stroke:black;" height="47" />
          <text x="3" y="11" transform="translate(277,17)" style="clip-path:url(#clipPath3); fill:black; stroke:none;" xml:space="preserve">interface</text>
        </g>
        <g style="font-style:italic; font-size:11; font-weight:bold;" transform="translate(266,42)">
          <text x="5" y="11" style="clip-path:url(#clipPath4); stroke:none;" xml:space="preserve">PCVRCompiler</text>
        </g>
      </g>
    </a>
    <a onclick="onClick(evt, &apos;../../../../../../../nexd/de/xplib/nexd/api/pcvr/PCVResource.html&apos;)">
      <g>
        <defs id="defs3">
          <clipPath clipPathUnits="userSpaceOnUse" id="clipPath5">
            <path d="M185 90 L285 90 L285 155 L185 155 L185 90 Z" />
          </clipPath>
          <clipPath clipPathUnits="userSpaceOnUse" id="clipPath6">
            <path d="M0 0 L84 0 L84 17 L0 17 L0 0 Z" />
          </clipPath>
          <clipPath clipPathUnits="userSpaceOnUse" id="clipPath7">
            <path d="M0 0 L57 0 L57 17 L0 17 L0 0 Z" />
          </clipPath>
          <clipPath clipPathUnits="userSpaceOnUse" id="clipPath8">
            <path d="M0 0 L98 0 L98 17 L0 17 L0 0 Z" />
          </clipPath>
        </defs>
        <g style="fill:white; font-size:11; stroke:white;" transform="translate(14,5)">
          <rect x="185" y="90" width="100" style="clip-path:url(#clipPath5); stroke:none;" height="65" />
          <rect x="185" y="90" width="99" style="clip-path:url(#clipPath5); fill:none; stroke:black;" height="64" />
          <text x="0" y="11" transform="translate(197,94)" style="clip-path:url(#clipPath6); fill:black; stroke:none;" xml:space="preserve">XMLResource</text>
          <text x="3" y="11" transform="translate(206,114)" style="clip-path:url(#clipPath7); fill:black; stroke:none;" xml:space="preserve">interface</text>
        </g>
        <g style="font-style:italic; font-size:11; font-weight:bold;" transform="translate(200,139)">
          <text x="5" y="11" style="clip-path:url(#clipPath8); stroke:none;" xml:space="preserve">PCVResource</text>
        </g>
      </g>
    </a>
    <a onclick="onClick(evt, &apos;../../../../../../../nexd/de/xplib/nexd/api/pcvr/AbstractPCVRFactory.html&apos;)">
      <g>
        <defs id="defs4">
          <clipPath clipPathUnits="userSpaceOnUse" id="clipPath9">
            <path d="M16 118 L165 118 L165 146 L16 146 L16 118 Z" />
          </clipPath>
          <clipPath clipPathUnits="userSpaceOnUse" id="clipPath10">
            <path d="M0 0 L147 0 L147 17 L0 17 L0 0 Z" />
          </clipPath>
        </defs>
        <g style="fill:white; font-size:11; stroke:white;" transform="translate(14,5)">
          <rect x="16" y="118" width="149" style="clip-path:url(#clipPath9); stroke:none;" height="28" />
          <rect x="16" y="118" width="148" style="clip-path:url(#clipPath9); fill:none; stroke:black;" height="27" />
        </g>
        <g style="font-style:italic; font-size:11; font-weight:bold;" transform="translate(31,130)">
          <text x="5" y="11" style="clip-path:url(#clipPath10); stroke:none;" xml:space="preserve">AbstractPCVRFactory</text>
        </g>
      </g>
    </a>
    <a onclick="onClick(evt, &apos;../../../../../../../nexd/de/xplib/nexd/api/pcvr/AbstractPCVRCompiler.html&apos;)">
      <g>
        <defs id="defs5">
          <clipPath clipPathUnits="userSpaceOnUse" id="clipPath11">
            <path d="M10 20 L171 20 L171 48 L10 48 L10 20 Z" />
          </clipPath>
          <clipPath clipPathUnits="userSpaceOnUse" id="clipPath12">
            <path d="M0 0 L159 0 L159 17 L0 17 L0 0 Z" />
          </clipPath>
        </defs>
        <g style="fill:white; font-size:11; stroke:white;" transform="translate(14,5)">
          <rect x="10" y="20" width="161" style="clip-path:url(#clipPath11); stroke:none;" height="28" />
          <rect x="10" y="20" width="160" style="clip-path:url(#clipPath11); fill:none; stroke:black;" height="27" />
        </g>
        <g style="font-style:italic; font-size:11; font-weight:bold;" transform="translate(25,32)">
          <text x="5" y="11" style="clip-path:url(#clipPath12); stroke:none;" xml:space="preserve">AbstractPCVRCompiler</text>
        </g>
      </g>
    </a>
    <g transform="translate(14,5)" style="font-size:11; stroke-linecap:butt; fill:rgb(0,127,0); stroke-dasharray:18,6; stroke:rgb(0,127,0);">
      <path d="M171 34 L251 34" style="fill:none; clip-path:url(#clipPath13);" />
      <polygon points=" 250 34 234 42 234 26" style="stroke-dasharray:none; clip-path:url(#clipPath14); stroke-linecap:square; stroke:none;" />
      <polygon points=" 250 34 234 42 234 26" style="fill:none; stroke-dasharray:none; clip-path:url(#clipPath14); stroke-linecap:square;" />
    </g>
    <g style="fill:rgb(0,0,127); font-size:11; stroke:rgb(0,0,127);" transform="translate(14,5)">
      <path d="M90 118 L90 48" style="fill:none; clip-path:url(#clipPath15);" />
      <polygon style="fill:white; clip-path:url(#clipPath16); stroke:none;" points=" 90 97 85 107 90 117 95 107 90 97" />
      <polygon style="fill:none; clip-path:url(#clipPath16);" points=" 90 97 85 107 90 117 95 107 90 97" />
      <polygon style="clip-path:url(#clipPath17); stroke:none;" points=" 90 48 85 58 90 48 95 58 90 48" />
      <polygon style="fill:none; clip-path:url(#clipPath17);" points=" 90 48 85 58 90 48 95 58 90 48" />
      <text x="2" y="13" transform="translate(-14,53)" style="clip-path:url(#clipPath18); stroke:none;" xml:space="preserve">creates instance</text>
      <text x="0" y="11" transform="translate(76,75)" style="clip-path:url(#clipPath19); stroke:none;" xml:space="preserve"></text>
      <text x="0" y="11" transform="translate(93,91)" style="clip-path:url(#clipPath20); stroke:none;" xml:space="preserve">1</text>
      <text x="0" y="11" transform="translate(86,81)" style="clip-path:url(#clipPath19); stroke:none;" xml:space="preserve"></text>
      <text x="0" y="11" transform="translate(93,51)" style="clip-path:url(#clipPath21); stroke:none;" xml:space="preserve">0..*</text>
      <text x="0" y="11" transform="translate(86,40)" style="clip-path:url(#clipPath19); stroke:none;" xml:space="preserve"></text>
    </g>
    <g>
      <script lang="text/ecmascript">
        <![CDATA[
    function onClick(evt, href) {
        navigateTo(href);
        evt.stopPropagation();
    }]]>
      </script>
    </g>
  </g>
</svg>
