<?xml version="1.0" encoding="UTF-8"?>

<!DOCTYPE svg PUBLIC '-//W3C//DTD SVG 1.0//EN' 'http://www.w3.org/TR/2001/REC-SVG-20010904/DTD/svg10.dtd'>
<svg style="fill-opacity:1; color-rendering:auto; color-interpolation:auto; text-rendering:auto; stroke:black; stroke-linecap:square; stroke-miterlimit:10; shape-rendering:auto; stroke-opacity:1; fill:black; stroke-dasharray:none; font-weight:normal; stroke-width:1; font-family:&apos;Dialog&apos;; font-style:normal; stroke-linejoin:miter; font-size:12; stroke-dashoffset:0; image-rendering:auto;" xmlns="http://www.w3.org/2000/svg" width="228" xmlns:xlink="http://www.w3.org/1999/xlink" height="129">
  <!--Generated by Selena using Batik-->
  <defs id="genericDefs" />
  <g>
    <defs id="defs1">
      <clipPath clipPathUnits="userSpaceOnUse" id="clipPath1">
        <path d="M0 0 L12000 0 L12000 12000 L0 12000 L0 0 Z" />
      </clipPath>
    </defs>
    <g style="fill:white; stroke:white;">
      <rect x="0" y="0" width="228" style="clip-path:url(#clipPath1); stroke:none;" height="129" />
      <rect x="0" y="0" width="227" style="clip-path:url(#clipPath1); fill:none; stroke:blue;" height="128" />
    </g>
    <a onclick="onClick(evt, &apos;../../../../../nexd/de/xplib/nexd/util/util.html&apos;)">
      <g>
        <defs id="defs2">
          <clipPath clipPathUnits="userSpaceOnUse" id="clipPath2">
            <path d="M163 65 L196 65 L196 110 L163 110 L163 65 Z" />
          </clipPath>
          <clipPath clipPathUnits="userSpaceOnUse" id="clipPath3">
            <path d="M0 0 L31 0 L31 17 L0 17 L0 0 Z" />
          </clipPath>
        </defs>
        <g style="fill:white; font-size:11; stroke:white;" transform="translate(5,5)">
          <polygon style="clip-path:url(#clipPath2); stroke:none;" points=" 163 85 195 85 195 109 163 109 163 85" />
          <polygon style="clip-path:url(#clipPath2); stroke:none;" points=" 163 65 179 65 179 85 163 85 163 65" />
          <path d="M163 85 L195 85 L195 109 L163 109 L163 85" style="fill:none; clip-path:url(#clipPath2); stroke:black;" />
          <path d="M163 65 L179 65 L179 85 L163 85 L163 65" style="fill:none; clip-path:url(#clipPath2); stroke:black;" />
          <text x="5" y="11" transform="translate(164,89)" style="clip-path:url(#clipPath3); fill:black; stroke:none; font-weight:bold;" xml:space="preserve">util</text>
        </g>
      </g>
    </a>
    <a onclick="onClick(evt, &apos;../../../../../nexd/de/xplib/nexd/comm/comm.html&apos;)">
      <g>
        <defs id="defs3">
          <clipPath clipPathUnits="userSpaceOnUse" id="clipPath4">
            <path d="M73 65 L125 65 L125 110 L73 110 L73 65 Z" />
          </clipPath>
          <clipPath clipPathUnits="userSpaceOnUse" id="clipPath5">
            <path d="M0 0 L50 0 L50 17 L0 17 L0 0 Z" />
          </clipPath>
        </defs>
        <g style="fill:white; font-size:11; stroke:white;" transform="translate(5,5)">
          <polygon style="clip-path:url(#clipPath4); stroke:none;" points=" 73 85 124 85 124 109 73 109 73 85" />
          <polygon style="clip-path:url(#clipPath4); stroke:none;" points=" 73 65 98 65 98 85 73 85 73 65" />
          <path d="M73 85 L124 85 L124 109 L73 109 L73 85" style="fill:none; clip-path:url(#clipPath4); stroke:black;" />
          <path d="M73 65 L98 65 L98 85 L73 85 L73 65" style="fill:none; clip-path:url(#clipPath4); stroke:black;" />
          <text x="5" y="11" transform="translate(74,89)" style="clip-path:url(#clipPath5); fill:black; stroke:none; font-weight:bold;" xml:space="preserve">comm</text>
        </g>
      </g>
    </a>
    <a onclick="onClick(evt, &apos;../../../../../nexd/de/xplib/nexd/xml/xml.html&apos;)">
      <g>
        <defs id="defs4">
          <clipPath clipPathUnits="userSpaceOnUse" id="clipPath6">
            <path d="M34 74 L70 74 L70 119 L34 119 L34 74 Z" />
          </clipPath>
          <clipPath clipPathUnits="userSpaceOnUse" id="clipPath7">
            <path d="M0 0 L34 0 L34 17 L0 17 L0 0 Z" />
          </clipPath>
        </defs>
        <g style="fill:white; font-size:11; stroke:white;" transform="translate(5,5)">
          <polygon style="clip-path:url(#clipPath6); stroke:none;" points=" 34 94 69 94 69 118 34 118 34 94" />
          <polygon style="clip-path:url(#clipPath6); stroke:none;" points=" 34 74 51 74 51 94 34 94 34 74" />
          <path d="M34 94 L69 94 L69 118 L34 118 L34 94" style="fill:none; clip-path:url(#clipPath6); stroke:black;" />
          <path d="M34 74 L51 74 L51 94 L34 94 L34 74" style="fill:none; clip-path:url(#clipPath6); stroke:black;" />
          <text x="5" y="11" transform="translate(35,98)" style="clip-path:url(#clipPath7); fill:black; stroke:none; font-weight:bold;" xml:space="preserve">xml</text>
        </g>
      </g>
    </a>
    <a onclick="onClick(evt, &apos;../../../../../nexd/de/xplib/nexd/api/api.html&apos;)">
      <g>
        <defs id="defs5">
          <clipPath clipPathUnits="userSpaceOnUse" id="clipPath8">
            <path d="M73 1 L105 1 L105 46 L73 46 L73 1 Z" />
          </clipPath>
          <clipPath clipPathUnits="userSpaceOnUse" id="clipPath9">
            <path d="M0 0 L30 0 L30 17 L0 17 L0 0 Z" />
          </clipPath>
        </defs>
        <g style="fill:white; font-size:11; stroke:white;" transform="translate(5,5)">
          <polygon style="clip-path:url(#clipPath8); stroke:none;" points=" 73 21 104 21 104 45 73 45 73 21" />
          <polygon style="clip-path:url(#clipPath8); stroke:none;" points=" 73 1 88 1 88 21 73 21 73 1" />
          <path d="M73 21 L104 21 L104 45 L73 45 L73 21" style="fill:none; clip-path:url(#clipPath8); stroke:black;" />
          <path d="M73 1 L88 1 L88 21 L73 21 L73 1" style="fill:none; clip-path:url(#clipPath8); stroke:black;" />
          <text x="5" y="11" transform="translate(74,25)" style="clip-path:url(#clipPath9); fill:black; stroke:none; font-weight:bold;" xml:space="preserve">api</text>
        </g>
      </g>
    </a>
    <a onclick="onClick(evt, &apos;../../../../../nexd/de/xplib/nexd/store/store.html&apos;)">
      <g>
        <defs id="defs6">
          <clipPath clipPathUnits="userSpaceOnUse" id="clipPath10">
            <path d="M10 10 L54 10 L54 55 L10 55 L10 10 Z" />
          </clipPath>
          <clipPath clipPathUnits="userSpaceOnUse" id="clipPath11">
            <path d="M0 0 L42 0 L42 17 L0 17 L0 0 Z" />
          </clipPath>
        </defs>
        <g style="fill:white; font-size:11; stroke:white;" transform="translate(5,5)">
          <polygon style="clip-path:url(#clipPath10); stroke:none;" points=" 10 30 53 30 53 54 10 54 10 30" />
          <polygon style="clip-path:url(#clipPath10); stroke:none;" points=" 10 10 31 10 31 30 10 30 10 10" />
          <path d="M10 30 L53 30 L53 54 L10 54 L10 30" style="fill:none; clip-path:url(#clipPath10); stroke:black;" />
          <path d="M10 10 L31 10 L31 30 L10 30 L10 10" style="fill:none; clip-path:url(#clipPath10); stroke:black;" />
          <text x="5" y="11" transform="translate(11,34)" style="clip-path:url(#clipPath11); fill:black; stroke:none; font-weight:bold;" xml:space="preserve">store</text>
        </g>
      </g>
    </a>
    <a onclick="onClick(evt, &apos;../../../../../nexd/de/xplib/nexd/engine/engine.html&apos;)">
      <g>
        <defs id="defs7">
          <clipPath clipPathUnits="userSpaceOnUse" id="clipPath12">
            <path d="M163 1 L218 1 L218 46 L163 46 L163 1 Z" />
          </clipPath>
          <clipPath clipPathUnits="userSpaceOnUse" id="clipPath13">
            <path d="M0 0 L53 0 L53 17 L0 17 L0 0 Z" />
          </clipPath>
        </defs>
        <g style="fill:white; font-size:11; stroke:white;" transform="translate(5,5)">
          <polygon style="clip-path:url(#clipPath12); stroke:none;" points=" 163 21 217 21 217 45 163 45 163 21" />
          <polygon style="clip-path:url(#clipPath12); stroke:none;" points=" 163 1 190 1 190 21 163 21 163 1" />
          <path d="M163 21 L217 21 L217 45 L163 45 L163 21" style="fill:none; clip-path:url(#clipPath12); stroke:black;" />
          <path d="M163 1 L190 1 L190 21 L163 21 L163 1" style="fill:none; clip-path:url(#clipPath12); stroke:black;" />
          <text x="5" y="11" transform="translate(164,25)" style="clip-path:url(#clipPath13); fill:black; stroke:none; font-weight:bold;" xml:space="preserve">engine</text>
        </g>
      </g>
    </a>
    <g>
      <script lang="text/ecmascript">
        <![CDATA[
    function onClick(evt, href) {
        navigateTo(href);
        evt.stopPropagation();
    }]]>
      </script>
    </g>
  </g>
</svg>
