<?xml version="1.0" encoding="UTF-8"?>

<!DOCTYPE svg PUBLIC '-//W3C//DTD SVG 1.0//EN' 'http://www.w3.org/TR/2001/REC-SVG-20010904/DTD/svg10.dtd'>
<svg style="fill-opacity:1; color-rendering:auto; color-interpolation:auto; text-rendering:auto; stroke:black; stroke-linecap:square; stroke-miterlimit:10; shape-rendering:auto; stroke-opacity:1; fill:black; stroke-dasharray:none; font-weight:normal; stroke-width:1; font-family:&apos;Dialog&apos;; font-style:normal; stroke-linejoin:miter; font-size:12; stroke-dashoffset:0; image-rendering:auto;" xmlns="http://www.w3.org/2000/svg" width="898" xmlns:xlink="http://www.w3.org/1999/xlink" height="283">
  <!--Generated by Selena using Batik-->
  <defs id="genericDefs" />
  <g>
    <defs id="defs1">
      <clipPath clipPathUnits="userSpaceOnUse" id="clipPath1">
        <path d="M0 0 L12000 0 L12000 12000 L0 12000 L0 0 Z" />
      </clipPath>
      <clipPath clipPathUnits="userSpaceOnUse" id="clipPath51">
        <path d="M245 79 L728 79 L728 96 L245 96 L245 79 Z" />
      </clipPath>
      <clipPath clipPathUnits="userSpaceOnUse" id="clipPath52">
        <path d="M245 79 L262 79 L262 96 L245 96 L245 79 Z" />
      </clipPath>
      <clipPath clipPathUnits="userSpaceOnUse" id="clipPath53">
        <path d="M526 85 L698 85 L698 246 L526 246 L526 85 Z" />
      </clipPath>
      <clipPath clipPathUnits="userSpaceOnUse" id="clipPath54">
        <path d="M602 94 L613 94 L613 115 L602 115 L602 94 Z" />
      </clipPath>
      <clipPath clipPathUnits="userSpaceOnUse" id="clipPath55">
        <path d="M601 164 L612 164 L612 175 L601 175 L601 164 Z" />
      </clipPath>
      <clipPath clipPathUnits="userSpaceOnUse" id="clipPath56">
        <path d="M0 0 L5 0 L5 21 L0 21 L0 0 Z" />
      </clipPath>
      <clipPath clipPathUnits="userSpaceOnUse" id="clipPath57">
        <path d="M0 0 L1 0 L1 17 L0 17 L0 0 Z" />
      </clipPath>
      <clipPath clipPathUnits="userSpaceOnUse" id="clipPath58">
        <path d="M0 0 L8 0 L8 17 L0 17 L0 0 Z" />
      </clipPath>
      <clipPath clipPathUnits="userSpaceOnUse" id="clipPath59">
        <path d="M0 0 L21 0 L21 17 L0 17 L0 0 Z" />
      </clipPath>
      <clipPath clipPathUnits="userSpaceOnUse" id="clipPath60">
        <path d="M593 29 L610 29 L610 113 L593 113 L593 29 Z" />
      </clipPath>
      <clipPath clipPathUnits="userSpaceOnUse" id="clipPath61">
        <path d="M593 95 L610 95 L610 112 L593 112 L593 95 Z" />
      </clipPath>
      <clipPath clipPathUnits="userSpaceOnUse" id="clipPath62">
        <path d="M245 85 L373 85 L373 151 L245 151 L245 85 Z" />
      </clipPath>
      <clipPath clipPathUnits="userSpaceOnUse" id="clipPath63">
        <path d="M359 128 L371 128 L371 138 L359 138 L359 128 Z" />
      </clipPath>
      <clipPath clipPathUnits="userSpaceOnUse" id="clipPath64">
        <path d="M0 0 L54 0 L54 17 L0 17 L0 0 Z" />
      </clipPath>
      <clipPath clipPathUnits="userSpaceOnUse" id="clipPath65">
        <path d="M649 46 L760 46 L760 113 L649 113 L649 46 Z" />
      </clipPath>
      <clipPath clipPathUnits="userSpaceOnUse" id="clipPath66">
        <path d="M650 96 L669 96 L669 112 L650 112 L650 96 Z" />
      </clipPath>
      <clipPath clipPathUnits="userSpaceOnUse" id="clipPath67">
        <path d="M117 43 L538 43 L538 60 L117 60 L117 43 Z" />
      </clipPath>
      <clipPath clipPathUnits="userSpaceOnUse" id="clipPath68">
        <path d="M519 43 L536 43 L536 60 L519 60 L519 43 Z" />
      </clipPath>
      <clipPath clipPathUnits="userSpaceOnUse" id="clipPath69">
        <path d="M496 85 L704 85 L704 177 L496 177 L496 85 Z" />
      </clipPath>
      <clipPath clipPathUnits="userSpaceOnUse" id="clipPath70">
        <path d="M608 94 L619 94 L619 105 L608 105 L608 94 Z" />
      </clipPath>
      <clipPath clipPathUnits="userSpaceOnUse" id="clipPath71">
        <path d="M0 0 L37 0 L37 17 L0 17 L0 0 Z" />
      </clipPath>
      <clipPath clipPathUnits="userSpaceOnUse" id="clipPath72">
        <path d="M251 86 L538 86 L538 162 L251 162 L251 86 Z" />
      </clipPath>
      <clipPath clipPathUnits="userSpaceOnUse" id="clipPath73">
        <path d="M252 146 L270 146 L270 162 L252 162 L252 146 Z" />
      </clipPath>
      <clipPath clipPathUnits="userSpaceOnUse" id="clipPath74">
        <path d="M591 157 L608 157 L608 177 L591 177 L591 157 Z" />
      </clipPath>
      <clipPath clipPathUnits="userSpaceOnUse" id="clipPath75">
        <path d="M591 159 L608 159 L608 176 L591 176 L591 159 Z" />
      </clipPath>
      <clipPath clipPathUnits="userSpaceOnUse" id="clipPath76">
        <path d="M334 -25 L538 -25 L538 69 L334 69 L334 -25 Z" />
      </clipPath>
      <clipPath clipPathUnits="userSpaceOnUse" id="clipPath77">
        <path d="M526 10 L537 10 L537 21 L526 21 L526 10 Z" />
      </clipPath>
      <clipPath clipPathUnits="userSpaceOnUse" id="clipPath78">
        <path d="M0 0 L100 0 L100 21 L0 21 L0 0 Z" />
      </clipPath>
      <clipPath clipPathUnits="userSpaceOnUse" id="clipPath79">
        <path d="M0 0 L23 0 L23 17 L0 17 L0 0 Z" />
      </clipPath>
      <clipPath clipPathUnits="userSpaceOnUse" id="clipPath80">
        <path d="M661 167 L728 167 L728 186 L661 186 L661 167 Z" />
      </clipPath>
      <clipPath clipPathUnits="userSpaceOnUse" id="clipPath81">
        <path d="M662 170 L680 170 L680 186 L662 186 L662 170 Z" />
      </clipPath>
      <clipPath clipPathUnits="userSpaceOnUse" id="clipPath82">
        <path d="M251 165 L373 165 L373 182 L251 182 L251 165 Z" />
      </clipPath>
      <clipPath clipPathUnits="userSpaceOnUse" id="clipPath83">
        <path d="M251 165 L268 165 L268 182 L251 182 L251 165 Z" />
      </clipPath>
      <clipPath clipPathUnits="userSpaceOnUse" id="clipPath84">
        <path d="M499 39 L538 39 L538 56 L499 56 L499 39 Z" />
      </clipPath>
      <clipPath clipPathUnits="userSpaceOnUse" id="clipPath85">
        <path d="M517 39 L536 39 L536 56 L517 56 L517 39 Z" />
      </clipPath>
      <clipPath clipPathUnits="userSpaceOnUse" id="clipPath86">
        <path d="M366 25 L427 25 L427 199 L366 199 L366 25 Z" />
      </clipPath>
      <clipPath clipPathUnits="userSpaceOnUse" id="clipPath87">
        <path d="M366 160 L377 160 L377 171 L366 171 L366 160 Z" />
      </clipPath>
      <clipPath clipPathUnits="userSpaceOnUse" id="clipPath88">
        <path d="M212 181 L396 181 L396 258 L212 258 L212 181 Z" />
      </clipPath>
      <clipPath clipPathUnits="userSpaceOnUse" id="clipPath89">
        <path d="M356 205 L367 205 L367 216 L356 216 L356 205 Z" />
      </clipPath>
      <clipPath clipPathUnits="userSpaceOnUse" id="clipPath90">
        <path d="M0 0 L80 0 L80 17 L0 17 L0 0 Z" />
      </clipPath>
    </defs>
    <g style="fill:white; stroke:white;">
      <rect x="0" y="0" width="898" style="clip-path:url(#clipPath1); stroke:none;" height="283" />
      <rect x="0" y="0" width="897" style="clip-path:url(#clipPath1); fill:none; stroke:blue;" height="282" />
    </g>
    <a onclick="onClick(evt, &apos;../../../../../../../nexd/de/xplib/nexd/engine/xapi/XMLResourceImpl.html&apos;)">
      <g>
        <defs id="defs2">
          <clipPath clipPathUnits="userSpaceOnUse" id="clipPath2">
            <path d="M537 1 L665 1 L665 29 L537 29 L537 1 Z" />
          </clipPath>
          <clipPath clipPathUnits="userSpaceOnUse" id="clipPath3">
            <path d="M0 0 L126 0 L126 17 L0 17 L0 0 Z" />
          </clipPath>
        </defs>
        <g style="fill:white; font-size:11; stroke:white;" transform="translate(5,25)">
          <rect x="537" y="1" width="128" style="clip-path:url(#clipPath2); stroke:none;" height="28" />
          <rect x="537" y="1" width="127" style="clip-path:url(#clipPath2); fill:none; stroke:black;" height="27" />
          <text x="5" y="11" transform="translate(538,8)" style="clip-path:url(#clipPath3); fill:black; stroke:none; font-weight:bold;" xml:space="preserve">XMLResourceImpl</text>
        </g>
      </g>
    </a>
    <a onclick="onClick(evt, &apos;../../../../../../../nexd/de/xplib/nexd/engine/xapi/services/services.html&apos;)">
      <g>
        <defs id="defs3">
          <clipPath clipPathUnits="userSpaceOnUse" id="clipPath4">
            <path d="M67 74 L131 74 L131 119 L67 119 L67 74 Z" />
          </clipPath>
          <clipPath clipPathUnits="userSpaceOnUse" id="clipPath5">
            <path d="M0 0 L62 0 L62 17 L0 17 L0 0 Z" />
          </clipPath>
        </defs>
        <g style="fill:white; font-size:11; stroke:white;" transform="translate(5,25)">
          <polygon style="clip-path:url(#clipPath4); stroke:none;" points=" 67 94 130 94 130 118 67 118 67 94" />
          <polygon style="clip-path:url(#clipPath4); stroke:none;" points=" 67 74 98 74 98 94 67 94 67 74" />
          <path d="M67 94 L130 94 L130 118 L67 118 L67 94" style="fill:none; clip-path:url(#clipPath4); stroke:black;" />
          <path d="M67 74 L98 74 L98 94 L67 94 L67 74" style="fill:none; clip-path:url(#clipPath4); stroke:black;" />
          <text x="5" y="11" transform="translate(68,98)" style="clip-path:url(#clipPath5); fill:black; stroke:none; font-weight:bold;" xml:space="preserve">services</text>
        </g>
      </g>
    </a>
    <a onclick="onClick(evt, &apos;../../../../../../../nexd/de/xplib/nexd/engine/xapi/DBUri.html&apos;)">
      <g>
        <defs id="defs4">
          <clipPath clipPathUnits="userSpaceOnUse" id="clipPath6">
            <path d="M293 157 L366 157 L366 205 L293 205 L293 157 Z" />
          </clipPath>
          <clipPath clipPathUnits="userSpaceOnUse" id="clipPath7">
            <path d="M0 0 L71 0 L71 17 L0 17 L0 0 Z" />
          </clipPath>
          <clipPath clipPathUnits="userSpaceOnUse" id="clipPath8">
            <path d="M0 0 L50 0 L50 17 L0 17 L0 0 Z" />
          </clipPath>
        </defs>
        <g style="fill:white; font-size:11; stroke:white;" transform="translate(5,25)">
          <rect x="293" y="157" width="73" style="clip-path:url(#clipPath6); stroke:none;" height="48" />
          <rect x="293" y="157" width="72" style="clip-path:url(#clipPath6); fill:none; stroke:black;" height="47" />
          <text x="0" y="11" transform="translate(294,164)" style="clip-path:url(#clipPath7); fill:black; stroke:none;" xml:space="preserve">&lt;&lt;Helper&gt;&gt;</text>
          <text x="5" y="11" transform="translate(304,184)" style="clip-path:url(#clipPath8); fill:black; stroke:none; font-weight:bold;" xml:space="preserve">DBUri</text>
        </g>
      </g>
    </a>
    <a onclick="onClick(evt, &apos;../../../../../../../nexd/de/xplib/nexd/engine/xapi/vcl/vcl.html&apos;)">
      <g>
        <defs id="defs5">
          <clipPath clipPathUnits="userSpaceOnUse" id="clipPath9">
            <path d="M254 157 L285 157 L285 202 L254 202 L254 157 Z" />
          </clipPath>
          <clipPath clipPathUnits="userSpaceOnUse" id="clipPath10">
            <path d="M0 0 L29 0 L29 17 L0 17 L0 0 Z" />
          </clipPath>
        </defs>
        <g style="fill:white; font-size:11; stroke:white;" transform="translate(5,25)">
          <polygon style="clip-path:url(#clipPath9); stroke:none;" points=" 254 177 284 177 284 201 254 201 254 177" />
          <polygon style="clip-path:url(#clipPath9); stroke:none;" points=" 254 157 269 157 269 177 254 177 254 157" />
          <path d="M254 177 L284 177 L284 201 L254 201 L254 177" style="fill:none; clip-path:url(#clipPath9); stroke:black;" />
          <path d="M254 157 L269 157 L269 177 L254 177 L254 157" style="fill:none; clip-path:url(#clipPath9); stroke:black;" />
          <text x="5" y="11" transform="translate(255,181)" style="clip-path:url(#clipPath10); fill:black; stroke:none; font-weight:bold;" xml:space="preserve">vcl</text>
        </g>
      </g>
    </a>
    <a onclick="onClick(evt, &apos;../../../../../../../nexd/de/xplib/nexd/engine/xapi/StatementImpl.html&apos;)">
      <g>
        <defs id="defs6">
          <clipPath clipPathUnits="userSpaceOnUse" id="clipPath11">
            <path d="M136 65 L245 65 L245 110 L136 110 L136 65 Z" />
          </clipPath>
          <clipPath clipPathUnits="userSpaceOnUse" id="clipPath12">
            <path d="M0 0 L101 0 L101 17 L0 17 L0 0 Z" />
          </clipPath>
        </defs>
        <g style="fill:white; font-size:11; stroke:white;" transform="translate(5,25)">
          <rect x="136" y="65" width="109" style="clip-path:url(#clipPath11); stroke:none;" height="45" />
          <rect x="136" y="65" width="108" style="clip-path:url(#clipPath11); fill:none; stroke:black;" height="44" />
          <text x="0" y="11" transform="translate(140,69)" style="clip-path:url(#clipPath12); fill:black; font-style:italic; stroke:none;" xml:space="preserve">SixdmlStatement</text>
          <text x="5" y="11" transform="translate(140,89)" style="clip-path:url(#clipPath12); fill:black; stroke:none; font-weight:bold;" xml:space="preserve">StatementImpl</text>
        </g>
      </g>
    </a>
    <a onclick="onClick(evt, &apos;../../../../../../../nexd/de/xplib/nexd/engine/xapi/XMLResourceContentHandler.html&apos;)">
      <g>
        <defs id="defs7">
          <clipPath clipPathUnits="userSpaceOnUse" id="clipPath13">
            <path d="M136 1 L334 1 L334 46 L136 46 L136 1 Z" />
          </clipPath>
          <clipPath clipPathUnits="userSpaceOnUse" id="clipPath14">
            <path d="M0 0 L88 0 L88 17 L0 17 L0 0 Z" />
          </clipPath>
          <clipPath clipPathUnits="userSpaceOnUse" id="clipPath15">
            <path d="M0 0 L196 0 L196 17 L0 17 L0 0 Z" />
          </clipPath>
        </defs>
        <g style="fill:white; font-size:11; stroke:white;" transform="translate(5,25)">
          <rect x="136" y="1" width="198" style="clip-path:url(#clipPath13); stroke:none;" height="45" />
          <rect x="136" y="1" width="197" style="clip-path:url(#clipPath13); fill:none; stroke:black;" height="44" />
          <text x="0" y="11" transform="translate(242,5)" style="clip-path:url(#clipPath14); fill:black; stroke:none;" xml:space="preserve">DefaultHandler</text>
          <text x="5" y="11" transform="translate(137,25)" style="clip-path:url(#clipPath15); fill:black; stroke:none; font-weight:bold;" xml:space="preserve">XMLResourceContentHandler</text>
        </g>
      </g>
    </a>
    <a onclick="onClick(evt, &apos;../../../../../../../nexd/de/xplib/nexd/engine/xapi/pcvr/pcvr.html&apos;)">
      <g>
        <defs id="defs8">
          <clipPath clipPathUnits="userSpaceOnUse" id="clipPath16">
            <path d="M18 74 L58 74 L58 119 L18 119 L18 74 Z" />
          </clipPath>
          <clipPath clipPathUnits="userSpaceOnUse" id="clipPath17">
            <path d="M0 0 L38 0 L38 17 L0 17 L0 0 Z" />
          </clipPath>
        </defs>
        <g style="fill:white; font-size:11; stroke:white;" transform="translate(5,25)">
          <polygon style="clip-path:url(#clipPath16); stroke:none;" points=" 18 94 57 94 57 118 18 118 18 94" />
          <polygon style="clip-path:url(#clipPath16); stroke:none;" points=" 18 74 37 74 37 94 18 94 18 74" />
          <path d="M18 94 L57 94 L57 118 L18 118 L18 94" style="fill:none; clip-path:url(#clipPath16); stroke:black;" />
          <path d="M18 74 L37 74 L37 94 L18 94 L18 74" style="fill:none; clip-path:url(#clipPath16); stroke:black;" />
          <text x="5" y="11" transform="translate(19,98)" style="clip-path:url(#clipPath17); fill:black; stroke:none; font-weight:bold;" xml:space="preserve">pcvr</text>
        </g>
      </g>
    </a>
    <a onclick="onClick(evt, &apos;../../../../../../../nexd/de/xplib/nexd/engine/xapi/AbstractCollection.html&apos;)">
      <g>
        <defs id="defs9">
          <clipPath clipPathUnits="userSpaceOnUse" id="clipPath18">
            <path d="M537 48 L666 48 L666 93 L537 93 L537 48 Z" />
          </clipPath>
          <clipPath clipPathUnits="userSpaceOnUse" id="clipPath19">
            <path d="M0 0 L99 0 L99 17 L0 17 L0 0 Z" />
          </clipPath>
          <clipPath clipPathUnits="userSpaceOnUse" id="clipPath20">
            <path d="M0 0 L127 0 L127 17 L0 17 L0 0 Z" />
          </clipPath>
        </defs>
        <g style="fill:white; font-size:11; stroke:white;" transform="translate(5,25)">
          <rect x="537" y="48" width="129" style="clip-path:url(#clipPath18); stroke:none;" height="45" />
          <rect x="537" y="48" width="128" style="clip-path:url(#clipPath18); fill:none; stroke:black;" height="44" />
          <text x="0" y="11" transform="translate(563,52)" style="clip-path:url(#clipPath19); fill:black; font-style:italic; stroke:none;" xml:space="preserve">SixdmlCollection</text>
        </g>
        <g style="font-style:italic; font-size:11; font-weight:bold;" transform="translate(543,97)">
          <text x="5" y="11" style="clip-path:url(#clipPath20); stroke:none;" xml:space="preserve">AbstractCollection</text>
        </g>
      </g>
    </a>
    <a onclick="onClick(evt, &apos;../../../../../../../nexd/de/xplib/nexd/engine/xapi/AbstractConfigurable.html&apos;)">
      <g>
        <defs id="defs10">
          <clipPath clipPathUnits="userSpaceOnUse" id="clipPath21">
            <path d="M105 157 L251 157 L251 202 L105 202 L105 157 Z" />
          </clipPath>
          <clipPath clipPathUnits="userSpaceOnUse" id="clipPath22">
            <path d="M0 0 L74 0 L74 17 L0 17 L0 0 Z" />
          </clipPath>
          <clipPath clipPathUnits="userSpaceOnUse" id="clipPath23">
            <path d="M0 0 L144 0 L144 17 L0 17 L0 0 Z" />
          </clipPath>
        </defs>
        <g style="fill:white; font-size:11; stroke:white;" transform="translate(5,25)">
          <rect x="105" y="157" width="146" style="clip-path:url(#clipPath21); stroke:none;" height="45" />
          <rect x="105" y="157" width="145" style="clip-path:url(#clipPath21); fill:none; stroke:black;" height="44" />
          <text x="0" y="11" transform="translate(173,161)" style="clip-path:url(#clipPath22); fill:black; font-style:italic; stroke:none;" xml:space="preserve">Configurable</text>
        </g>
        <g style="font-style:italic; font-size:11; font-weight:bold;" transform="translate(111,206)">
          <text x="5" y="11" style="clip-path:url(#clipPath23); stroke:none;" xml:space="preserve">AbstractConfigurable</text>
        </g>
      </g>
    </a>
    <a onclick="onClick(evt, &apos;../../../../../../../nexd/de/xplib/nexd/engine/xapi/XPathObjectImpl.html&apos;)">
      <g>
        <defs id="defs11">
          <clipPath clipPathUnits="userSpaceOnUse" id="clipPath24">
            <path d="M372 65 L493 65 L493 110 L372 110 L372 65 Z" />
          </clipPath>
          <clipPath clipPathUnits="userSpaceOnUse" id="clipPath25">
            <path d="M0 0 L113 0 L113 17 L0 17 L0 0 Z" />
          </clipPath>
          <clipPath clipPathUnits="userSpaceOnUse" id="clipPath26">
            <path d="M0 0 L116 0 L116 17 L0 17 L0 0 Z" />
          </clipPath>
        </defs>
        <g style="fill:white; font-size:11; stroke:white;" transform="translate(5,25)">
          <rect x="372" y="65" width="121" style="clip-path:url(#clipPath24); stroke:none;" height="45" />
          <rect x="372" y="65" width="120" style="clip-path:url(#clipPath24); fill:none; stroke:black;" height="44" />
          <text x="0" y="11" transform="translate(376,69)" style="clip-path:url(#clipPath25); fill:black; font-style:italic; stroke:none;" xml:space="preserve">SixdmlXpathObject</text>
          <text x="5" y="11" transform="translate(374,89)" style="clip-path:url(#clipPath26); fill:black; stroke:none; font-weight:bold;" xml:space="preserve">XPathObjectImpl</text>
        </g>
      </g>
    </a>
    <a onclick="onClick(evt, &apos;../../../../../../../nexd/de/xplib/nexd/engine/xapi/VirtualCollectionImpl.html&apos;)">
      <g>
        <defs id="defs12">
          <clipPath clipPathUnits="userSpaceOnUse" id="clipPath27">
            <path d="M353 1 L499 1 L499 46 L353 46 L353 1 Z" />
          </clipPath>
          <clipPath clipPathUnits="userSpaceOnUse" id="clipPath28">
            <path d="M0 0 L96 0 L96 17 L0 17 L0 0 Z" />
          </clipPath>
          <clipPath clipPathUnits="userSpaceOnUse" id="clipPath29">
            <path d="M0 0 L144 0 L144 17 L0 17 L0 0 Z" />
          </clipPath>
        </defs>
        <g style="fill:white; font-size:11; stroke:white;" transform="translate(5,25)">
          <rect x="353" y="1" width="146" style="clip-path:url(#clipPath27); stroke:none;" height="45" />
          <rect x="353" y="1" width="145" style="clip-path:url(#clipPath27); fill:none; stroke:black;" height="44" />
          <text x="0" y="11" transform="translate(399,5)" style="clip-path:url(#clipPath28); fill:black; font-style:italic; stroke:none;" xml:space="preserve">VirtualCollection</text>
          <text x="5" y="11" transform="translate(354,25)" style="clip-path:url(#clipPath29); fill:black; stroke:none; font-weight:bold;" xml:space="preserve">VirtualCollectionImpl</text>
        </g>
      </g>
    </a>
    <a onclick="onClick(evt, &apos;../../../../../../../nexd/de/xplib/nexd/engine/xapi/AbstractXMLResource.html&apos;)">
      <g>
        <defs id="defs13">
          <clipPath clipPathUnits="userSpaceOnUse" id="clipPath30">
            <path d="M537 112 L689 112 L689 157 L537 157 L537 112 Z" />
          </clipPath>
          <clipPath clipPathUnits="userSpaceOnUse" id="clipPath31">
            <path d="M0 0 L97 0 L97 17 L0 17 L0 0 Z" />
          </clipPath>
          <clipPath clipPathUnits="userSpaceOnUse" id="clipPath32">
            <path d="M0 0 L150 0 L150 17 L0 17 L0 0 Z" />
          </clipPath>
        </defs>
        <g style="fill:white; font-size:11; stroke:white;" transform="translate(5,25)">
          <rect x="537" y="112" width="152" style="clip-path:url(#clipPath30); stroke:none;" height="45" />
          <rect x="537" y="112" width="151" style="clip-path:url(#clipPath30); fill:none; stroke:black;" height="44" />
          <text x="0" y="11" transform="translate(588,116)" style="clip-path:url(#clipPath31); fill:black; font-style:italic; stroke:none;" xml:space="preserve">SixdmlResource</text>
        </g>
        <g style="font-style:italic; font-size:11; font-weight:bold;" transform="translate(543,161)">
          <text x="5" y="11" style="clip-path:url(#clipPath32); stroke:none;" xml:space="preserve">AbstractXMLResource</text>
        </g>
      </g>
    </a>
    <a onclick="onClick(evt, &apos;../../../../../../../nexd/de/xplib/nexd/engine/xapi/VirtualResourceImpl.html&apos;)">
      <g>
        <defs id="defs14">
          <clipPath clipPathUnits="userSpaceOnUse" id="clipPath33">
            <path d="M727 1 L868 1 L868 46 L727 46 L727 1 Z" />
          </clipPath>
          <clipPath clipPathUnits="userSpaceOnUse" id="clipPath34">
            <path d="M0 0 L94 0 L94 17 L0 17 L0 0 Z" />
          </clipPath>
          <clipPath clipPathUnits="userSpaceOnUse" id="clipPath35">
            <path d="M0 0 L139 0 L139 17 L0 17 L0 0 Z" />
          </clipPath>
        </defs>
        <g style="fill:white; font-size:11; stroke:white;" transform="translate(5,25)">
          <rect x="727" y="1" width="141" style="clip-path:url(#clipPath33); stroke:none;" height="45" />
          <rect x="727" y="1" width="140" style="clip-path:url(#clipPath33); fill:none; stroke:black;" height="44" />
          <text x="0" y="11" transform="translate(770,5)" style="clip-path:url(#clipPath34); fill:black; font-style:italic; stroke:none;" xml:space="preserve">VirtualResource</text>
          <text x="5" y="11" transform="translate(728,25)" style="clip-path:url(#clipPath35); fill:black; stroke:none; font-weight:bold;" xml:space="preserve">VirtualResourceImpl</text>
        </g>
      </g>
    </a>
    <a onclick="onClick(evt, &apos;../../../../../../../nexd/de/xplib/nexd/engine/xapi/AbstractResource.html&apos;)">
      <g>
        <defs id="defs15">
          <clipPath clipPathUnits="userSpaceOnUse" id="clipPath36">
            <path d="M537 176 L661 176 L661 221 L537 221 L537 176 Z" />
          </clipPath>
          <clipPath clipPathUnits="userSpaceOnUse" id="clipPath37">
            <path d="M0 0 L57 0 L57 17 L0 17 L0 0 Z" />
          </clipPath>
          <clipPath clipPathUnits="userSpaceOnUse" id="clipPath38">
            <path d="M0 0 L122 0 L122 17 L0 17 L0 0 Z" />
          </clipPath>
        </defs>
        <g style="fill:white; font-size:11; stroke:white;" transform="translate(5,25)">
          <rect x="537" y="176" width="124" style="clip-path:url(#clipPath36); stroke:none;" height="45" />
          <rect x="537" y="176" width="123" style="clip-path:url(#clipPath36); fill:none; stroke:black;" height="44" />
          <text x="0" y="11" transform="translate(600,180)" style="clip-path:url(#clipPath37); fill:black; font-style:italic; stroke:none;" xml:space="preserve">Resource</text>
        </g>
        <g style="font-style:italic; font-size:11; font-weight:bold;" transform="translate(543,225)">
          <text x="5" y="11" style="clip-path:url(#clipPath38); stroke:none;" xml:space="preserve">AbstractResource</text>
        </g>
      </g>
    </a>
    <a onclick="onClick(evt, &apos;../../../../../../../nexd/de/xplib/nexd/engine/xapi/BinaryResourceImpl.html&apos;)">
      <g>
        <defs id="defs16">
          <clipPath clipPathUnits="userSpaceOnUse" id="clipPath39">
            <path d="M727 129 L868 129 L868 174 L727 174 L727 129 Z" />
          </clipPath>
          <clipPath clipPathUnits="userSpaceOnUse" id="clipPath40">
            <path d="M0 0 L94 0 L94 17 L0 17 L0 0 Z" />
          </clipPath>
          <clipPath clipPathUnits="userSpaceOnUse" id="clipPath41">
            <path d="M0 0 L139 0 L139 17 L0 17 L0 0 Z" />
          </clipPath>
        </defs>
        <g style="fill:white; font-size:11; stroke:white;" transform="translate(5,25)">
          <rect x="727" y="129" width="141" style="clip-path:url(#clipPath39); stroke:none;" height="45" />
          <rect x="727" y="129" width="140" style="clip-path:url(#clipPath39); fill:none; stroke:black;" height="44" />
          <text x="0" y="11" transform="translate(770,133)" style="clip-path:url(#clipPath40); fill:black; font-style:italic; stroke:none;" xml:space="preserve">BinaryResource</text>
          <text x="5" y="11" transform="translate(728,153)" style="clip-path:url(#clipPath41); fill:black; stroke:none; font-weight:bold;" xml:space="preserve">BinaryResourceImpl</text>
        </g>
      </g>
    </a>
    <a onclick="onClick(evt, &apos;../../../../../../../nexd/de/xplib/nexd/engine/xapi/CollectionImpl.html&apos;)">
      <g>
        <defs id="defs17">
          <clipPath clipPathUnits="userSpaceOnUse" id="clipPath42">
            <path d="M10 10 L117 10 L117 55 L10 55 L10 10 Z" />
          </clipPath>
          <clipPath clipPathUnits="userSpaceOnUse" id="clipPath43">
            <path d="M0 0 L99 0 L99 17 L0 17 L0 0 Z" />
          </clipPath>
          <clipPath clipPathUnits="userSpaceOnUse" id="clipPath44">
            <path d="M0 0 L103 0 L103 17 L0 17 L0 0 Z" />
          </clipPath>
        </defs>
        <g style="fill:white; font-size:11; stroke:white;" transform="translate(5,25)">
          <rect x="10" y="10" width="107" style="clip-path:url(#clipPath42); stroke:none;" height="45" />
          <rect x="10" y="10" width="106" style="clip-path:url(#clipPath42); fill:none; stroke:black;" height="44" />
          <text x="0" y="11" transform="translate(14,14)" style="clip-path:url(#clipPath43); fill:black; font-style:italic; stroke:none;" xml:space="preserve">SixdmlCollection</text>
          <text x="5" y="11" transform="translate(12,34)" style="clip-path:url(#clipPath44); fill:black; stroke:none; font-weight:bold;" xml:space="preserve">CollectionImpl</text>
        </g>
      </g>
    </a>
    <a onclick="onClick(evt, &apos;../../../../../../../nexd/de/xplib/nexd/engine/xapi/DatabaseImpl.html&apos;)">
      <g>
        <defs id="defs18">
          <clipPath clipPathUnits="userSpaceOnUse" id="clipPath45">
            <path d="M372 129 L477 129 L477 174 L372 174 L372 129 Z" />
          </clipPath>
          <clipPath clipPathUnits="userSpaceOnUse" id="clipPath46">
            <path d="M0 0 L97 0 L97 17 L0 17 L0 0 Z" />
          </clipPath>
          <clipPath clipPathUnits="userSpaceOnUse" id="clipPath47">
            <path d="M0 0 L96 0 L96 17 L0 17 L0 0 Z" />
          </clipPath>
        </defs>
        <g style="fill:white; font-size:11; stroke:white;" transform="translate(5,25)">
          <rect x="372" y="129" width="105" style="clip-path:url(#clipPath45); stroke:none;" height="45" />
          <rect x="372" y="129" width="104" style="clip-path:url(#clipPath45); fill:none; stroke:black;" height="44" />
          <text x="0" y="11" transform="translate(376,133)" style="clip-path:url(#clipPath46); fill:black; font-style:italic; stroke:none;" xml:space="preserve">SixdmlDatabase</text>
          <text x="5" y="11" transform="translate(376,153)" style="clip-path:url(#clipPath47); fill:black; stroke:none; font-weight:bold;" xml:space="preserve">DatabaseImpl</text>
        </g>
      </g>
    </a>
    <a onclick="onClick(evt, &apos;../../../../../../../nexd/de/xplib/nexd/engine/xapi/PreparedStatementImpl.html&apos;)">
      <g>
        <defs id="defs19">
          <clipPath clipPathUnits="userSpaceOnUse" id="clipPath48">
            <path d="M727 65 L888 65 L888 110 L727 110 L727 65 Z" />
          </clipPath>
          <clipPath clipPathUnits="userSpaceOnUse" id="clipPath49">
            <path d="M0 0 L153 0 L153 17 L0 17 L0 0 Z" />
          </clipPath>
          <clipPath clipPathUnits="userSpaceOnUse" id="clipPath50">
            <path d="M0 0 L157 0 L157 17 L0 17 L0 0 Z" />
          </clipPath>
        </defs>
        <g style="fill:white; font-size:11; stroke:white;" transform="translate(5,25)">
          <rect x="727" y="65" width="161" style="clip-path:url(#clipPath48); stroke:none;" height="45" />
          <rect x="727" y="65" width="160" style="clip-path:url(#clipPath48); fill:none; stroke:black;" height="44" />
          <text x="0" y="11" transform="translate(731,69)" style="clip-path:url(#clipPath49); fill:black; font-style:italic; stroke:none;" xml:space="preserve">SixdmlPreparedStatement</text>
          <text x="5" y="11" transform="translate(729,89)" style="clip-path:url(#clipPath50); fill:black; stroke:none; font-weight:bold;" xml:space="preserve">PreparedStatementImpl</text>
        </g>
      </g>
    </a>
    <g style="font-size:11;" transform="translate(5,25)">
      <path d="M727 87 L245 87" style="fill:none; clip-path:url(#clipPath51);" />
      <polygon style="fill:white; clip-path:url(#clipPath52); stroke:none;" points=" 245 87 261 79 261 95" />
      <polygon style="fill:none; clip-path:url(#clipPath52);" points=" 245 87 261 79 261 95" />
      <path d="M608 93 L606 176" style="fill:none; clip-path:url(#clipPath53); stroke:rgb(0,0,127);" />
      <polygon style="fill:rgb(0,0,127); clip-path:url(#clipPath54); stroke:none;" points=" 607 114 612 104 607 94 602 104 607 114" />
      <polygon style="fill:none; clip-path:url(#clipPath54); stroke:rgb(0,0,127);" points=" 607 114 612 104 607 94 602 104 607 114" />
      <polygon style="fill:rgb(0,0,127); clip-path:url(#clipPath55); stroke:none;" points=" 606 174 611 164 606 174 601 164 606 174" />
      <polygon style="fill:none; clip-path:url(#clipPath55); stroke:rgb(0,0,127);" points=" 606 174 611 164 606 174 601 164 606 174" />
      <text x="2" y="13" transform="translate(531,124)" style="clip-path:url(#clipPath56); fill:rgb(0,0,127); stroke:none;" xml:space="preserve"></text>
      <text x="0" y="11" transform="translate(526,126)" style="clip-path:url(#clipPath57); fill:rgb(0,0,127); stroke:none;" xml:space="preserve"></text>
      <text x="0" y="11" transform="translate(690,106)" style="clip-path:url(#clipPath58); fill:rgb(0,0,127); stroke:none;" xml:space="preserve">1</text>
      <text x="0" y="11" transform="translate(604,85)" style="clip-path:url(#clipPath57); fill:rgb(0,0,127); stroke:none;" xml:space="preserve"></text>
      <text x="0" y="11" transform="translate(669,159)" style="clip-path:url(#clipPath59); fill:rgb(0,0,127); stroke:none;" xml:space="preserve">0..*</text>
      <text x="0" y="11" transform="translate(595,229)" style="clip-path:url(#clipPath57); fill:rgb(0,0,127); stroke:none;" xml:space="preserve"></text>
      <path d="M601 29 L601 112" style="fill:none; clip-path:url(#clipPath60);" />
      <polygon style="fill:white; clip-path:url(#clipPath61); stroke:none;" points=" 601 111 593 95 609 95" />
      <polygon style="fill:none; clip-path:url(#clipPath61);" points=" 601 111 593 95 609 95" />
      <path d="M245 102 L372 136" style="fill:none; clip-path:url(#clipPath62); stroke:blue;" />
      <polygon style="fill:blue; clip-path:url(#clipPath63); stroke:none;" points=" 370 135 362 128 370 135 359 137 370 135" />
      <polygon style="fill:none; clip-path:url(#clipPath63); stroke:blue;" points=" 370 135 362 128 370 135 359 137 370 135" />
      <text x="2" y="13" transform="translate(325,127)" style="clip-path:url(#clipPath56); fill:blue; stroke:none;" xml:space="preserve"></text>
      <text x="0" y="11" transform="translate(337,130)" style="clip-path:url(#clipPath57); fill:blue; stroke:none;" xml:space="preserve"></text>
      <text x="0" y="11" transform="translate(255,85)" style="clip-path:url(#clipPath59); fill:blue; stroke:none;" xml:space="preserve">0..*</text>
      <text x="0" y="11" transform="translate(264,126)" style="clip-path:url(#clipPath64); fill:blue; stroke:none;" xml:space="preserve">database</text>
      <text x="0" y="11" transform="translate(354,112)" style="clip-path:url(#clipPath58); fill:blue; stroke:none;" xml:space="preserve">1</text>
      <text x="0" y="11" transform="translate(352,134)" style="clip-path:url(#clipPath57); fill:blue; stroke:none;" xml:space="preserve"></text>
      <path d="M759 46 L649 112" style="fill:none; clip-path:url(#clipPath65);" />
      <polygon style="fill:white; clip-path:url(#clipPath66); stroke:none;" points=" 650 111 660 96 668 110" />
      <polygon style="fill:none; clip-path:url(#clipPath66);" points=" 650 111 660 96 668 110" />
      <path d="M117 51 L537 52" style="fill:none; clip-path:url(#clipPath67);" />
      <polygon style="fill:white; clip-path:url(#clipPath68); stroke:none;" points=" 535 51 519 59 519 43" />
      <polygon style="fill:none; clip-path:url(#clipPath68);" points=" 535 51 519 59 519 43" />
      <path d="M613 176 L614 93" style="fill:none; clip-path:url(#clipPath69); stroke:blue;" />
      <polygon style="fill:blue; clip-path:url(#clipPath70); stroke:none;" points=" 613 94 608 104 613 94 618 104 613 94" />
      <polygon style="fill:none; clip-path:url(#clipPath70); stroke:blue;" points=" 613 94 608 104 613 94 618 104 613 94" />
      <text x="2" y="13" transform="translate(515,134)" style="clip-path:url(#clipPath56); fill:blue; stroke:none;" xml:space="preserve"></text>
      <text x="0" y="11" transform="translate(509,136)" style="clip-path:url(#clipPath57); fill:blue; stroke:none;" xml:space="preserve"></text>
      <text x="0" y="11" transform="translate(666,159)" style="clip-path:url(#clipPath59); fill:blue; stroke:none;" xml:space="preserve">0..*</text>
      <text x="0" y="11" transform="translate(496,159)" style="clip-path:url(#clipPath71); fill:blue; stroke:none;" xml:space="preserve">parent</text>
      <text x="0" y="11" transform="translate(696,106)" style="clip-path:url(#clipPath58); fill:blue; stroke:none;" xml:space="preserve">1</text>
      <text x="0" y="11" transform="translate(610,85)" style="clip-path:url(#clipPath57); fill:blue; stroke:none;" xml:space="preserve"></text>
      <path d="M537 86 L251 159" style="fill:none; clip-path:url(#clipPath72);" />
      <polygon style="fill:white; clip-path:url(#clipPath73); stroke:none;" points=" 252 157 266 146 269 161" />
      <polygon style="fill:none; clip-path:url(#clipPath73);" points=" 252 157 266 146 269 161" />
      <path d="M599 157 L599 176" style="fill:none; clip-path:url(#clipPath74);" />
      <polygon style="fill:white; clip-path:url(#clipPath75); stroke:none;" points=" 599 175 591 159 607 159" />
      <polygon style="fill:none; clip-path:url(#clipPath75);" points=" 599 175 591 159 607 159" />
      <path d="M334 15 L537 15" style="fill:none; clip-path:url(#clipPath76); stroke:blue;" />
      <polygon style="fill:blue; clip-path:url(#clipPath77); stroke:none;" points=" 536 15 526 10 536 15 526 20 536 15" />
      <polygon style="fill:none; clip-path:url(#clipPath77); stroke:blue;" points=" 536 15 526 10 536 15 526 20 536 15" />
      <text x="2" y="13" transform="translate(385,48)" style="clip-path:url(#clipPath78); fill:blue; stroke:none;" xml:space="preserve">fills with content</text>
      <text x="0" y="11" transform="translate(495,48)" style="clip-path:url(#clipPath57); fill:blue; stroke:none;" xml:space="preserve"></text>
      <text x="0" y="11" transform="translate(334,-25)" style="clip-path:url(#clipPath79); fill:blue; stroke:none;" xml:space="preserve">0..1</text>
      <text x="0" y="11" transform="translate(344,18)" style="clip-path:url(#clipPath57); fill:blue; stroke:none;" xml:space="preserve"></text>
      <text x="0" y="11" transform="translate(506,-5)" style="clip-path:url(#clipPath59); fill:blue; stroke:none;" xml:space="preserve">0..*</text>
      <text x="0" y="11" transform="translate(516,18)" style="clip-path:url(#clipPath57); fill:blue; stroke:none;" xml:space="preserve"></text>
      <path d="M727 167 L661 182" style="fill:none; clip-path:url(#clipPath80);" />
      <polygon style="fill:white; clip-path:url(#clipPath81); stroke:none;" points=" 662 181 676 170 679 185" />
      <polygon style="fill:none; clip-path:url(#clipPath81);" points=" 662 181 676 170 679 185" />
      <path d="M372 173 L251 173" style="fill:none; clip-path:url(#clipPath82);" />
      <polygon style="fill:white; clip-path:url(#clipPath83); stroke:none;" points=" 251 173 267 165 267 181" />
      <polygon style="fill:none; clip-path:url(#clipPath83);" points=" 251 173 267 165 267 181" />
      <path d="M499 42 L537 52" style="fill:none; clip-path:url(#clipPath84);" />
      <polygon style="fill:white; clip-path:url(#clipPath85); stroke:none;" points=" 535 51 517 55 522 39" />
      <polygon style="fill:none; clip-path:url(#clipPath85);" points=" 535 51 517 55 522 39" />
      <path style="fill:none; stroke-dasharray:18,6; clip-path:url(#clipPath86); stroke-linecap:butt;" d="M372 165 L366 165" />
      <polygon style="clip-path:url(#clipPath87); stroke:none;" points=" 366 165 376 170 366 165 376 160 366 165" />
      <polygon style="fill:none; clip-path:url(#clipPath87);" points=" 366 165 376 170 366 165 376 160 366 165" />
      <text x="2" y="13" transform="translate(397,178)" style="clip-path:url(#clipPath56); stroke:none;" xml:space="preserve"></text>
      <text x="0" y="11" transform="translate(389,178)" style="clip-path:url(#clipPath57); stroke:none;" xml:space="preserve"></text>
      <text x="0" y="11" transform="translate(425,45)" style="clip-path:url(#clipPath57); stroke:none;" xml:space="preserve"></text>
      <text x="0" y="11" transform="translate(415,178)" style="clip-path:url(#clipPath57); stroke:none;" xml:space="preserve"></text>
      <text x="0" y="11" transform="translate(405,178)" style="clip-path:url(#clipPath57); stroke:none;" xml:space="preserve"></text>
      <text x="0" y="11" transform="translate(425,25)" style="clip-path:url(#clipPath57); stroke:none;" xml:space="preserve"></text>
      <text x="0" y="11" transform="translate(426,168)" style="clip-path:url(#clipPath57); stroke:none;" xml:space="preserve"></text>
      <text x="0" y="11" transform="translate(426,168)" style="clip-path:url(#clipPath57); stroke:none;" xml:space="preserve"></text>
      <path d="M366 201 L395 201 L395 234 L362 234 L362 205" style="fill:none; clip-path:url(#clipPath88); stroke:blue;" />
      <polygon style="fill:blue; clip-path:url(#clipPath89); stroke:none;" points=" 361 205 356 215 361 205 366 215 361 205" />
      <polygon style="fill:none; clip-path:url(#clipPath89); stroke:blue;" points=" 361 205 356 215 361 205 366 215 361 205" />
      <text x="2" y="13" transform="translate(376,237)" style="clip-path:url(#clipPath56); fill:blue; stroke:none;" xml:space="preserve"></text>
      <text x="0" y="11" transform="translate(368,237)" style="clip-path:url(#clipPath57); fill:blue; stroke:none;" xml:space="preserve"></text>
      <text x="0" y="11" transform="translate(376,181)" style="clip-path:url(#clipPath58); fill:blue; stroke:none;" xml:space="preserve">1</text>
      <text x="0" y="11" transform="translate(212,204)" style="clip-path:url(#clipPath90); fill:blue; stroke:none;" xml:space="preserve">URI_CACHE</text>
      <text x="0" y="11" transform="translate(365,208)" style="clip-path:url(#clipPath59); fill:blue; stroke:none;" xml:space="preserve">0..*</text>
      <text x="0" y="11" transform="translate(362,237)" style="clip-path:url(#clipPath57); fill:blue; stroke:none;" xml:space="preserve"></text>
    </g>
    <g>
      <script lang="text/ecmascript">
        <![CDATA[
    function onClick(evt, href) {
        navigateTo(href);
        evt.stopPropagation();
    }]]>
      </script>
    </g>
  </g>
</svg>
