<?xml version="1.0" encoding="UTF-8"?>

<!DOCTYPE svg PUBLIC '-//W3C//DTD SVG 1.0//EN' 'http://www.w3.org/TR/2001/REC-SVG-20010904/DTD/svg10.dtd'>
<svg style="fill-opacity:1; color-rendering:auto; color-interpolation:auto; text-rendering:auto; stroke:black; stroke-linecap:square; stroke-miterlimit:10; shape-rendering:auto; stroke-opacity:1; fill:black; stroke-dasharray:none; font-weight:normal; stroke-width:1; font-family:&apos;Dialog&apos;; font-style:normal; stroke-linejoin:miter; font-size:12; stroke-dashoffset:0; image-rendering:auto;" xmlns="http://www.w3.org/2000/svg" width="578" xmlns:xlink="http://www.w3.org/1999/xlink" height="145">
  <!--Generated by Selena using Batik-->
  <defs id="genericDefs" />
  <g>
    <defs id="defs1">
      <clipPath clipPathUnits="userSpaceOnUse" id="clipPath1">
        <path d="M0 0 L12000 0 L12000 12000 L0 12000 L0 0 Z" />
      </clipPath>
      <clipPath clipPathUnits="userSpaceOnUse" id="clipPath17">
        <path d="M97 26 L178 26 L178 43 L97 43 L97 26 Z" />
      </clipPath>
      <clipPath clipPathUnits="userSpaceOnUse" id="clipPath18">
        <path d="M160 26 L177 26 L177 43 L160 43 L160 26 Z" />
      </clipPath>
      <clipPath clipPathUnits="userSpaceOnUse" id="clipPath19">
        <path d="M367 16 L448 16 L448 33 L367 33 L367 16 Z" />
      </clipPath>
      <clipPath clipPathUnits="userSpaceOnUse" id="clipPath20">
        <path d="M430 16 L447 16 L447 33 L430 33 L430 16 Z" />
      </clipPath>
    </defs>
    <g style="fill:white; stroke:white;">
      <rect x="0" y="0" width="578" style="clip-path:url(#clipPath1); stroke:none;" height="145" />
      <rect x="0" y="0" width="577" style="clip-path:url(#clipPath1); fill:none; stroke:blue;" height="144" />
    </g>
    <a onclick="onClick(evt, &apos;../../../../../../../../nexd/de/xplib/nexd/engine/xml/util/XSValidator.html&apos;)">
      <g>
        <defs id="defs2">
          <clipPath clipPathUnits="userSpaceOnUse" id="clipPath2">
            <path d="M10 20 L97 20 L97 48 L10 48 L10 20 Z" />
          </clipPath>
          <clipPath clipPathUnits="userSpaceOnUse" id="clipPath3">
            <path d="M0 0 L85 0 L85 17 L0 17 L0 0 Z" />
          </clipPath>
        </defs>
        <g style="fill:white; font-size:11; stroke:white;" transform="translate(5,5)">
          <rect x="10" y="20" width="87" style="clip-path:url(#clipPath2); stroke:none;" height="28" />
          <rect x="10" y="20" width="86" style="clip-path:url(#clipPath2); fill:none; stroke:black;" height="27" />
          <text x="5" y="11" transform="translate(11,27)" style="clip-path:url(#clipPath3); fill:black; stroke:none; font-weight:bold;" xml:space="preserve">XSValidator</text>
        </g>
      </g>
    </a>
    <a onclick="onClick(evt, &apos;../../../../../../../../nexd/de/xplib/nexd/engine/xml/util/ValidatorI.html&apos;)">
      <g>
        <defs id="defs3">
          <clipPath clipPathUnits="userSpaceOnUse" id="clipPath4">
            <path d="M177 10 L250 10 L250 58 L177 58 L177 10 Z" />
          </clipPath>
          <clipPath clipPathUnits="userSpaceOnUse" id="clipPath5">
            <path d="M0 0 L57 0 L57 17 L0 17 L0 0 Z" />
          </clipPath>
          <clipPath clipPathUnits="userSpaceOnUse" id="clipPath6">
            <path d="M0 0 L71 0 L71 17 L0 17 L0 0 Z" />
          </clipPath>
        </defs>
        <g style="fill:white; font-size:11; stroke:white;" transform="translate(5,5)">
          <rect x="177" y="10" width="73" style="clip-path:url(#clipPath4); stroke:none;" height="48" />
          <rect x="177" y="10" width="72" style="clip-path:url(#clipPath4); fill:none; stroke:black;" height="47" />
          <text x="3" y="11" transform="translate(185,17)" style="clip-path:url(#clipPath5); fill:black; stroke:none;" xml:space="preserve">interface</text>
        </g>
        <g style="font-style:italic; font-size:11; font-weight:bold;" transform="translate(183,42)">
          <text x="5" y="11" style="clip-path:url(#clipPath6); stroke:none;" xml:space="preserve">ValidatorI</text>
        </g>
      </g>
    </a>
    <a onclick="onClick(evt, &apos;../../../../../../../../nexd/de/xplib/nexd/engine/xml/util/AbstractValidator.html&apos;)">
      <g>
        <defs id="defs4">
          <clipPath clipPathUnits="userSpaceOnUse" id="clipPath7">
            <path d="M447 10 L568 10 L568 38 L447 38 L447 10 Z" />
          </clipPath>
          <clipPath clipPathUnits="userSpaceOnUse" id="clipPath8">
            <path d="M0 0 L119 0 L119 17 L0 17 L0 0 Z" />
          </clipPath>
        </defs>
        <g style="fill:white; font-size:11; stroke:white;" transform="translate(5,5)">
          <rect x="447" y="10" width="121" style="clip-path:url(#clipPath7); stroke:none;" height="28" />
          <rect x="447" y="10" width="120" style="clip-path:url(#clipPath7); fill:none; stroke:black;" height="27" />
        </g>
        <g style="font-style:italic; font-size:11; font-weight:bold;" transform="translate(453,22)">
          <text x="5" y="11" style="clip-path:url(#clipPath8); stroke:none;" xml:space="preserve">AbstractValidator</text>
        </g>
      </g>
    </a>
    <a onclick="onClick(evt, &apos;../../../../../../../../nexd/de/xplib/nexd/engine/xml/util/ValidatorErrorHandler.html&apos;)">
      <g>
        <defs id="defs5">
          <clipPath clipPathUnits="userSpaceOnUse" id="clipPath9">
            <path d="M10 90 L160 90 L160 135 L10 135 L10 90 Z" />
          </clipPath>
          <clipPath clipPathUnits="userSpaceOnUse" id="clipPath10">
            <path d="M0 0 L74 0 L74 17 L0 17 L0 0 Z" />
          </clipPath>
          <clipPath clipPathUnits="userSpaceOnUse" id="clipPath11">
            <path d="M0 0 L148 0 L148 17 L0 17 L0 0 Z" />
          </clipPath>
        </defs>
        <g style="fill:white; font-size:11; stroke:white;" transform="translate(5,5)">
          <rect x="10" y="90" width="150" style="clip-path:url(#clipPath9); stroke:none;" height="45" />
          <rect x="10" y="90" width="149" style="clip-path:url(#clipPath9); fill:none; stroke:black;" height="44" />
          <text x="0" y="11" transform="translate(82,94)" style="clip-path:url(#clipPath10); fill:black; font-style:italic; stroke:none;" xml:space="preserve">ErrorHandler</text>
          <text x="5" y="11" transform="translate(11,114)" style="clip-path:url(#clipPath11); fill:black; stroke:none; font-weight:bold;" xml:space="preserve">ValidatorErrorHandler</text>
        </g>
      </g>
    </a>
    <a onclick="onClick(evt, &apos;../../../../../../../../nexd/de/xplib/nexd/engine/xml/util/DTDValidator.html&apos;)">
      <g>
        <defs id="defs6">
          <clipPath clipPathUnits="userSpaceOnUse" id="clipPath12">
            <path d="M270 10 L367 10 L367 38 L270 38 L270 10 Z" />
          </clipPath>
          <clipPath clipPathUnits="userSpaceOnUse" id="clipPath13">
            <path d="M0 0 L95 0 L95 17 L0 17 L0 0 Z" />
          </clipPath>
        </defs>
        <g style="fill:white; font-size:11; stroke:white;" transform="translate(5,5)">
          <rect x="270" y="10" width="97" style="clip-path:url(#clipPath12); stroke:none;" height="28" />
          <rect x="270" y="10" width="96" style="clip-path:url(#clipPath12); fill:none; stroke:black;" height="27" />
          <text x="5" y="11" transform="translate(271,17)" style="clip-path:url(#clipPath13); fill:black; stroke:none; font-weight:bold;" xml:space="preserve">DTDValidator</text>
        </g>
      </g>
    </a>
    <a onclick="onClick(evt, &apos;../../../../../../../../nexd/de/xplib/nexd/engine/xml/util/NonValidDocumentException.html&apos;)">
      <g>
        <defs id="defs7">
          <clipPath clipPathUnits="userSpaceOnUse" id="clipPath14">
            <path d="M270 70 L467 70 L467 115 L270 115 L270 70 Z" />
          </clipPath>
          <clipPath clipPathUnits="userSpaceOnUse" id="clipPath15">
            <path d="M0 0 L59 0 L59 17 L0 17 L0 0 Z" />
          </clipPath>
          <clipPath clipPathUnits="userSpaceOnUse" id="clipPath16">
            <path d="M0 0 L195 0 L195 17 L0 17 L0 0 Z" />
          </clipPath>
        </defs>
        <g style="fill:white; font-size:11; stroke:white;" transform="translate(5,5)">
          <rect x="270" y="70" width="197" style="clip-path:url(#clipPath14); stroke:none;" height="45" />
          <rect x="270" y="70" width="196" style="clip-path:url(#clipPath14); fill:none; stroke:black;" height="44" />
          <text x="0" y="11" transform="translate(404,74)" style="clip-path:url(#clipPath15); fill:black; stroke:none;" xml:space="preserve">Exception</text>
          <text x="5" y="11" transform="translate(271,94)" style="clip-path:url(#clipPath16); fill:black; stroke:none; font-weight:bold;" xml:space="preserve">NonValidDocumentException</text>
        </g>
      </g>
    </a>
    <g transform="translate(5,5)" style="font-size:11; stroke-linecap:butt; fill:rgb(0,127,0); stroke-dasharray:18,6; stroke:rgb(0,127,0);">
      <path d="M97 34 L177 34" style="fill:none; clip-path:url(#clipPath17);" />
      <polygon points=" 176 34 160 42 160 26" style="stroke-dasharray:none; clip-path:url(#clipPath18); stroke-linecap:square; stroke:none;" />
      <polygon points=" 176 34 160 42 160 26" style="fill:none; stroke-dasharray:none; clip-path:url(#clipPath18); stroke-linecap:square;" />
    </g>
    <g style="font-size:11;" transform="translate(5,5)">
      <path d="M367 24 L447 24" style="fill:none; clip-path:url(#clipPath19);" />
      <polygon style="fill:white; clip-path:url(#clipPath20); stroke:none;" points=" 446 24 430 32 430 16" />
      <polygon style="fill:none; clip-path:url(#clipPath20);" points=" 446 24 430 32 430 16" />
    </g>
    <g>
      <script lang="text/ecmascript">
        <![CDATA[
    function onClick(evt, href) {
        navigateTo(href);
        evt.stopPropagation();
    }]]>
      </script>
    </g>
  </g>
</svg>
