<?xml version="1.0" encoding="UTF-8"?>

<!DOCTYPE svg PUBLIC '-//W3C//DTD SVG 1.0//EN' 'http://www.w3.org/TR/2001/REC-SVG-20010904/DTD/svg10.dtd'>
<svg style="fill-opacity:1; color-rendering:auto; color-interpolation:auto; text-rendering:auto; stroke:black; stroke-linecap:square; stroke-miterlimit:10; shape-rendering:auto; stroke-opacity:1; fill:black; stroke-dasharray:none; font-weight:normal; stroke-width:1; font-family:&apos;Dialog&apos;; font-style:normal; stroke-linejoin:miter; font-size:12; stroke-dashoffset:0; image-rendering:auto;" xmlns="http://www.w3.org/2000/svg" width="238" xmlns:xlink="http://www.w3.org/1999/xlink" height="147">
  <!--Generated by Selena using Batik-->
  <defs id="genericDefs" />
  <g>
    <defs id="defs1">
      <clipPath clipPathUnits="userSpaceOnUse" id="clipPath1">
        <path d="M0 0 L12000 0 L12000 12000 L0 12000 L0 0 Z" />
      </clipPath>
    </defs>
    <g style="fill:white; stroke:white;">
      <rect x="0" y="0" width="238" style="clip-path:url(#clipPath1); stroke:none;" height="147" />
      <rect x="0" y="0" width="237" style="clip-path:url(#clipPath1); fill:none; stroke:blue;" height="146" />
    </g>
    <a onclick="onClick(evt, &apos;../../../../../../../nexd/de/xplib/nexd/engine/comm/SOAPSession.html&apos;)">
      <g>
        <defs id="defs2">
          <clipPath clipPathUnits="userSpaceOnUse" id="clipPath2">
            <path d="M20 20 L121 20 L121 82 L20 82 L20 20 Z" />
          </clipPath>
          <clipPath clipPathUnits="userSpaceOnUse" id="clipPath3">
            <path d="M0 0 L52 0 L52 17 L0 17 L0 0 Z" />
          </clipPath>
          <clipPath clipPathUnits="userSpaceOnUse" id="clipPath4">
            <path d="M0 0 L83 0 L83 17 L0 17 L0 0 Z" />
          </clipPath>
          <clipPath clipPathUnits="userSpaceOnUse" id="clipPath5">
            <path d="M0 0 L99 0 L99 17 L0 17 L0 0 Z" />
          </clipPath>
        </defs>
        <g style="fill:white; font-size:11; stroke:white;" transform="translate(5,5)">
          <rect x="20" y="20" width="101" style="clip-path:url(#clipPath2); stroke:none;" height="62" />
          <rect x="20" y="20" width="100" style="clip-path:url(#clipPath2); fill:none; stroke:black;" height="61" />
          <text x="0" y="11" transform="translate(34,24)" style="clip-path:url(#clipPath3); fill:black; font-style:italic; stroke:none;" xml:space="preserve">SessionI</text>
          <text x="0" y="11" transform="translate(34,41)" style="clip-path:url(#clipPath4); fill:black; font-style:italic; stroke:none;" xml:space="preserve">NEXDEngineI</text>
          <text x="5" y="11" transform="translate(21,61)" style="clip-path:url(#clipPath5); fill:black; stroke:none; font-weight:bold;" xml:space="preserve">SOAPSession</text>
        </g>
      </g>
    </a>
    <a onclick="onClick(evt, &apos;../../../../../../../nexd/de/xplib/nexd/engine/comm/LocalSession.html&apos;)">
      <g>
        <defs id="defs3">
          <clipPath clipPathUnits="userSpaceOnUse" id="clipPath6">
            <path d="M131 20 L228 20 L228 65 L131 65 L131 20 Z" />
          </clipPath>
          <clipPath clipPathUnits="userSpaceOnUse" id="clipPath7">
            <path d="M0 0 L52 0 L52 17 L0 17 L0 0 Z" />
          </clipPath>
          <clipPath clipPathUnits="userSpaceOnUse" id="clipPath8">
            <path d="M0 0 L95 0 L95 17 L0 17 L0 0 Z" />
          </clipPath>
        </defs>
        <g style="fill:white; font-size:11; stroke:white;" transform="translate(5,5)">
          <rect x="131" y="20" width="97" style="clip-path:url(#clipPath6); stroke:none;" height="45" />
          <rect x="131" y="20" width="96" style="clip-path:url(#clipPath6); fill:none; stroke:black;" height="44" />
          <text x="0" y="11" transform="translate(172,24)" style="clip-path:url(#clipPath7); fill:black; font-style:italic; stroke:none;" xml:space="preserve">SessionI</text>
          <text x="5" y="11" transform="translate(132,44)" style="clip-path:url(#clipPath8); fill:black; stroke:none; font-weight:bold;" xml:space="preserve">LocalSession</text>
        </g>
      </g>
    </a>
    <a onclick="onClick(evt, &apos;../../../../../../../nexd/de/xplib/nexd/engine/comm/DefaultSessionFactory.html&apos;)">
      <g>
        <defs id="defs4">
          <clipPath clipPathUnits="userSpaceOnUse" id="clipPath9">
            <path d="M20 92 L173 92 L173 137 L20 137 L20 92 Z" />
          </clipPath>
          <clipPath clipPathUnits="userSpaceOnUse" id="clipPath10">
            <path d="M0 0 L141 0 L141 17 L0 17 L0 0 Z" />
          </clipPath>
          <clipPath clipPathUnits="userSpaceOnUse" id="clipPath11">
            <path d="M0 0 L151 0 L151 17 L0 17 L0 0 Z" />
          </clipPath>
        </defs>
        <g style="fill:white; font-size:11; stroke:white;" transform="translate(5,5)">
          <rect x="20" y="92" width="153" style="clip-path:url(#clipPath9); stroke:none;" height="45" />
          <rect x="20" y="92" width="152" style="clip-path:url(#clipPath9); fill:none; stroke:black;" height="44" />
          <text x="0" y="11" transform="translate(28,96)" style="clip-path:url(#clipPath10); fill:black; stroke:none;" xml:space="preserve">AbstractSessionFactory</text>
          <text x="5" y="11" transform="translate(21,116)" style="clip-path:url(#clipPath11); fill:black; stroke:none; font-weight:bold;" xml:space="preserve">DefaultSessionFactory</text>
        </g>
      </g>
    </a>
    <g>
      <script lang="text/ecmascript">
        <![CDATA[
    function onClick(evt, href) {
        navigateTo(href);
        evt.stopPropagation();
    }]]>
      </script>
    </g>
  </g>
</svg>
