<?xml version="1.0" encoding="UTF-8"?>

<!DOCTYPE svg PUBLIC '-//W3C//DTD SVG 1.0//EN' 'http://www.w3.org/TR/2001/REC-SVG-20010904/DTD/svg10.dtd'>
<svg style="fill-opacity:1; color-rendering:auto; color-interpolation:auto; text-rendering:auto; stroke:black; stroke-linecap:square; stroke-miterlimit:10; shape-rendering:auto; stroke-opacity:1; fill:black; stroke-dasharray:none; font-weight:normal; stroke-width:1; font-family:&apos;Dialog&apos;; font-style:normal; stroke-linejoin:miter; font-size:12; stroke-dashoffset:0; image-rendering:auto;" xmlns="http://www.w3.org/2000/svg" width="210" xmlns:xlink="http://www.w3.org/1999/xlink" height="129">
  <!--Generated by Selena using Batik-->
  <defs id="genericDefs" />
  <g>
    <defs id="defs1">
      <clipPath clipPathUnits="userSpaceOnUse" id="clipPath1">
        <path d="M0 0 L12000 0 L12000 12000 L0 12000 L0 0 Z" />
      </clipPath>
    </defs>
    <g style="fill:white; stroke:white;">
      <rect x="0" y="0" width="210" style="clip-path:url(#clipPath1); stroke:none;" height="129" />
      <rect x="0" y="0" width="209" style="clip-path:url(#clipPath1); fill:none; stroke:blue;" height="128" />
    </g>
    <a onclick="onClick(evt, &apos;../../../../../../../nexd/de/xplib/nexd/engine/http/ServerThread.html&apos;)">
      <g>
        <defs id="defs2">
          <clipPath clipPathUnits="userSpaceOnUse" id="clipPath2">
            <path d="M10 10 L106 10 L106 55 L10 55 L10 10 Z" />
          </clipPath>
          <clipPath clipPathUnits="userSpaceOnUse" id="clipPath3">
            <path d="M0 0 L41 0 L41 17 L0 17 L0 0 Z" />
          </clipPath>
          <clipPath clipPathUnits="userSpaceOnUse" id="clipPath4">
            <path d="M0 0 L94 0 L94 17 L0 17 L0 0 Z" />
          </clipPath>
        </defs>
        <g style="fill:white; font-size:11; stroke:white;" transform="translate(5,5)">
          <rect x="10" y="10" width="96" style="clip-path:url(#clipPath2); stroke:none;" height="45" />
          <rect x="10" y="10" width="95" style="clip-path:url(#clipPath2); fill:none; stroke:black;" height="44" />
          <text x="0" y="11" transform="translate(61,14)" style="clip-path:url(#clipPath3); fill:black; stroke:none;" xml:space="preserve">Thread</text>
          <text x="5" y="11" transform="translate(11,34)" style="clip-path:url(#clipPath4); fill:black; stroke:none; font-weight:bold;" xml:space="preserve">ServerThread</text>
        </g>
      </g>
    </a>
    <a onclick="onClick(evt, &apos;../../../../../../../nexd/de/xplib/nexd/engine/http/Request.html&apos;)">
      <g>
        <defs id="defs3">
          <clipPath clipPathUnits="userSpaceOnUse" id="clipPath5">
            <path d="M125 1 L189 1 L189 29 L125 29 L125 1 Z" />
          </clipPath>
          <clipPath clipPathUnits="userSpaceOnUse" id="clipPath6">
            <path d="M0 0 L62 0 L62 17 L0 17 L0 0 Z" />
          </clipPath>
        </defs>
        <g style="fill:white; font-size:11; stroke:white;" transform="translate(5,5)">
          <rect x="125" y="1" width="64" style="clip-path:url(#clipPath5); stroke:none;" height="28" />
          <rect x="125" y="1" width="63" style="clip-path:url(#clipPath5); fill:none; stroke:black;" height="27" />
          <text x="5" y="11" transform="translate(126,8)" style="clip-path:url(#clipPath6); fill:black; stroke:none; font-weight:bold;" xml:space="preserve">Request</text>
        </g>
      </g>
    </a>
    <a onclick="onClick(evt, &apos;../../../../../../../nexd/de/xplib/nexd/engine/http/Server.html&apos;)">
      <g>
        <defs id="defs4">
          <clipPath clipPathUnits="userSpaceOnUse" id="clipPath7">
            <path d="M17 74 L70 74 L70 102 L17 102 L17 74 Z" />
          </clipPath>
          <clipPath clipPathUnits="userSpaceOnUse" id="clipPath8">
            <path d="M0 0 L51 0 L51 17 L0 17 L0 0 Z" />
          </clipPath>
        </defs>
        <g style="fill:white; font-size:11; stroke:white;" transform="translate(5,5)">
          <rect x="17" y="74" width="53" style="clip-path:url(#clipPath7); stroke:none;" height="28" />
          <rect x="17" y="74" width="52" style="clip-path:url(#clipPath7); fill:none; stroke:black;" height="27" />
          <text x="5" y="11" transform="translate(18,81)" style="clip-path:url(#clipPath8); fill:black; stroke:none; font-weight:bold;" xml:space="preserve">Server</text>
        </g>
      </g>
    </a>
    <a onclick="onClick(evt, &apos;../../../../../../../nexd/de/xplib/nexd/engine/http/soap/soap.html&apos;)">
      <g>
        <defs id="defs5">
          <clipPath clipPathUnits="userSpaceOnUse" id="clipPath9">
            <path d="M76 74 L119 74 L119 119 L76 119 L76 74 Z" />
          </clipPath>
          <clipPath clipPathUnits="userSpaceOnUse" id="clipPath10">
            <path d="M0 0 L41 0 L41 17 L0 17 L0 0 Z" />
          </clipPath>
        </defs>
        <g style="fill:white; font-size:11; stroke:white;" transform="translate(5,5)">
          <polygon style="clip-path:url(#clipPath9); stroke:none;" points=" 76 94 118 94 118 118 76 118 76 94" />
          <polygon style="clip-path:url(#clipPath9); stroke:none;" points=" 76 74 97 74 97 94 76 94 76 74" />
          <path d="M76 94 L118 94 L118 118 L76 118 L76 94" style="fill:none; clip-path:url(#clipPath9); stroke:black;" />
          <path d="M76 74 L97 74 L97 94 L76 94 L76 74" style="fill:none; clip-path:url(#clipPath9); stroke:black;" />
          <text x="5" y="11" transform="translate(77,98)" style="clip-path:url(#clipPath10); fill:black; stroke:none; font-weight:bold;" xml:space="preserve">soap</text>
        </g>
      </g>
    </a>
    <a onclick="onClick(evt, &apos;../../../../../../../nexd/de/xplib/nexd/engine/http/Response.html&apos;)">
      <g>
        <defs id="defs6">
          <clipPath clipPathUnits="userSpaceOnUse" id="clipPath11">
            <path d="M125 48 L200 48 L200 76 L125 76 L125 48 Z" />
          </clipPath>
          <clipPath clipPathUnits="userSpaceOnUse" id="clipPath12">
            <path d="M0 0 L73 0 L73 17 L0 17 L0 0 Z" />
          </clipPath>
        </defs>
        <g style="fill:white; font-size:11; stroke:white;" transform="translate(5,5)">
          <rect x="125" y="48" width="75" style="clip-path:url(#clipPath11); stroke:none;" height="28" />
          <rect x="125" y="48" width="74" style="clip-path:url(#clipPath11); fill:none; stroke:black;" height="27" />
          <text x="5" y="11" transform="translate(126,55)" style="clip-path:url(#clipPath12); fill:black; stroke:none; font-weight:bold;" xml:space="preserve">Response</text>
        </g>
      </g>
    </a>
    <g>
      <script lang="text/ecmascript">
        <![CDATA[
    function onClick(evt, href) {
        navigateTo(href);
        evt.stopPropagation();
    }]]>
      </script>
    </g>
  </g>
</svg>
