<?xml version="1.0" encoding="UTF-8"?>

<!DOCTYPE svg PUBLIC '-//W3C//DTD SVG 1.0//EN' 'http://www.w3.org/TR/2001/REC-SVG-20010904/DTD/svg10.dtd'>
<svg style="fill-opacity:1; color-rendering:auto; color-interpolation:auto; text-rendering:auto; stroke:black; stroke-linecap:square; stroke-miterlimit:10; shape-rendering:auto; stroke-opacity:1; fill:black; stroke-dasharray:none; font-weight:normal; stroke-width:1; font-family:&apos;Dialog&apos;; font-style:normal; stroke-linejoin:miter; font-size:12; stroke-dashoffset:0; image-rendering:auto;" xmlns="http://www.w3.org/2000/svg" width="322" xmlns:xlink="http://www.w3.org/1999/xlink" height="161">
  <!--Generated by Selena using Batik-->
  <defs id="genericDefs" />
  <g>
    <defs id="defs1">
      <clipPath clipPathUnits="userSpaceOnUse" id="clipPath1">
        <path d="M0 0 L12000 0 L12000 12000 L0 12000 L0 0 Z" />
      </clipPath>
      <clipPath clipPathUnits="userSpaceOnUse" id="clipPath11">
        <path d="M283 14 L317 14 L317 91 L283 91 L283 14 Z" />
      </clipPath>
      <clipPath clipPathUnits="userSpaceOnUse" id="clipPath12">
        <path d="M0 0 L5 0 L5 21 L0 21 L0 0 Z" />
      </clipPath>
      <clipPath clipPathUnits="userSpaceOnUse" id="clipPath13">
        <path d="M0 0 L1 0 L1 17 L0 17 L0 0 Z" />
      </clipPath>
      <clipPath clipPathUnits="userSpaceOnUse" id="clipPath14">
        <path d="M39 38 L64 38 L64 124 L39 124 L39 38 Z" />
      </clipPath>
      <clipPath clipPathUnits="userSpaceOnUse" id="clipPath15">
        <path d="M108 4 L189 4 L189 48 L108 48 L108 4 Z" />
      </clipPath>
    </defs>
    <g style="fill:white; stroke:white;">
      <rect x="0" y="0" width="322" style="clip-path:url(#clipPath1); stroke:none;" height="161" />
      <rect x="0" y="0" width="321" style="clip-path:url(#clipPath1); fill:none; stroke:blue;" height="160" />
    </g>
    <a onclick="onClick(evt, &apos;../../../../../../../nexd/de/xplib/nexd/engine/config/EngineConfig.html&apos;)">
      <g>
        <defs id="defs2">
          <clipPath clipPathUnits="userSpaceOnUse" id="clipPath2">
            <path d="M188 10 L287 10 L287 38 L188 38 L188 10 Z" />
          </clipPath>
          <clipPath clipPathUnits="userSpaceOnUse" id="clipPath3">
            <path d="M0 0 L97 0 L97 17 L0 17 L0 0 Z" />
          </clipPath>
        </defs>
        <g style="fill:white; font-size:11; stroke:white;" transform="translate(5,5)">
          <rect x="188" y="10" width="99" style="clip-path:url(#clipPath2); stroke:none;" height="28" />
          <rect x="188" y="10" width="98" style="clip-path:url(#clipPath2); fill:none; stroke:black;" height="27" />
          <text x="5" y="11" transform="translate(189,17)" style="clip-path:url(#clipPath3); fill:black; stroke:none; font-weight:bold;" xml:space="preserve">EngineConfig</text>
        </g>
      </g>
    </a>
    <a onclick="onClick(evt, &apos;../../../../../../../nexd/de/xplib/nexd/engine/config/ServerConfig.html&apos;)">
      <g>
        <defs id="defs3">
          <clipPath clipPathUnits="userSpaceOnUse" id="clipPath4">
            <path d="M13 10 L108 10 L108 38 L13 38 L13 10 Z" />
          </clipPath>
          <clipPath clipPathUnits="userSpaceOnUse" id="clipPath5">
            <path d="M0 0 L93 0 L93 17 L0 17 L0 0 Z" />
          </clipPath>
        </defs>
        <g style="fill:white; font-size:11; stroke:white;" transform="translate(5,5)">
          <rect x="13" y="10" width="95" style="clip-path:url(#clipPath4); stroke:none;" height="28" />
          <rect x="13" y="10" width="94" style="clip-path:url(#clipPath4); fill:none; stroke:black;" height="27" />
          <text x="5" y="11" transform="translate(14,17)" style="clip-path:url(#clipPath5); fill:black; stroke:none; font-weight:bold;" xml:space="preserve">ServerConfig</text>
        </g>
      </g>
    </a>
    <a onclick="onClick(evt, &apos;../../../../../../../nexd/de/xplib/nexd/engine/config/ServiceConfig.html&apos;)">
      <g>
        <defs id="defs4">
          <clipPath clipPathUnits="userSpaceOnUse" id="clipPath6">
            <path d="M10 123 L111 123 L111 151 L10 151 L10 123 Z" />
          </clipPath>
          <clipPath clipPathUnits="userSpaceOnUse" id="clipPath7">
            <path d="M0 0 L99 0 L99 17 L0 17 L0 0 Z" />
          </clipPath>
        </defs>
        <g style="fill:white; font-size:11; stroke:white;" transform="translate(5,5)">
          <rect x="10" y="123" width="101" style="clip-path:url(#clipPath6); stroke:none;" height="28" />
          <rect x="10" y="123" width="100" style="clip-path:url(#clipPath6); fill:none; stroke:black;" height="27" />
          <text x="5" y="11" transform="translate(11,130)" style="clip-path:url(#clipPath7); fill:black; stroke:none; font-weight:bold;" xml:space="preserve">ServiceConfig</text>
        </g>
      </g>
    </a>
    <a onclick="onClick(evt, &apos;../../../../../../../nexd/de/xplib/nexd/engine/config/ConfigurationException.html&apos;)">
      <g>
        <defs id="defs5">
          <clipPath clipPathUnits="userSpaceOnUse" id="clipPath8">
            <path d="M131 90 L292 90 L292 135 L131 135 L131 90 Z" />
          </clipPath>
          <clipPath clipPathUnits="userSpaceOnUse" id="clipPath9">
            <path d="M0 0 L59 0 L59 17 L0 17 L0 0 Z" />
          </clipPath>
          <clipPath clipPathUnits="userSpaceOnUse" id="clipPath10">
            <path d="M0 0 L159 0 L159 17 L0 17 L0 0 Z" />
          </clipPath>
        </defs>
        <g style="fill:white; font-size:11; stroke:white;" transform="translate(5,5)">
          <rect x="131" y="90" width="161" style="clip-path:url(#clipPath8); stroke:none;" height="45" />
          <rect x="131" y="90" width="160" style="clip-path:url(#clipPath8); fill:none; stroke:black;" height="44" />
          <text x="0" y="11" transform="translate(229,94)" style="clip-path:url(#clipPath9); fill:black; stroke:none;" xml:space="preserve">Exception</text>
          <text x="5" y="11" transform="translate(132,114)" style="clip-path:url(#clipPath10); fill:black; stroke:none; font-weight:bold;" xml:space="preserve">ConfigurationException</text>
        </g>
      </g>
    </a>
    <g style="fill:blue; font-size:11; stroke:blue;" transform="translate(5,5)">
      <path d="M287 34 L316 34 L316 67 L283 67 L283 38" style="fill:none; clip-path:url(#clipPath11);" />
      <text x="2" y="13" transform="translate(297,70)" style="clip-path:url(#clipPath12); stroke:none;" xml:space="preserve"></text>
      <text x="0" y="11" transform="translate(289,70)" style="clip-path:url(#clipPath13); stroke:none;" xml:space="preserve"></text>
      <text x="0" y="11" transform="translate(297,14)" style="clip-path:url(#clipPath13); stroke:none;" xml:space="preserve"></text>
      <text x="0" y="11" transform="translate(307,37)" style="clip-path:url(#clipPath13); stroke:none;" xml:space="preserve"></text>
      <text x="0" y="11" transform="translate(286,41)" style="clip-path:url(#clipPath13); stroke:none;" xml:space="preserve"></text>
      <text x="0" y="11" transform="translate(283,70)" style="clip-path:url(#clipPath13); stroke:none;" xml:space="preserve"></text>
      <path d="M60 38 L60 123" style="fill:none; clip-path:url(#clipPath14);" />
      <text x="2" y="13" transform="translate(52,70)" style="clip-path:url(#clipPath12); stroke:none;" xml:space="preserve"></text>
      <text x="0" y="11" transform="translate(56,92)" style="clip-path:url(#clipPath13); stroke:none;" xml:space="preserve"></text>
      <text x="0" y="11" transform="translate(63,41)" style="clip-path:url(#clipPath13); stroke:none;" xml:space="preserve"></text>
      <text x="0" y="11" transform="translate(56,51)" style="clip-path:url(#clipPath13); stroke:none;" xml:space="preserve"></text>
      <text x="0" y="11" transform="translate(63,96)" style="clip-path:url(#clipPath13); stroke:none;" xml:space="preserve"></text>
      <text x="0" y="11" transform="translate(39,96)" style="clip-path:url(#clipPath13); stroke:none;" xml:space="preserve"></text>
      <path d="M188 24 L108 24" style="fill:none; clip-path:url(#clipPath15);" />
      <text x="2" y="13" transform="translate(146,27)" style="clip-path:url(#clipPath12); stroke:none;" xml:space="preserve"></text>
      <text x="0" y="11" transform="translate(138,27)" style="clip-path:url(#clipPath13); stroke:none;" xml:space="preserve"></text>
      <text x="0" y="11" transform="translate(177,4)" style="clip-path:url(#clipPath13); stroke:none;" xml:space="preserve"></text>
      <text x="0" y="11" transform="translate(167,27)" style="clip-path:url(#clipPath13); stroke:none;" xml:space="preserve"></text>
      <text x="0" y="11" transform="translate(118,4)" style="clip-path:url(#clipPath13); stroke:none;" xml:space="preserve"></text>
      <text x="0" y="11" transform="translate(128,27)" style="clip-path:url(#clipPath13); stroke:none;" xml:space="preserve"></text>
    </g>
    <g>
      <script lang="text/ecmascript">
        <![CDATA[
    function onClick(evt, href) {
        navigateTo(href);
        evt.stopPropagation();
    }]]>
      </script>
    </g>
  </g>
</svg>
