<?xml version="1.0" encoding="UTF-8"?>

<!DOCTYPE svg PUBLIC '-//W3C//DTD SVG 1.0//EN' 'http://www.w3.org/TR/2001/REC-SVG-20010904/DTD/svg10.dtd'>
<svg style="fill-opacity:1; color-rendering:auto; color-interpolation:auto; text-rendering:auto; stroke:black; stroke-linecap:square; stroke-miterlimit:10; shape-rendering:auto; stroke-opacity:1; fill:black; stroke-dasharray:none; font-weight:normal; stroke-width:1; font-family:&apos;Dialog&apos;; font-style:normal; stroke-linejoin:miter; font-size:12; stroke-dashoffset:0; image-rendering:auto;" xmlns="http://www.w3.org/2000/svg" width="594" xmlns:xlink="http://www.w3.org/1999/xlink" height="260">
  <!--Generated by Selena using Batik-->
  <defs id="genericDefs" />
  <g>
    <defs id="defs1">
      <clipPath clipPathUnits="userSpaceOnUse" id="clipPath1">
        <path d="M0 0 L12000 0 L12000 12000 L0 12000 L0 0 Z" />
      </clipPath>
    </defs>
    <g style="fill:white; stroke:white;">
      <rect x="0" y="0" width="594" style="clip-path:url(#clipPath1); stroke:none;" height="260" />
      <rect x="0" y="0" width="593" style="clip-path:url(#clipPath1); fill:none; stroke:blue;" height="259" />
    </g>
    <a onclick="onClick(evt, &apos;../../nexd/de/de.html&apos;)">
      <g>
        <defs id="defs2">
          <clipPath clipPathUnits="userSpaceOnUse" id="clipPath2">
            <path d="M10 10 L104 10 L104 89 L10 89 L10 10 Z" />
          </clipPath>
          <clipPath clipPathUnits="userSpaceOnUse" id="clipPath3">
            <path d="M0 0 L26 0 L26 17 L0 17 L0 0 Z" />
          </clipPath>
          <clipPath clipPathUnits="userSpaceOnUse" id="clipPath4">
            <path d="M0 0 L92 0 L92 17 L0 17 L0 0 Z" />
          </clipPath>
          <clipPath clipPathUnits="userSpaceOnUse" id="clipPath5">
            <path d="M11 71 L103 71 L103 88 L11 88 L11 71 Z" />
          </clipPath>
        </defs>
        <g style="fill:white; font-size:11; stroke:white;" transform="translate(5,5)">
          <polygon style="clip-path:url(#clipPath2); stroke:none;" points=" 10 30 103 30 103 88 10 88 10 30" />
          <polygon style="clip-path:url(#clipPath2); stroke:none;" points=" 10 10 56 10 56 30 10 30 10 10" />
          <path d="M10 30 L103 30 L103 88 L10 88 L10 30" style="fill:none; clip-path:url(#clipPath2); stroke:black;" />
          <path d="M10 10 L56 10 L56 30 L10 30 L10 10" style="fill:none; clip-path:url(#clipPath2); stroke:black;" />
          <text x="5" y="11" transform="translate(44,34)" style="clip-path:url(#clipPath3); fill:black; stroke:none; font-weight:bold;" xml:space="preserve">de</text>
          <line transform="translate(11,54)" x1="0" x2="91" y1="9" style="clip-path:url(#clipPath4); fill:none; stroke:black;" y2="9" />
          <rect x="11" y="71" width="92" style="clip-path:url(#clipPath5); stroke:none;" height="17" />
        </g>
        <a onclick="onClick(evt, &apos;../../nexd/de/xplib/xplib.html&apos;)">
          <g>
            <defs id="defs3">
              <clipPath clipPathUnits="userSpaceOnUse" id="clipPath6">
                <path d="M0 0 L92 0 L92 17 L0 17 L0 0 Z" />
              </clipPath>
            </defs>
            <g style="font-size:11;" transform="translate(16,76)">
              <text x="5" y="11" style="clip-path:url(#clipPath6); stroke:none;" xml:space="preserve"> xplib</text>
            </g>
          </g>
        </a>
      </g>
    </a>
    <a onclick="onClick(evt, &apos;../../nexd/tests/tests.html&apos;)">
      <g>
        <defs id="defs4">
          <clipPath clipPathUnits="userSpaceOnUse" id="clipPath7">
            <path d="M123 1 L250 1 L250 250 L123 250 L123 1 Z" />
          </clipPath>
          <clipPath clipPathUnits="userSpaceOnUse" id="clipPath8">
            <path d="M0 0 L40 0 L40 17 L0 17 L0 0 Z" />
          </clipPath>
          <clipPath clipPathUnits="userSpaceOnUse" id="clipPath9">
            <path d="M0 0 L125 0 L125 17 L0 17 L0 0 Z" />
          </clipPath>
          <clipPath clipPathUnits="userSpaceOnUse" id="clipPath10">
            <path d="M124 62 L249 62 L249 181 L124 181 L124 62 Z" />
          </clipPath>
          <clipPath clipPathUnits="userSpaceOnUse" id="clipPath18">
            <path d="M0 0 L125 0 L125 17 L0 17 L0 0 Z" />
          </clipPath>
          <clipPath clipPathUnits="userSpaceOnUse" id="clipPath19">
            <path d="M124 198 L249 198 L249 249 L124 249 L124 198 Z" />
          </clipPath>
        </defs>
        <g style="fill:white; font-size:11; stroke:white;" transform="translate(5,5)">
          <polygon style="clip-path:url(#clipPath7); stroke:none;" points=" 123 21 249 21 249 249 123 249 123 21" />
          <polygon style="clip-path:url(#clipPath7); stroke:none;" points=" 123 1 186 1 186 21 123 21 123 1" />
          <path d="M123 21 L249 21 L249 249 L123 249 L123 21" style="fill:none; clip-path:url(#clipPath7); stroke:black;" />
          <path d="M123 1 L186 1 L186 21 L123 21 L123 1" style="fill:none; clip-path:url(#clipPath7); stroke:black;" />
          <text x="5" y="11" transform="translate(166,25)" style="clip-path:url(#clipPath8); fill:black; stroke:none; font-weight:bold;" xml:space="preserve">tests</text>
          <line transform="translate(124,45)" x1="0" x2="124" y1="9" style="clip-path:url(#clipPath9); fill:none; stroke:black;" y2="9" />
          <rect x="124" y="62" width="125" style="clip-path:url(#clipPath10); stroke:none;" height="119" />
        </g>
        <a onclick="onClick(evt, &apos;../../nexd/tests/xapi/xapi.html&apos;)">
          <g>
            <defs id="defs5">
              <clipPath clipPathUnits="userSpaceOnUse" id="clipPath11">
                <path d="M0 0 L125 0 L125 17 L0 17 L0 0 Z" />
              </clipPath>
            </defs>
            <g style="font-size:11;" transform="translate(129,152)">
              <text x="5" y="11" style="clip-path:url(#clipPath11); stroke:none;" xml:space="preserve"> xapi</text>
            </g>
          </g>
        </a>
        <a onclick="onClick(evt, &apos;../../nexd/tests/xml/xml.html&apos;)">
          <g>
            <defs id="defs6">
              <clipPath clipPathUnits="userSpaceOnUse" id="clipPath12">
                <path d="M0 0 L125 0 L125 17 L0 17 L0 0 Z" />
              </clipPath>
            </defs>
            <g style="font-size:11;" transform="translate(129,169)">
              <text x="5" y="11" style="clip-path:url(#clipPath12); stroke:none;" xml:space="preserve"> xml</text>
            </g>
          </g>
        </a>
        <a onclick="onClick(evt, &apos;../../nexd/tests/engine/engine.html&apos;)">
          <g>
            <defs id="defs7">
              <clipPath clipPathUnits="userSpaceOnUse" id="clipPath13">
                <path d="M0 0 L125 0 L125 17 L0 17 L0 0 Z" />
              </clipPath>
            </defs>
            <g style="font-size:11;" transform="translate(129,84)">
              <text x="5" y="11" style="clip-path:url(#clipPath13); stroke:none;" xml:space="preserve"> engine</text>
            </g>
          </g>
        </a>
        <a onclick="onClick(evt, &apos;../../nexd/tests/comm/comm.html&apos;)">
          <g>
            <defs id="defs8">
              <clipPath clipPathUnits="userSpaceOnUse" id="clipPath14">
                <path d="M0 0 L125 0 L125 17 L0 17 L0 0 Z" />
              </clipPath>
            </defs>
            <g style="font-size:11;" transform="translate(129,67)">
              <text x="5" y="11" style="clip-path:url(#clipPath14); stroke:none;" xml:space="preserve"> comm</text>
            </g>
          </g>
        </a>
        <a onclick="onClick(evt, &apos;../../nexd/tests/vcl/vcl.html&apos;)">
          <g>
            <defs id="defs9">
              <clipPath clipPathUnits="userSpaceOnUse" id="clipPath15">
                <path d="M0 0 L125 0 L125 17 L0 17 L0 0 Z" />
              </clipPath>
            </defs>
            <g style="font-size:11;" transform="translate(129,135)">
              <text x="5" y="11" style="clip-path:url(#clipPath15); stroke:none;" xml:space="preserve"> vcl</text>
            </g>
          </g>
        </a>
        <a onclick="onClick(evt, &apos;../../nexd/tests/pcvr/pcvr.html&apos;)">
          <g>
            <defs id="defs10">
              <clipPath clipPathUnits="userSpaceOnUse" id="clipPath16">
                <path d="M0 0 L125 0 L125 17 L0 17 L0 0 Z" />
              </clipPath>
            </defs>
            <g style="font-size:11;" transform="translate(129,101)">
              <text x="5" y="11" style="clip-path:url(#clipPath16); stroke:none;" xml:space="preserve"> pcvr</text>
            </g>
          </g>
        </a>
        <a onclick="onClick(evt, &apos;../../nexd/tests/storage/storage.html&apos;)">
          <g>
            <defs id="defs11">
              <clipPath clipPathUnits="userSpaceOnUse" id="clipPath17">
                <path d="M0 0 L125 0 L125 17 L0 17 L0 0 Z" />
              </clipPath>
            </defs>
            <g style="font-size:11;" transform="translate(129,118)">
              <text x="5" y="11" style="clip-path:url(#clipPath17); stroke:none;" xml:space="preserve"> storage</text>
            </g>
          </g>
        </a>
        <g style="font-size:11;" transform="translate(129,186)">
          <line x1="0" x2="124" y1="9" style="clip-path:url(#clipPath18); fill:none;" y2="9" />
          <rect x="124" y="198" transform="translate(-124,-181)" width="125" style="clip-path:url(#clipPath19); fill:white; stroke:none;" height="51" />
        </g>
        <a onclick="onClick(evt, &apos;../../nexd/tests/AllTests.html&apos;)">
          <g>
            <defs id="defs12">
              <clipPath clipPathUnits="userSpaceOnUse" id="clipPath20">
                <path d="M0 0 L125 0 L125 17 L0 17 L0 0 Z" />
              </clipPath>
            </defs>
            <g style="font-size:11;" transform="translate(129,203)">
              <text x="5" y="11" style="clip-path:url(#clipPath20); stroke:none;" xml:space="preserve">+AllTests</text>
            </g>
          </g>
        </a>
        <a onclick="onClick(evt, &apos;../../nexd/tests/IntStackTestCase.html&apos;)">
          <g>
            <defs id="defs13">
              <clipPath clipPathUnits="userSpaceOnUse" id="clipPath21">
                <path d="M0 0 L125 0 L125 17 L0 17 L0 0 Z" />
              </clipPath>
            </defs>
            <g style="font-size:11;" transform="translate(129,220)">
              <text x="5" y="11" style="clip-path:url(#clipPath21); stroke:none;" xml:space="preserve">+IntStackTestCase</text>
            </g>
          </g>
        </a>
        <a onclick="onClick(evt, &apos;../../nexd/tests/MakeVC.html&apos;)">
          <g>
            <defs id="defs14">
              <clipPath clipPathUnits="userSpaceOnUse" id="clipPath22">
                <path d="M0 0 L125 0 L125 17 L0 17 L0 0 Z" />
              </clipPath>
            </defs>
            <g style="font-size:11;" transform="translate(129,237)">
              <text x="5" y="11" style="clip-path:url(#clipPath22); stroke:none;" xml:space="preserve">+MakeVC</text>
            </g>
          </g>
        </a>
      </g>
    </a>
    <g>
      <script lang="text/ecmascript">
        <![CDATA[
    function onClick(evt, href) {
        navigateTo(href);
        evt.stopPropagation();
    }]]>
      </script>
    </g>
  </g>
</svg>
