<?xml version="1.0" encoding="UTF-8"?>

<!DOCTYPE svg PUBLIC '-//W3C//DTD SVG 1.0//EN' 'http://www.w3.org/TR/2001/REC-SVG-20010904/DTD/svg10.dtd'>
<svg style="fill-opacity:1; color-rendering:auto; color-interpolation:auto; text-rendering:auto; stroke:black; stroke-linecap:square; stroke-miterlimit:10; shape-rendering:auto; stroke-opacity:1; fill:black; stroke-dasharray:none; font-weight:normal; stroke-width:1; font-family:&apos;Dialog&apos;; font-style:normal; stroke-linejoin:miter; font-size:12; stroke-dashoffset:0; image-rendering:auto;" xmlns="http://www.w3.org/2000/svg" width="69" xmlns:xlink="http://www.w3.org/1999/xlink" height="65">
  <!--Generated by Selena using Batik-->
  <defs id="genericDefs" />
  <g>
    <defs id="defs1">
      <clipPath clipPathUnits="userSpaceOnUse" id="clipPath1">
        <path d="M0 0 L12000 0 L12000 12000 L0 12000 L0 0 Z" />
      </clipPath>
    </defs>
    <g style="fill:white; stroke:white;">
      <rect x="0" y="0" width="69" style="clip-path:url(#clipPath1); stroke:none;" height="65" />
      <rect x="0" y="0" width="68" style="clip-path:url(#clipPath1); fill:none; stroke:blue;" height="64" />
    </g>
    <a onclick="onClick(evt, &apos;../../../../nexd/de/xplib/nexd/nexd.html&apos;)">
      <g>
        <defs id="defs2">
          <clipPath clipPathUnits="userSpaceOnUse" id="clipPath2">
            <path d="M10 10 L53 10 L53 55 L10 55 L10 10 Z" />
          </clipPath>
          <clipPath clipPathUnits="userSpaceOnUse" id="clipPath3">
            <path d="M0 0 L41 0 L41 17 L0 17 L0 0 Z" />
          </clipPath>
        </defs>
        <g style="fill:white; font-size:11; stroke:white;" transform="translate(5,5)">
          <polygon style="clip-path:url(#clipPath2); stroke:none;" points=" 10 30 52 30 52 54 10 54 10 30" />
          <polygon style="clip-path:url(#clipPath2); stroke:none;" points=" 10 10 31 10 31 30 10 30 10 10" />
          <path d="M10 30 L52 30 L52 54 L10 54 L10 30" style="fill:none; clip-path:url(#clipPath2); stroke:black;" />
          <path d="M10 10 L31 10 L31 30 L10 30 L10 10" style="fill:none; clip-path:url(#clipPath2); stroke:black;" />
          <text x="5" y="11" transform="translate(11,34)" style="clip-path:url(#clipPath3); fill:black; stroke:none; font-weight:bold;" xml:space="preserve">nexd</text>
        </g>
      </g>
    </a>
    <g>
      <script lang="text/ecmascript">
        <![CDATA[
    function onClick(evt, href) {
        navigateTo(href);
        evt.stopPropagation();
    }]]>
      </script>
    </g>
  </g>
</svg>
