<?xml version="1.0" encoding="UTF-8"?>

<!DOCTYPE svg PUBLIC '-//W3C//DTD SVG 1.0//EN' 'http://www.w3.org/TR/2001/REC-SVG-20010904/DTD/svg10.dtd'>
<svg style="fill-opacity:1; color-rendering:auto; color-interpolation:auto; text-rendering:auto; stroke:black; stroke-linecap:square; stroke-miterlimit:10; shape-rendering:auto; stroke-opacity:1; fill:black; stroke-dasharray:none; font-weight:normal; stroke-width:1; font-family:&apos;Dialog&apos;; font-style:normal; stroke-linejoin:miter; font-size:12; stroke-dashoffset:0; image-rendering:auto;" xmlns="http://www.w3.org/2000/svg" width="1455" xmlns:xlink="http://www.w3.org/1999/xlink" height="225">
  <!--Generated by Selena using Batik-->
  <defs id="genericDefs" />
  <g>
    <defs id="defs1">
      <clipPath clipPathUnits="userSpaceOnUse" id="clipPath1">
        <path d="M0 0 L12000 0 L12000 12000 L0 12000 L0 0 Z" />
      </clipPath>
      <clipPath clipPathUnits="userSpaceOnUse" id="clipPath33">
        <path d="M784 58 L948 58 L948 139 L784 139 L784 58 Z" />
      </clipPath>
      <clipPath clipPathUnits="userSpaceOnUse" id="clipPath34">
        <path d="M784 58 L803 58 L803 73 L784 73 L784 58 Z" />
      </clipPath>
      <clipPath clipPathUnits="userSpaceOnUse" id="clipPath35">
        <path d="M668 58 L822 58 L822 139 L668 139 L668 58 Z" />
      </clipPath>
      <clipPath clipPathUnits="userSpaceOnUse" id="clipPath36">
        <path d="M803 121 L816 121 L816 138 L803 138 L803 121 Z" />
      </clipPath>
      <clipPath clipPathUnits="userSpaceOnUse" id="clipPath37">
        <path d="M760 58 L771 58 L771 70 L760 70 L760 58 Z" />
      </clipPath>
      <clipPath clipPathUnits="userSpaceOnUse" id="clipPath38">
        <path d="M0 0 L110 0 L110 21 L0 21 L0 0 Z" />
      </clipPath>
      <clipPath clipPathUnits="userSpaceOnUse" id="clipPath39">
        <path d="M0 0 L1 0 L1 17 L0 17 L0 0 Z" />
      </clipPath>
      <clipPath clipPathUnits="userSpaceOnUse" id="clipPath40">
        <path d="M0 0 L8 0 L8 17 L0 17 L0 0 Z" />
      </clipPath>
      <clipPath clipPathUnits="userSpaceOnUse" id="clipPath41">
        <path d="M0 0 L21 0 L21 17 L0 17 L0 0 Z" />
      </clipPath>
      <clipPath clipPathUnits="userSpaceOnUse" id="clipPath42">
        <path d="M926 58 L1015 58 L1015 139 L926 139 L926 58 Z" />
      </clipPath>
      <clipPath clipPathUnits="userSpaceOnUse" id="clipPath43">
        <path d="M989 58 L1000 58 L1000 69 L989 69 L989 58 Z" />
      </clipPath>
      <clipPath clipPathUnits="userSpaceOnUse" id="clipPath44">
        <path d="M0 0 L65 0 L65 21 L0 21 L0 0 Z" />
      </clipPath>
      <clipPath clipPathUnits="userSpaceOnUse" id="clipPath45">
        <path d="M370 159 L901 159 L901 220 L370 220 L370 159 Z" />
      </clipPath>
      <clipPath clipPathUnits="userSpaceOnUse" id="clipPath46">
        <path d="M371 174 L383 174 L383 184 L371 184 L371 174 Z" />
      </clipPath>
      <clipPath clipPathUnits="userSpaceOnUse" id="clipPath47">
        <path d="M0 0 L97 0 L97 21 L0 21 L0 0 Z" />
      </clipPath>
      <clipPath clipPathUnits="userSpaceOnUse" id="clipPath48">
        <path d="M133 58 L150 58 L150 149 L133 149 L133 58 Z" />
      </clipPath>
      <clipPath clipPathUnits="userSpaceOnUse" id="clipPath49">
        <path d="M133 58 L150 58 L150 75 L133 75 L133 58 Z" />
      </clipPath>
      <clipPath clipPathUnits="userSpaceOnUse" id="clipPath50">
        <path d="M151 152 L451 152 L451 220 L151 220 L151 152 Z" />
      </clipPath>
      <clipPath clipPathUnits="userSpaceOnUse" id="clipPath51">
        <path d="M0 0 L5 0 L5 21 L0 21 L0 0 Z" />
      </clipPath>
      <clipPath clipPathUnits="userSpaceOnUse" id="clipPath52">
        <path d="M236 26 L710 26 L710 43 L236 43 L236 26 Z" />
      </clipPath>
      <clipPath clipPathUnits="userSpaceOnUse" id="clipPath53">
        <path d="M692 26 L709 26 L709 43 L692 43 L692 26 Z" />
      </clipPath>
      <clipPath clipPathUnits="userSpaceOnUse" id="clipPath54">
        <path d="M210 58 L227 58 L227 139 L210 139 L210 58 Z" />
      </clipPath>
      <clipPath clipPathUnits="userSpaceOnUse" id="clipPath55">
        <path d="M210 58 L227 58 L227 75 L210 75 L210 58 Z" />
      </clipPath>
      <clipPath clipPathUnits="userSpaceOnUse" id="clipPath56">
        <path d="M488 47 L735 47 L735 143 L488 143 L488 47 Z" />
      </clipPath>
      <clipPath clipPathUnits="userSpaceOnUse" id="clipPath57">
        <path d="M714 56 L734 56 L734 67 L714 67 L714 56 Z" />
      </clipPath>
      <clipPath clipPathUnits="userSpaceOnUse" id="clipPath58">
        <path d="M0 0 L50 0 L50 17 L0 17 L0 0 Z" />
      </clipPath>
      <clipPath clipPathUnits="userSpaceOnUse" id="clipPath59">
        <path d="M1242 25 L1323 25 L1323 42 L1242 42 L1242 25 Z" />
      </clipPath>
      <clipPath clipPathUnits="userSpaceOnUse" id="clipPath60">
        <path d="M1242 25 L1259 25 L1259 42 L1242 42 L1242 25 Z" />
      </clipPath>
      <clipPath clipPathUnits="userSpaceOnUse" id="clipPath61">
        <path d="M810 22 L931 22 L931 66 L810 66 L810 22 Z" />
      </clipPath>
      <clipPath clipPathUnits="userSpaceOnUse" id="clipPath62">
        <path d="M909 36 L930 36 L930 47 L909 47 L909 36 Z" />
      </clipPath>
      <clipPath clipPathUnits="userSpaceOnUse" id="clipPath63">
        <path d="M810 37 L821 37 L821 48 L810 48 L810 37 Z" />
      </clipPath>
      <clipPath clipPathUnits="userSpaceOnUse" id="clipPath64">
        <path d="M0 0 L23 0 L23 17 L0 17 L0 0 Z" />
      </clipPath>
      <clipPath clipPathUnits="userSpaceOnUse" id="clipPath65">
        <path d="M705 142 L786 142 L786 202 L705 202 L705 142 Z" />
      </clipPath>
      <clipPath clipPathUnits="userSpaceOnUse" id="clipPath66">
        <path d="M705 157 L726 157 L726 168 L705 168 L705 157 Z" />
      </clipPath>
      <clipPath clipPathUnits="userSpaceOnUse" id="clipPath67">
        <path d="M774 157 L785 157 L785 168 L774 168 L774 157 Z" />
      </clipPath>
      <clipPath clipPathUnits="userSpaceOnUse" id="clipPath68">
        <path d="M0 0 L44 0 L44 17 L0 17 L0 0 Z" />
      </clipPath>
      <clipPath clipPathUnits="userSpaceOnUse" id="clipPath69">
        <path d="M810 18 L931 18 L931 35 L810 35 L810 18 Z" />
      </clipPath>
      <clipPath clipPathUnits="userSpaceOnUse" id="clipPath70">
        <path d="M810 18 L827 18 L827 35 L810 35 L810 18 Z" />
      </clipPath>
    </defs>
    <g style="fill:white; stroke:white;">
      <rect x="0" y="0" width="1455" style="clip-path:url(#clipPath1); stroke:none;" height="225" />
      <rect x="0" y="0" width="1454" style="clip-path:url(#clipPath1); fill:none; stroke:blue;" height="224" />
    </g>
    <a onclick="onClick(evt, &apos;../../../../../../nexd/de/xplib/nexd/store/StorageException.html&apos;)">
      <g>
        <defs id="defs2">
          <clipPath clipPathUnits="userSpaceOnUse" id="clipPath2">
            <path d="M1322 11 L1445 11 L1445 56 L1322 56 L1322 11 Z" />
          </clipPath>
          <clipPath clipPathUnits="userSpaceOnUse" id="clipPath3">
            <path d="M0 0 L59 0 L59 17 L0 17 L0 0 Z" />
          </clipPath>
          <clipPath clipPathUnits="userSpaceOnUse" id="clipPath4">
            <path d="M0 0 L121 0 L121 17 L0 17 L0 0 Z" />
          </clipPath>
        </defs>
        <g style="fill:white; font-size:11; stroke:white;" transform="translate(5,5)">
          <rect x="1322" y="11" width="123" style="clip-path:url(#clipPath2); stroke:none;" height="45" />
          <rect x="1322" y="11" width="122" style="clip-path:url(#clipPath2); fill:none; stroke:black;" height="44" />
          <text x="0" y="11" transform="translate(1382,15)" style="clip-path:url(#clipPath3); fill:black; stroke:none;" xml:space="preserve">Exception</text>
          <text x="5" y="11" transform="translate(1323,35)" style="clip-path:url(#clipPath4); fill:black; stroke:none; font-weight:bold;" xml:space="preserve">StorageException</text>
        </g>
      </g>
    </a>
    <a onclick="onClick(evt, &apos;../../../../../../nexd/de/xplib/nexd/store/StorageValidationObjectI.html&apos;)">
      <g>
        <defs id="defs3">
          <clipPath clipPathUnits="userSpaceOnUse" id="clipPath5">
            <path d="M900 138 L1068 138 L1068 186 L900 186 L900 138 Z" />
          </clipPath>
          <clipPath clipPathUnits="userSpaceOnUse" id="clipPath6">
            <path d="M0 0 L57 0 L57 17 L0 17 L0 0 Z" />
          </clipPath>
          <clipPath clipPathUnits="userSpaceOnUse" id="clipPath7">
            <path d="M0 0 L166 0 L166 17 L0 17 L0 0 Z" />
          </clipPath>
        </defs>
        <g style="fill:white; font-size:11; stroke:white;" transform="translate(5,5)">
          <rect x="900" y="138" width="168" style="clip-path:url(#clipPath5); stroke:none;" height="48" />
          <rect x="900" y="138" width="167" style="clip-path:url(#clipPath5); fill:none; stroke:black;" height="47" />
          <text x="3" y="11" transform="translate(955,145)" style="clip-path:url(#clipPath6); fill:black; stroke:none;" xml:space="preserve">interface</text>
        </g>
        <g style="font-style:italic; font-size:11; font-weight:bold;" transform="translate(906,170)">
          <text x="5" y="11" style="clip-path:url(#clipPath7); stroke:none;" xml:space="preserve">StorageValidationObjectI</text>
        </g>
      </g>
    </a>
    <a onclick="onClick(evt, &apos;../../../../../../nexd/de/xplib/nexd/store/StorageDocumentObjectI.html&apos;)">
      <g>
        <defs id="defs4">
          <clipPath clipPathUnits="userSpaceOnUse" id="clipPath8">
            <path d="M201 138 L370 138 L370 186 L201 186 L201 138 Z" />
          </clipPath>
          <clipPath clipPathUnits="userSpaceOnUse" id="clipPath9">
            <path d="M0 0 L57 0 L57 17 L0 17 L0 0 Z" />
          </clipPath>
          <clipPath clipPathUnits="userSpaceOnUse" id="clipPath10">
            <path d="M0 0 L167 0 L167 17 L0 17 L0 0 Z" />
          </clipPath>
        </defs>
        <g style="fill:white; font-size:11; stroke:white;" transform="translate(5,5)">
          <rect x="201" y="138" width="169" style="clip-path:url(#clipPath8); stroke:none;" height="48" />
          <rect x="201" y="138" width="168" style="clip-path:url(#clipPath8); fill:none; stroke:black;" height="47" />
          <text x="3" y="11" transform="translate(257,145)" style="clip-path:url(#clipPath9); fill:black; stroke:none;" xml:space="preserve">interface</text>
        </g>
        <g style="font-style:italic; font-size:11; font-weight:bold;" transform="translate(207,170)">
          <text x="5" y="11" style="clip-path:url(#clipPath10); stroke:none;" xml:space="preserve">StorageDocumentObjectI</text>
        </g>
      </g>
    </a>
    <a onclick="onClick(evt, &apos;../../../../../../nexd/de/xplib/nexd/store/StorageCollectionI.html&apos;)">
      <g>
        <defs id="defs5">
          <clipPath clipPathUnits="userSpaceOnUse" id="clipPath11">
            <path d="M930 10 L1059 10 L1059 58 L930 58 L930 10 Z" />
          </clipPath>
          <clipPath clipPathUnits="userSpaceOnUse" id="clipPath12">
            <path d="M0 0 L57 0 L57 17 L0 17 L0 0 Z" />
          </clipPath>
          <clipPath clipPathUnits="userSpaceOnUse" id="clipPath13">
            <path d="M0 0 L127 0 L127 17 L0 17 L0 0 Z" />
          </clipPath>
        </defs>
        <g style="fill:white; font-size:11; stroke:white;" transform="translate(5,5)">
          <rect x="930" y="10" width="129" style="clip-path:url(#clipPath11); stroke:none;" height="48" />
          <rect x="930" y="10" width="128" style="clip-path:url(#clipPath11); fill:none; stroke:black;" height="47" />
          <text x="3" y="11" transform="translate(966,17)" style="clip-path:url(#clipPath12); fill:black; stroke:none;" xml:space="preserve">interface</text>
        </g>
        <g style="font-style:italic; font-size:11; font-weight:bold;" transform="translate(936,42)">
          <text x="5" y="11" style="clip-path:url(#clipPath13); stroke:none;" xml:space="preserve">StorageCollectionI</text>
        </g>
      </g>
    </a>
    <a onclick="onClick(evt, &apos;../../../../../../nexd/de/xplib/nexd/store/StorageExceptionCodes.html&apos;)">
      <g>
        <defs id="defs6">
          <clipPath clipPathUnits="userSpaceOnUse" id="clipPath14">
            <path d="M1079 10 L1242 10 L1242 58 L1079 58 L1079 10 Z" />
          </clipPath>
          <clipPath clipPathUnits="userSpaceOnUse" id="clipPath15">
            <path d="M0 0 L57 0 L57 17 L0 17 L0 0 Z" />
          </clipPath>
          <clipPath clipPathUnits="userSpaceOnUse" id="clipPath16">
            <path d="M0 0 L161 0 L161 17 L0 17 L0 0 Z" />
          </clipPath>
        </defs>
        <g style="fill:white; font-size:11; stroke:white;" transform="translate(5,5)">
          <rect x="1079" y="10" width="163" style="clip-path:url(#clipPath14); stroke:none;" height="48" />
          <rect x="1079" y="10" width="162" style="clip-path:url(#clipPath14); fill:none; stroke:black;" height="47" />
          <text x="3" y="11" transform="translate(1132,17)" style="clip-path:url(#clipPath15); fill:black; stroke:none;" xml:space="preserve">interface</text>
        </g>
        <g style="font-style:italic; font-size:11; font-weight:bold;" transform="translate(1085,42)">
          <text x="5" y="11" style="clip-path:url(#clipPath16); stroke:none;" xml:space="preserve">StorageExceptionCodes</text>
        </g>
      </g>
    </a>
    <a onclick="onClick(evt, &apos;../../../../../../nexd/de/xplib/nexd/store/AbstractStorageFactory.html&apos;)">
      <g>
        <defs id="defs7">
          <clipPath clipPathUnits="userSpaceOnUse" id="clipPath17">
            <path d="M546 148 L705 148 L705 176 L546 176 L546 148 Z" />
          </clipPath>
          <clipPath clipPathUnits="userSpaceOnUse" id="clipPath18">
            <path d="M0 0 L157 0 L157 17 L0 17 L0 0 Z" />
          </clipPath>
        </defs>
        <g style="fill:white; font-size:11; stroke:white;" transform="translate(5,5)">
          <rect x="546" y="148" width="159" style="clip-path:url(#clipPath17); stroke:none;" height="28" />
          <rect x="546" y="148" width="158" style="clip-path:url(#clipPath17); fill:none; stroke:black;" height="27" />
        </g>
        <g style="font-style:italic; font-size:11; font-weight:bold;" transform="translate(552,160)">
          <text x="5" y="11" style="clip-path:url(#clipPath18); stroke:none;" xml:space="preserve">AbstractStorageFactory</text>
        </g>
      </g>
    </a>
    <a onclick="onClick(evt, &apos;../../../../../../nexd/de/xplib/nexd/store/EmptyStorageObject.html&apos;)">
      <g>
        <defs id="defs8">
          <clipPath clipPathUnits="userSpaceOnUse" id="clipPath19">
            <path d="M10 148 L151 148 L151 176 L10 176 L10 148 Z" />
          </clipPath>
          <clipPath clipPathUnits="userSpaceOnUse" id="clipPath20">
            <path d="M0 0 L139 0 L139 17 L0 17 L0 0 Z" />
          </clipPath>
        </defs>
        <g style="fill:white; font-size:11; stroke:white;" transform="translate(5,5)">
          <rect x="10" y="148" width="141" style="clip-path:url(#clipPath19); stroke:none;" height="28" />
          <rect x="10" y="148" width="140" style="clip-path:url(#clipPath19); fill:none; stroke:black;" height="27" />
          <text x="5" y="11" transform="translate(11,155)" style="clip-path:url(#clipPath20); fill:black; stroke:none; font-weight:bold;" xml:space="preserve">EmptyStorageObject</text>
        </g>
      </g>
    </a>
    <a onclick="onClick(evt, &apos;../../../../../../nexd/de/xplib/nexd/store/StorageObjectI.html&apos;)">
      <g>
        <defs id="defs9">
          <clipPath clipPathUnits="userSpaceOnUse" id="clipPath21">
            <path d="M131 10 L236 10 L236 58 L131 58 L131 10 Z" />
          </clipPath>
          <clipPath clipPathUnits="userSpaceOnUse" id="clipPath22">
            <path d="M0 0 L57 0 L57 17 L0 17 L0 0 Z" />
          </clipPath>
          <clipPath clipPathUnits="userSpaceOnUse" id="clipPath23">
            <path d="M0 0 L103 0 L103 17 L0 17 L0 0 Z" />
          </clipPath>
        </defs>
        <g style="fill:white; font-size:11; stroke:white;" transform="translate(5,5)">
          <rect x="131" y="10" width="105" style="clip-path:url(#clipPath21); stroke:none;" height="48" />
          <rect x="131" y="10" width="104" style="clip-path:url(#clipPath21); fill:none; stroke:black;" height="47" />
          <text x="3" y="11" transform="translate(155,17)" style="clip-path:url(#clipPath22); fill:black; stroke:none;" xml:space="preserve">interface</text>
        </g>
        <g style="font-style:italic; font-size:11; font-weight:bold;" transform="translate(137,42)">
          <text x="5" y="11" style="clip-path:url(#clipPath23); stroke:none;" xml:space="preserve">StorageObjectI</text>
        </g>
      </g>
    </a>
    <a onclick="onClick(evt, &apos;../../../../../../nexd/de/xplib/nexd/store/InternalIdI.html&apos;)">
      <g>
        <defs id="defs10">
          <clipPath clipPathUnits="userSpaceOnUse" id="clipPath24">
            <path d="M450 138 L526 138 L526 186 L450 186 L450 138 Z" />
          </clipPath>
          <clipPath clipPathUnits="userSpaceOnUse" id="clipPath25">
            <path d="M0 0 L57 0 L57 17 L0 17 L0 0 Z" />
          </clipPath>
          <clipPath clipPathUnits="userSpaceOnUse" id="clipPath26">
            <path d="M0 0 L74 0 L74 17 L0 17 L0 0 Z" />
          </clipPath>
        </defs>
        <g style="fill:white; font-size:11; stroke:white;" transform="translate(5,5)">
          <rect x="450" y="138" width="76" style="clip-path:url(#clipPath24); stroke:none;" height="48" />
          <rect x="450" y="138" width="75" style="clip-path:url(#clipPath24); fill:none; stroke:black;" height="47" />
          <text x="3" y="11" transform="translate(459,145)" style="clip-path:url(#clipPath25); fill:black; stroke:none;" xml:space="preserve">interface</text>
        </g>
        <g style="font-style:italic; font-size:11; font-weight:bold;" transform="translate(456,170)">
          <text x="5" y="11" style="clip-path:url(#clipPath26); stroke:none;" xml:space="preserve">InternalIdI</text>
        </g>
      </g>
    </a>
    <a onclick="onClick(evt, &apos;../../../../../../nexd/de/xplib/nexd/store/StorageEntityI.html&apos;)">
      <g>
        <defs id="defs11">
          <clipPath clipPathUnits="userSpaceOnUse" id="clipPath27">
            <path d="M709 10 L810 10 L810 58 L709 58 L709 10 Z" />
          </clipPath>
          <clipPath clipPathUnits="userSpaceOnUse" id="clipPath28">
            <path d="M0 0 L57 0 L57 17 L0 17 L0 0 Z" />
          </clipPath>
          <clipPath clipPathUnits="userSpaceOnUse" id="clipPath29">
            <path d="M0 0 L99 0 L99 17 L0 17 L0 0 Z" />
          </clipPath>
        </defs>
        <g style="fill:white; font-size:11; stroke:white;" transform="translate(5,5)">
          <rect x="709" y="10" width="101" style="clip-path:url(#clipPath27); stroke:none;" height="48" />
          <rect x="709" y="10" width="100" style="clip-path:url(#clipPath27); fill:none; stroke:black;" height="47" />
          <text x="3" y="11" transform="translate(731,17)" style="clip-path:url(#clipPath28); fill:black; stroke:none;" xml:space="preserve">interface</text>
        </g>
        <g style="font-style:italic; font-size:11; font-weight:bold;" transform="translate(715,42)">
          <text x="5" y="11" style="clip-path:url(#clipPath29); stroke:none;" xml:space="preserve">StorageEntityI</text>
        </g>
      </g>
    </a>
    <a onclick="onClick(evt, &apos;../../../../../../nexd/de/xplib/nexd/store/StorageI.html&apos;)">
      <g>
        <defs id="defs12">
          <clipPath clipPathUnits="userSpaceOnUse" id="clipPath30">
            <path d="M785 138 L850 138 L850 186 L785 186 L785 138 Z" />
          </clipPath>
          <clipPath clipPathUnits="userSpaceOnUse" id="clipPath31">
            <path d="M0 0 L57 0 L57 17 L0 17 L0 0 Z" />
          </clipPath>
          <clipPath clipPathUnits="userSpaceOnUse" id="clipPath32">
            <path d="M0 0 L63 0 L63 17 L0 17 L0 0 Z" />
          </clipPath>
        </defs>
        <g style="fill:white; font-size:11; stroke:white;" transform="translate(5,5)">
          <rect x="785" y="138" width="65" style="clip-path:url(#clipPath30); stroke:none;" height="48" />
          <rect x="785" y="138" width="64" style="clip-path:url(#clipPath30); fill:none; stroke:black;" height="47" />
          <text x="3" y="11" transform="translate(789,145)" style="clip-path:url(#clipPath31); fill:black; stroke:none;" xml:space="preserve">interface</text>
        </g>
        <g style="font-style:italic; font-size:11; font-weight:bold;" transform="translate(791,170)">
          <text x="5" y="11" style="clip-path:url(#clipPath32); stroke:none;" xml:space="preserve">StorageI</text>
        </g>
      </g>
    </a>
    <g style="font-size:11;" transform="translate(5,5)">
      <path d="M947 138 L784 58" style="fill:none; clip-path:url(#clipPath33);" />
      <polygon style="fill:white; clip-path:url(#clipPath34); stroke:none;" points=" 784 58 802 58 795 72" />
      <polygon style="fill:none; clip-path:url(#clipPath34);" points=" 784 58 802 58 795 72" />
      <path d="M817 138 L759 58" style="fill:none; clip-path:url(#clipPath35); stroke:rgb(0,0,127);" />
      <polygon style="fill:rgb(0,0,127); clip-path:url(#clipPath36); stroke:none;" points=" 803 121 805 132 815 137 813 126 803 121" />
      <polygon style="fill:none; clip-path:url(#clipPath36); stroke:rgb(0,0,127);" points=" 803 121 805 132 815 137 813 126 803 121" />
      <polygon style="fill:rgb(0,0,127); clip-path:url(#clipPath37); stroke:none;" points=" 760 58 762 69 760 58 770 63 760 58" />
      <polygon style="fill:none; clip-path:url(#clipPath37); stroke:rgb(0,0,127);" points=" 760 58 762 69 760 58 770 63 760 58" />
      <text x="2" y="13" transform="translate(668,88)" style="clip-path:url(#clipPath38); fill:rgb(0,0,127); stroke:none;" xml:space="preserve">manages physical</text>
      <text x="0" y="11" transform="translate(761,66)" style="clip-path:url(#clipPath39); fill:rgb(0,0,127); stroke:none;" xml:space="preserve"></text>
      <text x="0" y="11" transform="translate(814,113)" style="clip-path:url(#clipPath40); fill:rgb(0,0,127); stroke:none;" xml:space="preserve">1</text>
      <text x="0" y="11" transform="translate(789,105)" style="clip-path:url(#clipPath39); fill:rgb(0,0,127); stroke:none;" xml:space="preserve"></text>
      <text x="0" y="11" transform="translate(780,66)" style="clip-path:url(#clipPath41); fill:rgb(0,0,127); stroke:none;" xml:space="preserve">1..*</text>
      <text x="0" y="11" transform="translate(749,61)" style="clip-path:url(#clipPath39); fill:rgb(0,0,127); stroke:none;" xml:space="preserve"></text>
      <path style="fill:none; stroke-dasharray:18,6; clip-path:url(#clipPath42); stroke-linecap:butt;" d="M994 138 L994 58" />
      <polygon style="clip-path:url(#clipPath43); stroke:none;" points=" 994 58 989 68 994 58 999 68 994 58" />
      <polygon style="fill:none; clip-path:url(#clipPath43);" points=" 994 58 989 68 994 58 999 68 994 58" />
      <text x="2" y="13" transform="translate(926,78)" style="clip-path:url(#clipPath44); stroke:none;" xml:space="preserve">belongs to</text>
      <text x="0" y="11" transform="translate(990,60)" style="clip-path:url(#clipPath39); stroke:none;" xml:space="preserve"></text>
      <text x="0" y="11" transform="translate(997,111)" style="clip-path:url(#clipPath39); stroke:none;" xml:space="preserve"></text>
      <text x="0" y="11" transform="translate(990,101)" style="clip-path:url(#clipPath39); stroke:none;" xml:space="preserve"></text>
      <text x="0" y="11" transform="translate(973,111)" style="clip-path:url(#clipPath39); stroke:none;" xml:space="preserve"></text>
      <text x="0" y="11" transform="translate(997,61)" style="clip-path:url(#clipPath39); stroke:none;" xml:space="preserve"></text>
      <text x="0" y="11" transform="translate(1014,61)" style="clip-path:url(#clipPath39); stroke:none;" xml:space="preserve"></text>
      <text x="0" y="11" transform="translate(1003,81)" style="clip-path:url(#clipPath39); stroke:none;" xml:space="preserve"></text>
      <path style="fill:none; stroke-dasharray:18,6; clip-path:url(#clipPath45); stroke-linecap:butt;" d="M900 176 L861 196 L439 196 L370 176" />
      <polygon style="clip-path:url(#clipPath46); stroke:none;" points=" 371 176 379 183 371 176 382 174 371 176" />
      <polygon style="fill:none; clip-path:url(#clipPath46);" points=" 371 176 379 183 371 176 382 174 371 176" />
      <text x="2" y="13" transform="translate(602,199)" style="clip-path:url(#clipPath47); stroke:none;" xml:space="preserve">used to validate</text>
      <text x="0" y="11" transform="translate(600,199)" style="clip-path:url(#clipPath39); stroke:none;" xml:space="preserve"></text>
      <text x="0" y="11" transform="translate(890,161)" style="clip-path:url(#clipPath39); stroke:none;" xml:space="preserve"></text>
      <text x="0" y="11" transform="translate(881,188)" style="clip-path:url(#clipPath39); stroke:none;" xml:space="preserve"></text>
      <text x="0" y="11" transform="translate(872,193)" style="clip-path:url(#clipPath39); stroke:none;" xml:space="preserve"></text>
      <text x="0" y="11" transform="translate(380,159)" style="clip-path:url(#clipPath39); stroke:none;" xml:space="preserve"></text>
      <text x="0" y="11" transform="translate(389,185)" style="clip-path:url(#clipPath39); stroke:none;" xml:space="preserve"></text>
      <text x="0" y="11" transform="translate(399,187)" style="clip-path:url(#clipPath39); stroke:none;" xml:space="preserve"></text>
    </g>
    <g transform="translate(5,5)" style="font-size:11; stroke-linecap:butt; fill:rgb(0,127,0); stroke-dasharray:18,6; stroke:rgb(0,127,0);">
      <path d="M141 148 L141 58" style="fill:none; clip-path:url(#clipPath48);" />
      <polygon points=" 141 58 149 74 133 74" style="stroke-dasharray:none; clip-path:url(#clipPath49); stroke-linecap:square; stroke:none;" />
      <polygon points=" 141 58 149 74 133 74" style="fill:none; stroke-dasharray:none; clip-path:url(#clipPath49); stroke-linecap:square;" />
    </g>
    <g style="fill:blue; font-size:11; stroke:blue;" transform="translate(5,5)">
      <path d="M151 166 L190 196 L381 196 L450 176" style="fill:none; clip-path:url(#clipPath50);" />
      <text x="2" y="13" transform="translate(283,199)" style="clip-path:url(#clipPath51); stroke:none;" xml:space="preserve"></text>
      <text x="0" y="11" transform="translate(295,199)" style="clip-path:url(#clipPath39); stroke:none;" xml:space="preserve"></text>
      <text x="0" y="11" transform="translate(159,152)" style="clip-path:url(#clipPath39); stroke:none;" xml:space="preserve"></text>
      <text x="0" y="11" transform="translate(167,181)" style="clip-path:url(#clipPath39); stroke:none;" xml:space="preserve"></text>
      <text x="0" y="11" transform="translate(439,159)" style="clip-path:url(#clipPath39); stroke:none;" xml:space="preserve"></text>
      <text x="0" y="11" transform="translate(430,185)" style="clip-path:url(#clipPath39); stroke:none;" xml:space="preserve"></text>
      <path d="M236 34 L709 34" style="fill:none; clip-path:url(#clipPath52); stroke:black;" />
      <polygon style="fill:white; clip-path:url(#clipPath53); stroke:none;" points=" 708 34 692 42 692 26" />
      <polygon style="fill:none; clip-path:url(#clipPath53); stroke:black;" points=" 708 34 692 42 692 26" />
      <path d="M218 138 L218 58" style="fill:none; clip-path:url(#clipPath54); stroke:black;" />
      <polygon style="fill:white; clip-path:url(#clipPath55); stroke:none;" points=" 218 58 226 74 210 74" />
      <polygon style="fill:none; clip-path:url(#clipPath55); stroke:black;" points=" 218 58 226 74 210 74" />
      <path d="M734 58 L488 138" style="fill:none; clip-path:url(#clipPath56); stroke:rgb(0,0,127);" />
      <polygon style="fill:rgb(0,0,127); clip-path:url(#clipPath57); stroke:none;" points=" 714 64 725 66 733 58 722 56 714 64" />
      <polygon style="fill:none; clip-path:url(#clipPath57); stroke:rgb(0,0,127);" points=" 714 64 725 66 733 58 722 56 714 64" />
      <text x="2" y="13" transform="translate(609,101)" style="clip-path:url(#clipPath51); fill:rgb(0,0,127); stroke:none;" xml:space="preserve"></text>
      <text x="0" y="11" transform="translate(601,104)" style="clip-path:url(#clipPath39); fill:rgb(0,0,127); stroke:none;" xml:space="preserve"></text>
      <text x="0" y="11" transform="translate(697,47)" style="clip-path:url(#clipPath40); fill:rgb(0,0,127); stroke:none;" xml:space="preserve">1</text>
      <text x="0" y="11" transform="translate(617,99)" style="clip-path:url(#clipPath58); fill:rgb(0,0,127); stroke:none;" xml:space="preserve">identifier</text>
      <text x="0" y="11" transform="translate(488,116)" style="clip-path:url(#clipPath40); fill:rgb(0,0,127); stroke:none;" xml:space="preserve">1</text>
      <text x="0" y="11" transform="translate(536,126)" style="clip-path:url(#clipPath39); fill:rgb(0,0,127); stroke:none;" xml:space="preserve"></text>
    </g>
    <g transform="translate(5,5)" style="font-size:11; stroke-linecap:butt; fill:rgb(0,127,0); stroke-dasharray:18,6; stroke:rgb(0,127,0);">
      <path d="M1322 33 L1242 33" style="fill:none; clip-path:url(#clipPath59);" />
      <polygon points=" 1242 33 1258 25 1258 41" style="stroke-dasharray:none; clip-path:url(#clipPath60); stroke-linecap:square; stroke:none;" />
      <polygon points=" 1242 33 1258 25 1258 41" style="fill:none; stroke-dasharray:none; clip-path:url(#clipPath60); stroke-linecap:square;" />
    </g>
    <g style="fill:rgb(0,0,127); font-size:11; stroke:rgb(0,0,127);" transform="translate(5,5)">
      <path d="M930 42 L810 42" style="fill:none; clip-path:url(#clipPath61);" />
      <polygon style="clip-path:url(#clipPath62); stroke:none;" points=" 909 41 919 46 929 41 919 36 909 41" />
      <polygon style="fill:none; clip-path:url(#clipPath62);" points=" 909 41 919 46 929 41 919 36 909 41" />
      <polygon style="clip-path:url(#clipPath63); stroke:none;" points=" 810 42 820 47 810 42 820 37 810 42" />
      <polygon style="fill:none; clip-path:url(#clipPath63);" points=" 810 42 820 47 810 42 820 37 810 42" />
      <text x="2" y="13" transform="translate(868,45)" style="clip-path:url(#clipPath51); stroke:none;" xml:space="preserve"></text>
      <text x="0" y="11" transform="translate(860,45)" style="clip-path:url(#clipPath39); stroke:none;" xml:space="preserve"></text>
      <text x="0" y="11" transform="translate(897,22)" style="clip-path:url(#clipPath64); stroke:none;" xml:space="preserve">0..1</text>
      <text x="0" y="11" transform="translate(909,45)" style="clip-path:url(#clipPath39); stroke:none;" xml:space="preserve"></text>
      <text x="0" y="11" transform="translate(820,22)" style="clip-path:url(#clipPath41); stroke:none;" xml:space="preserve">0..*</text>
      <text x="0" y="11" transform="translate(830,45)" style="clip-path:url(#clipPath39); stroke:none;" xml:space="preserve"></text>
      <path d="M705 162 L785 162" style="fill:none; clip-path:url(#clipPath65);" />
      <polygon style="fill:white; clip-path:url(#clipPath66); stroke:none;" points=" 725 162 715 157 705 162 715 167 725 162" />
      <polygon style="fill:none; clip-path:url(#clipPath66);" points=" 725 162 715 157 705 162 715 167 725 162" />
      <polygon style="clip-path:url(#clipPath67); stroke:none;" points=" 784 162 774 157 784 162 774 167 784 162" />
      <polygon style="fill:none; clip-path:url(#clipPath67);" points=" 784 162 774 157 784 162 774 167 784 162" />
      <text x="2" y="13" transform="translate(773,165)" style="clip-path:url(#clipPath51); stroke:none;" xml:space="preserve"></text>
      <text x="0" y="11" transform="translate(715,165)" style="clip-path:url(#clipPath39); stroke:none;" xml:space="preserve"></text>
      <text x="0" y="11" transform="translate(715,142)" style="clip-path:url(#clipPath40); stroke:none;" xml:space="preserve">1</text>
      <text x="0" y="11" transform="translate(725,165)" style="clip-path:url(#clipPath68); stroke:none;" xml:space="preserve">storage</text>
      <text x="0" y="11" transform="translate(767,142)" style="clip-path:url(#clipPath40); stroke:none;" xml:space="preserve">1</text>
      <text x="0" y="11" transform="translate(764,185)" style="clip-path:url(#clipPath39); stroke:none;" xml:space="preserve"></text>
      <path d="M930 26 L810 26" style="fill:none; clip-path:url(#clipPath69); stroke:black;" />
      <polygon style="fill:white; clip-path:url(#clipPath70); stroke:none;" points=" 810 26 826 18 826 34" />
      <polygon style="fill:none; clip-path:url(#clipPath70); stroke:black;" points=" 810 26 826 18 826 34" />
    </g>
    <g>
      <script lang="text/ecmascript">
        <![CDATA[
    function onClick(evt, href) {
        navigateTo(href);
        evt.stopPropagation();
    }]]>
      </script>
    </g>
  </g>
</svg>
