<?xml version="1.0" encoding="UTF-8"?>

<!DOCTYPE svg PUBLIC '-//W3C//DTD SVG 1.0//EN' 'http://www.w3.org/TR/2001/REC-SVG-20010904/DTD/svg10.dtd'>
<svg style="fill-opacity:1; color-rendering:auto; color-interpolation:auto; text-rendering:auto; stroke:black; stroke-linecap:square; stroke-miterlimit:10; shape-rendering:auto; stroke-opacity:1; fill:black; stroke-dasharray:none; font-weight:normal; stroke-width:1; font-family:&apos;Dialog&apos;; font-style:normal; stroke-linejoin:miter; font-size:12; stroke-dashoffset:0; image-rendering:auto;" xmlns="http://www.w3.org/2000/svg" width="677" xmlns:xlink="http://www.w3.org/1999/xlink" height="408">
  <!--Generated by Selena using Batik-->
  <defs id="genericDefs" />
  <g>
    <defs id="defs1">
      <clipPath clipPathUnits="userSpaceOnUse" id="clipPath1">
        <path d="M0 0 L12000 0 L12000 12000 L0 12000 L0 0 Z" />
      </clipPath>
      <clipPath clipPathUnits="userSpaceOnUse" id="clipPath42">
        <path d="M159 181 L291 181 L291 286 L159 286 L159 181 Z" />
      </clipPath>
      <clipPath clipPathUnits="userSpaceOnUse" id="clipPath43">
        <path d="M275 264 L286 264 L286 285 L275 285 L275 264 Z" />
      </clipPath>
      <clipPath clipPathUnits="userSpaceOnUse" id="clipPath44">
        <path d="M275 181 L286 181 L286 192 L275 192 L275 181 Z" />
      </clipPath>
      <clipPath clipPathUnits="userSpaceOnUse" id="clipPath45">
        <path d="M0 0 L5 0 L5 21 L0 21 L0 0 Z" />
      </clipPath>
      <clipPath clipPathUnits="userSpaceOnUse" id="clipPath46">
        <path d="M0 0 L1 0 L1 17 L0 17 L0 0 Z" />
      </clipPath>
      <clipPath clipPathUnits="userSpaceOnUse" id="clipPath47">
        <path d="M0 0 L8 0 L8 17 L0 17 L0 0 Z" />
      </clipPath>
      <clipPath clipPathUnits="userSpaceOnUse" id="clipPath48">
        <path d="M0 0 L98 0 L98 17 L0 17 L0 0 Z" />
      </clipPath>
      <clipPath clipPathUnits="userSpaceOnUse" id="clipPath49">
        <path d="M494 12 L575 12 L575 72 L494 72 L494 12 Z" />
      </clipPath>
      <clipPath clipPathUnits="userSpaceOnUse" id="clipPath50">
        <path d="M494 27 L515 27 L515 38 L494 38 L494 27 Z" />
      </clipPath>
      <clipPath clipPathUnits="userSpaceOnUse" id="clipPath51">
        <path d="M563 27 L574 27 L574 38 L563 38 L563 27 Z" />
      </clipPath>
      <clipPath clipPathUnits="userSpaceOnUse" id="clipPath52">
        <path d="M0 0 L54 0 L54 17 L0 17 L0 0 Z" />
      </clipPath>
      <clipPath clipPathUnits="userSpaceOnUse" id="clipPath53">
        <path d="M113 181 L308 181 L308 286 L113 286 L113 181 Z" />
      </clipPath>
      <clipPath clipPathUnits="userSpaceOnUse" id="clipPath54">
        <path d="M252 274 L263 274 L263 285 L252 285 L252 274 Z" />
      </clipPath>
      <clipPath clipPathUnits="userSpaceOnUse" id="clipPath55">
        <path d="M0 0 L41 0 L41 17 L0 17 L0 0 Z" />
      </clipPath>
      <clipPath clipPathUnits="userSpaceOnUse" id="clipPath56">
        <path d="M480 138 L561 138 L561 198 L480 198 L480 138 Z" />
      </clipPath>
      <clipPath clipPathUnits="userSpaceOnUse" id="clipPath57">
        <path d="M480 153 L501 153 L501 164 L480 164 L480 153 Z" />
      </clipPath>
      <clipPath clipPathUnits="userSpaceOnUse" id="clipPath58">
        <path d="M549 153 L560 153 L560 164 L549 164 L549 153 Z" />
      </clipPath>
      <clipPath clipPathUnits="userSpaceOnUse" id="clipPath59">
        <path d="M60 58 L77 58 L77 136 L60 136 L60 58 Z" />
      </clipPath>
      <clipPath clipPathUnits="userSpaceOnUse" id="clipPath60">
        <path d="M60 58 L77 58 L77 75 L60 75 L60 58 Z" />
      </clipPath>
      <clipPath clipPathUnits="userSpaceOnUse" id="clipPath61">
        <path d="M223 56 L280 56 L280 137 L223 137 L223 56 Z" />
      </clipPath>
      <clipPath clipPathUnits="userSpaceOnUse" id="clipPath62">
        <path d="M254 56 L265 56 L265 67 L254 67 L254 56 Z" />
      </clipPath>
      <clipPath clipPathUnits="userSpaceOnUse" id="clipPath63">
        <path d="M0 0 L33 0 L33 21 L0 21 L0 0 Z" />
      </clipPath>
      <clipPath clipPathUnits="userSpaceOnUse" id="clipPath64">
        <path d="M127 150 L216 150 L216 167 L127 167 L127 150 Z" />
      </clipPath>
      <clipPath clipPathUnits="userSpaceOnUse" id="clipPath65">
        <path d="M127 150 L144 150 L144 167 L127 167 L127 150 Z" />
      </clipPath>
      <clipPath clipPathUnits="userSpaceOnUse" id="clipPath66">
        <path d="M241 200 L376 200 L376 286 L241 286 L241 200 Z" />
      </clipPath>
      <clipPath clipPathUnits="userSpaceOnUse" id="clipPath67">
        <path d="M347 264 L358 264 L358 285 L347 285 L347 264 Z" />
      </clipPath>
      <clipPath clipPathUnits="userSpaceOnUse" id="clipPath68">
        <path d="M347 200 L358 200 L358 211 L347 211 L347 200 Z" />
      </clipPath>
      <clipPath clipPathUnits="userSpaceOnUse" id="clipPath69">
        <path d="M0 0 L21 0 L21 17 L0 17 L0 0 Z" />
      </clipPath>
      <clipPath clipPathUnits="userSpaceOnUse" id="clipPath70">
        <path d="M61 183 L78 183 L78 285 L61 285 L61 183 Z" />
      </clipPath>
      <clipPath clipPathUnits="userSpaceOnUse" id="clipPath71">
        <path d="M61 267 L78 267 L78 284 L61 284 L61 267 Z" />
      </clipPath>
      <clipPath clipPathUnits="userSpaceOnUse" id="clipPath72">
        <path d="M343 287 L462 287 L462 357 L343 357 L343 287 Z" />
      </clipPath>
      <clipPath clipPathUnits="userSpaceOnUse" id="clipPath73">
        <path d="M381 302 L402 302 L402 313 L381 313 L381 302 Z" />
      </clipPath>
      <clipPath clipPathUnits="userSpaceOnUse" id="clipPath74">
        <path d="M450 302 L461 302 L461 313 L450 313 L450 302 Z" />
      </clipPath>
    </defs>
    <g style="fill:white; stroke:white;">
      <rect x="0" y="0" width="677" style="clip-path:url(#clipPath1); stroke:none;" height="408" />
      <rect x="0" y="0" width="676" style="clip-path:url(#clipPath1); fill:none; stroke:blue;" height="407" />
    </g>
    <a onclick="onClick(evt, &apos;../../../../../../../nexd/de/xplib/nexd/engine/store/NodeTupleList.html&apos;)">
      <g>
        <defs id="defs2">
          <clipPath clipPathUnits="userSpaceOnUse" id="clipPath2">
            <path d="M10 370 L114 370 L114 398 L10 398 L10 370 Z" />
          </clipPath>
          <clipPath clipPathUnits="userSpaceOnUse" id="clipPath3">
            <path d="M0 0 L102 0 L102 17 L0 17 L0 0 Z" />
          </clipPath>
        </defs>
        <g style="fill:white; font-size:11; stroke:white;" transform="translate(5,5)">
          <rect x="10" y="370" width="104" style="clip-path:url(#clipPath2); stroke:none;" height="28" />
          <rect x="10" y="370" width="103" style="clip-path:url(#clipPath2); fill:none; stroke:black;" height="27" />
          <text x="5" y="11" transform="translate(11,377)" style="clip-path:url(#clipPath3); fill:black; stroke:none; font-weight:bold;" xml:space="preserve">NodeTupleList</text>
        </g>
      </g>
    </a>
    <a onclick="onClick(evt, &apos;../../../../../../../nexd/de/xplib/nexd/engine/store/StorageImpl.html&apos;)">
      <g>
        <defs id="defs3">
          <clipPath clipPathUnits="userSpaceOnUse" id="clipPath4">
            <path d="M215 136 L304 136 L304 181 L215 181 L215 136 Z" />
          </clipPath>
          <clipPath clipPathUnits="userSpaceOnUse" id="clipPath5">
            <path d="M0 0 L50 0 L50 17 L0 17 L0 0 Z" />
          </clipPath>
          <clipPath clipPathUnits="userSpaceOnUse" id="clipPath6">
            <path d="M0 0 L87 0 L87 17 L0 17 L0 0 Z" />
          </clipPath>
        </defs>
        <g style="fill:white; font-size:11; stroke:white;" transform="translate(5,5)">
          <rect x="215" y="136" width="89" style="clip-path:url(#clipPath4); stroke:none;" height="45" />
          <rect x="215" y="136" width="88" style="clip-path:url(#clipPath4); fill:none; stroke:black;" height="44" />
          <text x="0" y="11" transform="translate(250,140)" style="clip-path:url(#clipPath5); fill:black; font-style:italic; stroke:none;" xml:space="preserve">StorageI</text>
          <text x="5" y="11" transform="translate(216,160)" style="clip-path:url(#clipPath6); fill:black; stroke:none; font-weight:bold;" xml:space="preserve">StorageImpl</text>
        </g>
      </g>
    </a>
    <a onclick="onClick(evt, &apos;../../../../../../../nexd/de/xplib/nexd/engine/store/ConstantsTableI.html&apos;)">
      <g>
        <defs id="defs4">
          <clipPath clipPathUnits="userSpaceOnUse" id="clipPath7">
            <path d="M12 284 L126 284 L126 332 L12 332 L12 284 Z" />
          </clipPath>
          <clipPath clipPathUnits="userSpaceOnUse" id="clipPath8">
            <path d="M0 0 L57 0 L57 17 L0 17 L0 0 Z" />
          </clipPath>
          <clipPath clipPathUnits="userSpaceOnUse" id="clipPath9">
            <path d="M0 0 L112 0 L112 17 L0 17 L0 0 Z" />
          </clipPath>
        </defs>
        <g style="fill:white; font-size:11; stroke:white;" transform="translate(5,5)">
          <rect x="12" y="284" width="114" style="clip-path:url(#clipPath7); stroke:none;" height="48" />
          <rect x="12" y="284" width="113" style="clip-path:url(#clipPath7); fill:none; stroke:black;" height="47" />
          <text x="3" y="11" transform="translate(40,291)" style="clip-path:url(#clipPath8); fill:black; stroke:none;" xml:space="preserve">interface</text>
        </g>
        <g style="font-style:italic; font-size:11; font-weight:bold;" transform="translate(18,316)">
          <text x="5" y="11" style="clip-path:url(#clipPath9); stroke:none;" xml:space="preserve">ConstantsTableI</text>
        </g>
      </g>
    </a>
    <a onclick="onClick(evt, &apos;../../../../../../../nexd/de/xplib/nexd/engine/store/ConstantsQueryI.html&apos;)">
      <g>
        <defs id="defs5">
          <clipPath clipPathUnits="userSpaceOnUse" id="clipPath10">
            <path d="M10 135 L127 135 L127 183 L10 183 L10 135 Z" />
          </clipPath>
          <clipPath clipPathUnits="userSpaceOnUse" id="clipPath11">
            <path d="M0 0 L57 0 L57 17 L0 17 L0 0 Z" />
          </clipPath>
          <clipPath clipPathUnits="userSpaceOnUse" id="clipPath12">
            <path d="M0 0 L115 0 L115 17 L0 17 L0 0 Z" />
          </clipPath>
        </defs>
        <g style="fill:white; font-size:11; stroke:white;" transform="translate(5,5)">
          <rect x="10" y="135" width="117" style="clip-path:url(#clipPath10); stroke:none;" height="48" />
          <rect x="10" y="135" width="116" style="clip-path:url(#clipPath10); fill:none; stroke:black;" height="47" />
          <text x="3" y="11" transform="translate(40,142)" style="clip-path:url(#clipPath11); fill:black; stroke:none;" xml:space="preserve">interface</text>
        </g>
        <g style="font-style:italic; font-size:11; font-weight:bold;" transform="translate(16,167)">
          <text x="5" y="11" style="clip-path:url(#clipPath12); stroke:none;" xml:space="preserve">ConstantsQueryI</text>
        </g>
      </g>
    </a>
    <a onclick="onClick(evt, &apos;../../../../../../../nexd/de/xplib/nexd/engine/store/StorageFactoryImpl.html&apos;)">
      <g>
        <defs id="defs6">
          <clipPath clipPathUnits="userSpaceOnUse" id="clipPath13">
            <path d="M234 285 L381 285 L381 330 L234 330 L234 285 Z" />
          </clipPath>
          <clipPath clipPathUnits="userSpaceOnUse" id="clipPath14">
            <path d="M0 0 L139 0 L139 17 L0 17 L0 0 Z" />
          </clipPath>
          <clipPath clipPathUnits="userSpaceOnUse" id="clipPath15">
            <path d="M0 0 L133 0 L133 17 L0 17 L0 0 Z" />
          </clipPath>
        </defs>
        <g style="fill:white; font-size:11; stroke:white;" transform="translate(5,5)">
          <rect x="234" y="285" width="147" style="clip-path:url(#clipPath13); stroke:none;" height="45" />
          <rect x="234" y="285" width="146" style="clip-path:url(#clipPath13); fill:none; stroke:black;" height="44" />
          <text x="0" y="11" transform="translate(238,289)" style="clip-path:url(#clipPath14); fill:black; stroke:none;" xml:space="preserve">AbstractStorageFactory</text>
          <text x="5" y="11" transform="translate(241,309)" style="clip-path:url(#clipPath15); fill:black; stroke:none; font-weight:bold;" xml:space="preserve">StorageFactoryImpl</text>
        </g>
      </g>
    </a>
    <a onclick="onClick(evt, &apos;../../../../../../../nexd/de/xplib/nexd/engine/store/StorageValidationObjectImpl.html&apos;)">
      <g>
        <defs id="defs7">
          <clipPath clipPathUnits="userSpaceOnUse" id="clipPath16">
            <path d="M461 277 L653 277 L653 339 L461 339 L461 277 Z" />
          </clipPath>
          <clipPath clipPathUnits="userSpaceOnUse" id="clipPath17">
            <path d="M0 0 L84 0 L84 17 L0 17 L0 0 Z" />
          </clipPath>
          <clipPath clipPathUnits="userSpaceOnUse" id="clipPath18">
            <path d="M0 0 L145 0 L145 17 L0 17 L0 0 Z" />
          </clipPath>
          <clipPath clipPathUnits="userSpaceOnUse" id="clipPath19">
            <path d="M0 0 L190 0 L190 17 L0 17 L0 0 Z" />
          </clipPath>
        </defs>
        <g style="fill:white; font-size:11; stroke:white;" transform="translate(5,5)">
          <rect x="461" y="277" width="192" style="clip-path:url(#clipPath16); stroke:none;" height="62" />
          <rect x="461" y="277" width="191" style="clip-path:url(#clipPath16); fill:none; stroke:black;" height="61" />
          <text x="0" y="11" transform="translate(504,281)" style="clip-path:url(#clipPath17); fill:black; font-style:italic; stroke:none;" xml:space="preserve">StorageEntityI</text>
          <text x="0" y="11" transform="translate(504,298)" style="clip-path:url(#clipPath18); fill:black; font-style:italic; stroke:none;" xml:space="preserve">StorageValidationObjectI</text>
          <text x="5" y="11" transform="translate(462,318)" style="clip-path:url(#clipPath19); fill:black; stroke:none; font-weight:bold;" xml:space="preserve">StorageValidationObjectImpl</text>
        </g>
      </g>
    </a>
    <a onclick="onClick(evt, &apos;../../../../../../../nexd/de/xplib/nexd/engine/store/ConstantsFieldI.html&apos;)">
      <g>
        <defs id="defs8">
          <clipPath clipPathUnits="userSpaceOnUse" id="clipPath20">
            <path d="M13 10 L124 10 L124 58 L13 58 L13 10 Z" />
          </clipPath>
          <clipPath clipPathUnits="userSpaceOnUse" id="clipPath21">
            <path d="M0 0 L57 0 L57 17 L0 17 L0 0 Z" />
          </clipPath>
          <clipPath clipPathUnits="userSpaceOnUse" id="clipPath22">
            <path d="M0 0 L109 0 L109 17 L0 17 L0 0 Z" />
          </clipPath>
        </defs>
        <g style="fill:white; font-size:11; stroke:white;" transform="translate(5,5)">
          <rect x="13" y="10" width="111" style="clip-path:url(#clipPath20); stroke:none;" height="48" />
          <rect x="13" y="10" width="110" style="clip-path:url(#clipPath20); fill:none; stroke:black;" height="47" />
          <text x="3" y="11" transform="translate(40,17)" style="clip-path:url(#clipPath21); fill:black; stroke:none;" xml:space="preserve">interface</text>
        </g>
        <g style="font-style:italic; font-size:11; font-weight:bold;" transform="translate(19,42)">
          <text x="5" y="11" style="clip-path:url(#clipPath22); stroke:none;" xml:space="preserve">ConstantsFieldI</text>
        </g>
      </g>
    </a>
    <a onclick="onClick(evt, &apos;../../../../../../../nexd/de/xplib/nexd/engine/store/CollectionIId.html&apos;)">
      <g>
        <defs id="defs9">
          <clipPath clipPathUnits="userSpaceOnUse" id="clipPath23">
            <path d="M574 10 L667 10 L667 55 L574 55 L574 10 Z" />
          </clipPath>
          <clipPath clipPathUnits="userSpaceOnUse" id="clipPath24">
            <path d="M0 0 L59 0 L59 17 L0 17 L0 0 Z" />
          </clipPath>
          <clipPath clipPathUnits="userSpaceOnUse" id="clipPath25">
            <path d="M0 0 L91 0 L91 17 L0 17 L0 0 Z" />
          </clipPath>
        </defs>
        <g style="fill:white; font-size:11; stroke:white;" transform="translate(5,5)">
          <rect x="574" y="10" width="93" style="clip-path:url(#clipPath23); stroke:none;" height="45" />
          <rect x="574" y="10" width="92" style="clip-path:url(#clipPath23); fill:none; stroke:black;" height="44" />
          <text x="0" y="11" transform="translate(604,14)" style="clip-path:url(#clipPath24); fill:black; font-style:italic; stroke:none;" xml:space="preserve">InternalIdI</text>
          <text x="5" y="11" transform="translate(575,34)" style="clip-path:url(#clipPath25); fill:black; stroke:none; font-weight:bold;" xml:space="preserve">CollectionIId</text>
        </g>
      </g>
    </a>
    <a onclick="onClick(evt, &apos;../../../../../../../nexd/de/xplib/nexd/engine/store/DocumentObjectI.html&apos;)">
      <g>
        <defs id="defs10">
          <clipPath clipPathUnits="userSpaceOnUse" id="clipPath26">
            <path d="M324 118 L480 118 L480 200 L324 200 L324 118 Z" />
          </clipPath>
          <clipPath clipPathUnits="userSpaceOnUse" id="clipPath27">
            <path d="M0 0 L148 0 L148 17 L0 17 L0 0 Z" />
          </clipPath>
          <clipPath clipPathUnits="userSpaceOnUse" id="clipPath28">
            <path d="M0 0 L96 0 L96 17 L0 17 L0 0 Z" />
          </clipPath>
          <clipPath clipPathUnits="userSpaceOnUse" id="clipPath29">
            <path d="M0 0 L57 0 L57 17 L0 17 L0 0 Z" />
          </clipPath>
          <clipPath clipPathUnits="userSpaceOnUse" id="clipPath30">
            <path d="M0 0 L119 0 L119 17 L0 17 L0 0 Z" />
          </clipPath>
        </defs>
        <g style="fill:white; font-size:11; stroke:white;" transform="translate(5,5)">
          <rect x="324" y="118" width="156" style="clip-path:url(#clipPath26); stroke:none;" height="82" />
          <rect x="324" y="118" width="155" style="clip-path:url(#clipPath26); fill:none; stroke:black;" height="81" />
          <text x="0" y="11" transform="translate(328,122)" style="clip-path:url(#clipPath27); fill:black; stroke:none;" xml:space="preserve">StorageDocumentObjectI</text>
          <text x="0" y="11" transform="translate(328,139)" style="clip-path:url(#clipPath28); fill:black; stroke:none;" xml:space="preserve">DOMDocumentI</text>
          <text x="3" y="11" transform="translate(373,159)" style="clip-path:url(#clipPath29); fill:black; stroke:none;" xml:space="preserve">interface</text>
        </g>
        <g style="font-style:italic; font-size:11; font-weight:bold;" transform="translate(347,184)">
          <text x="5" y="11" style="clip-path:url(#clipPath30); stroke:none;" xml:space="preserve">DocumentObjectI</text>
        </g>
      </g>
    </a>
    <a onclick="onClick(evt, &apos;../../../../../../../nexd/de/xplib/nexd/engine/store/CollectionDeleteCommand.html&apos;)">
      <g>
        <defs id="defs11">
          <clipPath clipPathUnits="userSpaceOnUse" id="clipPath31">
            <path d="M134 370 L315 370 L315 398 L134 398 L134 370 Z" />
          </clipPath>
          <clipPath clipPathUnits="userSpaceOnUse" id="clipPath32">
            <path d="M0 0 L179 0 L179 17 L0 17 L0 0 Z" />
          </clipPath>
        </defs>
        <g style="fill:white; font-size:11; stroke:white;" transform="translate(5,5)">
          <rect x="134" y="370" width="181" style="clip-path:url(#clipPath31); stroke:none;" height="28" />
          <rect x="134" y="370" width="180" style="clip-path:url(#clipPath31); fill:none; stroke:black;" height="27" />
          <text x="5" y="11" transform="translate(135,377)" style="clip-path:url(#clipPath32); fill:black; stroke:none; font-weight:bold;" xml:space="preserve">CollectionDeleteCommand</text>
        </g>
      </g>
    </a>
    <a onclick="onClick(evt, &apos;../../../../../../../nexd/de/xplib/nexd/engine/store/NestedSetIId.html&apos;)">
      <g>
        <defs id="defs12">
          <clipPath clipPathUnits="userSpaceOnUse" id="clipPath33">
            <path d="M560 136 L652 136 L652 181 L560 181 L560 136 Z" />
          </clipPath>
          <clipPath clipPathUnits="userSpaceOnUse" id="clipPath34">
            <path d="M0 0 L59 0 L59 17 L0 17 L0 0 Z" />
          </clipPath>
          <clipPath clipPathUnits="userSpaceOnUse" id="clipPath35">
            <path d="M0 0 L90 0 L90 17 L0 17 L0 0 Z" />
          </clipPath>
        </defs>
        <g style="fill:white; font-size:11; stroke:white;" transform="translate(5,5)">
          <rect x="560" y="136" width="92" style="clip-path:url(#clipPath33); stroke:none;" height="45" />
          <rect x="560" y="136" width="91" style="clip-path:url(#clipPath33); fill:none; stroke:black;" height="44" />
          <text x="0" y="11" transform="translate(589,140)" style="clip-path:url(#clipPath34); fill:black; font-style:italic; stroke:none;" xml:space="preserve">InternalIdI</text>
          <text x="5" y="11" transform="translate(561,160)" style="clip-path:url(#clipPath35); fill:black; stroke:none; font-weight:bold;" xml:space="preserve">NestedSetIId</text>
        </g>
      </g>
    </a>
    <a onclick="onClick(evt, &apos;../../../../../../../nexd/de/xplib/nexd/engine/store/XPathSQLBuilder.html&apos;)">
      <g>
        <defs id="defs13">
          <clipPath clipPathUnits="userSpaceOnUse" id="clipPath36">
            <path d="M198 11 L321 11 L321 56 L198 56 L198 11 Z" />
          </clipPath>
          <clipPath clipPathUnits="userSpaceOnUse" id="clipPath37">
            <path d="M0 0 L38 0 L38 17 L0 17 L0 0 Z" />
          </clipPath>
          <clipPath clipPathUnits="userSpaceOnUse" id="clipPath38">
            <path d="M0 0 L121 0 L121 17 L0 17 L0 0 Z" />
          </clipPath>
        </defs>
        <g style="fill:white; font-size:11; stroke:white;" transform="translate(5,5)">
          <rect x="198" y="11" width="123" style="clip-path:url(#clipPath36); stroke:none;" height="45" />
          <rect x="198" y="11" width="122" style="clip-path:url(#clipPath36); fill:none; stroke:black;" height="44" />
          <text x="0" y="11" transform="translate(279,15)" style="clip-path:url(#clipPath37); fill:black; font-style:italic; stroke:none;" xml:space="preserve">Visitor</text>
          <text x="5" y="11" transform="translate(199,35)" style="clip-path:url(#clipPath38); fill:black; stroke:none; font-weight:bold;" xml:space="preserve">XPathSQLBuilder</text>
        </g>
      </g>
    </a>
    <a onclick="onClick(evt, &apos;../../../../../../../nexd/de/xplib/nexd/engine/store/StorageCollectionImpl.html&apos;)">
      <g>
        <defs id="defs14">
          <clipPath clipPathUnits="userSpaceOnUse" id="clipPath39">
            <path d="M341 10 L494 10 L494 55 L341 55 L341 10 Z" />
          </clipPath>
          <clipPath clipPathUnits="userSpaceOnUse" id="clipPath40">
            <path d="M0 0 L108 0 L108 17 L0 17 L0 0 Z" />
          </clipPath>
          <clipPath clipPathUnits="userSpaceOnUse" id="clipPath41">
            <path d="M0 0 L151 0 L151 17 L0 17 L0 0 Z" />
          </clipPath>
        </defs>
        <g style="fill:white; font-size:11; stroke:white;" transform="translate(5,5)">
          <rect x="341" y="10" width="153" style="clip-path:url(#clipPath39); stroke:none;" height="45" />
          <rect x="341" y="10" width="152" style="clip-path:url(#clipPath39); fill:none; stroke:black;" height="44" />
          <text x="0" y="11" transform="translate(382,14)" style="clip-path:url(#clipPath40); fill:black; font-style:italic; stroke:none;" xml:space="preserve">StorageCollectionI</text>
          <text x="5" y="11" transform="translate(342,34)" style="clip-path:url(#clipPath41); fill:black; stroke:none; font-weight:bold;" xml:space="preserve">StorageCollectionImpl</text>
        </g>
      </g>
    </a>
    <g style="fill:rgb(0,0,127); font-size:11; stroke:rgb(0,0,127);" transform="translate(5,5)">
      <path d="M280 285 L280 181" style="fill:none; clip-path:url(#clipPath42);" />
      <polygon style="fill:white; clip-path:url(#clipPath43); stroke:none;" points=" 280 264 275 274 280 284 285 274 280 264" />
      <polygon style="fill:none; clip-path:url(#clipPath43);" points=" 280 264 275 274 280 284 285 274 280 264" />
      <polygon style="clip-path:url(#clipPath44); stroke:none;" points=" 280 181 275 191 280 181 285 191 280 181" />
      <polygon style="fill:none; clip-path:url(#clipPath44);" points=" 280 181 275 191 280 181 285 191 280 181" />
      <text x="2" y="13" transform="translate(272,183)" style="clip-path:url(#clipPath45); stroke:none;" xml:space="preserve"></text>
      <text x="0" y="11" transform="translate(266,195)" style="clip-path:url(#clipPath46); stroke:none;" xml:space="preserve"></text>
      <text x="0" y="11" transform="translate(283,258)" style="clip-path:url(#clipPath47); stroke:none;" xml:space="preserve">1</text>
      <text x="0" y="11" transform="translate(276,248)" style="clip-path:url(#clipPath46); stroke:none;" xml:space="preserve"></text>
      <text x="0" y="11" transform="translate(283,184)" style="clip-path:url(#clipPath47); stroke:none;" xml:space="preserve">1</text>
      <text x="0" y="11" transform="translate(159,194)" style="clip-path:url(#clipPath48); stroke:none;" xml:space="preserve">concrete product</text>
      <path d="M494 32 L574 32" style="fill:none; clip-path:url(#clipPath49);" />
      <polygon style="clip-path:url(#clipPath50); stroke:none;" points=" 514 32 504 27 494 32 504 37 514 32" />
      <polygon style="fill:none; clip-path:url(#clipPath50);" points=" 514 32 504 27 494 32 504 37 514 32" />
      <polygon style="clip-path:url(#clipPath51); stroke:none;" points=" 573 32 563 27 573 32 563 37 573 32" />
      <polygon style="fill:none; clip-path:url(#clipPath51);" points=" 573 32 563 27 573 32 563 37 573 32" />
      <text x="2" y="13" transform="translate(502,35)" style="clip-path:url(#clipPath45); stroke:none;" xml:space="preserve"></text>
      <text x="0" y="11" transform="translate(534,12)" style="clip-path:url(#clipPath46); stroke:none;" xml:space="preserve"></text>
      <text x="0" y="11" transform="translate(504,12)" style="clip-path:url(#clipPath47); stroke:none;" xml:space="preserve">1</text>
      <text x="0" y="11" transform="translate(514,35)" style="clip-path:url(#clipPath52); stroke:none;" xml:space="preserve">internalId</text>
      <text x="0" y="11" transform="translate(556,12)" style="clip-path:url(#clipPath47); stroke:none;" xml:space="preserve">1</text>
      <text x="0" y="11" transform="translate(553,55)" style="clip-path:url(#clipPath46); stroke:none;" xml:space="preserve"></text>
      <path d="M257 181 L257 285" style="fill:none; clip-path:url(#clipPath53); stroke:blue;" />
      <polygon style="fill:blue; clip-path:url(#clipPath54); stroke:none;" points=" 257 284 262 274 257 284 252 274 257 284" />
      <polygon style="fill:none; clip-path:url(#clipPath54); stroke:blue;" points=" 257 284 262 274 257 284 252 274 257 284" />
      <text x="2" y="13" transform="translate(249,233)" style="clip-path:url(#clipPath45); fill:blue; stroke:none;" xml:space="preserve"></text>
      <text x="0" y="11" transform="translate(253,255)" style="clip-path:url(#clipPath46); fill:blue; stroke:none;" xml:space="preserve"></text>
      <text x="0" y="11" transform="translate(300,184)" style="clip-path:url(#clipPath47); fill:blue; stroke:none;" xml:space="preserve">1</text>
      <text x="0" y="11" transform="translate(113,194)" style="clip-path:url(#clipPath55); fill:blue; stroke:none;" xml:space="preserve">factory</text>
      <text x="0" y="11" transform="translate(260,258)" style="clip-path:url(#clipPath47); fill:blue; stroke:none;" xml:space="preserve">1</text>
      <text x="0" y="11" transform="translate(236,258)" style="clip-path:url(#clipPath46); fill:blue; stroke:none;" xml:space="preserve"></text>
      <path d="M480 158 L560 158" style="fill:none; clip-path:url(#clipPath56);" />
      <polygon style="clip-path:url(#clipPath57); stroke:none;" points=" 500 158 490 153 480 158 490 163 500 158" />
      <polygon style="fill:none; clip-path:url(#clipPath57);" points=" 500 158 490 153 480 158 490 163 500 158" />
      <polygon style="clip-path:url(#clipPath58); stroke:none;" points=" 559 158 549 153 559 158 549 163 559 158" />
      <polygon style="fill:none; clip-path:url(#clipPath58);" points=" 559 158 549 153 559 158 549 163 559 158" />
      <text x="2" y="13" transform="translate(488,161)" style="clip-path:url(#clipPath45); stroke:none;" xml:space="preserve"></text>
      <text x="0" y="11" transform="translate(520,138)" style="clip-path:url(#clipPath46); stroke:none;" xml:space="preserve"></text>
      <text x="0" y="11" transform="translate(490,138)" style="clip-path:url(#clipPath47); stroke:none;" xml:space="preserve">1</text>
      <text x="0" y="11" transform="translate(500,161)" style="clip-path:url(#clipPath52); stroke:none;" xml:space="preserve">internalId</text>
      <text x="0" y="11" transform="translate(542,138)" style="clip-path:url(#clipPath47); stroke:none;" xml:space="preserve">1</text>
      <text x="0" y="11" transform="translate(539,181)" style="clip-path:url(#clipPath46); stroke:none;" xml:space="preserve"></text>
      <path d="M68 135 L68 58" style="fill:none; clip-path:url(#clipPath59); stroke:black;" />
      <polygon style="fill:white; clip-path:url(#clipPath60); stroke:none;" points=" 68 58 76 74 60 74" />
      <polygon style="fill:none; clip-path:url(#clipPath60); stroke:black;" points=" 68 58 76 74 60 74" />
    </g>
    <g style="font-size:11; stroke-dasharray:18,6; stroke-linecap:butt;" transform="translate(5,5)">
      <path d="M259 136 L259 56" style="fill:none; clip-path:url(#clipPath61);" />
      <polygon points=" 259 56 254 66 259 56 264 66 259 56" style="stroke-dasharray:none; clip-path:url(#clipPath62); stroke-linecap:square; stroke:none;" />
      <polygon points=" 259 56 254 66 259 56 264 66 259 56" style="fill:none; stroke-dasharray:none; clip-path:url(#clipPath62); stroke-linecap:square;" />
      <text x="2" y="13" transform="translate(223,76)" style="stroke-linecap:square; clip-path:url(#clipPath63); stroke-dasharray:none; stroke:none;" xml:space="preserve">uses</text>
      <text x="0" y="11" transform="translate(255,58)" style="stroke-linecap:square; clip-path:url(#clipPath46); stroke-dasharray:none; stroke:none;" xml:space="preserve"></text>
      <text x="0" y="11" transform="translate(262,109)" style="stroke-linecap:square; clip-path:url(#clipPath46); stroke-dasharray:none; stroke:none;" xml:space="preserve"></text>
      <text x="0" y="11" transform="translate(255,99)" style="stroke-linecap:square; clip-path:url(#clipPath46); stroke-dasharray:none; stroke:none;" xml:space="preserve"></text>
      <text x="0" y="11" transform="translate(238,109)" style="stroke-linecap:square; clip-path:url(#clipPath46); stroke-dasharray:none; stroke:none;" xml:space="preserve"></text>
      <text x="0" y="11" transform="translate(262,59)" style="stroke-linecap:square; clip-path:url(#clipPath46); stroke-dasharray:none; stroke:none;" xml:space="preserve"></text>
      <text x="0" y="11" transform="translate(279,59)" style="stroke-linecap:square; clip-path:url(#clipPath46); stroke-dasharray:none; stroke:none;" xml:space="preserve"></text>
      <text x="0" y="11" transform="translate(268,79)" style="stroke-linecap:square; clip-path:url(#clipPath46); stroke-dasharray:none; stroke:none;" xml:space="preserve"></text>
      <path d="M215 158 L127 158" style="fill:none; clip-path:url(#clipPath64); stroke:rgb(0,127,0);" />
    </g>
    <g style="fill:rgb(0,127,0); font-size:11; stroke:rgb(0,127,0);" transform="translate(5,5)">
      <polygon style="clip-path:url(#clipPath65); stroke:none;" points=" 127 158 143 150 143 166" />
      <polygon style="fill:none; clip-path:url(#clipPath65);" points=" 127 158 143 150 143 166" />
      <path d="M352 285 L352 200" style="fill:none; clip-path:url(#clipPath66); stroke:rgb(0,0,127);" />
      <polygon style="fill:white; clip-path:url(#clipPath67); stroke:none;" points=" 352 264 347 274 352 284 357 274 352 264" />
      <polygon style="fill:none; clip-path:url(#clipPath67); stroke:rgb(0,0,127);" points=" 352 264 347 274 352 284 357 274 352 264" />
      <polygon style="fill:rgb(0,0,127); clip-path:url(#clipPath68); stroke:none;" points=" 352 200 347 210 352 200 357 210 352 200" />
      <polygon style="fill:none; clip-path:url(#clipPath68); stroke:rgb(0,0,127);" points=" 352 200 347 210 352 200 357 210 352 200" />
      <text x="2" y="13" transform="translate(344,222)" style="clip-path:url(#clipPath45); fill:rgb(0,0,127); stroke:none;" xml:space="preserve"></text>
      <text x="0" y="11" transform="translate(348,204)" style="clip-path:url(#clipPath46); fill:rgb(0,0,127); stroke:none;" xml:space="preserve"></text>
      <text x="0" y="11" transform="translate(355,258)" style="clip-path:url(#clipPath47); fill:rgb(0,0,127); stroke:none;" xml:space="preserve">1</text>
      <text x="0" y="11" transform="translate(348,248)" style="clip-path:url(#clipPath46); fill:rgb(0,0,127); stroke:none;" xml:space="preserve"></text>
      <text x="0" y="11" transform="translate(355,203)" style="clip-path:url(#clipPath69); fill:rgb(0,0,127); stroke:none;" xml:space="preserve">0..*</text>
      <text x="0" y="11" transform="translate(241,213)" style="clip-path:url(#clipPath48); fill:rgb(0,0,127); stroke:none;" xml:space="preserve">concrete product</text>
      <path d="M69 183 L69 284" style="fill:none; clip-path:url(#clipPath70); stroke:black;" />
      <polygon style="fill:white; clip-path:url(#clipPath71); stroke:none;" points=" 69 283 61 267 77 267" />
      <polygon style="fill:none; clip-path:url(#clipPath71); stroke:black;" points=" 69 283 61 267 77 267" />
      <path d="M381 307 L461 307" style="fill:none; clip-path:url(#clipPath72); stroke:rgb(0,0,127);" />
      <polygon style="fill:white; clip-path:url(#clipPath73); stroke:none;" points=" 401 307 391 302 381 307 391 312 401 307" />
      <polygon style="fill:none; clip-path:url(#clipPath73); stroke:rgb(0,0,127);" points=" 401 307 391 302 381 307 391 312 401 307" />
      <polygon style="fill:rgb(0,0,127); clip-path:url(#clipPath74); stroke:none;" points=" 460 307 450 302 460 307 450 312 460 307" />
      <polygon style="fill:none; clip-path:url(#clipPath74); stroke:rgb(0,0,127);" points=" 460 307 450 302 460 307 450 312 460 307" />
      <text x="2" y="13" transform="translate(419,310)" style="clip-path:url(#clipPath45); fill:rgb(0,0,127); stroke:none;" xml:space="preserve"></text>
      <text x="0" y="11" transform="translate(431,310)" style="clip-path:url(#clipPath46); fill:rgb(0,0,127); stroke:none;" xml:space="preserve"></text>
      <text x="0" y="11" transform="translate(391,287)" style="clip-path:url(#clipPath47); fill:rgb(0,0,127); stroke:none;" xml:space="preserve">1</text>
      <text x="0" y="11" transform="translate(401,310)" style="clip-path:url(#clipPath46); fill:rgb(0,0,127); stroke:none;" xml:space="preserve"></text>
      <text x="0" y="11" transform="translate(430,287)" style="clip-path:url(#clipPath69); fill:rgb(0,0,127); stroke:none;" xml:space="preserve">0..*</text>
      <text x="0" y="11" transform="translate(343,340)" style="clip-path:url(#clipPath48); fill:rgb(0,0,127); stroke:none;" xml:space="preserve">concrete product</text>
    </g>
    <g>
      <script lang="text/ecmascript">
        <![CDATA[
    function onClick(evt, href) {
        navigateTo(href);
        evt.stopPropagation();
    }]]>
      </script>
    </g>
  </g>
</svg>
