<?xml version="1.0" encoding="UTF-8"?>

<!DOCTYPE svg PUBLIC '-//W3C//DTD SVG 1.0//EN' 'http://www.w3.org/TR/2001/REC-SVG-20010904/DTD/svg10.dtd'>
<svg style="fill-opacity:1; color-rendering:auto; color-interpolation:auto; text-rendering:auto; stroke:black; stroke-linecap:square; stroke-miterlimit:10; shape-rendering:auto; stroke-opacity:1; fill:black; stroke-dasharray:none; font-weight:normal; stroke-width:1; font-family:&apos;Dialog&apos;; font-style:normal; stroke-linejoin:miter; font-size:12; stroke-dashoffset:0; image-rendering:auto;" xmlns="http://www.w3.org/2000/svg" width="400" xmlns:xlink="http://www.w3.org/1999/xlink" height="107">
  <!--Generated by Selena using Batik-->
  <defs id="genericDefs" />
  <g>
    <defs id="defs1">
      <clipPath clipPathUnits="userSpaceOnUse" id="clipPath1">
        <path d="M0 0 L12000 0 L12000 12000 L0 12000 L0 0 Z" />
      </clipPath>
      <clipPath clipPathUnits="userSpaceOnUse" id="clipPath11">
        <path d="M192 -25 L250 -25 L250 59 L192 59 L192 -25 Z" />
      </clipPath>
      <clipPath clipPathUnits="userSpaceOnUse" id="clipPath12">
        <path d="M0 0 L5 0 L5 21 L0 21 L0 0 Z" />
      </clipPath>
      <clipPath clipPathUnits="userSpaceOnUse" id="clipPath13">
        <path d="M0 0 L1 0 L1 17 L0 17 L0 0 Z" />
      </clipPath>
      <clipPath clipPathUnits="userSpaceOnUse" id="clipPath14">
        <path d="M226 5 L260 5 L260 82 L226 82 L226 5 Z" />
      </clipPath>
    </defs>
    <g style="fill:white; stroke:white;">
      <rect x="0" y="0" width="400" style="clip-path:url(#clipPath1); stroke:none;" height="107" />
      <rect x="0" y="0" width="399" style="clip-path:url(#clipPath1); fill:none; stroke:blue;" height="106" />
    </g>
    <a onclick="onClick(evt, &apos;../../../../../../../../nexd/de/xplib/nexd/engine/http/soap/xsd/xsd.html&apos;)">
      <g>
        <defs id="defs2">
          <clipPath clipPathUnits="userSpaceOnUse" id="clipPath2">
            <path d="M88 1 L123 1 L123 46 L88 46 L88 1 Z" />
          </clipPath>
          <clipPath clipPathUnits="userSpaceOnUse" id="clipPath3">
            <path d="M0 0 L33 0 L33 17 L0 17 L0 0 Z" />
          </clipPath>
        </defs>
        <g style="fill:white; font-size:11; stroke:white;" transform="translate(5,25)">
          <polygon style="clip-path:url(#clipPath2); stroke:none;" points=" 88 21 122 21 122 45 88 45 88 21" />
          <polygon style="clip-path:url(#clipPath2); stroke:none;" points=" 88 1 105 1 105 21 88 21 88 1" />
          <path d="M88 21 L122 21 L122 45 L88 45 L88 21" style="fill:none; clip-path:url(#clipPath2); stroke:black;" />
          <path d="M88 1 L105 1 L105 21 L88 21 L88 1" style="fill:none; clip-path:url(#clipPath2); stroke:black;" />
          <text x="5" y="11" transform="translate(89,25)" style="clip-path:url(#clipPath3); fill:black; stroke:none; font-weight:bold;" xml:space="preserve">xsd</text>
        </g>
      </g>
    </a>
    <a onclick="onClick(evt, &apos;../../../../../../../../nexd/de/xplib/nexd/engine/http/soap/Service.html&apos;)">
      <g>
        <defs id="defs3">
          <clipPath clipPathUnits="userSpaceOnUse" id="clipPath4">
            <path d="M10 10 L69 10 L69 38 L10 38 L10 10 Z" />
          </clipPath>
          <clipPath clipPathUnits="userSpaceOnUse" id="clipPath5">
            <path d="M0 0 L57 0 L57 17 L0 17 L0 0 Z" />
          </clipPath>
        </defs>
        <g style="fill:white; font-size:11; stroke:white;" transform="translate(5,25)">
          <rect x="10" y="10" width="59" style="clip-path:url(#clipPath4); stroke:none;" height="28" />
          <rect x="10" y="10" width="58" style="clip-path:url(#clipPath4); fill:none; stroke:black;" height="27" />
          <text x="5" y="11" transform="translate(11,17)" style="clip-path:url(#clipPath5); fill:black; stroke:none; font-weight:bold;" xml:space="preserve">Service</text>
        </g>
      </g>
    </a>
    <a onclick="onClick(evt, &apos;../../../../../../../../nexd/de/xplib/nexd/engine/http/soap/ServiceFactory.html&apos;)">
      <g>
        <defs id="defs4">
          <clipPath clipPathUnits="userSpaceOnUse" id="clipPath6">
            <path d="M249 1 L390 1 L390 46 L249 46 L249 1 Z" />
          </clipPath>
          <clipPath clipPathUnits="userSpaceOnUse" id="clipPath7">
            <path d="M0 0 L133 0 L133 17 L0 17 L0 0 Z" />
          </clipPath>
          <clipPath clipPathUnits="userSpaceOnUse" id="clipPath8">
            <path d="M0 0 L103 0 L103 17 L0 17 L0 0 Z" />
          </clipPath>
        </defs>
        <g style="fill:white; font-size:11; stroke:white;" transform="translate(5,25)">
          <rect x="249" y="1" width="141" style="clip-path:url(#clipPath6); stroke:none;" height="45" />
          <rect x="249" y="1" width="140" style="clip-path:url(#clipPath6); fill:none; stroke:black;" height="44" />
          <text x="0" y="11" transform="translate(253,5)" style="clip-path:url(#clipPath7); fill:black; font-style:italic; stroke:none;" xml:space="preserve">PoolableObjectFactory</text>
          <text x="5" y="11" transform="translate(268,25)" style="clip-path:url(#clipPath8); fill:black; stroke:none; font-weight:bold;" xml:space="preserve">ServiceFactory</text>
        </g>
      </g>
    </a>
    <a onclick="onClick(evt, &apos;../../../../../../../../nexd/de/xplib/nexd/engine/http/soap/ServicePool.html&apos;)">
      <g>
        <defs id="defs5">
          <clipPath clipPathUnits="userSpaceOnUse" id="clipPath9">
            <path d="M142 1 L230 1 L230 29 L142 29 L142 1 Z" />
          </clipPath>
          <clipPath clipPathUnits="userSpaceOnUse" id="clipPath10">
            <path d="M0 0 L86 0 L86 17 L0 17 L0 0 Z" />
          </clipPath>
        </defs>
        <g style="fill:white; font-size:11; stroke:white;" transform="translate(5,25)">
          <rect x="142" y="1" width="88" style="clip-path:url(#clipPath9); stroke:none;" height="28" />
          <rect x="142" y="1" width="87" style="clip-path:url(#clipPath9); fill:none; stroke:black;" height="27" />
          <text x="5" y="11" transform="translate(143,8)" style="clip-path:url(#clipPath10); fill:black; stroke:none; font-weight:bold;" xml:space="preserve">ServicePool</text>
        </g>
      </g>
    </a>
    <g style="fill:blue; font-size:11; stroke:blue;" transform="translate(5,25)">
      <path d="M230 15 L249 15" style="fill:none; clip-path:url(#clipPath11);" />
      <text x="2" y="13" transform="translate(209,38)" style="clip-path:url(#clipPath12); stroke:none;" xml:space="preserve"></text>
      <text x="0" y="11" transform="translate(221,38)" style="clip-path:url(#clipPath13); stroke:none;" xml:space="preserve"></text>
      <text x="0" y="11" transform="translate(192,-25)" style="clip-path:url(#clipPath13); stroke:none;" xml:space="preserve"></text>
      <text x="0" y="11" transform="translate(202,38)" style="clip-path:url(#clipPath13); stroke:none;" xml:space="preserve"></text>
      <text x="0" y="11" transform="translate(248,-25)" style="clip-path:url(#clipPath13); stroke:none;" xml:space="preserve"></text>
      <text x="0" y="11" transform="translate(249,18)" style="clip-path:url(#clipPath13); stroke:none;" xml:space="preserve"></text>
      <path d="M230 25 L259 25 L259 58 L226 58 L226 29" style="fill:none; clip-path:url(#clipPath14);" />
      <text x="2" y="13" transform="translate(240,61)" style="clip-path:url(#clipPath12); stroke:none;" xml:space="preserve"></text>
      <text x="0" y="11" transform="translate(232,61)" style="clip-path:url(#clipPath13); stroke:none;" xml:space="preserve"></text>
      <text x="0" y="11" transform="translate(240,5)" style="clip-path:url(#clipPath13); stroke:none;" xml:space="preserve"></text>
      <text x="0" y="11" transform="translate(245,28)" style="clip-path:url(#clipPath13); stroke:none;" xml:space="preserve"></text>
      <text x="0" y="11" transform="translate(229,32)" style="clip-path:url(#clipPath13); stroke:none;" xml:space="preserve"></text>
      <text x="0" y="11" transform="translate(226,61)" style="clip-path:url(#clipPath13); stroke:none;" xml:space="preserve"></text>
    </g>
    <g>
      <script lang="text/ecmascript">
        <![CDATA[
    function onClick(evt, href) {
        navigateTo(href);
        evt.stopPropagation();
    }]]>
      </script>
    </g>
  </g>
</svg>
