<?xml version="1.0" encoding="UTF-8"?>

<!DOCTYPE svg PUBLIC '-//W3C//DTD SVG 1.0//EN' 'http://www.w3.org/TR/2001/REC-SVG-20010904/DTD/svg10.dtd'>
<svg style="fill-opacity:1; color-rendering:auto; color-interpolation:auto; text-rendering:auto; stroke:black; stroke-linecap:square; stroke-miterlimit:10; shape-rendering:auto; stroke-opacity:1; fill:black; stroke-dasharray:none; font-weight:normal; stroke-width:1; font-family:&apos;Dialog&apos;; font-style:normal; stroke-linejoin:miter; font-size:12; stroke-dashoffset:0; image-rendering:auto;" xmlns="http://www.w3.org/2000/svg" width="342" xmlns:xlink="http://www.w3.org/1999/xlink" height="165">
  <!--Generated by Selena using Batik-->
  <defs id="genericDefs" />
  <g>
    <defs id="defs1">
      <clipPath clipPathUnits="userSpaceOnUse" id="clipPath1">
        <path d="M0 0 L12000 0 L12000 12000 L0 12000 L0 0 Z" />
      </clipPath>
      <clipPath clipPathUnits="userSpaceOnUse" id="clipPath10">
        <path d="M140 18 L208 18 L208 111 L140 111 L140 18 Z" />
      </clipPath>
      <clipPath clipPathUnits="userSpaceOnUse" id="clipPath11">
        <path d="M0 0 L5 0 L5 21 L0 21 L0 0 Z" />
      </clipPath>
      <clipPath clipPathUnits="userSpaceOnUse" id="clipPath12">
        <path d="M0 0 L1 0 L1 17 L0 17 L0 0 Z" />
      </clipPath>
      <clipPath clipPathUnits="userSpaceOnUse" id="clipPath13">
        <path d="M147 10 L274 10 L274 87 L147 87 L147 10 Z" />
      </clipPath>
      <clipPath clipPathUnits="userSpaceOnUse" id="clipPath14">
        <path d="M262 25 L273 25 L273 36 L262 36 L262 25 Z" />
      </clipPath>
      <clipPath clipPathUnits="userSpaceOnUse" id="clipPath15">
        <path d="M147 63 L253 63 L253 87 L147 87 L147 63 Z" />
      </clipPath>
      <clipPath clipPathUnits="userSpaceOnUse" id="clipPath16">
        <path d="M0 0 L106 0 L106 24 L0 24 L0 0 Z" />
      </clipPath>
    </defs>
    <g style="fill:white; stroke:white;">
      <rect x="0" y="0" width="342" style="clip-path:url(#clipPath1); stroke:none;" height="165" />
      <rect x="0" y="0" width="341" style="clip-path:url(#clipPath1); fill:none; stroke:blue;" height="164" />
    </g>
    <a onclick="onClick(evt, &apos;../../../../../../../nexd/de/xplib/nexd/xml/xpath/XPathException.html&apos;)">
      <g>
        <defs id="defs2">
          <clipPath clipPathUnits="userSpaceOnUse" id="clipPath2">
            <path d="M10 110 L122 110 L122 155 L10 155 L10 110 Z" />
          </clipPath>
          <clipPath clipPathUnits="userSpaceOnUse" id="clipPath3">
            <path d="M0 0 L59 0 L59 17 L0 17 L0 0 Z" />
          </clipPath>
          <clipPath clipPathUnits="userSpaceOnUse" id="clipPath4">
            <path d="M0 0 L110 0 L110 17 L0 17 L0 0 Z" />
          </clipPath>
        </defs>
        <g style="fill:white; font-size:11; stroke:white;" transform="translate(5,5)">
          <rect x="10" y="110" width="112" style="clip-path:url(#clipPath2); stroke:none;" height="45" />
          <rect x="10" y="110" width="111" style="clip-path:url(#clipPath2); fill:none; stroke:black;" height="44" />
          <text x="0" y="11" transform="translate(59,114)" style="clip-path:url(#clipPath3); fill:black; stroke:none;" xml:space="preserve">Exception</text>
          <text x="5" y="11" transform="translate(11,134)" style="clip-path:url(#clipPath4); fill:black; stroke:none; font-weight:bold;" xml:space="preserve">XPathException</text>
        </g>
      </g>
    </a>
    <a onclick="onClick(evt, &apos;../../../../../../../nexd/de/xplib/nexd/xml/xpath/XPathI.html&apos;)">
      <g>
        <defs id="defs3">
          <clipPath clipPathUnits="userSpaceOnUse" id="clipPath5">
            <path d="M273 10 L332 10 L332 58 L273 58 L273 10 Z" />
          </clipPath>
          <clipPath clipPathUnits="userSpaceOnUse" id="clipPath6">
            <path d="M0 0 L57 0 L57 17 L0 17 L0 0 Z" />
          </clipPath>
          <clipPath clipPathUnits="userSpaceOnUse" id="clipPath7">
            <path d="M0 0 L52 0 L52 17 L0 17 L0 0 Z" />
          </clipPath>
        </defs>
        <g style="fill:white; font-size:11; stroke:white;" transform="translate(5,5)">
          <rect x="273" y="10" width="59" style="clip-path:url(#clipPath5); stroke:none;" height="48" />
          <rect x="273" y="10" width="58" style="clip-path:url(#clipPath5); fill:none; stroke:black;" height="47" />
          <text x="3" y="11" transform="translate(274,17)" style="clip-path:url(#clipPath6); fill:black; stroke:none;" xml:space="preserve">interface</text>
        </g>
        <g style="font-style:italic; font-size:11; font-weight:bold;" transform="translate(281,42)">
          <text x="5" y="11" style="clip-path:url(#clipPath7); stroke:none;" xml:space="preserve">XPathI</text>
        </g>
      </g>
    </a>
    <a onclick="onClick(evt, &apos;../../../../../../../nexd/de/xplib/nexd/xml/xpath/AbstractXPathFactory.html&apos;)">
      <g>
        <defs id="defs4">
          <clipPath clipPathUnits="userSpaceOnUse" id="clipPath8">
            <path d="M10 20 L158 20 L158 48 L10 48 L10 20 Z" />
          </clipPath>
          <clipPath clipPathUnits="userSpaceOnUse" id="clipPath9">
            <path d="M0 0 L146 0 L146 17 L0 17 L0 0 Z" />
          </clipPath>
        </defs>
        <g style="fill:white; font-size:11; stroke:white;" transform="translate(5,5)">
          <rect x="10" y="20" width="148" style="clip-path:url(#clipPath8); stroke:none;" height="28" />
          <rect x="10" y="20" width="147" style="clip-path:url(#clipPath8); fill:none; stroke:black;" height="27" />
        </g>
        <g style="font-style:italic; font-size:11; font-weight:bold;" transform="translate(16,32)">
          <text x="5" y="11" style="clip-path:url(#clipPath9); stroke:none;" xml:space="preserve">AbstractXPathFactory</text>
        </g>
      </g>
    </a>
    <g style="fill:blue; font-size:11; stroke:blue;" transform="translate(5,5)">
      <path d="M158 44 L187 44 L187 77 L154 77 L154 48" style="fill:none; clip-path:url(#clipPath10);" />
      <text x="2" y="13" transform="translate(168,90)" style="clip-path:url(#clipPath11); stroke:none;" xml:space="preserve"></text>
      <text x="0" y="11" transform="translate(160,90)" style="clip-path:url(#clipPath12); stroke:none;" xml:space="preserve"></text>
      <text x="0" y="11" transform="translate(190,27)" style="clip-path:url(#clipPath12); stroke:none;" xml:space="preserve"></text>
      <text x="0" y="11" transform="translate(207,27)" style="clip-path:url(#clipPath12); stroke:none;" xml:space="preserve"></text>
      <text x="0" y="11" transform="translate(183,18)" style="clip-path:url(#clipPath12); stroke:none;" xml:space="preserve"></text>
      <text x="0" y="11" transform="translate(140,68)" style="clip-path:url(#clipPath12); stroke:none;" xml:space="preserve"></text>
    </g>
    <g style="font-size:11; stroke-dasharray:18,6; stroke-linecap:butt;" transform="translate(5,5)">
      <path d="M158 30 L273 30" style="fill:none; clip-path:url(#clipPath13);" />
      <polygon points=" 272 30 262 25 272 30 262 35 272 30" style="stroke-dasharray:none; clip-path:url(#clipPath14); stroke-linecap:square; stroke:none;" />
      <polygon points=" 272 30 262 25 272 30 262 35 272 30" style="fill:none; stroke-dasharray:none; clip-path:url(#clipPath14); stroke-linecap:square;" />
      <text x="2" y="13" transform="translate(213,33)" style="stroke-linecap:square; clip-path:url(#clipPath11); stroke-dasharray:none; stroke:none;" xml:space="preserve"></text>
      <text x="0" y="11" transform="translate(225,33)" style="stroke-linecap:square; clip-path:url(#clipPath12); stroke-dasharray:none; stroke:none;" xml:space="preserve"></text>
      <text x="0" y="11" transform="translate(168,10)" style="stroke-linecap:square; clip-path:url(#clipPath12); stroke-dasharray:none; stroke:none;" xml:space="preserve"></text>
      <text x="0" y="11" transform="translate(178,33)" style="stroke-linecap:square; clip-path:url(#clipPath12); stroke-dasharray:none; stroke:none;" xml:space="preserve"></text>
      <text x="0" y="11" transform="translate(188,33)" style="stroke-linecap:square; clip-path:url(#clipPath12); stroke-dasharray:none; stroke:none;" xml:space="preserve"></text>
      <text x="0" y="11" transform="translate(262,10)" style="stroke-linecap:square; clip-path:url(#clipPath12); stroke-dasharray:none; stroke:none;" xml:space="preserve"></text>
      <text x="0" y="11" transform="translate(252,33)" style="stroke-linecap:square; clip-path:url(#clipPath12); stroke-dasharray:none; stroke:none;" xml:space="preserve"></text>
      <rect x="150" y="66" width="102" style="stroke-linecap:square; clip-path:url(#clipPath15); fill:none; stroke-dasharray:none;" height="17" />
      <text x="5" y="14" transform="translate(147,63)" style="stroke-linecap:square; clip-path:url(#clipPath16); stroke-dasharray:none; stroke:none;" xml:space="preserve">Abstract Product</text>
    </g>
    <g>
      <script lang="text/ecmascript">
        <![CDATA[
    function onClick(evt, href) {
        navigateTo(href);
        evt.stopPropagation();
    }]]>
      </script>
    </g>
  </g>
</svg>
