<?xml version="1.0" encoding="UTF-8"?>

<!DOCTYPE svg PUBLIC '-//W3C//DTD SVG 1.0//EN' 'http://www.w3.org/TR/2001/REC-SVG-20010904/DTD/svg10.dtd'>
<svg style="fill-opacity:1; color-rendering:auto; color-interpolation:auto; text-rendering:auto; stroke:black; stroke-linecap:square; stroke-miterlimit:10; shape-rendering:auto; stroke-opacity:1; fill:black; stroke-dasharray:none; font-weight:normal; stroke-width:1; font-family:&apos;Dialog&apos;; font-style:normal; stroke-linejoin:miter; font-size:12; stroke-dashoffset:0; image-rendering:auto;" xmlns="http://www.w3.org/2000/svg" width="594" xmlns:xlink="http://www.w3.org/1999/xlink" height="439">
  <!--Generated by Selena using Batik-->
  <defs id="genericDefs" />
  <g>
    <defs id="defs1">
      <clipPath clipPathUnits="userSpaceOnUse" id="clipPath1">
        <path d="M0 0 L12000 0 L12000 12000 L0 12000 L0 0 Z" />
      </clipPath>
    </defs>
    <g style="fill:white; stroke:white;">
      <rect x="0" y="0" width="594" style="clip-path:url(#clipPath1); stroke:none;" height="439" />
      <rect x="0" y="0" width="593" style="clip-path:url(#clipPath1); fill:none; stroke:blue;" height="438" />
    </g>
    <a onclick="onClick(evt, &apos;../../../../../../nexd/de/xplib/nexd/api/vcl/vcl.html&apos;)">
      <g>
        <defs id="defs2">
          <clipPath clipPathUnits="userSpaceOnUse" id="clipPath2">
            <path d="M70 95 L305 95 L305 429 L70 429 L70 95 Z" />
          </clipPath>
          <clipPath clipPathUnits="userSpaceOnUse" id="clipPath3">
            <path d="M0 0 L29 0 L29 17 L0 17 L0 0 Z" />
          </clipPath>
          <clipPath clipPathUnits="userSpaceOnUse" id="clipPath4">
            <path d="M0 0 L233 0 L233 17 L0 17 L0 0 Z" />
          </clipPath>
          <clipPath clipPathUnits="userSpaceOnUse" id="clipPath5">
            <path d="M71 156 L304 156 L304 428 L71 428 L71 156 Z" />
          </clipPath>
        </defs>
        <g style="fill:white; font-size:11; stroke:white;" transform="translate(5,5)">
          <polygon style="clip-path:url(#clipPath2); stroke:none;" points=" 70 115 304 115 304 428 70 428 70 115" />
          <polygon style="clip-path:url(#clipPath2); stroke:none;" points=" 70 95 187 95 187 115 70 115 70 95" />
          <path d="M70 115 L304 115 L304 428 L70 428 L70 115" style="fill:none; clip-path:url(#clipPath2); stroke:black;" />
          <path d="M70 95 L187 95 L187 115 L70 115 L70 95" style="fill:none; clip-path:url(#clipPath2); stroke:black;" />
          <text x="5" y="11" transform="translate(173,119)" style="clip-path:url(#clipPath3); fill:black; stroke:none; font-weight:bold;" xml:space="preserve">vcl</text>
          <line transform="translate(71,139)" x1="0" x2="232" y1="9" style="clip-path:url(#clipPath4); fill:none; stroke:black;" y2="9" />
          <rect x="71" y="156" width="233" style="clip-path:url(#clipPath5); stroke:none;" height="272" />
        </g>
        <a onclick="onClick(evt, &apos;../../../../../../nexd/de/xplib/nexd/api/vcl/AbstractVCLParser.html&apos;)">
          <g>
            <defs id="defs3">
              <clipPath clipPathUnits="userSpaceOnUse" id="clipPath6">
                <path d="M0 0 L233 0 L233 17 L0 17 L0 0 Z" />
              </clipPath>
            </defs>
            <g style="font-style:italic; font-size:11;" transform="translate(76,161)">
              <text x="5" y="11" style="clip-path:url(#clipPath6); stroke:none;" xml:space="preserve">+AbstractVCLParser</text>
            </g>
          </g>
        </a>
        <a onclick="onClick(evt, &apos;../../../../../../nexd/de/xplib/nexd/api/vcl/InvalidCollectionReferenceException.html&apos;)">
          <g>
            <defs id="defs4">
              <clipPath clipPathUnits="userSpaceOnUse" id="clipPath7">
                <path d="M0 0 L233 0 L233 17 L0 17 L0 0 Z" />
              </clipPath>
            </defs>
            <g style="font-size:11;" transform="translate(76,178)">
              <text x="5" y="11" style="clip-path:url(#clipPath7); stroke:none;" xml:space="preserve">+InvalidCollectionReferenceException</text>
            </g>
          </g>
        </a>
        <a onclick="onClick(evt, &apos;../../../../../../nexd/de/xplib/nexd/api/vcl/InvalidVCLSchemaException.html&apos;)">
          <g>
            <defs id="defs5">
              <clipPath clipPathUnits="userSpaceOnUse" id="clipPath8">
                <path d="M0 0 L233 0 L233 17 L0 17 L0 0 Z" />
              </clipPath>
            </defs>
            <g style="font-size:11;" transform="translate(76,195)">
              <text x="5" y="11" style="clip-path:url(#clipPath8); stroke:none;" xml:space="preserve">+InvalidVCLSchemaException</text>
            </g>
          </g>
        </a>
        <a onclick="onClick(evt, &apos;../../../../../../nexd/de/xplib/nexd/api/vcl/UndeclaredVariableException.html&apos;)">
          <g>
            <defs id="defs6">
              <clipPath clipPathUnits="userSpaceOnUse" id="clipPath9">
                <path d="M0 0 L233 0 L233 17 L0 17 L0 0 Z" />
              </clipPath>
            </defs>
            <g style="font-size:11;" transform="translate(76,212)">
              <text x="5" y="11" style="clip-path:url(#clipPath9); stroke:none;" xml:space="preserve">+UndeclaredVariableException</text>
            </g>
          </g>
        </a>
        <a onclick="onClick(evt, &apos;../../../../../../nexd/de/xplib/nexd/api/vcl/VCLAttr.html&apos;)">
          <g>
            <defs id="defs7">
              <clipPath clipPathUnits="userSpaceOnUse" id="clipPath10">
                <path d="M0 0 L233 0 L233 17 L0 17 L0 0 Z" />
              </clipPath>
            </defs>
            <g style="font-style:italic; font-size:11;" transform="translate(76,246)">
              <text x="5" y="11" style="clip-path:url(#clipPath10); stroke:none;" xml:space="preserve">+VCLAttr</text>
            </g>
          </g>
        </a>
        <a onclick="onClick(evt, &apos;../../../../../../nexd/de/xplib/nexd/api/vcl/VCLCollectionReference.html&apos;)">
          <g>
            <defs id="defs8">
              <clipPath clipPathUnits="userSpaceOnUse" id="clipPath11">
                <path d="M0 0 L233 0 L233 17 L0 17 L0 0 Z" />
              </clipPath>
            </defs>
            <g style="font-style:italic; font-size:11;" transform="translate(76,263)">
              <text x="5" y="11" style="clip-path:url(#clipPath11); stroke:none;" xml:space="preserve">+VCLCollectionReference</text>
            </g>
          </g>
        </a>
        <a onclick="onClick(evt, &apos;../../../../../../nexd/de/xplib/nexd/api/vcl/VCLNode.html&apos;)">
          <g>
            <defs id="defs9">
              <clipPath clipPathUnits="userSpaceOnUse" id="clipPath12">
                <path d="M0 0 L233 0 L233 17 L0 17 L0 0 Z" />
              </clipPath>
            </defs>
            <g style="font-style:italic; font-size:11;" transform="translate(76,280)">
              <text x="5" y="11" style="clip-path:url(#clipPath12); stroke:none;" xml:space="preserve">+VCLNode</text>
            </g>
          </g>
        </a>
        <a onclick="onClick(evt, &apos;../../../../../../nexd/de/xplib/nexd/api/vcl/VCLNodeIterator.html&apos;)">
          <g>
            <defs id="defs10">
              <clipPath clipPathUnits="userSpaceOnUse" id="clipPath13">
                <path d="M0 0 L233 0 L233 17 L0 17 L0 0 Z" />
              </clipPath>
            </defs>
            <g style="font-style:italic; font-size:11;" transform="translate(76,297)">
              <text x="5" y="11" style="clip-path:url(#clipPath13); stroke:none;" xml:space="preserve">+VCLNodeIterator</text>
            </g>
          </g>
        </a>
        <a onclick="onClick(evt, &apos;../../../../../../nexd/de/xplib/nexd/api/vcl/VCLParserI.html&apos;)">
          <g>
            <defs id="defs11">
              <clipPath clipPathUnits="userSpaceOnUse" id="clipPath14">
                <path d="M0 0 L233 0 L233 17 L0 17 L0 0 Z" />
              </clipPath>
            </defs>
            <g style="font-style:italic; font-size:11;" transform="translate(76,314)">
              <text x="5" y="11" style="clip-path:url(#clipPath14); stroke:none;" xml:space="preserve">+VCLParserI</text>
            </g>
          </g>
        </a>
        <a onclick="onClick(evt, &apos;../../../../../../nexd/de/xplib/nexd/api/vcl/VCLPreCompiler.html&apos;)">
          <g>
            <defs id="defs12">
              <clipPath clipPathUnits="userSpaceOnUse" id="clipPath15">
                <path d="M0 0 L233 0 L233 17 L0 17 L0 0 Z" />
              </clipPath>
            </defs>
            <g style="font-size:11;" transform="translate(76,331)">
              <text x="5" y="11" style="clip-path:url(#clipPath15); stroke:none;" xml:space="preserve">+VCLPreCompiler</text>
            </g>
          </g>
        </a>
        <a onclick="onClick(evt, &apos;../../../../../../nexd/de/xplib/nexd/api/vcl/VCLSchema.html&apos;)">
          <g>
            <defs id="defs13">
              <clipPath clipPathUnits="userSpaceOnUse" id="clipPath16">
                <path d="M0 0 L233 0 L233 17 L0 17 L0 0 Z" />
              </clipPath>
            </defs>
            <g style="font-style:italic; font-size:11;" transform="translate(76,348)">
              <text x="5" y="11" style="clip-path:url(#clipPath16); stroke:none;" xml:space="preserve">+VCLSchema</text>
            </g>
          </g>
        </a>
        <a onclick="onClick(evt, &apos;../../../../../../nexd/de/xplib/nexd/api/vcl/VCLSchemaCompileVisitor.html&apos;)">
          <g>
            <defs id="defs14">
              <clipPath clipPathUnits="userSpaceOnUse" id="clipPath17">
                <path d="M0 0 L233 0 L233 17 L0 17 L0 0 Z" />
              </clipPath>
            </defs>
            <g style="font-style:italic; font-size:11;" transform="translate(76,365)">
              <text x="5" y="11" style="clip-path:url(#clipPath17); stroke:none;" xml:space="preserve">+VCLSchemaCompileVisitor</text>
            </g>
          </g>
        </a>
        <a onclick="onClick(evt, &apos;../../../../../../nexd/de/xplib/nexd/api/vcl/VCLSchemaVisitor.html&apos;)">
          <g>
            <defs id="defs15">
              <clipPath clipPathUnits="userSpaceOnUse" id="clipPath18">
                <path d="M0 0 L233 0 L233 17 L0 17 L0 0 Z" />
              </clipPath>
            </defs>
            <g style="font-style:italic; font-size:11;" transform="translate(76,382)">
              <text x="5" y="11" style="clip-path:url(#clipPath18); stroke:none;" xml:space="preserve">+VCLSchemaVisitor</text>
            </g>
          </g>
        </a>
        <a onclick="onClick(evt, &apos;../../../../../../nexd/de/xplib/nexd/api/vcl/VCLValueOf.html&apos;)">
          <g>
            <defs id="defs16">
              <clipPath clipPathUnits="userSpaceOnUse" id="clipPath19">
                <path d="M0 0 L233 0 L233 17 L0 17 L0 0 Z" />
              </clipPath>
            </defs>
            <g style="font-style:italic; font-size:11;" transform="translate(76,399)">
              <text x="5" y="11" style="clip-path:url(#clipPath19); stroke:none;" xml:space="preserve">+VCLValueOf</text>
            </g>
          </g>
        </a>
        <a onclick="onClick(evt, &apos;../../../../../../nexd/de/xplib/nexd/api/vcl/VCLVariable.html&apos;)">
          <g>
            <defs id="defs17">
              <clipPath clipPathUnits="userSpaceOnUse" id="clipPath20">
                <path d="M0 0 L233 0 L233 17 L0 17 L0 0 Z" />
              </clipPath>
            </defs>
            <g style="font-style:italic; font-size:11;" transform="translate(76,416)">
              <text x="5" y="11" style="clip-path:url(#clipPath20); stroke:none;" xml:space="preserve">+VCLVariable</text>
            </g>
          </g>
        </a>
        <a onclick="onClick(evt, &apos;../../../../../../nexd/de/xplib/nexd/api/vcl/VariableExistsException.html&apos;)">
          <g>
            <defs id="defs18">
              <clipPath clipPathUnits="userSpaceOnUse" id="clipPath21">
                <path d="M0 0 L233 0 L233 17 L0 17 L0 0 Z" />
              </clipPath>
            </defs>
            <g style="font-size:11;" transform="translate(76,229)">
              <text x="5" y="11" style="clip-path:url(#clipPath21); stroke:none;" xml:space="preserve">+VariableExistsException</text>
            </g>
          </g>
        </a>
      </g>
    </a>
    <a onclick="onClick(evt, &apos;../../../../../../nexd/de/xplib/nexd/api/pcvr/pcvr.html&apos;)">
      <g>
        <defs id="defs19">
          <clipPath clipPathUnits="userSpaceOnUse" id="clipPath22">
            <path d="M20 95 L180 95 L180 225 L20 225 L20 95 Z" />
          </clipPath>
          <clipPath clipPathUnits="userSpaceOnUse" id="clipPath23">
            <path d="M0 0 L38 0 L38 17 L0 17 L0 0 Z" />
          </clipPath>
          <clipPath clipPathUnits="userSpaceOnUse" id="clipPath24">
            <path d="M0 0 L158 0 L158 17 L0 17 L0 0 Z" />
          </clipPath>
          <clipPath clipPathUnits="userSpaceOnUse" id="clipPath25">
            <path d="M21 156 L179 156 L179 224 L21 224 L21 156 Z" />
          </clipPath>
        </defs>
        <g style="fill:white; font-size:11; stroke:white;" transform="translate(5,5)">
          <polygon style="clip-path:url(#clipPath22); stroke:none;" points=" 20 115 179 115 179 224 20 224 20 115" />
          <polygon style="clip-path:url(#clipPath22); stroke:none;" points=" 20 95 99 95 99 115 20 115 20 95" />
          <path d="M20 115 L179 115 L179 224 L20 224 L20 115" style="fill:none; clip-path:url(#clipPath22); stroke:black;" />
          <path d="M20 95 L99 95 L99 115 L20 115 L20 95" style="fill:none; clip-path:url(#clipPath22); stroke:black;" />
          <text x="5" y="11" transform="translate(81,119)" style="clip-path:url(#clipPath23); fill:black; stroke:none; font-weight:bold;" xml:space="preserve">pcvr</text>
          <line transform="translate(21,139)" x1="0" x2="157" y1="9" style="clip-path:url(#clipPath24); fill:none; stroke:black;" y2="9" />
          <rect x="21" y="156" width="158" style="clip-path:url(#clipPath25); stroke:none;" height="68" />
        </g>
        <a onclick="onClick(evt, &apos;../../../../../../nexd/de/xplib/nexd/api/pcvr/AbstractPCVRCompiler.html&apos;)">
          <g>
            <defs id="defs20">
              <clipPath clipPathUnits="userSpaceOnUse" id="clipPath26">
                <path d="M0 0 L158 0 L158 17 L0 17 L0 0 Z" />
              </clipPath>
            </defs>
            <g style="font-style:italic; font-size:11;" transform="translate(26,161)">
              <text x="5" y="11" style="clip-path:url(#clipPath26); stroke:none;" xml:space="preserve">+AbstractPCVRCompiler</text>
            </g>
          </g>
        </a>
        <a onclick="onClick(evt, &apos;../../../../../../nexd/de/xplib/nexd/api/pcvr/AbstractPCVRFactory.html&apos;)">
          <g>
            <defs id="defs21">
              <clipPath clipPathUnits="userSpaceOnUse" id="clipPath27">
                <path d="M0 0 L158 0 L158 17 L0 17 L0 0 Z" />
              </clipPath>
            </defs>
            <g style="font-style:italic; font-size:11;" transform="translate(26,178)">
              <text x="5" y="11" style="clip-path:url(#clipPath27); stroke:none;" xml:space="preserve">+AbstractPCVRFactory</text>
            </g>
          </g>
        </a>
        <a onclick="onClick(evt, &apos;../../../../../../nexd/de/xplib/nexd/api/pcvr/PCVRCompiler.html&apos;)">
          <g>
            <defs id="defs22">
              <clipPath clipPathUnits="userSpaceOnUse" id="clipPath28">
                <path d="M0 0 L158 0 L158 17 L0 17 L0 0 Z" />
              </clipPath>
            </defs>
            <g style="font-style:italic; font-size:11;" transform="translate(26,195)">
              <text x="5" y="11" style="clip-path:url(#clipPath28); stroke:none;" xml:space="preserve">+PCVRCompiler</text>
            </g>
          </g>
        </a>
        <a onclick="onClick(evt, &apos;../../../../../../nexd/de/xplib/nexd/api/pcvr/PCVResource.html&apos;)">
          <g>
            <defs id="defs23">
              <clipPath clipPathUnits="userSpaceOnUse" id="clipPath29">
                <path d="M0 0 L158 0 L158 17 L0 17 L0 0 Z" />
              </clipPath>
            </defs>
            <g style="font-style:italic; font-size:11;" transform="translate(26,212)">
              <text x="5" y="11" style="clip-path:url(#clipPath29); stroke:none;" xml:space="preserve">+PCVResource</text>
            </g>
          </g>
        </a>
      </g>
    </a>
    <a onclick="onClick(evt, &apos;../../../../../../nexd/de/xplib/nexd/api/VirtualCollection.html&apos;)">
      <g>
        <defs id="defs24">
          <clipPath clipPathUnits="userSpaceOnUse" id="clipPath30">
            <path d="M143 20 L342 20 L342 170 L143 170 L143 20 Z" />
          </clipPath>
          <clipPath clipPathUnits="userSpaceOnUse" id="clipPath31">
            <path d="M0 0 L59 0 L59 17 L0 17 L0 0 Z" />
          </clipPath>
          <clipPath clipPathUnits="userSpaceOnUse" id="clipPath32">
            <path d="M0 0 L57 0 L57 17 L0 17 L0 0 Z" />
          </clipPath>
          <clipPath clipPathUnits="userSpaceOnUse" id="clipPath33">
            <path d="M0 0 L116 0 L116 17 L0 17 L0 0 Z" />
          </clipPath>
          <clipPath clipPathUnits="userSpaceOnUse" id="clipPath34">
            <path d="M0 0 L197 0 L197 17 L0 17 L0 0 Z" />
          </clipPath>
          <clipPath clipPathUnits="userSpaceOnUse" id="clipPath35">
            <path d="M144 101 L341 101 L341 169 L144 169 L144 101 Z" />
          </clipPath>
        </defs>
        <g style="fill:white; font-size:11; stroke:white;" transform="translate(5,5)">
          <rect x="143" y="20" width="199" style="clip-path:url(#clipPath30); stroke:none;" height="150" />
          <rect x="143" y="20" width="198" style="clip-path:url(#clipPath30); fill:none; stroke:black;" height="149" />
          <text x="0" y="11" transform="translate(279,24)" style="clip-path:url(#clipPath31); fill:black; stroke:none;" xml:space="preserve">Collection</text>
          <text x="3" y="11" transform="translate(214,44)" style="clip-path:url(#clipPath32); fill:black; stroke:none;" xml:space="preserve">interface</text>
        </g>
        <g style="font-style:italic; font-size:11; font-weight:bold;" transform="translate(189,69)">
          <text x="5" y="11" style="clip-path:url(#clipPath33); stroke:none;" xml:space="preserve">VirtualCollection</text>
          <line transform="translate(-40,20)" x1="0" x2="196" y1="9" style="clip-path:url(#clipPath34); fill:none; font-style:normal; font-weight:normal;" y2="9" />
        </g>
        <g style="fill:white; font-size:11; stroke:white;" transform="translate(5,5)">
          <rect x="144" y="101" width="197" style="clip-path:url(#clipPath35); stroke:none;" height="68" />
        </g>
        <a onclick="onClick(evt, &apos;../../../../../../nexd/de/xplib/nexd/api/VirtualCollection.html#getVCLSchema()&apos;)">
          <g>
            <defs id="defs25">
              <clipPath clipPathUnits="userSpaceOnUse" id="clipPath36">
                <path d="M0 0 L197 0 L197 17 L0 17 L0 0 Z" />
              </clipPath>
            </defs>
            <g style="font-style:italic; font-size:11;" transform="translate(149,106)">
              <text x="5" y="11" style="clip-path:url(#clipPath36); stroke:none;" xml:space="preserve">+getVCLSchema : VCLSchema</text>
            </g>
          </g>
        </a>
        <a onclick="onClick(evt, &apos;../../../../../../nexd/de/xplib/nexd/api/VirtualCollection.html#showStylesheet()&apos;)">
          <g>
            <defs id="defs26">
              <clipPath clipPathUnits="userSpaceOnUse" id="clipPath37">
                <path d="M0 0 L197 0 L197 17 L0 17 L0 0 Z" />
              </clipPath>
            </defs>
            <g style="font-style:italic; font-size:11;" transform="translate(149,140)">
              <text x="5" y="11" style="clip-path:url(#clipPath37); stroke:none;" xml:space="preserve">+showStylesheet : Node</text>
            </g>
          </g>
        </a>
        <a onclick="onClick(evt, &apos;../../../../../../nexd/de/xplib/nexd/api/VirtualCollection.html#setStylesheet(java.net.URL)&apos;)">
          <g>
            <defs id="defs27">
              <clipPath clipPathUnits="userSpaceOnUse" id="clipPath38">
                <path d="M0 0 L197 0 L197 17 L0 17 L0 0 Z" />
              </clipPath>
            </defs>
            <g style="font-style:italic; font-size:11;" transform="translate(149,123)">
              <text x="5" y="11" style="clip-path:url(#clipPath38); stroke:none;" xml:space="preserve">+setStylesheet : void</text>
            </g>
          </g>
        </a>
        <a onclick="onClick(evt, &apos;../../../../../../nexd/de/xplib/nexd/api/VirtualCollection.html#unsetStylesheet()&apos;)">
          <g>
            <defs id="defs28">
              <clipPath clipPathUnits="userSpaceOnUse" id="clipPath39">
                <path d="M0 0 L197 0 L197 17 L0 17 L0 0 Z" />
              </clipPath>
            </defs>
            <g style="font-style:italic; font-size:11;" transform="translate(149,157)">
              <text x="5" y="11" style="clip-path:url(#clipPath39); stroke:none;" xml:space="preserve">+unsetStylesheet : void</text>
            </g>
          </g>
        </a>
      </g>
    </a>
    <a onclick="onClick(evt, &apos;../../../../../../nexd/de/xplib/nexd/api/VirtualCollectionManagementService.html&apos;)">
      <g>
        <defs id="defs29">
          <clipPath clipPathUnits="userSpaceOnUse" id="clipPath40">
            <path d="M271 20 L471 20 L471 170 L271 170 L271 20 Z" />
          </clipPath>
          <clipPath clipPathUnits="userSpaceOnUse" id="clipPath41">
            <path d="M0 0 L45 0 L45 17 L0 17 L0 0 Z" />
          </clipPath>
          <clipPath clipPathUnits="userSpaceOnUse" id="clipPath42">
            <path d="M0 0 L57 0 L57 17 L0 17 L0 0 Z" />
          </clipPath>
          <clipPath clipPathUnits="userSpaceOnUse" id="clipPath43">
            <path d="M0 0 L198 0 L198 17 L0 17 L0 0 Z" />
          </clipPath>
          <clipPath clipPathUnits="userSpaceOnUse" id="clipPath44">
            <path d="M272 101 L470 101 L470 169 L272 169 L272 101 Z" />
          </clipPath>
        </defs>
        <g style="fill:white; font-size:11; stroke:white;" transform="translate(5,5)">
          <rect x="271" y="20" width="200" style="clip-path:url(#clipPath40); stroke:none;" height="150" />
          <rect x="271" y="20" width="199" style="clip-path:url(#clipPath40); fill:none; stroke:black;" height="149" />
          <text x="0" y="11" transform="translate(422,24)" style="clip-path:url(#clipPath41); fill:black; stroke:none;" xml:space="preserve">Service</text>
          <text x="3" y="11" transform="translate(342,44)" style="clip-path:url(#clipPath42); fill:black; stroke:none;" xml:space="preserve">interface</text>
        </g>
        <g style="font-style:italic; font-size:11; font-weight:bold;" transform="translate(277,69)">
          <text x="5" y="11" style="clip-path:url(#clipPath43); stroke:none;" xml:space="preserve">VirtualCollectionManageme...</text>
          <line transform="translate(0,20)" x1="0" x2="197" y1="9" style="clip-path:url(#clipPath43); fill:none; font-style:normal; font-weight:normal;" y2="9" />
        </g>
        <g style="fill:white; font-size:11; stroke:white;" transform="translate(5,5)">
          <rect x="272" y="101" width="198" style="clip-path:url(#clipPath44); stroke:none;" height="68" />
        </g>
        <a onclick="onClick(evt, &apos;../../../../../../nexd/de/xplib/nexd/api/VirtualCollectionManagementService.html#removeVirtualCollection(de.xplib.nexd.api.VirtualCollection)&apos;)">
          <g>
            <defs id="defs30">
              <clipPath clipPathUnits="userSpaceOnUse" id="clipPath45">
                <path d="M0 0 L198 0 L198 17 L0 17 L0 0 Z" />
              </clipPath>
            </defs>
            <g style="font-style:italic; font-size:11;" transform="translate(277,140)">
              <text x="5" y="11" style="clip-path:url(#clipPath45); stroke:none;" xml:space="preserve">+removeVirtualCollection : void</text>
            </g>
          </g>
        </a>
        <a onclick="onClick(evt, &apos;../../../../../../nexd/de/xplib/nexd/api/VirtualCollectionManagementService.html#removeVirtualCollection(java.lang.String)&apos;)">
          <g>
            <defs id="defs31">
              <clipPath clipPathUnits="userSpaceOnUse" id="clipPath46">
                <path d="M0 0 L198 0 L198 17 L0 17 L0 0 Z" />
              </clipPath>
            </defs>
            <g style="font-style:italic; font-size:11;" transform="translate(277,157)">
              <text x="5" y="11" style="clip-path:url(#clipPath46); stroke:none;" xml:space="preserve">+removeVirtualCollection : void</text>
            </g>
          </g>
        </a>
        <a onclick="onClick(evt, &apos;../../../../../../nexd/de/xplib/nexd/api/VirtualCollectionManagementService.html#createVirtualCollection(java.lang.String, java.net.URL, java.net.URL)&apos;)">
          <g>
            <defs id="defs32">
              <clipPath clipPathUnits="userSpaceOnUse" id="clipPath47">
                <path d="M0 0 L198 0 L198 17 L0 17 L0 0 Z" />
              </clipPath>
            </defs>
            <g style="font-style:italic; font-size:11;" transform="translate(277,106)">
              <text x="5" y="11" style="clip-path:url(#clipPath47); stroke:none;" xml:space="preserve">+createVirtualCollection : VirtualCollection</text>
            </g>
          </g>
        </a>
        <a onclick="onClick(evt, &apos;../../../../../../nexd/de/xplib/nexd/api/VirtualCollectionManagementService.html#createVirtualCollection(java.lang.String, java.net.URL)&apos;)">
          <g>
            <defs id="defs33">
              <clipPath clipPathUnits="userSpaceOnUse" id="clipPath48">
                <path d="M0 0 L198 0 L198 17 L0 17 L0 0 Z" />
              </clipPath>
            </defs>
            <g style="font-style:italic; font-size:11;" transform="translate(277,123)">
              <text x="5" y="11" style="clip-path:url(#clipPath48); stroke:none;" xml:space="preserve">+createVirtualCollection : VirtualCollection</text>
            </g>
          </g>
        </a>
      </g>
    </a>
    <a onclick="onClick(evt, &apos;../../../../../../nexd/de/xplib/nexd/api/VirtualResource.html&apos;)">
      <g>
        <defs id="defs34">
          <clipPath clipPathUnits="userSpaceOnUse" id="clipPath49">
            <path d="M20 20 L220 20 L220 119 L20 119 L20 20 Z" />
          </clipPath>
          <clipPath clipPathUnits="userSpaceOnUse" id="clipPath50">
            <path d="M0 0 L84 0 L84 17 L0 17 L0 0 Z" />
          </clipPath>
          <clipPath clipPathUnits="userSpaceOnUse" id="clipPath51">
            <path d="M0 0 L57 0 L57 17 L0 17 L0 0 Z" />
          </clipPath>
          <clipPath clipPathUnits="userSpaceOnUse" id="clipPath52">
            <path d="M0 0 L111 0 L111 17 L0 17 L0 0 Z" />
          </clipPath>
          <clipPath clipPathUnits="userSpaceOnUse" id="clipPath53">
            <path d="M0 0 L198 0 L198 17 L0 17 L0 0 Z" />
          </clipPath>
          <clipPath clipPathUnits="userSpaceOnUse" id="clipPath54">
            <path d="M21 101 L219 101 L219 118 L21 118 L21 101 Z" />
          </clipPath>
        </defs>
        <g style="fill:white; font-size:11; stroke:white;" transform="translate(5,5)">
          <rect x="20" y="20" width="200" style="clip-path:url(#clipPath49); stroke:none;" height="99" />
          <rect x="20" y="20" width="199" style="clip-path:url(#clipPath49); fill:none; stroke:black;" height="98" />
          <text x="0" y="11" transform="translate(132,24)" style="clip-path:url(#clipPath50); fill:black; stroke:none;" xml:space="preserve">XMLResource</text>
          <text x="3" y="11" transform="translate(91,44)" style="clip-path:url(#clipPath51); fill:black; stroke:none;" xml:space="preserve">interface</text>
        </g>
        <g style="font-style:italic; font-size:11; font-weight:bold;" transform="translate(69,69)">
          <text x="5" y="11" style="clip-path:url(#clipPath52); stroke:none;" xml:space="preserve">VirtualResource</text>
          <line transform="translate(-43,20)" x1="0" x2="197" y1="9" style="clip-path:url(#clipPath53); fill:none; font-style:normal; font-weight:normal;" y2="9" />
        </g>
        <g style="fill:white; font-size:11; stroke:white;" transform="translate(5,5)">
          <rect x="21" y="101" width="198" style="clip-path:url(#clipPath54); stroke:none;" height="17" />
        </g>
        <a onclick="onClick(evt, &apos;../../../../../../nexd/de/xplib/nexd/api/VirtualResource.html#getPreCompiledResource()&apos;)">
          <g>
            <defs id="defs35">
              <clipPath clipPathUnits="userSpaceOnUse" id="clipPath55">
                <path d="M0 0 L198 0 L198 17 L0 17 L0 0 Z" />
              </clipPath>
            </defs>
            <g style="font-style:italic; font-size:11;" transform="translate(26,106)">
              <text x="5" y="11" style="clip-path:url(#clipPath55); stroke:none;" xml:space="preserve">+getPreCompiledResource : PCVResource</text>
            </g>
          </g>
        </a>
      </g>
    </a>
    <a onclick="onClick(evt, &apos;../../../../../../nexd/de/xplib/nexd/api/util/util.html&apos;)">
      <g>
        <defs id="defs36">
          <clipPath clipPathUnits="userSpaceOnUse" id="clipPath56">
            <path d="M321 95 L404 95 L404 174 L321 174 L321 95 Z" />
          </clipPath>
          <clipPath clipPathUnits="userSpaceOnUse" id="clipPath57">
            <path d="M0 0 L31 0 L31 17 L0 17 L0 0 Z" />
          </clipPath>
          <clipPath clipPathUnits="userSpaceOnUse" id="clipPath58">
            <path d="M0 0 L81 0 L81 17 L0 17 L0 0 Z" />
          </clipPath>
          <clipPath clipPathUnits="userSpaceOnUse" id="clipPath59">
            <path d="M322 156 L403 156 L403 173 L322 173 L322 156 Z" />
          </clipPath>
        </defs>
        <g style="fill:white; font-size:11; stroke:white;" transform="translate(5,5)">
          <polygon style="clip-path:url(#clipPath56); stroke:none;" points=" 321 115 403 115 403 173 321 173 321 115" />
          <polygon style="clip-path:url(#clipPath56); stroke:none;" points=" 321 95 362 95 362 115 321 115 321 95" />
          <path d="M321 115 L403 115 L403 173 L321 173 L321 115" style="fill:none; clip-path:url(#clipPath56); stroke:black;" />
          <path d="M321 95 L362 95 L362 115 L321 115 L321 95" style="fill:none; clip-path:url(#clipPath56); stroke:black;" />
          <text x="5" y="11" transform="translate(347,119)" style="clip-path:url(#clipPath57); fill:black; stroke:none; font-weight:bold;" xml:space="preserve">util</text>
          <line transform="translate(322,139)" x1="0" x2="80" y1="9" style="clip-path:url(#clipPath58); fill:none; stroke:black;" y2="9" />
          <rect x="322" y="156" width="81" style="clip-path:url(#clipPath59); stroke:none;" height="17" />
        </g>
        <a onclick="onClick(evt, &apos;../../../../../../nexd/de/xplib/nexd/api/util/Base64.html&apos;)">
          <g>
            <defs id="defs37">
              <clipPath clipPathUnits="userSpaceOnUse" id="clipPath60">
                <path d="M0 0 L81 0 L81 17 L0 17 L0 0 Z" />
              </clipPath>
            </defs>
            <g style="font-size:11;" transform="translate(327,161)">
              <text x="5" y="11" style="clip-path:url(#clipPath60); stroke:none;" xml:space="preserve">+Base64</text>
            </g>
          </g>
        </a>
      </g>
    </a>
    <a onclick="onClick(evt, &apos;../../../../../../nexd/de/xplib/nexd/api/InvalidParentCollectionException.html&apos;)">
      <g>
        <defs id="defs38">
          <clipPath clipPathUnits="userSpaceOnUse" id="clipPath61">
            <path d="M111 95 L311 95 L311 191 L111 191 L111 95 Z" />
          </clipPath>
          <clipPath clipPathUnits="userSpaceOnUse" id="clipPath62">
            <path d="M0 0 L59 0 L59 17 L0 17 L0 0 Z" />
          </clipPath>
          <clipPath clipPathUnits="userSpaceOnUse" id="clipPath63">
            <path d="M0 0 L198 0 L198 17 L0 17 L0 0 Z" />
          </clipPath>
          <clipPath clipPathUnits="userSpaceOnUse" id="clipPath64">
            <path d="M112 156 L310 156 L310 190 L112 190 L112 156 Z" />
          </clipPath>
        </defs>
        <g style="fill:white; font-size:11; stroke:white;" transform="translate(5,5)">
          <rect x="111" y="95" width="200" style="clip-path:url(#clipPath61); stroke:none;" height="96" />
          <rect x="111" y="95" width="199" style="clip-path:url(#clipPath61); fill:none; stroke:black;" height="95" />
          <text x="0" y="11" transform="translate(248,99)" style="clip-path:url(#clipPath62); fill:black; stroke:none;" xml:space="preserve">Exception</text>
          <text x="5" y="11" transform="translate(112,119)" style="clip-path:url(#clipPath63); fill:black; stroke:none; font-weight:bold;" xml:space="preserve">InvalidParentCollectionExc...</text>
          <line transform="translate(112,139)" x1="0" x2="197" y1="9" style="clip-path:url(#clipPath63); fill:none; stroke:black;" y2="9" />
          <rect x="112" y="156" width="198" style="clip-path:url(#clipPath64); stroke:none;" height="34" />
        </g>
        <a onclick="onClick(evt, &apos;../../../../../../nexd/de/xplib/nexd/api/InvalidParentCollectionException.html#InvalidParentCollectionException()&apos;)">
          <g>
            <defs id="defs39">
              <clipPath clipPathUnits="userSpaceOnUse" id="clipPath65">
                <path d="M0 0 L198 0 L198 17 L0 17 L0 0 Z" />
              </clipPath>
            </defs>
            <g style="font-size:11;" transform="translate(117,161)">
              <text x="5" y="11" style="clip-path:url(#clipPath65); stroke:none;" xml:space="preserve">+InvalidParentCollectionException</text>
            </g>
          </g>
        </a>
        <a onclick="onClick(evt, &apos;../../../../../../nexd/de/xplib/nexd/api/InvalidParentCollectionException.html#InvalidParentCollectionException(java.lang.String)&apos;)">
          <g>
            <defs id="defs40">
              <clipPath clipPathUnits="userSpaceOnUse" id="clipPath66">
                <path d="M0 0 L198 0 L198 17 L0 17 L0 0 Z" />
              </clipPath>
            </defs>
            <g style="font-size:11;" transform="translate(117,178)">
              <text x="5" y="11" style="clip-path:url(#clipPath66); stroke:none;" xml:space="preserve">+InvalidParentCollectionException</text>
            </g>
          </g>
        </a>
      </g>
    </a>
    <g>
      <script lang="text/ecmascript">
        <![CDATA[
    function onClick(evt, href) {
        navigateTo(href);
        evt.stopPropagation();
    }]]>
      </script>
    </g>
  </g>
</svg>
