<?xml version="1.0" encoding="UTF-8"?>

<!DOCTYPE svg PUBLIC '-//W3C//DTD SVG 1.0//EN' 'http://www.w3.org/TR/2001/REC-SVG-20010904/DTD/svg10.dtd'>
<svg style="fill-opacity:1; color-rendering:auto; color-interpolation:auto; text-rendering:auto; stroke:black; stroke-linecap:square; stroke-miterlimit:10; shape-rendering:auto; stroke-opacity:1; fill:black; stroke-dasharray:none; font-weight:normal; stroke-width:1; font-family:&apos;Dialog&apos;; font-style:normal; stroke-linejoin:miter; font-size:12; stroke-dashoffset:0; image-rendering:auto;" xmlns="http://www.w3.org/2000/svg" width="127" xmlns:xlink="http://www.w3.org/1999/xlink" height="129">
  <!--Generated by Selena using Batik-->
  <defs id="genericDefs" />
  <g>
    <defs id="defs1">
      <clipPath clipPathUnits="userSpaceOnUse" id="clipPath1">
        <path d="M0 0 L12000 0 L12000 12000 L0 12000 L0 0 Z" />
      </clipPath>
    </defs>
    <g style="fill:white; stroke:white;">
      <rect x="0" y="0" width="127" style="clip-path:url(#clipPath1); stroke:none;" height="129" />
      <rect x="0" y="0" width="126" style="clip-path:url(#clipPath1); fill:none; stroke:blue;" height="128" />
    </g>
    <a onclick="onClick(evt, &apos;../../../../../../../nexd/de/xplib/nexd/engine/xml/dom/dom.html&apos;)">
      <g>
        <defs id="defs2">
          <clipPath clipPathUnits="userSpaceOnUse" id="clipPath2">
            <path d="M10 10 L51 10 L51 55 L10 55 L10 10 Z" />
          </clipPath>
          <clipPath clipPathUnits="userSpaceOnUse" id="clipPath3">
            <path d="M0 0 L39 0 L39 17 L0 17 L0 0 Z" />
          </clipPath>
        </defs>
        <g style="fill:white; font-size:11; stroke:white;" transform="translate(5,5)">
          <polygon style="clip-path:url(#clipPath2); stroke:none;" points=" 10 30 50 30 50 54 10 54 10 30" />
          <polygon style="clip-path:url(#clipPath2); stroke:none;" points=" 10 10 30 10 30 30 10 30 10 10" />
          <path d="M10 30 L50 30 L50 54 L10 54 L10 30" style="fill:none; clip-path:url(#clipPath2); stroke:black;" />
          <path d="M10 10 L30 10 L30 30 L10 30 L10 10" style="fill:none; clip-path:url(#clipPath2); stroke:black;" />
          <text x="5" y="11" transform="translate(11,34)" style="clip-path:url(#clipPath3); fill:black; stroke:none; font-weight:bold;" xml:space="preserve">dom</text>
        </g>
      </g>
    </a>
    <a onclick="onClick(evt, &apos;../../../../../../../nexd/de/xplib/nexd/engine/xml/jaxp/jaxp.html&apos;)">
      <g>
        <defs id="defs3">
          <clipPath clipPathUnits="userSpaceOnUse" id="clipPath4">
            <path d="M21 74 L60 74 L60 119 L21 119 L21 74 Z" />
          </clipPath>
          <clipPath clipPathUnits="userSpaceOnUse" id="clipPath5">
            <path d="M0 0 L37 0 L37 17 L0 17 L0 0 Z" />
          </clipPath>
        </defs>
        <g style="fill:white; font-size:11; stroke:white;" transform="translate(5,5)">
          <polygon style="clip-path:url(#clipPath4); stroke:none;" points=" 21 94 59 94 59 118 21 118 21 94" />
          <polygon style="clip-path:url(#clipPath4); stroke:none;" points=" 21 74 40 74 40 94 21 94 21 74" />
          <path d="M21 94 L59 94 L59 118 L21 118 L21 94" style="fill:none; clip-path:url(#clipPath4); stroke:black;" />
          <path d="M21 74 L40 74 L40 94 L21 94 L21 74" style="fill:none; clip-path:url(#clipPath4); stroke:black;" />
          <text x="5" y="11" transform="translate(22,98)" style="clip-path:url(#clipPath5); fill:black; stroke:none; font-weight:bold;" xml:space="preserve">jaxp</text>
        </g>
      </g>
    </a>
    <a onclick="onClick(evt, &apos;../../../../../../../nexd/de/xplib/nexd/engine/xml/util/util.html&apos;)">
      <g>
        <defs id="defs4">
          <clipPath clipPathUnits="userSpaceOnUse" id="clipPath6">
            <path d="M70 65 L103 65 L103 110 L70 110 L70 65 Z" />
          </clipPath>
          <clipPath clipPathUnits="userSpaceOnUse" id="clipPath7">
            <path d="M0 0 L31 0 L31 17 L0 17 L0 0 Z" />
          </clipPath>
        </defs>
        <g style="fill:white; font-size:11; stroke:white;" transform="translate(5,5)">
          <polygon style="clip-path:url(#clipPath6); stroke:none;" points=" 70 85 102 85 102 109 70 109 70 85" />
          <polygon style="clip-path:url(#clipPath6); stroke:none;" points=" 70 65 86 65 86 85 70 85 70 65" />
          <path d="M70 85 L102 85 L102 109 L70 109 L70 85" style="fill:none; clip-path:url(#clipPath6); stroke:black;" />
          <path d="M70 65 L86 65 L86 85 L70 85 L70 65" style="fill:none; clip-path:url(#clipPath6); stroke:black;" />
          <text x="5" y="11" transform="translate(71,89)" style="clip-path:url(#clipPath7); fill:black; stroke:none; font-weight:bold;" xml:space="preserve">util</text>
        </g>
      </g>
    </a>
    <a onclick="onClick(evt, &apos;../../../../../../../nexd/de/xplib/nexd/engine/xml/xpath/xpath.html&apos;)">
      <g>
        <defs id="defs5">
          <clipPath clipPathUnits="userSpaceOnUse" id="clipPath8">
            <path d="M70 1 L117 1 L117 46 L70 46 L70 1 Z" />
          </clipPath>
          <clipPath clipPathUnits="userSpaceOnUse" id="clipPath9">
            <path d="M0 0 L45 0 L45 17 L0 17 L0 0 Z" />
          </clipPath>
        </defs>
        <g style="fill:white; font-size:11; stroke:white;" transform="translate(5,5)">
          <polygon style="clip-path:url(#clipPath8); stroke:none;" points=" 70 21 116 21 116 45 70 45 70 21" />
          <polygon style="clip-path:url(#clipPath8); stroke:none;" points=" 70 1 93 1 93 21 70 21 70 1" />
          <path d="M70 21 L116 21 L116 45 L70 45 L70 21" style="fill:none; clip-path:url(#clipPath8); stroke:black;" />
          <path d="M70 1 L93 1 L93 21 L70 21 L70 1" style="fill:none; clip-path:url(#clipPath8); stroke:black;" />
          <text x="5" y="11" transform="translate(71,25)" style="clip-path:url(#clipPath9); fill:black; stroke:none; font-weight:bold;" xml:space="preserve">xpath</text>
        </g>
      </g>
    </a>
    <g>
      <script lang="text/ecmascript">
        <![CDATA[
    function onClick(evt, href) {
        navigateTo(href);
        evt.stopPropagation();
    }]]>
      </script>
    </g>
  </g>
</svg>
