<?xml version="1.0" encoding="UTF-8"?>

<!DOCTYPE svg PUBLIC '-//W3C//DTD SVG 1.0//EN' 'http://www.w3.org/TR/2001/REC-SVG-20010904/DTD/svg10.dtd'>
<svg style="fill-opacity:1; color-rendering:auto; color-interpolation:auto; text-rendering:auto; stroke:black; stroke-linecap:square; stroke-miterlimit:10; shape-rendering:auto; stroke-opacity:1; fill:black; stroke-dasharray:none; font-weight:normal; stroke-width:1; font-family:&apos;Dialog&apos;; font-style:normal; stroke-linejoin:miter; font-size:12; stroke-dashoffset:0; image-rendering:auto;" xmlns="http://www.w3.org/2000/svg" width="924" xmlns:xlink="http://www.w3.org/1999/xlink" height="465">
  <!--Generated by Selena using Batik-->
  <defs id="genericDefs" />
  <g>
    <defs id="defs1">
      <clipPath clipPathUnits="userSpaceOnUse" id="clipPath1">
        <path d="M0 0 L12000 0 L12000 12000 L0 12000 L0 0 Z" />
      </clipPath>
      <clipPath clipPathUnits="userSpaceOnUse" id="clipPath50">
        <path d="M300 66 L447 66 L447 176 L300 176 L300 66 Z" />
      </clipPath>
      <clipPath clipPathUnits="userSpaceOnUse" id="clipPath51">
        <path d="M300 66 L311 66 L311 87 L300 87 L300 66 Z" />
      </clipPath>
      <clipPath clipPathUnits="userSpaceOnUse" id="clipPath52">
        <path d="M418 164 L429 164 L429 175 L418 175 L418 164 Z" />
      </clipPath>
      <clipPath clipPathUnits="userSpaceOnUse" id="clipPath53">
        <path d="M0 0 L5 0 L5 21 L0 21 L0 0 Z" />
      </clipPath>
      <clipPath clipPathUnits="userSpaceOnUse" id="clipPath54">
        <path d="M0 0 L1 0 L1 17 L0 17 L0 0 Z" />
      </clipPath>
      <clipPath clipPathUnits="userSpaceOnUse" id="clipPath55">
        <path d="M0 0 L8 0 L8 17 L0 17 L0 0 Z" />
      </clipPath>
      <clipPath clipPathUnits="userSpaceOnUse" id="clipPath56">
        <path d="M0 0 L21 0 L21 17 L0 17 L0 0 Z" />
      </clipPath>
      <clipPath clipPathUnits="userSpaceOnUse" id="clipPath57">
        <path d="M0 0 L27 0 L27 17 L0 17 L0 0 Z" />
      </clipPath>
      <clipPath clipPathUnits="userSpaceOnUse" id="clipPath58">
        <path d="M267 66 L284 66 L284 176 L267 176 L267 66 Z" />
      </clipPath>
      <clipPath clipPathUnits="userSpaceOnUse" id="clipPath59">
        <path d="M267 158 L284 158 L284 175 L267 175 L267 158 Z" />
      </clipPath>
      <clipPath clipPathUnits="userSpaceOnUse" id="clipPath60">
        <path d="M84 66 L239 66 L239 176 L84 176 L84 66 Z" />
      </clipPath>
      <clipPath clipPathUnits="userSpaceOnUse" id="clipPath61">
        <path d="M223 66 L234 66 L234 87 L223 87 L223 66 Z" />
      </clipPath>
      <clipPath clipPathUnits="userSpaceOnUse" id="clipPath62">
        <path d="M108 164 L119 164 L119 175 L108 175 L108 164 Z" />
      </clipPath>
      <clipPath clipPathUnits="userSpaceOnUse" id="clipPath63">
        <path d="M0 0 L26 0 L26 17 L0 17 L0 0 Z" />
      </clipPath>
      <clipPath clipPathUnits="userSpaceOnUse" id="clipPath64">
        <path d="M339 45 L413 45 L413 119 L339 119 L339 45 Z" />
      </clipPath>
      <clipPath clipPathUnits="userSpaceOnUse" id="clipPath65">
        <path d="M348 57 L369 57 L369 68 L348 68 L348 57 Z" />
      </clipPath>
      <clipPath clipPathUnits="userSpaceOnUse" id="clipPath66">
        <path d="M339 66 L350 66 L350 77 L339 77 L339 66 Z" />
      </clipPath>
      <clipPath clipPathUnits="userSpaceOnUse" id="clipPath67">
        <path d="M0 0 L23 0 L23 17 L0 17 L0 0 Z" />
      </clipPath>
      <clipPath clipPathUnits="userSpaceOnUse" id="clipPath68">
        <path d="M0 0 L49 0 L49 17 L0 17 L0 0 Z" />
      </clipPath>
      <clipPath clipPathUnits="userSpaceOnUse" id="clipPath69">
        <path d="M56 75 L266 75 L266 176 L56 176 L56 75 Z" />
      </clipPath>
      <clipPath clipPathUnits="userSpaceOnUse" id="clipPath70">
        <path d="M249 158 L266 158 L266 175 L249 175 L249 158 Z" />
      </clipPath>
      <clipPath clipPathUnits="userSpaceOnUse" id="clipPath71">
        <path d="M650 132 L731 132 L731 192 L650 192 L650 132 Z" />
      </clipPath>
      <clipPath clipPathUnits="userSpaceOnUse" id="clipPath72">
        <path d="M719 147 L730 147 L730 158 L719 158 L719 147 Z" />
      </clipPath>
      <clipPath clipPathUnits="userSpaceOnUse" id="clipPath73">
        <path d="M0 0 L36 0 L36 17 L0 17 L0 0 Z" />
      </clipPath>
      <clipPath clipPathUnits="userSpaceOnUse" id="clipPath74">
        <path d="M813 58 L830 58 L830 129 L813 129 L813 58 Z" />
      </clipPath>
      <clipPath clipPathUnits="userSpaceOnUse" id="clipPath75">
        <path d="M813 58 L830 58 L830 75 L813 75 L813 58 Z" />
      </clipPath>
      <clipPath clipPathUnits="userSpaceOnUse" id="clipPath76">
        <path d="M348 17 L468 17 L468 87 L348 87 L348 17 Z" />
      </clipPath>
      <clipPath clipPathUnits="userSpaceOnUse" id="clipPath77">
        <path d="M348 32 L369 32 L369 43 L348 43 L348 32 Z" />
      </clipPath>
      <clipPath clipPathUnits="userSpaceOnUse" id="clipPath78">
        <path d="M456 32 L467 32 L467 43 L456 43 L456 32 Z" />
      </clipPath>
      <clipPath clipPathUnits="userSpaceOnUse" id="clipPath79">
        <path d="M0 0 L53 0 L53 17 L0 17 L0 0 Z" />
      </clipPath>
      <clipPath clipPathUnits="userSpaceOnUse" id="clipPath80">
        <path d="M285 66 L512 66 L512 176 L285 176 L285 66 Z" />
      </clipPath>
      <clipPath clipPathUnits="userSpaceOnUse" id="clipPath81">
        <path d="M285 158 L302 158 L302 175 L285 175 L285 158 Z" />
      </clipPath>
      <clipPath clipPathUnits="userSpaceOnUse" id="clipPath82">
        <path d="M102 22 L183 22 L183 66 L102 66 L102 22 Z" />
      </clipPath>
      <clipPath clipPathUnits="userSpaceOnUse" id="clipPath83">
        <path d="M102 37 L123 37 L123 48 L102 48 L102 37 Z" />
      </clipPath>
      <clipPath clipPathUnits="userSpaceOnUse" id="clipPath84">
        <path d="M171 37 L182 37 L182 48 L171 48 L171 37 Z" />
      </clipPath>
      <clipPath clipPathUnits="userSpaceOnUse" id="clipPath85">
        <path d="M312 191 L393 191 L393 208 L312 208 L312 191 Z" />
      </clipPath>
      <clipPath clipPathUnits="userSpaceOnUse" id="clipPath86">
        <path d="M312 191 L329 191 L329 208 L312 208 L312 191 Z" />
      </clipPath>
      <clipPath clipPathUnits="userSpaceOnUse" id="clipPath87">
        <path d="M633 257 L754 257 L754 347 L633 347 L633 257 Z" />
      </clipPath>
      <clipPath clipPathUnits="userSpaceOnUse" id="clipPath88">
        <path d="M732 272 L753 272 L753 283 L732 283 L732 272 Z" />
      </clipPath>
      <clipPath clipPathUnits="userSpaceOnUse" id="clipPath89">
        <path d="M633 272 L644 272 L644 283 L633 283 L633 272 Z" />
      </clipPath>
      <clipPath clipPathUnits="userSpaceOnUse" id="clipPath90">
        <path d="M0 0 L101 0 L101 21 L0 21 L0 0 Z" />
      </clipPath>
      <clipPath clipPathUnits="userSpaceOnUse" id="clipPath91">
        <path d="M633 254 L754 254 L754 271 L633 271 L633 254 Z" />
      </clipPath>
      <clipPath clipPathUnits="userSpaceOnUse" id="clipPath92">
        <path d="M633 254 L650 254 L650 271 L633 271 L633 254 Z" />
      </clipPath>
      <clipPath clipPathUnits="userSpaceOnUse" id="clipPath93">
        <path d="M551 166 L602 166 L602 247 L551 247 L551 166 Z" />
      </clipPath>
      <clipPath clipPathUnits="userSpaceOnUse" id="clipPath94">
        <path d="M586 235 L597 235 L597 246 L586 246 L586 235 Z" />
      </clipPath>
      <clipPath clipPathUnits="userSpaceOnUse" id="clipPath95">
        <path d="M0 0 L37 0 L37 17 L0 17 L0 0 Z" />
      </clipPath>
      <clipPath clipPathUnits="userSpaceOnUse" id="clipPath96">
        <path d="M159 191 L240 191 L240 208 L159 208 L159 191 Z" />
      </clipPath>
      <clipPath clipPathUnits="userSpaceOnUse" id="clipPath97">
        <path d="M222 191 L239 191 L239 208 L222 208 L222 191 Z" />
      </clipPath>
    </defs>
    <g style="fill:white; stroke:white;">
      <rect x="0" y="0" width="924" style="clip-path:url(#clipPath1); stroke:none;" height="465" />
      <rect x="0" y="0" width="923" style="clip-path:url(#clipPath1); fill:none; stroke:blue;" height="464" />
    </g>
    <a onclick="onClick(evt, &apos;../../../../../../../nexd/de/xplib/nexd/api/vcl/VCLSchemaVisitor.html&apos;)">
      <g>
        <defs id="defs2">
          <clipPath clipPathUnits="userSpaceOnUse" id="clipPath2">
            <path d="M756 10 L887 10 L887 58 L756 58 L756 10 Z" />
          </clipPath>
          <clipPath clipPathUnits="userSpaceOnUse" id="clipPath3">
            <path d="M0 0 L57 0 L57 17 L0 17 L0 0 Z" />
          </clipPath>
          <clipPath clipPathUnits="userSpaceOnUse" id="clipPath4">
            <path d="M0 0 L129 0 L129 17 L0 17 L0 0 Z" />
          </clipPath>
        </defs>
        <g style="fill:white; font-size:11; stroke:white;" transform="translate(5,5)">
          <rect x="756" y="10" width="131" style="clip-path:url(#clipPath2); stroke:none;" height="48" />
          <rect x="756" y="10" width="130" style="clip-path:url(#clipPath2); fill:none; stroke:black;" height="47" />
          <text x="3" y="11" transform="translate(793,17)" style="clip-path:url(#clipPath3); fill:black; stroke:none;" xml:space="preserve">interface</text>
        </g>
        <g style="font-style:italic; font-size:11; font-weight:bold;" transform="translate(762,42)">
          <text x="5" y="11" style="clip-path:url(#clipPath4); stroke:none;" xml:space="preserve">VCLSchemaVisitor</text>
        </g>
      </g>
    </a>
    <a onclick="onClick(evt, &apos;../../../../../../../nexd/de/xplib/nexd/api/vcl/VCLNodeIterator.html&apos;)">
      <g>
        <defs id="defs3">
          <clipPath clipPathUnits="userSpaceOnUse" id="clipPath5">
            <path d="M411 330 L528 330 L528 378 L411 378 L411 330 Z" />
          </clipPath>
          <clipPath clipPathUnits="userSpaceOnUse" id="clipPath6">
            <path d="M0 0 L57 0 L57 17 L0 17 L0 0 Z" />
          </clipPath>
          <clipPath clipPathUnits="userSpaceOnUse" id="clipPath7">
            <path d="M0 0 L115 0 L115 17 L0 17 L0 0 Z" />
          </clipPath>
        </defs>
        <g style="fill:white; font-size:11; stroke:white;" transform="translate(5,5)">
          <rect x="411" y="330" width="117" style="clip-path:url(#clipPath5); stroke:none;" height="48" />
          <rect x="411" y="330" width="116" style="clip-path:url(#clipPath5); fill:none; stroke:black;" height="47" />
          <text x="3" y="11" transform="translate(441,337)" style="clip-path:url(#clipPath6); fill:black; stroke:none;" xml:space="preserve">interface</text>
        </g>
        <g style="font-style:italic; font-size:11; font-weight:bold;" transform="translate(417,362)">
          <text x="5" y="11" style="clip-path:url(#clipPath7); stroke:none;" xml:space="preserve">VCLNodeIterator</text>
        </g>
      </g>
    </a>
    <a onclick="onClick(evt, &apos;../../../../../../../nexd/de/xplib/nexd/api/vcl/VCLParserI.html&apos;)">
      <g>
        <defs id="defs4">
          <clipPath clipPathUnits="userSpaceOnUse" id="clipPath8">
            <path d="M549 246 L633 246 L633 294 L549 294 L549 246 Z" />
          </clipPath>
          <clipPath clipPathUnits="userSpaceOnUse" id="clipPath9">
            <path d="M0 0 L57 0 L57 17 L0 17 L0 0 Z" />
          </clipPath>
          <clipPath clipPathUnits="userSpaceOnUse" id="clipPath10">
            <path d="M0 0 L82 0 L82 17 L0 17 L0 0 Z" />
          </clipPath>
        </defs>
        <g style="fill:white; font-size:11; stroke:white;" transform="translate(5,5)">
          <rect x="549" y="246" width="84" style="clip-path:url(#clipPath8); stroke:none;" height="48" />
          <rect x="549" y="246" width="83" style="clip-path:url(#clipPath8); fill:none; stroke:black;" height="47" />
          <text x="3" y="11" transform="translate(562,253)" style="clip-path:url(#clipPath9); fill:black; stroke:none;" xml:space="preserve">interface</text>
        </g>
        <g style="font-style:italic; font-size:11; font-weight:bold;" transform="translate(555,278)">
          <text x="5" y="11" style="clip-path:url(#clipPath10); stroke:none;" xml:space="preserve">VCLParserI</text>
        </g>
      </g>
    </a>
    <a onclick="onClick(evt, &apos;../../../../../../../nexd/de/xplib/nexd/api/vcl/UndeclaredVariableException.html&apos;)">
      <g>
        <defs id="defs5">
          <clipPath clipPathUnits="userSpaceOnUse" id="clipPath11">
            <path d="M10 330 L207 330 L207 375 L10 375 L10 330 Z" />
          </clipPath>
          <clipPath clipPathUnits="userSpaceOnUse" id="clipPath12">
            <path d="M0 0 L59 0 L59 17 L0 17 L0 0 Z" />
          </clipPath>
          <clipPath clipPathUnits="userSpaceOnUse" id="clipPath13">
            <path d="M0 0 L195 0 L195 17 L0 17 L0 0 Z" />
          </clipPath>
        </defs>
        <g style="fill:white; font-size:11; stroke:white;" transform="translate(5,5)">
          <rect x="10" y="330" width="197" style="clip-path:url(#clipPath11); stroke:none;" height="45" />
          <rect x="10" y="330" width="196" style="clip-path:url(#clipPath11); fill:none; stroke:black;" height="44" />
          <text x="0" y="11" transform="translate(144,334)" style="clip-path:url(#clipPath12); fill:black; stroke:none;" xml:space="preserve">Exception</text>
          <text x="5" y="11" transform="translate(11,354)" style="clip-path:url(#clipPath13); fill:black; stroke:none; font-weight:bold;" xml:space="preserve">UndeclaredVariableException</text>
        </g>
      </g>
    </a>
    <a onclick="onClick(evt, &apos;../../../../../../../nexd/de/xplib/nexd/api/vcl/VCLValueOf.html&apos;)">
      <g>
        <defs id="defs6">
          <clipPath clipPathUnits="userSpaceOnUse" id="clipPath14">
            <path d="M467 18 L556 18 L556 66 L467 66 L467 18 Z" />
          </clipPath>
          <clipPath clipPathUnits="userSpaceOnUse" id="clipPath15">
            <path d="M0 0 L57 0 L57 17 L0 17 L0 0 Z" />
          </clipPath>
          <clipPath clipPathUnits="userSpaceOnUse" id="clipPath16">
            <path d="M0 0 L87 0 L87 17 L0 17 L0 0 Z" />
          </clipPath>
        </defs>
        <g style="fill:white; font-size:11; stroke:white;" transform="translate(5,5)">
          <rect x="467" y="18" width="89" style="clip-path:url(#clipPath14); stroke:none;" height="48" />
          <rect x="467" y="18" width="88" style="clip-path:url(#clipPath14); fill:none; stroke:black;" height="47" />
          <text x="3" y="11" transform="translate(483,25)" style="clip-path:url(#clipPath15); fill:black; stroke:none;" xml:space="preserve">interface</text>
        </g>
        <g style="font-style:italic; font-size:11; font-weight:bold;" transform="translate(473,50)">
          <text x="5" y="11" style="clip-path:url(#clipPath16); stroke:none;" xml:space="preserve">VCLValueOf</text>
        </g>
      </g>
    </a>
    <a onclick="onClick(evt, &apos;../../../../../../../nexd/de/xplib/nexd/api/vcl/InvalidCollectionReferenceException.html&apos;)">
      <g>
        <defs id="defs7">
          <clipPath clipPathUnits="userSpaceOnUse" id="clipPath17">
            <path d="M548 330 L748 330 L748 375 L548 375 L548 330 Z" />
          </clipPath>
          <clipPath clipPathUnits="userSpaceOnUse" id="clipPath18">
            <path d="M0 0 L59 0 L59 17 L0 17 L0 0 Z" />
          </clipPath>
          <clipPath clipPathUnits="userSpaceOnUse" id="clipPath19">
            <path d="M0 0 L198 0 L198 17 L0 17 L0 0 Z" />
          </clipPath>
        </defs>
        <g style="fill:white; font-size:11; stroke:white;" transform="translate(5,5)">
          <rect x="548" y="330" width="200" style="clip-path:url(#clipPath17); stroke:none;" height="45" />
          <rect x="548" y="330" width="199" style="clip-path:url(#clipPath17); fill:none; stroke:black;" height="44" />
          <text x="0" y="11" transform="translate(685,334)" style="clip-path:url(#clipPath18); fill:black; stroke:none;" xml:space="preserve">Exception</text>
          <text x="5" y="11" transform="translate(549,354)" style="clip-path:url(#clipPath19); fill:black; stroke:none; font-weight:bold;" xml:space="preserve">InvalidCollectionReference...</text>
        </g>
      </g>
    </a>
    <a onclick="onClick(evt, &apos;../../../../../../../nexd/de/xplib/nexd/api/vcl/VCLCollectionReference.html&apos;)">
      <g>
        <defs id="defs8">
          <clipPath clipPathUnits="userSpaceOnUse" id="clipPath20">
            <path d="M182 18 L348 18 L348 66 L182 66 L182 18 Z" />
          </clipPath>
          <clipPath clipPathUnits="userSpaceOnUse" id="clipPath21">
            <path d="M0 0 L57 0 L57 17 L0 17 L0 0 Z" />
          </clipPath>
          <clipPath clipPathUnits="userSpaceOnUse" id="clipPath22">
            <path d="M0 0 L164 0 L164 17 L0 17 L0 0 Z" />
          </clipPath>
        </defs>
        <g style="fill:white; font-size:11; stroke:white;" transform="translate(5,5)">
          <rect x="182" y="18" width="166" style="clip-path:url(#clipPath20); stroke:none;" height="48" />
          <rect x="182" y="18" width="165" style="clip-path:url(#clipPath20); fill:none; stroke:black;" height="47" />
          <text x="3" y="11" transform="translate(236,25)" style="clip-path:url(#clipPath21); fill:black; stroke:none;" xml:space="preserve">interface</text>
        </g>
        <g style="font-style:italic; font-size:11; font-weight:bold;" transform="translate(188,50)">
          <text x="5" y="11" style="clip-path:url(#clipPath22); stroke:none;" xml:space="preserve">VCLCollectionReference</text>
        </g>
      </g>
    </a>
    <a onclick="onClick(evt, &apos;../../../../../../../nexd/de/xplib/nexd/api/vcl/VCLNode.html&apos;)">
      <g>
        <defs id="defs9">
          <clipPath clipPathUnits="userSpaceOnUse" id="clipPath23">
            <path d="M239 175 L312 175 L312 223 L239 223 L239 175 Z" />
          </clipPath>
          <clipPath clipPathUnits="userSpaceOnUse" id="clipPath24">
            <path d="M0 0 L57 0 L57 17 L0 17 L0 0 Z" />
          </clipPath>
          <clipPath clipPathUnits="userSpaceOnUse" id="clipPath25">
            <path d="M0 0 L71 0 L71 17 L0 17 L0 0 Z" />
          </clipPath>
        </defs>
        <g style="fill:white; font-size:11; stroke:white;" transform="translate(5,5)">
          <rect x="239" y="175" width="73" style="clip-path:url(#clipPath23); stroke:none;" height="48" />
          <rect x="239" y="175" width="72" style="clip-path:url(#clipPath23); fill:none; stroke:black;" height="47" />
          <text x="3" y="11" transform="translate(247,182)" style="clip-path:url(#clipPath24); fill:black; stroke:none;" xml:space="preserve">interface</text>
        </g>
        <g style="font-style:italic; font-size:11; font-weight:bold;" transform="translate(245,207)">
          <text x="5" y="11" style="clip-path:url(#clipPath25); stroke:none;" xml:space="preserve">VCLNode</text>
        </g>
      </g>
    </a>
    <a onclick="onClick(evt, &apos;../../../../../../../nexd/de/xplib/nexd/api/vcl/VCLSchemaCompileVisitor.html&apos;)">
      <g>
        <defs id="defs10">
          <clipPath clipPathUnits="userSpaceOnUse" id="clipPath26">
            <path d="M730 128 L914 128 L914 176 L730 176 L730 128 Z" />
          </clipPath>
          <clipPath clipPathUnits="userSpaceOnUse" id="clipPath27">
            <path d="M0 0 L57 0 L57 17 L0 17 L0 0 Z" />
          </clipPath>
          <clipPath clipPathUnits="userSpaceOnUse" id="clipPath28">
            <path d="M0 0 L182 0 L182 17 L0 17 L0 0 Z" />
          </clipPath>
        </defs>
        <g style="fill:white; font-size:11; stroke:white;" transform="translate(5,5)">
          <rect x="730" y="128" width="184" style="clip-path:url(#clipPath26); stroke:none;" height="48" />
          <rect x="730" y="128" width="183" style="clip-path:url(#clipPath26); fill:none; stroke:black;" height="47" />
          <text x="3" y="11" transform="translate(793,135)" style="clip-path:url(#clipPath27); fill:black; stroke:none;" xml:space="preserve">interface</text>
        </g>
        <g style="font-style:italic; font-size:11; font-weight:bold;" transform="translate(736,160)">
          <text x="5" y="11" style="clip-path:url(#clipPath28); stroke:none;" xml:space="preserve">VCLSchemaCompileVisitor</text>
        </g>
      </g>
    </a>
    <a onclick="onClick(evt, &apos;../../../../../../../nexd/de/xplib/nexd/api/vcl/VCLAttr.html&apos;)">
      <g>
        <defs id="defs11">
          <clipPath clipPathUnits="userSpaceOnUse" id="clipPath29">
            <path d="M392 175 L455 175 L455 223 L392 223 L392 175 Z" />
          </clipPath>
          <clipPath clipPathUnits="userSpaceOnUse" id="clipPath30">
            <path d="M0 0 L57 0 L57 17 L0 17 L0 0 Z" />
          </clipPath>
          <clipPath clipPathUnits="userSpaceOnUse" id="clipPath31">
            <path d="M0 0 L61 0 L61 17 L0 17 L0 0 Z" />
          </clipPath>
        </defs>
        <g style="fill:white; font-size:11; stroke:white;" transform="translate(5,5)">
          <rect x="392" y="175" width="63" style="clip-path:url(#clipPath29); stroke:none;" height="48" />
          <rect x="392" y="175" width="62" style="clip-path:url(#clipPath29); fill:none; stroke:black;" height="47" />
          <text x="3" y="11" transform="translate(395,182)" style="clip-path:url(#clipPath30); fill:black; stroke:none;" xml:space="preserve">interface</text>
        </g>
        <g style="font-style:italic; font-size:11; font-weight:bold;" transform="translate(398,207)">
          <text x="5" y="11" style="clip-path:url(#clipPath31); stroke:none;" xml:space="preserve">VCLAttr</text>
        </g>
      </g>
    </a>
    <a onclick="onClick(evt, &apos;../../../../../../../nexd/de/xplib/nexd/api/vcl/VariableExistsException.html&apos;)">
      <g>
        <defs id="defs12">
          <clipPath clipPathUnits="userSpaceOnUse" id="clipPath32">
            <path d="M227 330 L391 330 L391 375 L227 375 L227 330 Z" />
          </clipPath>
          <clipPath clipPathUnits="userSpaceOnUse" id="clipPath33">
            <path d="M0 0 L59 0 L59 17 L0 17 L0 0 Z" />
          </clipPath>
          <clipPath clipPathUnits="userSpaceOnUse" id="clipPath34">
            <path d="M0 0 L162 0 L162 17 L0 17 L0 0 Z" />
          </clipPath>
        </defs>
        <g style="fill:white; font-size:11; stroke:white;" transform="translate(5,5)">
          <rect x="227" y="330" width="164" style="clip-path:url(#clipPath32); stroke:none;" height="45" />
          <rect x="227" y="330" width="163" style="clip-path:url(#clipPath32); fill:none; stroke:black;" height="44" />
          <text x="0" y="11" transform="translate(328,334)" style="clip-path:url(#clipPath33); fill:black; stroke:none;" xml:space="preserve">Exception</text>
          <text x="5" y="11" transform="translate(228,354)" style="clip-path:url(#clipPath34); fill:black; stroke:none; font-weight:bold;" xml:space="preserve">VariableExistsException</text>
        </g>
      </g>
    </a>
    <a onclick="onClick(evt, &apos;../../../../../../../nexd/de/xplib/nexd/api/vcl/VCLVariable.html&apos;)">
      <g>
        <defs id="defs13">
          <clipPath clipPathUnits="userSpaceOnUse" id="clipPath35">
            <path d="M68 175 L159 175 L159 223 L68 223 L68 175 Z" />
          </clipPath>
          <clipPath clipPathUnits="userSpaceOnUse" id="clipPath36">
            <path d="M0 0 L57 0 L57 17 L0 17 L0 0 Z" />
          </clipPath>
          <clipPath clipPathUnits="userSpaceOnUse" id="clipPath37">
            <path d="M0 0 L89 0 L89 17 L0 17 L0 0 Z" />
          </clipPath>
        </defs>
        <g style="fill:white; font-size:11; stroke:white;" transform="translate(5,5)">
          <rect x="68" y="175" width="91" style="clip-path:url(#clipPath35); stroke:none;" height="48" />
          <rect x="68" y="175" width="90" style="clip-path:url(#clipPath35); fill:none; stroke:black;" height="47" />
          <text x="3" y="11" transform="translate(85,182)" style="clip-path:url(#clipPath36); fill:black; stroke:none;" xml:space="preserve">interface</text>
        </g>
        <g style="font-style:italic; font-size:11; font-weight:bold;" transform="translate(74,207)">
          <text x="5" y="11" style="clip-path:url(#clipPath37); stroke:none;" xml:space="preserve">VCLVariable</text>
        </g>
      </g>
    </a>
    <a onclick="onClick(evt, &apos;../../../../../../../nexd/de/xplib/nexd/api/vcl/VCLSchema.html&apos;)">
      <g>
        <defs id="defs14">
          <clipPath clipPathUnits="userSpaceOnUse" id="clipPath38">
            <path d="M10 10 L102 10 L102 75 L10 75 L10 10 Z" />
          </clipPath>
          <clipPath clipPathUnits="userSpaceOnUse" id="clipPath39">
            <path d="M0 0 L84 0 L84 17 L0 17 L0 0 Z" />
          </clipPath>
          <clipPath clipPathUnits="userSpaceOnUse" id="clipPath40">
            <path d="M0 0 L57 0 L57 17 L0 17 L0 0 Z" />
          </clipPath>
          <clipPath clipPathUnits="userSpaceOnUse" id="clipPath41">
            <path d="M0 0 L88 0 L88 17 L0 17 L0 0 Z" />
          </clipPath>
        </defs>
        <g style="fill:white; font-size:11; stroke:white;" transform="translate(5,5)">
          <rect x="10" y="10" width="92" style="clip-path:url(#clipPath38); stroke:none;" height="65" />
          <rect x="10" y="10" width="91" style="clip-path:url(#clipPath38); fill:none; stroke:black;" height="64" />
          <text x="0" y="11" transform="translate(14,14)" style="clip-path:url(#clipPath39); fill:black; stroke:none;" xml:space="preserve">XMLResource</text>
          <text x="3" y="11" transform="translate(27,34)" style="clip-path:url(#clipPath40); fill:black; stroke:none;" xml:space="preserve">interface</text>
        </g>
        <g style="font-style:italic; font-size:11; font-weight:bold;" transform="translate(17,59)">
          <text x="5" y="11" style="clip-path:url(#clipPath41); stroke:none;" xml:space="preserve">VCLSchema</text>
        </g>
      </g>
    </a>
    <a onclick="onClick(evt, &apos;../../../../../../../nexd/de/xplib/nexd/api/vcl/AbstractVCLParser.html&apos;)">
      <g>
        <defs id="defs15">
          <clipPath clipPathUnits="userSpaceOnUse" id="clipPath42">
            <path d="M753 247 L885 247 L885 292 L753 292 L753 247 Z" />
          </clipPath>
          <clipPath clipPathUnits="userSpaceOnUse" id="clipPath43">
            <path d="M0 0 L88 0 L88 17 L0 17 L0 0 Z" />
          </clipPath>
          <clipPath clipPathUnits="userSpaceOnUse" id="clipPath44">
            <path d="M0 0 L130 0 L130 17 L0 17 L0 0 Z" />
          </clipPath>
        </defs>
        <g style="fill:white; font-size:11; stroke:white;" transform="translate(5,5)">
          <rect x="753" y="247" width="132" style="clip-path:url(#clipPath42); stroke:none;" height="45" />
          <rect x="753" y="247" width="131" style="clip-path:url(#clipPath42); fill:none; stroke:black;" height="44" />
          <text x="0" y="11" transform="translate(793,251)" style="clip-path:url(#clipPath43); fill:black; stroke:none;" xml:space="preserve">DefaultHandler</text>
        </g>
        <g style="font-style:italic; font-size:11; font-weight:bold;" transform="translate(759,276)">
          <text x="5" y="11" style="clip-path:url(#clipPath44); stroke:none;" xml:space="preserve">AbstractVCLParser</text>
        </g>
      </g>
    </a>
    <a onclick="onClick(evt, &apos;../../../../../../../nexd/de/xplib/nexd/api/vcl/VCLPreCompiler.html&apos;)">
      <g>
        <defs id="defs16">
          <clipPath clipPathUnits="userSpaceOnUse" id="clipPath45">
            <path d="M531 138 L650 138 L650 166 L531 166 L531 138 Z" />
          </clipPath>
          <clipPath clipPathUnits="userSpaceOnUse" id="clipPath46">
            <path d="M0 0 L117 0 L117 17 L0 17 L0 0 Z" />
          </clipPath>
        </defs>
        <g style="fill:white; font-size:11; stroke:white;" transform="translate(5,5)">
          <rect x="531" y="138" width="119" style="clip-path:url(#clipPath45); stroke:none;" height="28" />
          <rect x="531" y="138" width="118" style="clip-path:url(#clipPath45); fill:none; stroke:black;" height="27" />
          <text x="5" y="11" transform="translate(532,145)" style="clip-path:url(#clipPath46); fill:black; stroke:none; font-weight:bold;" xml:space="preserve">VCLPreCompiler</text>
        </g>
      </g>
    </a>
    <a onclick="onClick(evt, &apos;../../../../../../../nexd/de/xplib/nexd/api/vcl/InvalidVCLSchemaException.html&apos;)">
      <g>
        <defs id="defs17">
          <clipPath clipPathUnits="userSpaceOnUse" id="clipPath47">
            <path d="M10 410 L204 410 L204 455 L10 455 L10 410 Z" />
          </clipPath>
          <clipPath clipPathUnits="userSpaceOnUse" id="clipPath48">
            <path d="M0 0 L59 0 L59 17 L0 17 L0 0 Z" />
          </clipPath>
          <clipPath clipPathUnits="userSpaceOnUse" id="clipPath49">
            <path d="M0 0 L192 0 L192 17 L0 17 L0 0 Z" />
          </clipPath>
        </defs>
        <g style="fill:white; font-size:11; stroke:white;" transform="translate(5,5)">
          <rect x="10" y="410" width="194" style="clip-path:url(#clipPath47); stroke:none;" height="45" />
          <rect x="10" y="410" width="193" style="clip-path:url(#clipPath47); fill:none; stroke:black;" height="44" />
          <text x="0" y="11" transform="translate(141,414)" style="clip-path:url(#clipPath48); fill:black; stroke:none;" xml:space="preserve">Exception</text>
          <text x="5" y="11" transform="translate(11,434)" style="clip-path:url(#clipPath49); fill:black; stroke:none; font-weight:bold;" xml:space="preserve">InvalidVCLSchemaException</text>
        </g>
      </g>
    </a>
    <g style="fill:rgb(0,0,127); font-size:11; stroke:rgb(0,0,127);" transform="translate(5,5)">
      <path d="M306 66 L306 145 L423 145 L423 175" style="fill:none; clip-path:url(#clipPath50);" />
      <polygon style="clip-path:url(#clipPath51); stroke:none;" points=" 305 86 310 76 305 66 300 76 305 86" />
      <polygon style="fill:none; clip-path:url(#clipPath51);" points=" 305 86 310 76 305 66 300 76 305 86" />
      <polygon style="clip-path:url(#clipPath52); stroke:none;" points=" 423 174 428 164 423 174 418 164 423 174" />
      <polygon style="fill:none; clip-path:url(#clipPath52);" points=" 423 174 428 164 423 174 418 164 423 174" />
      <text x="2" y="13" transform="translate(362,148)" style="clip-path:url(#clipPath53); stroke:none;" xml:space="preserve"></text>
      <text x="0" y="11" transform="translate(374,148)" style="clip-path:url(#clipPath54); stroke:none;" xml:space="preserve"></text>
      <text x="0" y="11" transform="translate(309,69)" style="clip-path:url(#clipPath55); stroke:none;" xml:space="preserve">1</text>
      <text x="0" y="11" transform="translate(302,79)" style="clip-path:url(#clipPath54); stroke:none;" xml:space="preserve"></text>
      <text x="0" y="11" transform="translate(426,148)" style="clip-path:url(#clipPath56); stroke:none;" xml:space="preserve">0..*</text>
      <text x="0" y="11" transform="translate(386,148)" style="clip-path:url(#clipPath57); stroke:none;" xml:space="preserve">attrs</text>
      <path d="M275 66 L275 175" style="fill:none; clip-path:url(#clipPath58); stroke:black;" />
      <polygon style="fill:white; clip-path:url(#clipPath59); stroke:none;" points=" 275 174 267 158 283 158" />
      <polygon style="fill:none; clip-path:url(#clipPath59); stroke:black;" points=" 275 174 267 158 283 158" />
      <path d="M228 66 L228 118 L113 118 L113 175" style="fill:none; clip-path:url(#clipPath60);" />
      <polygon style="clip-path:url(#clipPath61); stroke:none;" points=" 228 86 233 76 228 66 223 76 228 86" />
      <polygon style="fill:none; clip-path:url(#clipPath61);" points=" 228 86 233 76 228 66 223 76 228 86" />
      <polygon style="clip-path:url(#clipPath62); stroke:none;" points=" 113 174 118 164 113 174 108 164 113 174" />
      <polygon style="fill:none; clip-path:url(#clipPath62);" points=" 113 174 118 164 113 174 108 164 113 174" />
      <text x="2" y="13" transform="translate(168,121)" style="clip-path:url(#clipPath53); stroke:none;" xml:space="preserve"></text>
      <text x="0" y="11" transform="translate(160,121)" style="clip-path:url(#clipPath54); stroke:none;" xml:space="preserve"></text>
      <text x="0" y="11" transform="translate(231,69)" style="clip-path:url(#clipPath55); stroke:none;" xml:space="preserve">1</text>
      <text x="0" y="11" transform="translate(224,79)" style="clip-path:url(#clipPath54); stroke:none;" xml:space="preserve"></text>
      <text x="0" y="11" transform="translate(116,148)" style="clip-path:url(#clipPath56); stroke:none;" xml:space="preserve">0..*</text>
      <text x="0" y="11" transform="translate(84,138)" style="clip-path:url(#clipPath63); stroke:none;" xml:space="preserve">vars</text>
      <path d="M348 62 L377 62 L377 95 L344 95 L344 66" style="fill:none; clip-path:url(#clipPath64);" />
      <polygon style="clip-path:url(#clipPath65); stroke:none;" points=" 368 62 358 57 348 62 358 67 368 62" />
      <polygon style="fill:none; clip-path:url(#clipPath65);" points=" 368 62 358 57 348 62 358 67 368 62" />
      <polygon style="clip-path:url(#clipPath66); stroke:none;" points=" 344 66 339 76 344 66 349 76 344 66" />
      <polygon style="fill:none; clip-path:url(#clipPath66);" points=" 344 66 339 76 344 66 349 76 344 66" />
      <text x="2" y="13" transform="translate(358,98)" style="clip-path:url(#clipPath53); stroke:none;" xml:space="preserve"></text>
      <text x="0" y="11" transform="translate(350,98)" style="clip-path:url(#clipPath54); stroke:none;" xml:space="preserve"></text>
      <text x="0" y="11" transform="translate(380,45)" style="clip-path:url(#clipPath67); stroke:none;" xml:space="preserve">0..1</text>
      <text x="0" y="11" transform="translate(373,65)" style="clip-path:url(#clipPath54); stroke:none;" xml:space="preserve"></text>
      <text x="0" y="11" transform="translate(347,69)" style="clip-path:url(#clipPath56); stroke:none;" xml:space="preserve">0..*</text>
      <text x="0" y="11" transform="translate(364,98)" style="clip-path:url(#clipPath68); stroke:none;" xml:space="preserve">collRefs</text>
      <path d="M56 75 L56 141 L257 141 L257 175" style="fill:none; clip-path:url(#clipPath69); stroke:black;" />
      <polygon style="fill:white; clip-path:url(#clipPath70); stroke:none;" points=" 257 174 249 158 265 158" />
      <polygon style="fill:none; clip-path:url(#clipPath70); stroke:black;" points=" 257 174 249 158 265 158" />
      <path d="M650 152 L730 152" style="fill:none; clip-path:url(#clipPath71); stroke:blue;" />
      <polygon style="fill:blue; clip-path:url(#clipPath72); stroke:none;" points=" 729 152 719 147 729 152 719 157 729 152" />
      <polygon style="fill:none; clip-path:url(#clipPath72); stroke:blue;" points=" 729 152 719 147 729 152 719 157 729 152" />
      <text x="2" y="13" transform="translate(708,155)" style="clip-path:url(#clipPath53); fill:blue; stroke:none;" xml:space="preserve"></text>
      <text x="0" y="11" transform="translate(720,155)" style="clip-path:url(#clipPath54); fill:blue; stroke:none;" xml:space="preserve"></text>
      <text x="0" y="11" transform="translate(660,132)" style="clip-path:url(#clipPath54); fill:blue; stroke:none;" xml:space="preserve"></text>
      <text x="0" y="11" transform="translate(670,155)" style="clip-path:url(#clipPath73); fill:blue; stroke:none;" xml:space="preserve">visitor</text>
      <text x="0" y="11" transform="translate(712,132)" style="clip-path:url(#clipPath55); fill:blue; stroke:none;" xml:space="preserve">1</text>
      <text x="0" y="11" transform="translate(699,175)" style="clip-path:url(#clipPath54); fill:blue; stroke:none;" xml:space="preserve"></text>
      <path d="M821 128 L821 58" style="fill:none; clip-path:url(#clipPath74); stroke:black;" />
      <polygon style="fill:white; clip-path:url(#clipPath75); stroke:none;" points=" 821 58 829 74 813 74" />
      <polygon style="fill:none; clip-path:url(#clipPath75); stroke:black;" points=" 821 58 829 74 813 74" />
      <path d="M348 37 L467 37" style="fill:none; clip-path:url(#clipPath76);" />
      <polygon style="clip-path:url(#clipPath77); stroke:none;" points=" 368 37 358 32 348 37 358 42 368 37" />
      <polygon style="fill:none; clip-path:url(#clipPath77);" points=" 368 37 358 32 348 37 358 42 368 37" />
      <polygon style="clip-path:url(#clipPath78); stroke:none;" points=" 466 37 456 32 466 37 456 42 466 37" />
      <polygon style="fill:none; clip-path:url(#clipPath78);" points=" 466 37 456 32 466 37 456 42 466 37" />
      <text x="2" y="13" transform="translate(405,40)" style="clip-path:url(#clipPath53); stroke:none;" xml:space="preserve"></text>
      <text x="0" y="11" transform="translate(417,40)" style="clip-path:url(#clipPath54); stroke:none;" xml:space="preserve"></text>
      <text x="0" y="11" transform="translate(358,17)" style="clip-path:url(#clipPath55); stroke:none;" xml:space="preserve">1</text>
      <text x="0" y="11" transform="translate(368,40)" style="clip-path:url(#clipPath54); stroke:none;" xml:space="preserve"></text>
      <text x="0" y="11" transform="translate(436,17)" style="clip-path:url(#clipPath56); stroke:none;" xml:space="preserve">0..*</text>
      <text x="0" y="11" transform="translate(394,70)" style="clip-path:url(#clipPath79); stroke:none;" xml:space="preserve">valueOfs</text>
      <path d="M511 66 L511 125 L293 125 L293 175" style="fill:none; clip-path:url(#clipPath80); stroke:black;" />
      <polygon style="fill:white; clip-path:url(#clipPath81); stroke:none;" points=" 293 174 285 158 301 158" />
      <polygon style="fill:none; clip-path:url(#clipPath81); stroke:black;" points=" 293 174 285 158 301 158" />
      <path d="M102 42 L182 42" style="fill:none; clip-path:url(#clipPath82);" />
      <polygon style="clip-path:url(#clipPath83); stroke:none;" points=" 122 42 112 37 102 42 112 47 122 42" />
      <polygon style="fill:none; clip-path:url(#clipPath83);" points=" 122 42 112 37 102 42 112 47 122 42" />
      <polygon style="clip-path:url(#clipPath84); stroke:none;" points=" 181 42 171 37 181 42 171 47 181 42" />
      <polygon style="fill:none; clip-path:url(#clipPath84);" points=" 181 42 171 37 181 42 171 47 181 42" />
      <text x="2" y="13" transform="translate(140,45)" style="clip-path:url(#clipPath53); stroke:none;" xml:space="preserve"></text>
      <text x="0" y="11" transform="translate(152,45)" style="clip-path:url(#clipPath54); stroke:none;" xml:space="preserve"></text>
      <text x="0" y="11" transform="translate(112,22)" style="clip-path:url(#clipPath67); stroke:none;" xml:space="preserve">0..1</text>
      <text x="0" y="11" transform="translate(122,45)" style="clip-path:url(#clipPath54); stroke:none;" xml:space="preserve"></text>
      <text x="0" y="11" transform="translate(164,22)" style="clip-path:url(#clipPath55); stroke:none;" xml:space="preserve">1</text>
      <text x="0" y="11" transform="translate(161,45)" style="clip-path:url(#clipPath54); stroke:none;" xml:space="preserve"></text>
      <path d="M392 199 L312 199" style="fill:none; clip-path:url(#clipPath85); stroke:black;" />
      <polygon style="fill:white; clip-path:url(#clipPath86); stroke:none;" points=" 312 199 328 191 328 207" />
      <polygon style="fill:none; clip-path:url(#clipPath86); stroke:black;" points=" 312 199 328 191 328 207" />
      <path d="M753 277 L633 277" style="fill:none; clip-path:url(#clipPath87);" />
      <polygon style="fill:white; clip-path:url(#clipPath88); stroke:none;" points=" 732 277 742 282 752 277 742 272 732 277" />
      <polygon style="fill:none; clip-path:url(#clipPath88);" points=" 732 277 742 282 752 277 742 272 732 277" />
      <polygon style="clip-path:url(#clipPath89); stroke:none;" points=" 633 277 643 282 633 277 643 272 633 277" />
      <polygon style="fill:none; clip-path:url(#clipPath89);" points=" 633 277 643 282 633 277 643 272 633 277" />
      <text x="2" y="13" transform="translate(643,300)" style="clip-path:url(#clipPath90); stroke:none;" xml:space="preserve">creates instance</text>
      <text x="0" y="11" transform="translate(693,330)" style="clip-path:url(#clipPath54); stroke:none;" xml:space="preserve"></text>
      <text x="0" y="11" transform="translate(735,257)" style="clip-path:url(#clipPath55); stroke:none;" xml:space="preserve">1</text>
      <text x="0" y="11" transform="translate(732,280)" style="clip-path:url(#clipPath54); stroke:none;" xml:space="preserve"></text>
      <text x="0" y="11" transform="translate(643,257)" style="clip-path:url(#clipPath67); stroke:none;" xml:space="preserve">0..1</text>
      <text x="0" y="11" transform="translate(653,280)" style="clip-path:url(#clipPath54); stroke:none;" xml:space="preserve"></text>
    </g>
    <g transform="translate(5,5)" style="font-size:11; stroke-linecap:butt; fill:rgb(0,127,0); stroke-dasharray:18,6; stroke:rgb(0,127,0);">
      <path d="M753 262 L633 262" style="fill:none; clip-path:url(#clipPath91);" />
      <polygon points=" 633 262 649 254 649 270" style="stroke-dasharray:none; clip-path:url(#clipPath92); stroke-linecap:square; stroke:none;" />
      <polygon points=" 633 262 649 254 649 270" style="fill:none; stroke-dasharray:none; clip-path:url(#clipPath92); stroke-linecap:square;" />
    </g>
    <g style="fill:blue; font-size:11; stroke:blue;" transform="translate(5,5)">
      <path d="M591 166 L591 246" style="fill:none; clip-path:url(#clipPath93);" />
      <polygon style="clip-path:url(#clipPath94); stroke:none;" points=" 591 245 596 235 591 245 586 235 591 245" />
      <polygon style="fill:none; clip-path:url(#clipPath94);" points=" 591 245 596 235 591 245 586 235 591 245" />
      <text x="2" y="13" transform="translate(583,206)" style="clip-path:url(#clipPath53); stroke:none;" xml:space="preserve"></text>
      <text x="0" y="11" transform="translate(587,228)" style="clip-path:url(#clipPath54); stroke:none;" xml:space="preserve"></text>
      <text x="0" y="11" transform="translate(594,169)" style="clip-path:url(#clipPath54); stroke:none;" xml:space="preserve"></text>
      <text x="0" y="11" transform="translate(551,179)" style="clip-path:url(#clipPath95); stroke:none;" xml:space="preserve">parser</text>
      <text x="0" y="11" transform="translate(594,219)" style="clip-path:url(#clipPath55); stroke:none;" xml:space="preserve">1</text>
      <text x="0" y="11" transform="translate(570,219)" style="clip-path:url(#clipPath54); stroke:none;" xml:space="preserve"></text>
      <path d="M159 199 L239 199" style="fill:none; clip-path:url(#clipPath96); stroke:black;" />
      <polygon style="fill:white; clip-path:url(#clipPath97); stroke:none;" points=" 238 199 222 207 222 191" />
      <polygon style="fill:none; clip-path:url(#clipPath97); stroke:black;" points=" 238 199 222 207 222 191" />
    </g>
    <g>
      <script lang="text/ecmascript">
        <![CDATA[
    function onClick(evt, href) {
        navigateTo(href);
        evt.stopPropagation();
    }]]>
      </script>
    </g>
  </g>
</svg>
