<?xml version="1.0" encoding="UTF-8"?>

<!DOCTYPE svg PUBLIC '-//W3C//DTD SVG 1.0//EN' 'http://www.w3.org/TR/2001/REC-SVG-20010904/DTD/svg10.dtd'>
<svg style="fill-opacity:1; color-rendering:auto; color-interpolation:auto; text-rendering:auto; stroke:black; stroke-linecap:square; stroke-miterlimit:10; shape-rendering:auto; stroke-opacity:1; fill:black; stroke-dasharray:none; font-weight:normal; stroke-width:1; font-family:&apos;Dialog&apos;; font-style:normal; stroke-linejoin:miter; font-size:12; stroke-dashoffset:0; image-rendering:auto;" xmlns="http://www.w3.org/2000/svg" width="446" xmlns:xlink="http://www.w3.org/1999/xlink" height="200">
  <!--Generated by Selena using Batik-->
  <defs id="genericDefs" />
  <g>
    <defs id="defs1">
      <clipPath clipPathUnits="userSpaceOnUse" id="clipPath1">
        <path d="M0 0 L12000 0 L12000 12000 L0 12000 L0 0 Z" />
      </clipPath>
      <clipPath clipPathUnits="userSpaceOnUse" id="clipPath12">
        <path d="M184 12 L265 12 L265 82 L184 82 L184 12 Z" />
      </clipPath>
      <clipPath clipPathUnits="userSpaceOnUse" id="clipPath13">
        <path d="M253 27 L264 27 L264 38 L253 38 L253 27 Z" />
      </clipPath>
      <clipPath clipPathUnits="userSpaceOnUse" id="clipPath14">
        <path d="M0 0 L33 0 L33 21 L0 21 L0 0 Z" />
      </clipPath>
      <clipPath clipPathUnits="userSpaceOnUse" id="clipPath15">
        <path d="M0 0 L1 0 L1 17 L0 17 L0 0 Z" />
      </clipPath>
      <clipPath clipPathUnits="userSpaceOnUse" id="clipPath16">
        <path d="M4 47 L132 47 L132 126 L4 126 L4 47 Z" />
      </clipPath>
      <clipPath clipPathUnits="userSpaceOnUse" id="clipPath17">
        <path d="M103 104 L114 104 L114 125 L103 125 L103 104 Z" />
      </clipPath>
      <clipPath clipPathUnits="userSpaceOnUse" id="clipPath18">
        <path d="M103 55 L114 55 L114 66 L103 66 L103 55 Z" />
      </clipPath>
      <clipPath clipPathUnits="userSpaceOnUse" id="clipPath19">
        <path d="M0 0 L101 0 L101 21 L0 21 L0 0 Z" />
      </clipPath>
      <clipPath clipPathUnits="userSpaceOnUse" id="clipPath20">
        <path d="M0 0 L8 0 L8 17 L0 17 L0 0 Z" />
      </clipPath>
      <clipPath clipPathUnits="userSpaceOnUse" id="clipPath21">
        <path d="M0 0 L21 0 L21 17 L0 17 L0 0 Z" />
      </clipPath>
    </defs>
    <g style="fill:white; stroke:white;">
      <rect x="0" y="0" width="446" style="clip-path:url(#clipPath1); stroke:none;" height="200" />
      <rect x="0" y="0" width="445" style="clip-path:url(#clipPath1); fill:none; stroke:blue;" height="199" />
    </g>
    <a onclick="onClick(evt, &apos;../../../../../../../../nexd/de/xplib/nexd/engine/xml/jaxp/DocumentBuilderHandler.html&apos;)">
      <g>
        <defs id="defs2">
          <clipPath clipPathUnits="userSpaceOnUse" id="clipPath2">
            <path d="M264 10 L436 10 L436 55 L264 55 L264 10 Z" />
          </clipPath>
          <clipPath clipPathUnits="userSpaceOnUse" id="clipPath3">
            <path d="M0 0 L95 0 L95 17 L0 17 L0 0 Z" />
          </clipPath>
          <clipPath clipPathUnits="userSpaceOnUse" id="clipPath4">
            <path d="M0 0 L170 0 L170 17 L0 17 L0 0 Z" />
          </clipPath>
        </defs>
        <g style="fill:white; font-size:11; stroke:white;" transform="translate(5,5)">
          <rect x="264" y="10" width="172" style="clip-path:url(#clipPath2); stroke:none;" height="45" />
          <rect x="264" y="10" width="171" style="clip-path:url(#clipPath2); fill:none; stroke:black;" height="44" />
          <text x="0" y="11" transform="translate(337,14)" style="clip-path:url(#clipPath3); fill:black; stroke:none;" xml:space="preserve">DefaultHandler2</text>
          <text x="5" y="11" transform="translate(265,34)" style="clip-path:url(#clipPath4); fill:black; stroke:none; font-weight:bold;" xml:space="preserve">DocumentBuilderHandler</text>
        </g>
      </g>
    </a>
    <a onclick="onClick(evt, &apos;../../../../../../../../nexd/de/xplib/nexd/engine/xml/jaxp/DocumentBuilderFactoryImpl.html&apos;)">
      <g>
        <defs id="defs3">
          <clipPath clipPathUnits="userSpaceOnUse" id="clipPath5">
            <path d="M10 125 L207 125 L207 190 L10 190 L10 125 Z" />
          </clipPath>
          <clipPath clipPathUnits="userSpaceOnUse" id="clipPath6">
            <path d="M0 0 L145 0 L145 17 L0 17 L0 0 Z" />
          </clipPath>
          <clipPath clipPathUnits="userSpaceOnUse" id="clipPath7">
            <path d="M0 0 L77 0 L77 17 L0 17 L0 0 Z" />
          </clipPath>
          <clipPath clipPathUnits="userSpaceOnUse" id="clipPath8">
            <path d="M0 0 L195 0 L195 17 L0 17 L0 0 Z" />
          </clipPath>
        </defs>
        <g style="fill:white; font-size:11; stroke:white;" transform="translate(5,5)">
          <rect x="10" y="125" width="197" style="clip-path:url(#clipPath5); stroke:none;" height="65" />
          <rect x="10" y="125" width="196" style="clip-path:url(#clipPath5); fill:none; stroke:black;" height="64" />
          <text x="0" y="11" transform="translate(58,129)" style="clip-path:url(#clipPath6); fill:black; stroke:none;" xml:space="preserve">DocumentBuilderFactory</text>
          <text x="0" y="11" transform="translate(70,149)" style="clip-path:url(#clipPath7); fill:black; stroke:none;" xml:space="preserve">&lt;&lt;Factory&gt;&gt;</text>
          <text x="5" y="11" transform="translate(11,169)" style="clip-path:url(#clipPath8); fill:black; stroke:none; font-weight:bold;" xml:space="preserve">DocumentBuilderFactoryImpl</text>
        </g>
      </g>
    </a>
    <a onclick="onClick(evt, &apos;../../../../../../../../nexd/de/xplib/nexd/engine/xml/jaxp/DocumentBuilderImpl.html&apos;)">
      <g>
        <defs id="defs4">
          <clipPath clipPathUnits="userSpaceOnUse" id="clipPath9">
            <path d="M33 10 L184 10 L184 55 L33 55 L33 10 Z" />
          </clipPath>
          <clipPath clipPathUnits="userSpaceOnUse" id="clipPath10">
            <path d="M0 0 L101 0 L101 17 L0 17 L0 0 Z" />
          </clipPath>
          <clipPath clipPathUnits="userSpaceOnUse" id="clipPath11">
            <path d="M0 0 L149 0 L149 17 L0 17 L0 0 Z" />
          </clipPath>
        </defs>
        <g style="fill:white; font-size:11; stroke:white;" transform="translate(5,5)">
          <rect x="33" y="10" width="151" style="clip-path:url(#clipPath9); stroke:none;" height="45" />
          <rect x="33" y="10" width="150" style="clip-path:url(#clipPath9); fill:none; stroke:black;" height="44" />
          <text x="0" y="11" transform="translate(79,14)" style="clip-path:url(#clipPath10); fill:black; stroke:none;" xml:space="preserve">DocumentBuilder</text>
          <text x="5" y="11" transform="translate(34,34)" style="clip-path:url(#clipPath11); fill:black; stroke:none; font-weight:bold;" xml:space="preserve">DocumentBuilderImpl</text>
        </g>
      </g>
    </a>
    <g style="font-size:11; stroke-dasharray:18,6; stroke-linecap:butt;" transform="translate(5,5)">
      <path d="M184 32 L264 32" style="fill:none; clip-path:url(#clipPath12);" />
      <polygon points=" 263 32 253 27 263 32 253 37 263 32" style="stroke-dasharray:none; clip-path:url(#clipPath13); stroke-linecap:square; stroke:none;" />
      <polygon points=" 263 32 253 27 263 32 253 37 263 32" style="fill:none; stroke-dasharray:none; clip-path:url(#clipPath13); stroke-linecap:square;" />
      <text x="2" y="13" transform="translate(218,35)" style="stroke-linecap:square; clip-path:url(#clipPath14); stroke-dasharray:none; stroke:none;" xml:space="preserve">uses</text>
      <text x="0" y="11" transform="translate(254,35)" style="stroke-linecap:square; clip-path:url(#clipPath15); stroke-dasharray:none; stroke:none;" xml:space="preserve"></text>
      <text x="0" y="11" transform="translate(194,12)" style="stroke-linecap:square; clip-path:url(#clipPath15); stroke-dasharray:none; stroke:none;" xml:space="preserve"></text>
      <text x="0" y="11" transform="translate(204,35)" style="stroke-linecap:square; clip-path:url(#clipPath15); stroke-dasharray:none; stroke:none;" xml:space="preserve"></text>
      <text x="0" y="11" transform="translate(214,35)" style="stroke-linecap:square; clip-path:url(#clipPath15); stroke-dasharray:none; stroke:none;" xml:space="preserve"></text>
      <text x="0" y="11" transform="translate(253,12)" style="stroke-linecap:square; clip-path:url(#clipPath15); stroke-dasharray:none; stroke:none;" xml:space="preserve"></text>
      <text x="0" y="11" transform="translate(243,65)" style="stroke-linecap:square; clip-path:url(#clipPath15); stroke-dasharray:none; stroke:none;" xml:space="preserve"></text>
      <text x="0" y="11" transform="translate(233,65)" style="stroke-linecap:square; clip-path:url(#clipPath15); stroke-dasharray:none; stroke:none;" xml:space="preserve"></text>
    </g>
    <g style="fill:rgb(0,0,127); font-size:11; stroke:rgb(0,0,127);" transform="translate(5,5)">
      <path d="M108 125 L108 55" style="fill:none; clip-path:url(#clipPath16);" />
      <polygon style="fill:white; clip-path:url(#clipPath17); stroke:none;" points=" 108 104 103 114 108 124 113 114 108 104" />
      <polygon style="fill:none; clip-path:url(#clipPath17);" points=" 108 104 103 114 108 124 113 114 108 104" />
      <polygon style="clip-path:url(#clipPath18); stroke:none;" points=" 108 55 103 65 108 55 113 65 108 55" />
      <polygon style="fill:none; clip-path:url(#clipPath18);" points=" 108 55 103 65 108 55 113 65 108 55" />
      <text x="2" y="13" transform="translate(4,60)" style="clip-path:url(#clipPath19); stroke:none;" xml:space="preserve">creates instance</text>
      <text x="0" y="11" transform="translate(94,82)" style="clip-path:url(#clipPath15); stroke:none;" xml:space="preserve"></text>
      <text x="0" y="11" transform="translate(111,98)" style="clip-path:url(#clipPath20); stroke:none;" xml:space="preserve">1</text>
      <text x="0" y="11" transform="translate(104,88)" style="clip-path:url(#clipPath15); stroke:none;" xml:space="preserve"></text>
      <text x="0" y="11" transform="translate(111,58)" style="clip-path:url(#clipPath21); stroke:none;" xml:space="preserve">0..*</text>
      <text x="0" y="11" transform="translate(104,47)" style="clip-path:url(#clipPath15); stroke:none;" xml:space="preserve"></text>
    </g>
    <g>
      <script lang="text/ecmascript">
        <![CDATA[
    function onClick(evt, href) {
        navigateTo(href);
        evt.stopPropagation();
    }]]>
      </script>
    </g>
  </g>
</svg>
