<?xml version="1.0" encoding="UTF-8"?>

<!DOCTYPE svg PUBLIC '-//W3C//DTD SVG 1.0//EN' 'http://www.w3.org/TR/2001/REC-SVG-20010904/DTD/svg10.dtd'>
<svg style="fill-opacity:1; color-rendering:auto; color-interpolation:auto; text-rendering:auto; stroke:black; stroke-linecap:square; stroke-miterlimit:10; shape-rendering:auto; stroke-opacity:1; fill:black; stroke-dasharray:none; font-weight:normal; stroke-width:1; font-family:&apos;Dialog&apos;; font-style:normal; stroke-linejoin:miter; font-size:12; stroke-dashoffset:0; image-rendering:auto;" xmlns="http://www.w3.org/2000/svg" width="1049" xmlns:xlink="http://www.w3.org/1999/xlink" height="366">
  <!--Generated by Selena using Batik-->
  <defs id="genericDefs" />
  <g>
    <defs id="defs1">
      <clipPath clipPathUnits="userSpaceOnUse" id="clipPath1">
        <path d="M0 0 L12000 0 L12000 12000 L0 12000 L0 0 Z" />
      </clipPath>
      <clipPath clipPathUnits="userSpaceOnUse" id="clipPath32">
        <path d="M333 38 L350 38 L350 99 L333 99 L333 38 Z" />
      </clipPath>
      <clipPath clipPathUnits="userSpaceOnUse" id="clipPath33">
        <path d="M333 81 L350 81 L350 98 L333 98 L333 81 Z" />
      </clipPath>
      <clipPath clipPathUnits="userSpaceOnUse" id="clipPath34">
        <path d="M333 160 L350 160 L350 231 L333 231 L333 160 Z" />
      </clipPath>
      <clipPath clipPathUnits="userSpaceOnUse" id="clipPath35">
        <path d="M333 160 L350 160 L350 177 L333 177 L333 160 Z" />
      </clipPath>
      <clipPath clipPathUnits="userSpaceOnUse" id="clipPath36">
        <path d="M437 160 L454 160 L454 231 L437 231 L437 160 Z" />
      </clipPath>
      <clipPath clipPathUnits="userSpaceOnUse" id="clipPath37">
        <path d="M437 160 L454 160 L454 177 L437 177 L437 160 Z" />
      </clipPath>
      <clipPath clipPathUnits="userSpaceOnUse" id="clipPath38">
        <path d="M683 258 L700 258 L700 329 L683 329 L683 258 Z" />
      </clipPath>
      <clipPath clipPathUnits="userSpaceOnUse" id="clipPath39">
        <path d="M683 258 L700 258 L700 275 L683 275 L683 258 Z" />
      </clipPath>
      <clipPath clipPathUnits="userSpaceOnUse" id="clipPath40">
        <path d="M816 121 L897 121 L897 138 L816 138 L816 121 Z" />
      </clipPath>
      <clipPath clipPathUnits="userSpaceOnUse" id="clipPath41">
        <path d="M816 121 L833 121 L833 138 L816 138 L816 121 Z" />
      </clipPath>
      <clipPath clipPathUnits="userSpaceOnUse" id="clipPath42">
        <path d="M238 121 L319 121 L319 138 L238 138 L238 121 Z" />
      </clipPath>
      <clipPath clipPathUnits="userSpaceOnUse" id="clipPath43">
        <path d="M301 121 L318 121 L318 138 L301 138 L301 121 Z" />
      </clipPath>
      <clipPath clipPathUnits="userSpaceOnUse" id="clipPath44">
        <path d="M784 258 L801 258 L801 329 L784 329 L784 258 Z" />
      </clipPath>
      <clipPath clipPathUnits="userSpaceOnUse" id="clipPath45">
        <path d="M784 258 L801 258 L801 275 L784 275 L784 258 Z" />
      </clipPath>
      <clipPath clipPathUnits="userSpaceOnUse" id="clipPath46">
        <path d="M158 236 L239 236 L239 253 L158 253 L158 236 Z" />
      </clipPath>
      <clipPath clipPathUnits="userSpaceOnUse" id="clipPath47">
        <path d="M221 236 L238 236 L238 253 L221 253 L221 236 Z" />
      </clipPath>
      <clipPath clipPathUnits="userSpaceOnUse" id="clipPath48">
        <path d="M735 143 L752 143 L752 231 L735 231 L735 143 Z" />
      </clipPath>
      <clipPath clipPathUnits="userSpaceOnUse" id="clipPath49">
        <path d="M735 213 L752 213 L752 230 L735 230 L735 213 Z" />
      </clipPath>
      <clipPath clipPathUnits="userSpaceOnUse" id="clipPath50">
        <path d="M563 236 L653 236 L653 253 L563 253 L563 236 Z" />
      </clipPath>
      <clipPath clipPathUnits="userSpaceOnUse" id="clipPath51">
        <path d="M563 236 L580 236 L580 253 L563 253 L563 236 Z" />
      </clipPath>
      <clipPath clipPathUnits="userSpaceOnUse" id="clipPath52">
        <path d="M436 38 L453 38 L453 99 L436 99 L436 38 Z" />
      </clipPath>
      <clipPath clipPathUnits="userSpaceOnUse" id="clipPath53">
        <path d="M436 81 L453 81 L453 98 L436 98 L436 81 Z" />
      </clipPath>
    </defs>
    <g style="fill:white; stroke:white;">
      <rect x="0" y="0" width="1049" style="clip-path:url(#clipPath1); stroke:none;" height="366" />
      <rect x="0" y="0" width="1048" style="clip-path:url(#clipPath1); fill:none; stroke:blue;" height="365" />
    </g>
    <a onclick="onClick(evt, &apos;../../../../../../../../../nexd/de/xplib/nexd/engine/http/soap/xsd/AbstractResourceType.html&apos;)">
      <g>
        <defs id="defs2">
          <clipPath clipPathUnits="userSpaceOnUse" id="clipPath2">
            <path d="M409 230 L563 230 L563 258 L409 258 L409 230 Z" />
          </clipPath>
          <clipPath clipPathUnits="userSpaceOnUse" id="clipPath3">
            <path d="M0 0 L152 0 L152 17 L0 17 L0 0 Z" />
          </clipPath>
        </defs>
        <g style="fill:white; font-size:11; stroke:white;" transform="translate(5,5)">
          <rect x="409" y="230" width="154" style="clip-path:url(#clipPath2); stroke:none;" height="28" />
          <rect x="409" y="230" width="153" style="clip-path:url(#clipPath2); fill:none; stroke:black;" height="27" />
          <text x="5" y="11" transform="translate(410,237)" style="clip-path:url(#clipPath3); fill:black; stroke:none; font-weight:bold;" xml:space="preserve">AbstractResourceType</text>
        </g>
      </g>
    </a>
    <a onclick="onClick(evt, &apos;../../../../../../../../../nexd/de/xplib/nexd/engine/http/soap/xsd/SixdmlCollectionType.html&apos;)">
      <g>
        <defs id="defs3">
          <clipPath clipPathUnits="userSpaceOnUse" id="clipPath4">
            <path d="M238 230 L389 230 L389 258 L238 258 L238 230 Z" />
          </clipPath>
          <clipPath clipPathUnits="userSpaceOnUse" id="clipPath5">
            <path d="M0 0 L149 0 L149 17 L0 17 L0 0 Z" />
          </clipPath>
        </defs>
        <g style="fill:white; font-size:11; stroke:white;" transform="translate(5,5)">
          <rect x="238" y="230" width="151" style="clip-path:url(#clipPath4); stroke:none;" height="28" />
          <rect x="238" y="230" width="150" style="clip-path:url(#clipPath4); fill:none; stroke:black;" height="27" />
          <text x="5" y="11" transform="translate(239,237)" style="clip-path:url(#clipPath5); fill:black; stroke:none; font-weight:bold;" xml:space="preserve">SixdmlCollectionType</text>
        </g>
      </g>
    </a>
    <a onclick="onClick(evt, &apos;../../../../../../../../../nexd/de/xplib/nexd/engine/http/soap/xsd/DomDocumentType.html&apos;)">
      <g>
        <defs id="defs4">
          <clipPath clipPathUnits="userSpaceOnUse" id="clipPath6">
            <path d="M101 115 L238 115 L238 143 L101 143 L101 115 Z" />
          </clipPath>
          <clipPath clipPathUnits="userSpaceOnUse" id="clipPath7">
            <path d="M0 0 L135 0 L135 17 L0 17 L0 0 Z" />
          </clipPath>
        </defs>
        <g style="fill:white; font-size:11; stroke:white;" transform="translate(5,5)">
          <rect x="101" y="115" width="137" style="clip-path:url(#clipPath6); stroke:none;" height="28" />
          <rect x="101" y="115" width="136" style="clip-path:url(#clipPath6); fill:none; stroke:black;" height="27" />
          <text x="5" y="11" transform="translate(102,122)" style="clip-path:url(#clipPath7); fill:black; stroke:none; font-weight:bold;" xml:space="preserve">DomDocumentType</text>
        </g>
      </g>
    </a>
    <a onclick="onClick(evt, &apos;../../../../../../../../../nexd/de/xplib/nexd/engine/http/soap/xsd/PCVResourceType.html&apos;)">
      <g>
        <defs id="defs5">
          <clipPath clipPathUnits="userSpaceOnUse" id="clipPath8">
            <path d="M750 328 L880 328 L880 356 L750 356 L750 328 Z" />
          </clipPath>
          <clipPath clipPathUnits="userSpaceOnUse" id="clipPath9">
            <path d="M0 0 L128 0 L128 17 L0 17 L0 0 Z" />
          </clipPath>
        </defs>
        <g style="fill:white; font-size:11; stroke:white;" transform="translate(5,5)">
          <rect x="750" y="328" width="130" style="clip-path:url(#clipPath8); stroke:none;" height="28" />
          <rect x="750" y="328" width="129" style="clip-path:url(#clipPath8); fill:none; stroke:black;" height="27" />
          <text x="5" y="11" transform="translate(751,335)" style="clip-path:url(#clipPath9); fill:black; stroke:none; font-weight:bold;" xml:space="preserve">PCVResourceType</text>
        </g>
      </g>
    </a>
    <a onclick="onClick(evt, &apos;../../../../../../../../../nexd/de/xplib/nexd/engine/http/soap/xsd/DomNodeType.html&apos;)">
      <g>
        <defs id="defs6">
          <clipPath clipPathUnits="userSpaceOnUse" id="clipPath10">
            <path d="M408 10 L514 10 L514 38 L408 38 L408 10 Z" />
          </clipPath>
          <clipPath clipPathUnits="userSpaceOnUse" id="clipPath11">
            <path d="M0 0 L104 0 L104 17 L0 17 L0 0 Z" />
          </clipPath>
        </defs>
        <g style="fill:white; font-size:11; stroke:white;" transform="translate(5,5)">
          <rect x="408" y="10" width="106" style="clip-path:url(#clipPath10); stroke:none;" height="28" />
          <rect x="408" y="10" width="105" style="clip-path:url(#clipPath10); fill:none; stroke:black;" height="27" />
          <text x="5" y="11" transform="translate(409,17)" style="clip-path:url(#clipPath11); fill:black; stroke:none; font-weight:bold;" xml:space="preserve">DomNodeType</text>
        </g>
      </g>
    </a>
    <a onclick="onClick(evt, &apos;../../../../../../../../../nexd/de/xplib/nexd/engine/http/soap/xsd/AbstractXMLResourceType.html&apos;)">
      <g>
        <defs id="defs7">
          <clipPath clipPathUnits="userSpaceOnUse" id="clipPath12">
            <path d="M652 230 L834 230 L834 258 L652 258 L652 230 Z" />
          </clipPath>
          <clipPath clipPathUnits="userSpaceOnUse" id="clipPath13">
            <path d="M0 0 L180 0 L180 17 L0 17 L0 0 Z" />
          </clipPath>
        </defs>
        <g style="fill:white; font-size:11; stroke:white;" transform="translate(5,5)">
          <rect x="652" y="230" width="182" style="clip-path:url(#clipPath12); stroke:none;" height="28" />
          <rect x="652" y="230" width="181" style="clip-path:url(#clipPath12); fill:none; stroke:black;" height="27" />
          <text x="5" y="11" transform="translate(653,237)" style="clip-path:url(#clipPath13); fill:black; stroke:none; font-weight:bold;" xml:space="preserve">AbstractXMLResourceType</text>
        </g>
      </g>
    </a>
    <a onclick="onClick(evt, &apos;../../../../../../../../../nexd/de/xplib/nexd/engine/http/soap/xsd/ResourceSetType.html&apos;)">
      <g>
        <defs id="defs8">
          <clipPath clipPathUnits="userSpaceOnUse" id="clipPath14">
            <path d="M534 10 L697 10 L697 72 L534 72 L534 10 Z" />
          </clipPath>
          <clipPath clipPathUnits="userSpaceOnUse" id="clipPath15">
            <path d="M0 0 L104 0 L104 17 L0 17 L0 0 Z" />
          </clipPath>
          <clipPath clipPathUnits="userSpaceOnUse" id="clipPath16">
            <path d="M0 0 L155 0 L155 17 L0 17 L0 0 Z" />
          </clipPath>
          <clipPath clipPathUnits="userSpaceOnUse" id="clipPath17">
            <path d="M0 0 L120 0 L120 17 L0 17 L0 0 Z" />
          </clipPath>
        </defs>
        <g style="fill:white; font-size:11; stroke:white;" transform="translate(5,5)">
          <rect x="534" y="10" width="163" style="clip-path:url(#clipPath14); stroke:none;" height="62" />
          <rect x="534" y="10" width="162" style="clip-path:url(#clipPath14); fill:none; stroke:black;" height="61" />
          <text x="0" y="11" transform="translate(538,14)" style="clip-path:url(#clipPath15); fill:black; stroke:none;" xml:space="preserve">AbstractEncoding</text>
          <text x="0" y="11" transform="translate(538,31)" style="clip-path:url(#clipPath16); fill:black; font-style:italic; stroke:none;" xml:space="preserve">EncodingWrapperInterface</text>
          <text x="5" y="11" transform="translate(555,51)" style="clip-path:url(#clipPath17); fill:black; stroke:none; font-weight:bold;" xml:space="preserve">ResourceSetType</text>
        </g>
      </g>
    </a>
    <a onclick="onClick(evt, &apos;../../../../../../../../../nexd/de/xplib/nexd/engine/http/soap/xsd/VCLSchemaType.html&apos;)">
      <g>
        <defs id="defs9">
          <clipPath clipPathUnits="userSpaceOnUse" id="clipPath18">
            <path d="M610 328 L730 328 L730 356 L610 356 L610 328 Z" />
          </clipPath>
          <clipPath clipPathUnits="userSpaceOnUse" id="clipPath19">
            <path d="M0 0 L118 0 L118 17 L0 17 L0 0 Z" />
          </clipPath>
        </defs>
        <g style="fill:white; font-size:11; stroke:white;" transform="translate(5,5)">
          <rect x="610" y="328" width="120" style="clip-path:url(#clipPath18); stroke:none;" height="28" />
          <rect x="610" y="328" width="119" style="clip-path:url(#clipPath18); fill:none; stroke:black;" height="27" />
          <text x="5" y="11" transform="translate(611,335)" style="clip-path:url(#clipPath19); fill:black; stroke:none; font-weight:bold;" xml:space="preserve">VCLSchemaType</text>
        </g>
      </g>
    </a>
    <a onclick="onClick(evt, &apos;../../../../../../../../../nexd/de/xplib/nexd/engine/http/soap/xsd/VirtualCollectionType.html&apos;)">
      <g>
        <defs id="defs10">
          <clipPath clipPathUnits="userSpaceOnUse" id="clipPath20">
            <path d="M10 230 L158 230 L158 258 L10 258 L10 230 Z" />
          </clipPath>
          <clipPath clipPathUnits="userSpaceOnUse" id="clipPath21">
            <path d="M0 0 L146 0 L146 17 L0 17 L0 0 Z" />
          </clipPath>
        </defs>
        <g style="fill:white; font-size:11; stroke:white;" transform="translate(5,5)">
          <rect x="10" y="230" width="148" style="clip-path:url(#clipPath20); stroke:none;" height="28" />
          <rect x="10" y="230" width="147" style="clip-path:url(#clipPath20); fill:none; stroke:black;" height="27" />
          <text x="5" y="11" transform="translate(11,237)" style="clip-path:url(#clipPath21); fill:black; stroke:none; font-weight:bold;" xml:space="preserve">VirtualCollectionType</text>
        </g>
      </g>
    </a>
    <a onclick="onClick(evt, &apos;../../../../../../../../../nexd/de/xplib/nexd/engine/http/soap/xsd/SixdmlResourceType.html&apos;)">
      <g>
        <defs id="defs11">
          <clipPath clipPathUnits="userSpaceOnUse" id="clipPath22">
            <path d="M670 115 L816 115 L816 143 L670 143 L670 115 Z" />
          </clipPath>
          <clipPath clipPathUnits="userSpaceOnUse" id="clipPath23">
            <path d="M0 0 L144 0 L144 17 L0 17 L0 0 Z" />
          </clipPath>
        </defs>
        <g style="fill:white; font-size:11; stroke:white;" transform="translate(5,5)">
          <rect x="670" y="115" width="146" style="clip-path:url(#clipPath22); stroke:none;" height="28" />
          <rect x="670" y="115" width="145" style="clip-path:url(#clipPath22); fill:none; stroke:black;" height="27" />
          <text x="5" y="11" transform="translate(671,122)" style="clip-path:url(#clipPath23); fill:black; stroke:none; font-weight:bold;" xml:space="preserve">SixdmlResourceType</text>
        </g>
      </g>
    </a>
    <a onclick="onClick(evt, &apos;../../../../../../../../../nexd/de/xplib/nexd/engine/http/soap/xsd/VirtualResourceType.html&apos;)">
      <g>
        <defs id="defs12">
          <clipPath clipPathUnits="userSpaceOnUse" id="clipPath24">
            <path d="M896 115 L1039 115 L1039 143 L896 143 L896 115 Z" />
          </clipPath>
          <clipPath clipPathUnits="userSpaceOnUse" id="clipPath25">
            <path d="M0 0 L141 0 L141 17 L0 17 L0 0 Z" />
          </clipPath>
        </defs>
        <g style="fill:white; font-size:11; stroke:white;" transform="translate(5,5)">
          <rect x="896" y="115" width="143" style="clip-path:url(#clipPath24); stroke:none;" height="28" />
          <rect x="896" y="115" width="142" style="clip-path:url(#clipPath24); fill:none; stroke:black;" height="27" />
          <text x="5" y="11" transform="translate(897,122)" style="clip-path:url(#clipPath25); fill:black; stroke:none; font-weight:bold;" xml:space="preserve">VirtualResourceType</text>
        </g>
      </g>
    </a>
    <a onclick="onClick(evt, &apos;../../../../../../../../../nexd/de/xplib/nexd/engine/http/soap/xsd/AbstractEncoder.html&apos;)">
      <g>
        <defs id="defs13">
          <clipPath clipPathUnits="userSpaceOnUse" id="clipPath26">
            <path d="M318 98 L481 98 L481 160 L318 160 L318 98 Z" />
          </clipPath>
          <clipPath clipPathUnits="userSpaceOnUse" id="clipPath27">
            <path d="M0 0 L104 0 L104 17 L0 17 L0 0 Z" />
          </clipPath>
          <clipPath clipPathUnits="userSpaceOnUse" id="clipPath28">
            <path d="M0 0 L155 0 L155 17 L0 17 L0 0 Z" />
          </clipPath>
          <clipPath clipPathUnits="userSpaceOnUse" id="clipPath29">
            <path d="M0 0 L115 0 L115 17 L0 17 L0 0 Z" />
          </clipPath>
        </defs>
        <g style="fill:white; font-size:11; stroke:white;" transform="translate(5,5)">
          <rect x="318" y="98" width="163" style="clip-path:url(#clipPath26); stroke:none;" height="62" />
          <rect x="318" y="98" width="162" style="clip-path:url(#clipPath26); fill:none; stroke:black;" height="61" />
          <text x="0" y="11" transform="translate(322,102)" style="clip-path:url(#clipPath27); fill:black; stroke:none;" xml:space="preserve">AbstractEncoding</text>
          <text x="0" y="11" transform="translate(322,119)" style="clip-path:url(#clipPath28); fill:black; font-style:italic; stroke:none;" xml:space="preserve">EncodingWrapperInterface</text>
          <text x="5" y="11" transform="translate(342,139)" style="clip-path:url(#clipPath29); fill:black; stroke:none; font-weight:bold;" xml:space="preserve">AbstractEncoder</text>
        </g>
      </g>
    </a>
    <a onclick="onClick(evt, &apos;../../../../../../../../../nexd/de/xplib/nexd/engine/http/soap/xsd/ResourceType.html&apos;)">
      <g>
        <defs id="defs14">
          <clipPath clipPathUnits="userSpaceOnUse" id="clipPath30">
            <path d="M286 10 L388 10 L388 38 L286 38 L286 10 Z" />
          </clipPath>
          <clipPath clipPathUnits="userSpaceOnUse" id="clipPath31">
            <path d="M0 0 L100 0 L100 17 L0 17 L0 0 Z" />
          </clipPath>
        </defs>
        <g style="fill:white; font-size:11; stroke:white;" transform="translate(5,5)">
          <rect x="286" y="10" width="102" style="clip-path:url(#clipPath30); stroke:none;" height="28" />
          <rect x="286" y="10" width="101" style="clip-path:url(#clipPath30); fill:none; stroke:black;" height="27" />
          <text x="5" y="11" transform="translate(287,17)" style="clip-path:url(#clipPath31); fill:black; stroke:none; font-weight:bold;" xml:space="preserve">ResourceType</text>
        </g>
      </g>
    </a>
    <g style="font-size:11;" transform="translate(5,5)">
      <path d="M341 38 L341 98" style="fill:none; clip-path:url(#clipPath32);" />
      <polygon style="fill:white; clip-path:url(#clipPath33); stroke:none;" points=" 341 97 333 81 349 81" />
      <polygon style="fill:none; clip-path:url(#clipPath33);" points=" 341 97 333 81 349 81" />
      <path d="M341 230 L341 160" style="fill:none; clip-path:url(#clipPath34);" />
      <polygon style="fill:white; clip-path:url(#clipPath35); stroke:none;" points=" 341 160 349 176 333 176" />
      <polygon style="fill:none; clip-path:url(#clipPath35);" points=" 341 160 349 176 333 176" />
      <path d="M445 230 L445 160" style="fill:none; clip-path:url(#clipPath36);" />
      <polygon style="fill:white; clip-path:url(#clipPath37); stroke:none;" points=" 445 160 453 176 437 176" />
      <polygon style="fill:none; clip-path:url(#clipPath37);" points=" 445 160 453 176 437 176" />
      <path d="M691 328 L691 258" style="fill:none; clip-path:url(#clipPath38);" />
      <polygon style="fill:white; clip-path:url(#clipPath39); stroke:none;" points=" 691 258 699 274 683 274" />
      <polygon style="fill:none; clip-path:url(#clipPath39);" points=" 691 258 699 274 683 274" />
      <path d="M896 129 L816 129" style="fill:none; clip-path:url(#clipPath40);" />
      <polygon style="fill:white; clip-path:url(#clipPath41); stroke:none;" points=" 816 129 832 121 832 137" />
      <polygon style="fill:none; clip-path:url(#clipPath41);" points=" 816 129 832 121 832 137" />
      <path d="M238 129 L318 129" style="fill:none; clip-path:url(#clipPath42);" />
      <polygon style="fill:white; clip-path:url(#clipPath43); stroke:none;" points=" 317 129 301 137 301 121" />
      <polygon style="fill:none; clip-path:url(#clipPath43);" points=" 317 129 301 137 301 121" />
      <path d="M792 328 L792 258" style="fill:none; clip-path:url(#clipPath44);" />
      <polygon style="fill:white; clip-path:url(#clipPath45); stroke:none;" points=" 792 258 800 274 784 274" />
      <polygon style="fill:none; clip-path:url(#clipPath45);" points=" 792 258 800 274 784 274" />
      <path d="M158 244 L238 244" style="fill:none; clip-path:url(#clipPath46);" />
      <polygon style="fill:white; clip-path:url(#clipPath47); stroke:none;" points=" 237 244 221 252 221 236" />
      <polygon style="fill:none; clip-path:url(#clipPath47);" points=" 237 244 221 252 221 236" />
      <path d="M743 143 L743 230" style="fill:none; clip-path:url(#clipPath48);" />
      <polygon style="fill:white; clip-path:url(#clipPath49); stroke:none;" points=" 743 229 735 213 751 213" />
      <polygon style="fill:none; clip-path:url(#clipPath49);" points=" 743 229 735 213 751 213" />
      <path d="M652 244 L563 244" style="fill:none; clip-path:url(#clipPath50);" />
      <polygon style="fill:white; clip-path:url(#clipPath51); stroke:none;" points=" 563 244 579 236 579 252" />
      <polygon style="fill:none; clip-path:url(#clipPath51);" points=" 563 244 579 236 579 252" />
      <path d="M444 38 L444 98" style="fill:none; clip-path:url(#clipPath52);" />
      <polygon style="fill:white; clip-path:url(#clipPath53); stroke:none;" points=" 444 97 436 81 452 81" />
      <polygon style="fill:none; clip-path:url(#clipPath53);" points=" 444 97 436 81 452 81" />
    </g>
    <g>
      <script lang="text/ecmascript">
        <![CDATA[
    function onClick(evt, href) {
        navigateTo(href);
        evt.stopPropagation();
    }]]>
      </script>
    </g>
  </g>
</svg>
